<svg version="1.2" xmlns="http://www.w3.org/2000/svg" viewBox="0 0 1467 667" width="1467" height="667"><defs><clipPath clipPathUnits="userSpaceOnUse" id="cp1"><path d="m0 23.89c0-13.19 10.7-23.89 23.89-23.89h1418.45c13.19 0 23.89 10.7 23.89 23.89v618.59c0 13.19-10.7 23.89-23.89 23.89h-1418.45c-13.19 0-23.89-10.7-23.89-23.89z"/></clipPath></defs><style>.a{fill:#ffd7df}.b{fill:#fff}</style><path class="a" d="m0 38c0-21 17-38 38-38h1390.3c20.9 0 37.9 17 37.9 38v590.4c0 21-17 38-37.9 38h-1390.3c-21 0-38-17-38-38z"/><g clip-path="url(#cp1)"><g style="opacity:.4"><path class="b" d="m1020.4 167.1l276.4-166.3h-552.8l276.4 166.3z"/></g></g></svg>