<svg width="718" height="133" viewBox="0 0 718 133" fill="none" xmlns="http://www.w3.org/2000/svg">
<g clip-path="url(#clip0_791_191)">
<path d="M717.45 0H0V132.77H717.45V0Z" fill="#D9202E"/>
<path d="M171.759 35.4136H174.597L181.27 51.7133H181.5L188.173 35.4136H191.012V55.05H188.787V40.131H188.595L182.459 55.05H180.311L174.175 40.131H173.983V55.05H171.759V35.4136ZM201.647 55.3568C200.228 55.3568 199.004 55.0436 197.975 54.4172C196.952 53.7844 196.163 52.9023 195.607 51.7709C195.057 50.6331 194.782 49.3099 194.782 47.8014C194.782 46.2929 195.057 44.9633 195.607 43.8128C196.163 42.6558 196.936 41.7545 197.927 41.1089C198.924 40.4569 200.087 40.131 201.417 40.131C202.184 40.131 202.941 40.2588 203.689 40.5145C204.437 40.7702 205.118 41.1856 205.732 41.7609C206.345 42.3298 206.834 43.0841 207.199 44.0237C207.563 44.9633 207.745 46.1203 207.745 47.4946V48.4534H196.393V46.4974H205.444C205.444 45.6665 205.278 44.925 204.945 44.273C204.619 43.621 204.153 43.1065 203.546 42.7293C202.945 42.3522 202.235 42.1636 201.417 42.1636C200.516 42.1636 199.736 42.3873 199.078 42.8348C198.426 43.2758 197.924 43.8511 197.572 44.5606C197.221 45.2702 197.045 46.0308 197.045 46.8426V48.1466C197.045 49.2588 197.237 50.2016 197.62 50.9751C198.01 51.7421 198.55 52.327 199.241 52.7297C199.931 53.126 200.733 53.3241 201.647 53.3241C202.242 53.3241 202.778 53.241 203.258 53.0748C203.744 52.9023 204.162 52.6466 204.514 52.3078C204.866 51.9626 205.137 51.5344 205.329 51.023L207.515 51.6366C207.285 52.3781 206.898 53.0301 206.355 53.5926C205.812 54.1487 205.14 54.5834 204.341 54.8966C203.542 55.2034 202.644 55.3568 201.647 55.3568ZM211.187 55.05V40.3227H213.373V42.6239H213.565C213.872 41.8376 214.367 41.2272 215.051 40.7925C215.735 40.3515 216.557 40.131 217.515 40.131C218.487 40.131 219.296 40.3515 219.941 40.7925C220.593 41.2272 221.101 41.8376 221.466 42.6239H221.619C221.996 41.8632 222.562 41.2591 223.316 40.8117C224.07 40.3579 224.975 40.131 226.03 40.131C227.346 40.131 228.423 40.5432 229.261 41.3678C230.098 42.186 230.517 43.4612 230.517 45.1935V55.05H228.254V45.1935C228.254 44.1068 227.957 43.3302 227.362 42.8636C226.768 42.3969 226.068 42.1636 225.263 42.1636C224.227 42.1636 223.425 42.4768 222.856 43.1033C222.287 43.7233 222.003 44.5095 222.003 45.4619V55.05H219.701V44.9633C219.701 44.126 219.43 43.4516 218.886 42.9403C218.343 42.4225 217.643 42.1636 216.787 42.1636C216.199 42.1636 215.649 42.3202 215.138 42.6334C214.633 42.9466 214.223 43.3813 213.91 43.9374C213.603 44.4871 213.45 45.1231 213.45 45.8454V55.05H211.187ZM234.654 55.05V40.3227H236.917V55.05H234.654ZM235.805 37.8682C235.364 37.8682 234.983 37.718 234.664 37.4175C234.35 37.1171 234.194 36.756 234.194 36.3341C234.194 35.9122 234.35 35.5511 234.664 35.2506C234.983 34.9502 235.364 34.8 235.805 34.8C236.246 34.8 236.623 34.9502 236.936 35.2506C237.256 35.5511 237.415 35.9122 237.415 36.3341C237.415 36.756 237.256 37.1171 236.936 37.4175C236.623 37.718 236.246 37.8682 235.805 37.8682ZM243.324 35.4136V55.05H241.061V35.4136H243.324ZM247.468 55.05V40.3227H249.731V55.05H247.468ZM248.619 37.8682C248.178 37.8682 247.798 37.718 247.478 37.4175C247.165 37.1171 247.008 36.756 247.008 36.3341C247.008 35.9122 247.165 35.5511 247.478 35.2506C247.798 34.9502 248.178 34.8 248.619 34.8C249.06 34.8 249.437 34.9502 249.75 35.2506C250.07 35.5511 250.23 35.9122 250.23 36.3341C250.23 36.756 250.07 37.1171 249.75 37.4175C249.437 37.718 249.06 37.8682 248.619 37.8682ZM255.985 49.6807L255.947 46.881H256.407L262.85 40.3227H265.65L258.785 47.2645H258.593L255.985 49.6807ZM253.876 55.05V35.4136H256.138V55.05H253.876ZM263.234 55.05L257.481 47.7631L259.092 46.1906L266.11 55.05H263.234ZM268.562 55.05V40.3227H270.825V55.05H268.562ZM269.713 37.8682C269.272 37.8682 268.891 37.718 268.572 37.4175C268.259 37.1171 268.102 36.756 268.102 36.3341C268.102 35.9122 268.259 35.5511 268.572 35.2506C268.891 34.9502 269.272 34.8 269.713 34.8C270.154 34.8 270.531 34.9502 270.844 35.2506C271.164 35.5511 271.324 35.9122 271.324 36.3341C271.324 36.756 271.164 37.1171 270.844 37.4175C270.531 37.718 270.154 37.8682 269.713 37.8682ZM284.826 35.4136V55.05H282.563V35.4136H284.826ZM288.97 55.05V40.3227H291.233V55.05H288.97ZM290.121 37.8682C289.68 37.8682 289.3 37.718 288.98 37.4175C288.667 37.1171 288.51 36.756 288.51 36.3341C288.51 35.9122 288.667 35.5511 288.98 35.2506C289.3 34.9502 289.68 34.8 290.121 34.8C290.562 34.8 290.939 34.9502 291.252 35.2506C291.572 35.5511 291.732 35.9122 291.732 36.3341C291.732 36.756 291.572 37.1171 291.252 37.4175C290.939 37.718 290.562 37.8682 290.121 37.8682ZM305.809 43.621L303.777 44.1963C303.649 43.8575 303.46 43.5283 303.211 43.2087C302.968 42.8827 302.636 42.6143 302.214 42.4033C301.792 42.1924 301.252 42.0869 300.594 42.0869C299.692 42.0869 298.941 42.2947 298.34 42.7101C297.746 43.1192 297.449 43.6402 297.449 44.273C297.449 44.8355 297.653 45.2797 298.062 45.6057C298.471 45.9317 299.111 46.2034 299.98 46.4207L302.166 46.9577C303.483 47.2773 304.464 47.7663 305.11 48.4246C305.755 49.0766 306.078 49.9172 306.078 50.9463C306.078 51.79 305.835 52.5443 305.349 53.2091C304.87 53.8739 304.199 54.398 303.336 54.7815C302.473 55.165 301.469 55.3568 300.325 55.3568C298.823 55.3568 297.58 55.0308 296.595 54.3788C295.611 53.7268 294.988 52.7744 294.726 51.5216L296.873 50.9846C297.078 51.7773 297.465 52.3717 298.034 52.768C298.609 53.1643 299.36 53.3625 300.287 53.3625C301.341 53.3625 302.179 53.1388 302.799 52.6913C303.425 52.2375 303.738 51.6942 303.738 51.0614C303.738 50.55 303.559 50.1217 303.202 49.7766C302.844 49.425 302.294 49.1629 301.552 48.9903L299.098 48.415C297.749 48.0954 296.758 47.6001 296.126 46.9289C295.499 46.2513 295.186 45.4044 295.186 44.3881C295.186 43.5571 295.419 42.822 295.886 42.1828C296.359 41.5436 297.001 41.0418 297.813 40.6775C298.631 40.3131 299.558 40.131 300.594 40.131C302.051 40.131 303.195 40.4506 304.026 41.0898C304.863 41.729 305.458 42.5727 305.809 43.621ZM315.659 55.3568C314.24 55.3568 313.016 55.0436 311.987 54.4172C310.964 53.7844 310.174 52.9023 309.618 51.7709C309.069 50.6331 308.794 49.3099 308.794 47.8014C308.794 46.2929 309.069 44.9633 309.618 43.8128C310.174 42.6558 310.948 41.7545 311.939 41.1089C312.936 40.4569 314.099 40.131 315.429 40.131C316.196 40.131 316.953 40.2588 317.701 40.5145C318.449 40.7702 319.13 41.1856 319.743 41.7609C320.357 42.3298 320.846 43.0841 321.21 44.0237C321.575 44.9633 321.757 46.1203 321.757 47.4946V48.4534H310.405V46.4974H319.456C319.456 45.6665 319.29 44.925 318.957 44.273C318.631 43.621 318.165 43.1065 317.557 42.7293C316.956 42.3522 316.247 42.1636 315.429 42.1636C314.527 42.1636 313.748 42.3873 313.089 42.8348C312.437 43.2758 311.935 43.8511 311.584 44.5606C311.232 45.2702 311.057 46.0308 311.057 46.8426V48.1466C311.057 49.2588 311.248 50.2016 311.632 50.9751C312.022 51.7421 312.562 52.327 313.252 52.7297C313.943 53.126 314.745 53.3241 315.659 53.3241C316.253 53.3241 316.79 53.241 317.27 53.0748C317.755 52.9023 318.174 52.6466 318.526 52.3078C318.877 51.9626 319.149 51.5344 319.341 51.023L321.527 51.6366C321.297 52.3781 320.91 53.0301 320.367 53.5926C319.823 54.1487 319.152 54.5834 318.353 54.8966C317.554 55.2034 316.656 55.3568 315.659 55.3568ZM327.462 46.1906V55.05H325.199V40.3227H327.385V42.6239H327.577C327.922 41.876 328.446 41.2751 329.149 40.8213C329.852 40.3611 330.76 40.131 331.872 40.131C332.869 40.131 333.742 40.3355 334.49 40.7446C335.238 41.1473 335.819 41.7609 336.235 42.5855C336.65 43.4037 336.858 44.4392 336.858 45.692V55.05H334.595V45.8454C334.595 44.6885 334.295 43.7872 333.694 43.1416C333.093 42.4896 332.269 42.1636 331.22 42.1636C330.498 42.1636 329.852 42.3202 329.283 42.6334C328.721 42.9466 328.277 43.4037 327.951 44.0045C327.625 44.6054 327.462 45.3341 327.462 46.1906ZM351.425 43.621L349.392 44.1963C349.264 43.8575 349.076 43.5283 348.826 43.2087C348.583 42.8827 348.251 42.6143 347.829 42.4033C347.407 42.1924 346.867 42.0869 346.209 42.0869C345.308 42.0869 344.556 42.2947 343.956 42.7101C343.361 43.1192 343.064 43.6402 343.064 44.273C343.064 44.8355 343.268 45.2797 343.678 45.6057C344.087 45.9317 344.726 46.2034 345.595 46.4207L347.781 46.9577C349.098 47.2773 350.079 47.7663 350.725 48.4246C351.37 49.0766 351.693 49.9172 351.693 50.9463C351.693 51.79 351.45 52.5443 350.964 53.2091C350.485 53.8739 349.814 54.398 348.951 54.7815C348.088 55.165 347.085 55.3568 345.94 55.3568C344.438 55.3568 343.195 55.0308 342.211 54.3788C341.226 53.7268 340.603 52.7744 340.341 51.5216L342.489 50.9846C342.693 51.7773 343.08 52.3717 343.649 52.768C344.224 53.1643 344.975 53.3625 345.902 53.3625C346.957 53.3625 347.794 53.1388 348.414 52.6913C349.04 52.2375 349.354 51.6942 349.354 51.0614C349.354 50.55 349.175 50.1217 348.817 49.7766C348.459 49.425 347.909 49.1629 347.168 48.9903L344.713 48.415C343.364 48.0954 342.374 47.6001 341.741 46.9289C341.114 46.2513 340.801 45.4044 340.801 44.3881C340.801 43.5571 341.034 42.822 341.501 42.1828C341.974 41.5436 342.616 41.0418 343.428 40.6775C344.246 40.3131 345.173 40.131 346.209 40.131C347.666 40.131 348.81 40.4506 349.641 41.0898C350.479 41.729 351.073 42.5727 351.425 43.621ZM355.099 55.05V40.3227H357.362V55.05H355.099ZM356.25 37.8682C355.809 37.8682 355.429 37.718 355.109 37.4175C354.796 37.1171 354.639 36.756 354.639 36.3341C354.639 35.9122 354.796 35.5511 355.109 35.2506C355.429 34.9502 355.809 34.8 356.25 34.8C356.691 34.8 357.068 34.9502 357.381 35.2506C357.701 35.5511 357.861 35.9122 357.861 36.3341C357.861 36.756 357.701 37.1171 357.381 37.4175C357.068 37.718 356.691 37.8682 356.25 37.8682ZM369.407 55.05V35.4136H376.272C377.64 35.4136 378.768 35.6501 379.657 36.1231C380.545 36.5898 381.207 37.2194 381.642 38.012C382.076 38.7982 382.294 39.6707 382.294 40.6295C382.294 41.4733 382.143 42.17 381.843 42.7197C381.549 43.2694 381.159 43.7041 380.673 44.0237C380.194 44.3433 379.673 44.5798 379.11 44.7332V44.925C379.711 44.9633 380.315 45.1743 380.922 45.5578C381.53 45.9413 382.038 46.491 382.447 47.2069C382.856 47.9229 383.061 48.7986 383.061 49.8341C383.061 50.8185 382.837 51.7038 382.389 52.49C381.942 53.2762 381.236 53.8994 380.27 54.3596C379.305 54.8199 378.049 55.05 376.502 55.05H369.407ZM371.785 52.9406H376.502C378.056 52.9406 379.158 52.6402 379.81 52.0393C380.469 51.4321 380.798 50.697 380.798 49.8341C380.798 49.1693 380.628 48.5557 380.29 47.9932C379.951 47.4243 379.468 46.9704 378.842 46.6317C378.215 46.2865 377.474 46.1139 376.617 46.1139H371.785V52.9406ZM371.785 44.0429H376.195C376.911 44.0429 377.557 43.9023 378.132 43.621C378.714 43.3398 379.174 42.9435 379.513 42.4321C379.858 41.9207 380.031 41.3199 380.031 40.6295C380.031 39.7666 379.73 39.0347 379.129 38.4339C378.529 37.8266 377.576 37.523 376.272 37.523H371.785V44.0429ZM390.995 55.3952C390.061 55.3952 389.214 55.2194 388.454 54.8678C387.693 54.5099 387.089 53.9953 386.642 53.3241C386.194 52.6466 385.971 51.8284 385.971 50.8696C385.971 50.0258 386.137 49.3419 386.469 48.8177C386.801 48.2872 387.246 47.8717 387.802 47.5713C388.358 47.2709 388.972 47.0471 389.643 46.9001C390.32 46.7467 391.001 46.6253 391.685 46.5358C392.58 46.4207 393.305 46.3344 393.862 46.2769C394.424 46.213 394.833 46.1075 395.089 45.9605C395.351 45.8135 395.482 45.5578 395.482 45.1935V45.1167C395.482 44.1707 395.223 43.4356 394.705 42.9115C394.194 42.3873 393.417 42.1253 392.375 42.1253C391.295 42.1253 390.448 42.3618 389.835 42.8348C389.221 43.3078 388.789 43.8128 388.54 44.3497L386.392 43.5827C386.776 42.6878 387.287 41.991 387.926 41.4925C388.572 40.9875 389.275 40.6359 390.036 40.4378C390.803 40.2332 391.557 40.131 392.299 40.131C392.772 40.131 393.315 40.1885 393.929 40.3035C394.549 40.4122 395.146 40.6391 395.722 40.9843C396.303 41.3295 396.786 41.8504 397.169 42.5471C397.553 43.2439 397.745 44.1771 397.745 45.3469V55.05H395.482V53.0557H395.367C395.213 53.3753 394.958 53.7172 394.6 54.0816C394.242 54.4459 393.766 54.756 393.171 55.0116C392.577 55.2673 391.851 55.3952 390.995 55.3952ZM391.34 53.3625C392.235 53.3625 392.989 53.1867 393.603 52.8351C394.223 52.4836 394.689 52.0297 395.002 51.4736C395.322 50.9175 395.482 50.3327 395.482 49.719V47.648C395.386 47.7631 395.175 47.8685 394.849 47.9644C394.529 48.0539 394.159 48.1338 393.737 48.2041C393.321 48.268 392.915 48.3256 392.519 48.3767C392.129 48.4214 391.813 48.4598 391.57 48.4917C390.982 48.5685 390.432 48.6931 389.921 48.8657C389.416 49.0319 389.007 49.2844 388.694 49.6231C388.387 49.9555 388.233 50.4094 388.233 50.9846C388.233 51.7709 388.524 52.3653 389.106 52.768C389.694 53.1643 390.439 53.3625 391.34 53.3625ZM401.875 60.5727V40.3227H404.061V42.6622H404.329C404.495 42.4065 404.726 42.0805 405.02 41.6842C405.32 41.2815 405.748 40.9236 406.304 40.6104C406.867 40.2908 407.628 40.131 408.586 40.131C409.826 40.131 410.919 40.441 411.866 41.061C412.812 41.681 413.55 42.5599 414.08 43.6977C414.611 44.8355 414.876 46.1778 414.876 47.7247C414.876 49.2844 414.611 50.6363 414.08 51.7805C413.55 52.9182 412.815 53.8003 411.875 54.4268C410.935 55.0468 409.852 55.3568 408.625 55.3568C407.679 55.3568 406.921 55.2002 406.352 54.887C405.783 54.5674 405.346 54.2062 405.039 53.8035C404.732 53.3944 404.495 53.0557 404.329 52.7872H404.138V60.5727H401.875ZM404.099 47.6864C404.099 48.7986 404.262 49.7797 404.588 50.6299C404.914 51.4736 405.39 52.1352 406.017 52.6146C406.643 53.0876 407.41 53.3241 408.318 53.3241C409.264 53.3241 410.053 53.0748 410.686 52.5763C411.325 52.0713 411.805 51.3937 412.124 50.5436C412.45 49.6871 412.613 48.7346 412.613 47.6864C412.613 46.6508 412.454 45.7176 412.134 44.8866C411.821 44.0493 411.345 43.3877 410.705 42.9019C410.073 42.4097 409.277 42.1636 408.318 42.1636C407.397 42.1636 406.624 42.3969 405.998 42.8636C405.371 43.3238 404.898 43.9694 404.579 44.8003C404.259 45.6249 404.099 46.5869 404.099 47.6864ZM418.328 60.5727V40.3227H420.514V42.6622H420.782C420.949 42.4065 421.179 42.0805 421.473 41.6842C421.773 41.2815 422.201 40.9236 422.758 40.6104C423.32 40.2908 424.081 40.131 425.04 40.131C426.28 40.131 427.373 40.441 428.319 41.061C429.265 41.681 430.003 42.5599 430.533 43.6977C431.064 44.8355 431.329 46.1778 431.329 47.7247C431.329 49.2844 431.064 50.6363 430.533 51.7805C430.003 52.9182 429.268 53.8003 428.328 54.4268C427.389 55.0468 426.305 55.3568 425.078 55.3568C424.132 55.3568 423.374 55.2002 422.805 54.887C422.237 54.5674 421.799 54.2062 421.492 53.8035C421.185 53.3944 420.949 53.0557 420.782 52.7872H420.591V60.5727H418.328ZM420.552 47.6864C420.552 48.7986 420.715 49.7797 421.041 50.6299C421.367 51.4736 421.843 52.1352 422.47 52.6146C423.096 53.0876 423.863 53.3241 424.771 53.3241C425.717 53.3241 426.506 53.0748 427.139 52.5763C427.778 52.0713 428.258 51.3937 428.578 50.5436C428.903 49.6871 429.066 48.7346 429.066 47.6864C429.066 46.6508 428.907 45.7176 428.587 44.8866C428.274 44.0493 427.798 43.3877 427.158 42.9019C426.526 42.4097 425.73 42.1636 424.771 42.1636C423.851 42.1636 423.077 42.3969 422.451 42.8636C421.824 43.3238 421.351 43.9694 421.032 44.8003C420.712 45.6249 420.552 46.5869 420.552 47.6864ZM440.956 55.3568C439.537 55.3568 438.313 55.0436 437.283 54.4172C436.261 53.7844 435.471 52.9023 434.915 51.7709C434.366 50.6331 434.091 49.3099 434.091 47.8014C434.091 46.2929 434.366 44.9633 434.915 43.8128C435.471 42.6558 436.245 41.7545 437.236 41.1089C438.233 40.4569 439.396 40.131 440.726 40.131C441.493 40.131 442.25 40.2588 442.998 40.5145C443.746 40.7702 444.427 41.1856 445.04 41.7609C445.654 42.3298 446.143 43.0841 446.507 44.0237C446.872 44.9633 447.054 46.1203 447.054 47.4946V48.4534H435.701V46.4974H444.753C444.753 45.6665 444.586 44.925 444.254 44.273C443.928 43.621 443.461 43.1065 442.854 42.7293C442.253 42.3522 441.544 42.1636 440.726 42.1636C439.824 42.1636 439.044 42.3873 438.386 42.8348C437.734 43.2758 437.232 43.8511 436.881 44.5606C436.529 45.2702 436.353 46.0308 436.353 46.8426V48.1466C436.353 49.2588 436.545 50.2016 436.929 50.9751C437.319 51.7421 437.859 52.327 438.549 52.7297C439.239 53.126 440.042 53.3241 440.956 53.3241C441.55 53.3241 442.087 53.241 442.566 53.0748C443.052 52.9023 443.471 52.6466 443.823 52.3078C444.174 51.9626 444.446 51.5344 444.638 51.023L446.824 51.6366C446.593 52.3781 446.207 53.0301 445.663 53.5926C445.12 54.1487 444.449 54.5834 443.65 54.8966C442.851 55.2034 441.953 55.3568 440.956 55.3568ZM450.803 55.05V35.4136H453.065V42.6622H453.257C453.423 42.4065 453.653 42.0805 453.948 41.6842C454.248 41.2815 454.676 40.9236 455.232 40.6104C455.795 40.2908 456.555 40.131 457.514 40.131C458.754 40.131 459.847 40.441 460.793 41.061C461.739 41.681 462.478 42.5599 463.008 43.6977C463.539 44.8355 463.804 46.1778 463.804 47.7247C463.804 49.2844 463.539 50.6363 463.008 51.7805C462.478 52.9182 461.743 53.8003 460.803 54.4268C459.863 55.0468 458.78 55.3568 457.553 55.3568C456.607 55.3568 455.849 55.2002 455.28 54.887C454.711 54.5674 454.274 54.2062 453.967 53.8035C453.66 53.3944 453.423 53.0557 453.257 52.7872H452.989V55.05H450.803ZM453.027 47.6864C453.027 48.7986 453.19 49.7797 453.516 50.6299C453.842 51.4736 454.318 52.1352 454.945 52.6146C455.571 53.0876 456.338 53.3241 457.246 53.3241C458.192 53.3241 458.981 53.0748 459.614 52.5763C460.253 52.0713 460.733 51.3937 461.052 50.5436C461.378 49.6871 461.541 48.7346 461.541 47.6864C461.541 46.6508 461.381 45.7176 461.062 44.8866C460.749 44.0493 460.272 43.3877 459.633 42.9019C459 42.4097 458.205 42.1636 457.246 42.1636C456.325 42.1636 455.552 42.3969 454.926 42.8636C454.299 43.3238 453.826 43.9694 453.506 44.8003C453.187 45.6249 453.027 46.5869 453.027 47.6864ZM473.67 40.3227V42.2403H466.038V40.3227H473.67ZM468.263 36.7943H470.525V50.8312C470.525 51.4704 470.618 51.9498 470.803 52.2694C470.995 52.5827 471.238 52.7936 471.532 52.9023C471.832 53.0045 472.149 53.0557 472.481 53.0557C472.731 53.0557 472.935 53.0429 473.095 53.0173C473.255 52.9854 473.383 52.9598 473.478 52.9406L473.939 54.9733C473.785 55.0308 473.571 55.0883 473.296 55.1459C473.021 55.2098 472.673 55.2417 472.251 55.2417C471.612 55.2417 470.986 55.1043 470.372 54.8295C469.765 54.5546 469.26 54.1359 468.857 53.5734C468.461 53.0109 468.263 52.3014 468.263 51.4449V36.7943ZM477.074 55.05V40.3227H479.337V55.05H477.074ZM478.225 37.8682C477.783 37.8682 477.403 37.718 477.084 37.4175C476.77 37.1171 476.614 36.756 476.614 36.3341C476.614 35.9122 476.77 35.5511 477.084 35.2506C477.403 34.9502 477.783 34.8 478.225 34.8C478.666 34.8 479.043 34.9502 479.356 35.2506C479.676 35.5511 479.835 35.9122 479.835 36.3341C479.835 36.756 479.676 37.1171 479.356 37.4175C479.043 37.718 478.666 37.8682 478.225 37.8682ZM496.636 55.3568C495.409 55.3568 494.325 55.0468 493.386 54.4268C492.446 53.8003 491.711 52.9182 491.18 51.7805C490.65 50.6363 490.385 49.2844 490.385 47.7247C490.385 46.1778 490.65 44.8355 491.18 43.6977C491.711 42.5599 492.449 41.681 493.395 41.061C494.341 40.441 495.434 40.131 496.674 40.131C497.633 40.131 498.391 40.2908 498.947 40.6104C499.509 40.9236 499.938 41.2815 500.232 41.6842C500.532 42.0805 500.765 42.4065 500.931 42.6622H501.123V35.4136H503.386V55.05H501.2V52.7872H500.931C500.765 53.0557 500.529 53.3944 500.222 53.8035C499.915 54.2062 499.477 54.5674 498.908 54.887C498.339 55.2002 497.582 55.3568 496.636 55.3568ZM496.943 53.3241C497.85 53.3241 498.618 53.0876 499.244 52.6146C499.87 52.1352 500.347 51.4736 500.673 50.6299C500.999 49.7797 501.162 48.7986 501.162 47.6864C501.162 46.5869 501.002 45.6249 500.682 44.8003C500.363 43.9694 499.89 43.3238 499.263 42.8636C498.637 42.3969 497.863 42.1636 496.943 42.1636C495.984 42.1636 495.185 42.4097 494.546 42.9019C493.913 43.3877 493.437 44.0493 493.117 44.8866C492.804 45.7176 492.647 46.6508 492.647 47.6864C492.647 48.7346 492.807 49.6871 493.127 50.5436C493.453 51.3937 493.932 52.0713 494.565 52.5763C495.204 53.0748 495.997 53.3241 496.943 53.3241ZM512.178 55.3952C511.245 55.3952 510.398 55.2194 509.637 54.8678C508.877 54.5099 508.273 53.9953 507.825 53.3241C507.378 52.6466 507.154 51.8284 507.154 50.8696C507.154 50.0258 507.32 49.3419 507.653 48.8177C507.985 48.2872 508.429 47.8717 508.985 47.5713C509.542 47.2709 510.155 47.0471 510.826 46.9001C511.504 46.7467 512.185 46.6253 512.869 46.5358C513.763 46.4207 514.489 46.3344 515.045 46.2769C515.608 46.213 516.017 46.1075 516.272 45.9605C516.534 45.8135 516.665 45.5578 516.665 45.1935V45.1167C516.665 44.1707 516.407 43.4356 515.889 42.9115C515.377 42.3873 514.601 42.1253 513.559 42.1253C512.479 42.1253 511.632 42.3618 511.018 42.8348C510.404 43.3078 509.973 43.8128 509.724 44.3497L507.576 43.5827C507.96 42.6878 508.471 41.991 509.11 41.4925C509.756 40.9875 510.459 40.6359 511.219 40.4378C511.987 40.2332 512.741 40.131 513.482 40.131C513.955 40.131 514.499 40.1885 515.112 40.3035C515.732 40.4122 516.33 40.6391 516.905 40.9843C517.487 41.3295 517.969 41.8504 518.353 42.5471C518.737 43.2439 518.928 44.1771 518.928 45.3469V55.05H516.665V53.0557H516.55C516.397 53.3753 516.141 53.7172 515.783 54.0816C515.425 54.4459 514.949 54.756 514.355 55.0116C513.76 55.2673 513.035 55.3952 512.178 55.3952ZM512.523 53.3625C513.418 53.3625 514.173 53.1867 514.786 52.8351C515.406 52.4836 515.873 52.0297 516.186 51.4736C516.506 50.9175 516.665 50.3327 516.665 49.719V47.648C516.57 47.7631 516.359 47.8685 516.033 47.9644C515.713 48.0539 515.342 48.1338 514.92 48.2041C514.505 48.268 514.099 48.3256 513.703 48.3767C513.313 48.4214 512.996 48.4598 512.754 48.4917C512.165 48.5685 511.616 48.6931 511.104 48.8657C510.599 49.0319 510.19 49.2844 509.877 49.6231C509.57 49.9555 509.417 50.4094 509.417 50.9846C509.417 51.7709 509.708 52.3653 510.289 52.768C510.877 53.1643 511.622 53.3625 512.523 53.3625ZM525.321 46.1906V55.05H523.058V40.3227H525.244V42.6239H525.436C525.781 41.876 526.305 41.2751 527.009 40.8213C527.712 40.3611 528.619 40.131 529.732 40.131C530.729 40.131 531.601 40.3355 532.349 40.7446C533.097 41.1473 533.679 41.7609 534.094 42.5855C534.51 43.4037 534.717 44.4392 534.717 45.692V55.05H532.455V45.8454C532.455 44.6885 532.154 43.7872 531.553 43.1416C530.953 42.4896 530.128 42.1636 529.08 42.1636C528.357 42.1636 527.712 42.3202 527.143 42.6334C526.58 42.9466 526.136 43.4037 525.81 44.0045C525.484 44.6054 525.321 45.3341 525.321 46.1906ZM553.273 37.523V35.4136H568V37.523H561.825V55.05H559.447V37.523H553.273ZM569.834 55.05V40.3227H572.02V42.5471H572.173C572.442 41.8185 572.927 41.2272 573.631 40.7734C574.334 40.3195 575.126 40.0926 576.008 40.0926C576.175 40.0926 576.382 40.0958 576.632 40.1022C576.881 40.1086 577.07 40.1182 577.197 40.131V42.4321C577.121 42.4129 576.945 42.3841 576.67 42.3458C576.402 42.3011 576.117 42.2787 575.817 42.2787C575.101 42.2787 574.462 42.4289 573.899 42.7293C573.343 43.0234 572.902 43.4324 572.576 43.9566C572.256 44.4743 572.097 45.0656 572.097 45.7304V55.05H569.834ZM584.213 55.3952C583.28 55.3952 582.433 55.2194 581.673 54.8678C580.912 54.5099 580.308 53.9953 579.86 53.3241C579.413 52.6466 579.189 51.8284 579.189 50.8696C579.189 50.0258 579.355 49.3419 579.688 48.8177C580.02 48.2872 580.464 47.8717 581.021 47.5713C581.577 47.2709 582.19 47.0471 582.862 46.9001C583.539 46.7467 584.22 46.6253 584.904 46.5358C585.799 46.4207 586.524 46.3344 587.08 46.2769C587.643 46.213 588.052 46.1075 588.308 45.9605C588.57 45.8135 588.701 45.5578 588.701 45.1935V45.1167C588.701 44.1707 588.442 43.4356 587.924 42.9115C587.413 42.3873 586.636 42.1253 585.594 42.1253C584.514 42.1253 583.667 42.3618 583.053 42.8348C582.44 43.3078 582.008 43.8128 581.759 44.3497L579.611 43.5827C579.995 42.6878 580.506 41.991 581.145 41.4925C581.791 40.9875 582.494 40.6359 583.255 40.4378C584.022 40.2332 584.776 40.131 585.517 40.131C585.99 40.131 586.534 40.1885 587.147 40.3035C587.767 40.4122 588.365 40.6391 588.94 40.9843C589.522 41.3295 590.005 41.8504 590.388 42.5471C590.772 43.2439 590.963 44.1771 590.963 45.3469V55.05H588.701V53.0557H588.586C588.432 53.3753 588.176 53.7172 587.819 54.0816C587.461 54.4459 586.984 54.756 586.39 55.0116C585.795 55.2673 585.07 55.3952 584.213 55.3952ZM584.559 53.3625C585.453 53.3625 586.208 53.1867 586.821 52.8351C587.441 52.4836 587.908 52.0297 588.221 51.4736C588.541 50.9175 588.701 50.3327 588.701 49.719V47.648C588.605 47.7631 588.394 47.8685 588.068 47.9644C587.748 48.0539 587.377 48.1338 586.956 48.2041C586.54 48.268 586.134 48.3256 585.738 48.3767C585.348 48.4214 585.032 48.4598 584.789 48.4917C584.201 48.5685 583.651 48.6931 583.14 48.8657C582.635 49.0319 582.225 49.2844 581.912 49.6231C581.605 49.9555 581.452 50.4094 581.452 50.9846C581.452 51.7709 581.743 52.3653 582.325 52.768C582.913 53.1643 583.657 53.3625 584.559 53.3625ZM597.356 46.1906V55.05H595.093V40.3227H597.28V42.6239H597.471C597.816 41.876 598.341 41.2751 599.044 40.8213C599.747 40.3611 600.655 40.131 601.767 40.131C602.764 40.131 603.636 40.3355 604.384 40.7446C605.132 41.1473 605.714 41.7609 606.129 42.5855C606.545 43.4037 606.753 44.4392 606.753 45.692V55.05H604.49V45.8454C604.49 44.6885 604.189 43.7872 603.589 43.1416C602.988 42.4896 602.163 42.1636 601.115 42.1636C600.392 42.1636 599.747 42.3202 599.178 42.6334C598.616 42.9466 598.171 43.4037 597.845 44.0045C597.519 44.6054 597.356 45.3341 597.356 46.1906ZM621.319 43.621L619.287 44.1963C619.159 43.8575 618.97 43.5283 618.721 43.2087C618.478 42.8827 618.146 42.6143 617.724 42.4033C617.302 42.1924 616.762 42.0869 616.103 42.0869C615.202 42.0869 614.451 42.2947 613.85 42.7101C613.256 43.1192 612.958 43.6402 612.958 44.273C612.958 44.8355 613.163 45.2797 613.572 45.6057C613.981 45.9317 614.62 46.2034 615.49 46.4207L617.676 46.9577C618.993 47.2773 619.974 47.7663 620.619 48.4246C621.265 49.0766 621.588 49.9172 621.588 50.9463C621.588 51.79 621.345 52.5443 620.859 53.2091C620.38 53.8739 619.708 54.398 618.846 54.7815C617.983 55.165 616.979 55.3568 615.835 55.3568C614.333 55.3568 613.089 55.0308 612.105 54.3788C611.121 53.7268 610.498 52.7744 610.235 51.5216L612.383 50.9846C612.588 51.7773 612.974 52.3717 613.543 52.768C614.119 53.1643 614.87 53.3625 615.797 53.3625C616.851 53.3625 617.689 53.1388 618.309 52.6913C618.935 52.2375 619.248 51.6942 619.248 51.0614C619.248 50.55 619.069 50.1217 618.711 49.7766C618.353 49.425 617.804 49.1629 617.062 48.9903L614.608 48.415C613.259 48.0954 612.268 47.6001 611.635 46.9289C611.009 46.2513 610.696 45.4044 610.696 44.3881C610.696 43.5571 610.929 42.822 611.396 42.1828C611.869 41.5436 612.511 41.0418 613.323 40.6775C614.141 40.3131 615.068 40.131 616.103 40.131C617.561 40.131 618.705 40.4506 619.536 41.0898C620.373 41.729 620.968 42.5727 621.319 43.621ZM629.328 55.3952C628.394 55.3952 627.547 55.2194 626.787 54.8678C626.026 54.5099 625.422 53.9953 624.975 53.3241C624.527 52.6466 624.304 51.8284 624.304 50.8696C624.304 50.0258 624.47 49.3419 624.802 48.8177C625.134 48.2872 625.579 47.8717 626.135 47.5713C626.691 47.2709 627.305 47.0471 627.976 46.9001C628.653 46.7467 629.334 46.6253 630.018 46.5358C630.913 46.4207 631.638 46.3344 632.195 46.2769C632.757 46.213 633.166 46.1075 633.422 45.9605C633.684 45.8135 633.815 45.5578 633.815 45.1935V45.1167C633.815 44.1707 633.556 43.4356 633.038 42.9115C632.527 42.3873 631.75 42.1253 630.708 42.1253C629.628 42.1253 628.781 42.3618 628.168 42.8348C627.554 43.3078 627.122 43.8128 626.873 44.3497L624.725 43.5827C625.109 42.6878 625.62 41.991 626.259 41.4925C626.905 40.9875 627.608 40.6359 628.369 40.4378C629.136 40.2332 629.89 40.131 630.632 40.131C631.105 40.131 631.648 40.1885 632.262 40.3035C632.882 40.4122 633.479 40.6391 634.055 40.9843C634.636 41.3295 635.119 41.8504 635.502 42.5471C635.886 43.2439 636.078 44.1771 636.078 45.3469V55.05H633.815V53.0557H633.7C633.546 53.3753 633.291 53.7172 632.933 54.0816C632.575 54.4459 632.099 54.756 631.504 55.0116C630.91 55.2673 630.184 55.3952 629.328 55.3952ZM629.673 53.3625C630.568 53.3625 631.322 53.1867 631.936 52.8351C632.556 52.4836 633.022 52.0297 633.335 51.4736C633.655 50.9175 633.815 50.3327 633.815 49.719V47.648C633.719 47.7631 633.508 47.8685 633.182 47.9644C632.862 48.0539 632.492 48.1338 632.07 48.2041C631.654 48.268 631.248 48.3256 630.852 48.3767C630.462 48.4214 630.146 48.4598 629.903 48.4917C629.315 48.5685 628.765 48.6931 628.254 48.8657C627.749 49.0319 627.34 49.2844 627.027 49.6231C626.72 49.9555 626.566 50.4094 626.566 50.9846C626.566 51.7709 626.857 52.3653 627.439 52.768C628.027 53.1643 628.772 53.3625 629.673 53.3625ZM642.317 49.6807L642.279 46.881H642.739L649.182 40.3227H651.982L645.117 47.2645H644.925L642.317 49.6807ZM640.208 55.05V35.4136H642.471V55.05H640.208ZM649.566 55.05L643.813 47.7631L645.424 46.1906L652.442 55.05H649.566ZM665.326 43.621L663.293 44.1963C663.166 43.8575 662.977 43.5283 662.728 43.2087C662.485 42.8827 662.152 42.6143 661.731 42.4033C661.309 42.1924 660.769 42.0869 660.11 42.0869C659.209 42.0869 658.458 42.2947 657.857 42.7101C657.263 43.1192 656.965 43.6402 656.965 44.273C656.965 44.8355 657.17 45.2797 657.579 45.6057C657.988 45.9317 658.627 46.2034 659.497 46.4207L661.683 46.9577C662.999 47.2773 663.981 47.7663 664.626 48.4246C665.272 49.0766 665.595 49.9172 665.595 50.9463C665.595 51.79 665.352 52.5443 664.866 53.2091C664.386 53.8739 663.715 54.398 662.852 54.7815C661.989 55.165 660.986 55.3568 659.842 55.3568C658.34 55.3568 657.096 55.0308 656.112 54.3788C655.128 53.7268 654.504 52.7744 654.242 51.5216L656.39 50.9846C656.595 51.7773 656.981 52.3717 657.55 52.768C658.125 53.1643 658.877 53.3625 659.803 53.3625C660.858 53.3625 661.695 53.1388 662.315 52.6913C662.942 52.2375 663.255 51.6942 663.255 51.0614C663.255 50.55 663.076 50.1217 662.718 49.7766C662.36 49.425 661.81 49.1629 661.069 48.9903L658.614 48.415C657.266 48.0954 656.275 47.6001 655.642 46.9289C655.016 46.2513 654.703 45.4044 654.703 44.3881C654.703 43.5571 654.936 42.822 655.402 42.1828C655.875 41.5436 656.518 41.0418 657.33 40.6775C658.148 40.3131 659.075 40.131 660.11 40.131C661.568 40.131 662.712 40.4506 663.543 41.0898C664.38 41.729 664.975 42.5727 665.326 43.621ZM669.001 55.05V40.3227H671.263V55.05H669.001ZM670.151 37.8682C669.71 37.8682 669.33 37.718 669.01 37.4175C668.697 37.1171 668.54 36.756 668.54 36.3341C668.54 35.9122 668.697 35.5511 669.01 35.2506C669.33 34.9502 669.71 34.8 670.151 34.8C670.592 34.8 670.969 34.9502 671.283 35.2506C671.602 35.5511 671.762 35.9122 671.762 36.3341C671.762 36.756 671.602 37.1171 671.283 37.4175C670.969 37.718 670.592 37.8682 670.151 37.8682Z" fill="white"/>
<path d="M177.435 92.4668C176.054 92.4668 174.865 92.1408 173.868 91.4888C172.871 90.8368 172.104 89.9387 171.567 88.7946C171.03 87.6504 170.762 86.3432 170.762 84.873C170.762 83.3773 171.036 82.0573 171.586 80.9132C172.142 79.7626 172.916 78.8645 173.906 78.2189C174.904 77.5669 176.067 77.2409 177.396 77.2409C178.432 77.2409 179.365 77.4327 180.196 77.8162C181.027 78.1997 181.708 78.7367 182.238 79.427C182.769 80.1174 183.098 80.9228 183.226 81.8432H180.963C180.791 81.172 180.407 80.5776 179.813 80.0598C179.225 79.5357 178.432 79.2736 177.435 79.2736C176.553 79.2736 175.779 79.5037 175.115 79.9639C174.456 80.4178 173.942 81.0602 173.571 81.8912C173.206 82.7157 173.024 83.6841 173.024 84.7963C173.024 85.9341 173.203 86.9249 173.561 87.7686C173.926 88.6124 174.437 89.2676 175.095 89.7342C175.76 90.2008 176.54 90.4341 177.435 90.4341C178.023 90.4341 178.557 90.3318 179.036 90.1273C179.515 89.9228 179.921 89.6287 180.254 89.2452C180.586 88.8617 180.823 88.4015 180.963 87.8645H183.226C183.098 88.7338 182.782 89.5169 182.277 90.2136C181.778 90.9039 181.117 91.4537 180.292 91.8627C179.474 92.2654 178.521 92.4668 177.435 92.4668ZM192.709 92.4668C191.29 92.4668 190.066 92.1536 189.036 91.5272C188.014 90.8943 187.224 90.0122 186.668 88.8809C186.118 87.7431 185.844 86.4199 185.844 84.9114C185.844 83.4029 186.118 82.0733 186.668 80.9228C187.224 79.7658 187.998 78.8645 188.988 78.2189C189.986 77.5669 191.149 77.2409 192.479 77.2409C193.246 77.2409 194.003 77.3688 194.751 77.6245C195.499 77.8801 196.18 78.2956 196.793 78.8709C197.407 79.4398 197.896 80.1941 198.26 81.1337C198.624 82.0733 198.807 83.2303 198.807 84.6046V85.5634H187.454V83.6074H196.506C196.506 82.7764 196.339 82.035 196.007 81.383C195.681 80.731 195.214 80.2164 194.607 79.8393C194.006 79.4622 193.297 79.2736 192.479 79.2736C191.577 79.2736 190.797 79.4973 190.139 79.9448C189.487 80.3858 188.985 80.9611 188.634 81.6706C188.282 82.3801 188.106 83.1408 188.106 83.9526V85.2566C188.106 86.3688 188.298 87.3116 188.682 88.085C189.072 88.8521 189.612 89.437 190.302 89.8397C190.992 90.236 191.795 90.4341 192.709 90.4341C193.303 90.4341 193.84 90.351 194.319 90.1848C194.805 90.0122 195.224 89.7566 195.575 89.4178C195.927 89.0726 196.199 88.6443 196.39 88.133L198.577 88.7466C198.346 89.4881 197.96 90.1401 197.416 90.7026C196.873 91.2587 196.202 91.6934 195.403 92.0066C194.604 92.3134 193.706 92.4668 192.709 92.4668ZM202.249 97.6827V77.4327H204.435V79.7722H204.703C204.869 79.5165 205.1 79.1905 205.394 78.7942C205.694 78.3915 206.122 78.0336 206.678 77.7203C207.241 77.4007 208.002 77.2409 208.96 77.2409C210.2 77.2409 211.294 77.551 212.24 78.171C213.186 78.791 213.924 79.6699 214.454 80.8077C214.985 81.9455 215.25 83.2878 215.25 84.8347C215.25 86.3943 214.985 87.7463 214.454 88.8904C213.924 90.0282 213.189 90.9103 212.249 91.5367C211.309 92.1568 210.226 92.4668 208.999 92.4668C208.053 92.4668 207.295 92.3102 206.726 91.997C206.157 91.6774 205.72 91.3162 205.413 90.9135C205.106 90.5044 204.869 90.1657 204.703 89.8972H204.512V97.6827H202.249ZM204.473 84.7963C204.473 85.9086 204.636 86.8897 204.962 87.7399C205.288 88.5836 205.764 89.2452 206.391 89.7246C207.017 90.1976 207.784 90.4341 208.692 90.4341C209.638 90.4341 210.427 90.1848 211.06 89.6863C211.699 89.1813 212.179 88.5037 212.498 87.6536C212.824 86.797 212.987 85.8446 212.987 84.7963C212.987 83.7608 212.828 82.8276 212.508 81.9966C212.195 81.1593 211.719 80.4977 211.079 80.0119C210.447 79.5197 209.651 79.2736 208.692 79.2736C207.771 79.2736 206.998 79.5069 206.372 79.9735C205.745 80.4338 205.272 81.0794 204.953 81.9103C204.633 82.7349 204.473 83.6969 204.473 84.7963ZM223.036 92.5051C222.102 92.5051 221.256 92.3294 220.495 91.9778C219.734 91.6198 219.13 91.1053 218.683 90.4341C218.235 89.7566 218.012 88.9384 218.012 87.9796C218.012 87.1358 218.178 86.4519 218.51 85.9277C218.843 85.3972 219.287 84.9817 219.843 84.6813C220.399 84.3809 221.013 84.1571 221.684 84.0101C222.361 83.8567 223.042 83.7353 223.726 83.6458C224.621 83.5307 225.346 83.4444 225.903 83.3869C226.465 83.323 226.874 83.2175 227.13 83.0705C227.392 82.9235 227.523 82.6678 227.523 82.3034V82.2267C227.523 81.2807 227.264 80.5456 226.746 80.0215C226.235 79.4973 225.458 79.2353 224.416 79.2353C223.336 79.2353 222.489 79.4718 221.876 79.9448C221.262 80.4178 220.83 80.9228 220.581 81.4597L218.433 80.6926C218.817 79.7978 219.328 79.101 219.968 78.6024C220.613 78.0975 221.316 77.7459 222.077 77.5478C222.844 77.3432 223.598 77.2409 224.34 77.2409C224.813 77.2409 225.356 77.2985 225.97 77.4135C226.59 77.5222 227.187 77.7491 227.763 78.0943C228.344 78.4394 228.827 78.9604 229.21 79.6571C229.594 80.3539 229.786 81.2871 229.786 82.4568V92.16H227.523V90.1657H227.408C227.254 90.4853 226.999 90.8272 226.641 91.1916C226.283 91.5559 225.807 91.8659 225.212 92.1216C224.618 92.3773 223.892 92.5051 223.036 92.5051ZM223.381 90.4725C224.276 90.4725 225.03 90.2967 225.644 89.9451C226.264 89.5936 226.73 89.1397 227.044 88.5836C227.363 88.0275 227.523 87.4426 227.523 86.829V84.758C227.427 84.873 227.216 84.9785 226.89 85.0744C226.57 85.1639 226.2 85.2438 225.778 85.3141C225.362 85.378 224.956 85.4355 224.56 85.4867C224.17 85.5314 223.854 85.5698 223.611 85.6017C223.023 85.6784 222.473 85.8031 221.962 85.9757C221.457 86.1419 221.048 86.3943 220.735 86.7331C220.428 87.0655 220.274 87.5193 220.274 88.0946C220.274 88.8809 220.565 89.4753 221.147 89.878C221.735 90.2743 222.48 90.4725 223.381 90.4725ZM240.321 77.4327V79.3503H232.688V77.4327H240.321ZM234.913 73.9043H237.176V87.9412C237.176 88.5804 237.268 89.0598 237.454 89.3794C237.646 89.6926 237.888 89.9036 238.182 90.0122C238.483 90.1145 238.799 90.1657 239.132 90.1657C239.381 90.1657 239.585 90.1529 239.745 90.1273C239.905 90.0953 240.033 90.0698 240.129 90.0506L240.589 92.0833C240.436 92.1408 240.222 92.1983 239.947 92.2559C239.672 92.3198 239.323 92.3517 238.902 92.3517C238.262 92.3517 237.636 92.2143 237.022 91.9394C236.415 91.6646 235.91 91.2459 235.507 90.6834C235.111 90.1209 234.913 89.4114 234.913 88.5549V73.9043ZM256.879 92.4668C255.652 92.4668 254.568 92.1568 253.629 91.5367C252.689 90.9103 251.954 90.0282 251.424 88.8904C250.893 87.7463 250.628 86.3943 250.628 84.8347C250.628 83.2878 250.893 81.9455 251.424 80.8077C251.954 79.6699 252.692 78.791 253.638 78.171C254.584 77.551 255.677 77.2409 256.918 77.2409C257.876 77.2409 258.634 77.4007 259.19 77.7203C259.752 78.0336 260.181 78.3915 260.475 78.7942C260.775 79.1905 261.008 79.5165 261.175 79.7722H261.366V72.5236H263.629V92.16H261.443V89.8972H261.175C261.008 90.1657 260.772 90.5044 260.465 90.9135C260.158 91.3162 259.72 91.6774 259.152 91.997C258.583 92.3102 257.825 92.4668 256.879 92.4668ZM257.186 90.4341C258.094 90.4341 258.861 90.1976 259.487 89.7246C260.114 89.2452 260.59 88.5836 260.916 87.7399C261.242 86.8897 261.405 85.9086 261.405 84.7963C261.405 83.6969 261.245 82.7349 260.925 81.9103C260.606 81.0794 260.133 80.4338 259.506 79.9735C258.88 79.5069 258.106 79.2736 257.186 79.2736C256.227 79.2736 255.428 79.5197 254.789 80.0119C254.156 80.4977 253.68 81.1593 253.36 81.9966C253.047 82.8276 252.891 83.7608 252.891 84.7963C252.891 85.8446 253.05 86.797 253.37 87.6536C253.696 88.5037 254.175 89.1813 254.808 89.6863C255.447 90.1848 256.24 90.4341 257.186 90.4341ZM272.421 92.5051C271.488 92.5051 270.641 92.3294 269.881 91.9778C269.12 91.6198 268.516 91.1053 268.068 90.4341C267.621 89.7566 267.397 88.9384 267.397 87.9796C267.397 87.1358 267.563 86.4519 267.896 85.9277C268.228 85.3972 268.672 84.9817 269.229 84.6813C269.785 84.3809 270.398 84.1571 271.07 84.0101C271.747 83.8567 272.428 83.7353 273.112 83.6458C274.007 83.5307 274.732 83.4444 275.288 83.3869C275.851 83.323 276.26 83.2175 276.516 83.0705C276.778 82.9235 276.909 82.6678 276.909 82.3034V82.2267C276.909 81.2807 276.65 80.5456 276.132 80.0215C275.621 79.4973 274.844 79.2353 273.802 79.2353C272.722 79.2353 271.875 79.4718 271.261 79.9448C270.648 80.4178 270.216 80.9228 269.967 81.4597L267.819 80.6926C268.203 79.7978 268.714 79.101 269.353 78.6024C269.999 78.0975 270.702 77.7459 271.463 77.5478C272.23 77.3432 272.984 77.2409 273.725 77.2409C274.198 77.2409 274.742 77.2985 275.355 77.4135C275.975 77.5222 276.573 77.7491 277.148 78.0943C277.73 78.4394 278.213 78.9604 278.596 79.6571C278.98 80.3539 279.171 81.2871 279.171 82.4568V92.16H276.909V90.1657H276.794C276.64 90.4853 276.384 90.8272 276.027 91.1916C275.669 91.5559 275.192 91.8659 274.598 92.1216C274.003 92.3773 273.278 92.5051 272.421 92.5051ZM272.767 90.4725C273.661 90.4725 274.416 90.2967 275.029 89.9451C275.649 89.5936 276.116 89.1397 276.429 88.5836C276.749 88.0275 276.909 87.4426 276.909 86.829V84.758C276.813 84.873 276.602 84.9785 276.276 85.0744C275.956 85.1639 275.585 85.2438 275.164 85.3141C274.748 85.378 274.342 85.4355 273.946 85.4867C273.556 85.5314 273.24 85.5698 272.997 85.6017C272.409 85.6784 271.859 85.8031 271.348 85.9757C270.843 86.1419 270.434 86.3943 270.12 86.7331C269.813 87.0655 269.66 87.5193 269.66 88.0946C269.66 88.8809 269.951 89.4753 270.533 89.878C271.121 90.2743 271.865 90.4725 272.767 90.4725ZM285.564 83.3006V92.16H283.301V77.4327H285.488V79.7338H285.679C286.025 78.986 286.549 78.3851 287.252 77.9313C287.955 77.4711 288.863 77.2409 289.975 77.2409C290.972 77.2409 291.844 77.4455 292.592 77.8546C293.34 78.2573 293.922 78.8709 294.337 79.6955C294.753 80.5137 294.961 81.5492 294.961 82.802V92.16H292.698V82.9554C292.698 81.7985 292.397 80.8972 291.797 80.2516C291.196 79.5996 290.371 79.2736 289.323 79.2736C288.6 79.2736 287.955 79.4302 287.386 79.7434C286.824 80.0566 286.379 80.5137 286.053 81.1145C285.727 81.7154 285.564 82.4441 285.564 83.3006ZM306.996 92.16V72.5236H318.847V74.633H309.374V81.2679H318.233V83.3773H309.374V90.0506H319V92.16H306.996ZM329.384 77.4327V79.3503H321.445V77.4327H329.384ZM323.823 92.16V75.4C323.823 74.5563 324.021 73.8532 324.418 73.2907C324.814 72.7282 325.328 72.3063 325.961 72.025C326.594 71.7438 327.262 71.6032 327.965 71.6032C328.521 71.6032 328.975 71.6479 329.327 71.7374C329.678 71.8269 329.94 71.91 330.113 71.9867L329.461 73.9426C329.346 73.9043 329.186 73.8564 328.981 73.7988C328.783 73.7413 328.521 73.7125 328.195 73.7125C327.447 73.7125 326.907 73.9011 326.575 74.2782C326.249 74.6554 326.086 75.2083 326.086 75.937V92.16H323.823ZM332.555 92.16V77.4327H334.818V92.16H332.555ZM333.706 74.9782C333.265 74.9782 332.885 74.8279 332.565 74.5275C332.252 74.2271 332.095 73.8659 332.095 73.4441C332.095 73.0222 332.252 72.661 332.565 72.3606C332.885 72.0602 333.265 71.91 333.706 71.91C334.147 71.91 334.524 72.0602 334.837 72.3606C335.157 72.661 335.317 73.0222 335.317 73.4441C335.317 73.8659 335.157 74.2271 334.837 74.5275C334.524 74.8279 334.147 74.9782 333.706 74.9782ZM349.394 80.731L347.362 81.3063C347.234 80.9675 347.045 80.6383 346.796 80.3187C346.553 79.9927 346.221 79.7242 345.799 79.5133C345.377 79.3024 344.837 79.1969 344.179 79.1969C343.277 79.1969 342.526 79.4046 341.925 79.8201C341.331 80.2292 341.034 80.7502 341.034 81.383C341.034 81.9455 341.238 82.3897 341.647 82.7157C342.056 83.0417 342.696 83.3134 343.565 83.5307L345.751 84.0676C347.068 84.3872 348.049 84.8762 348.695 85.5346C349.34 86.1866 349.663 87.0272 349.663 88.0563C349.663 88.9 349.42 89.6543 348.934 90.3191C348.455 90.9838 347.784 91.508 346.921 91.8915C346.058 92.275 345.054 92.4668 343.91 92.4668C342.408 92.4668 341.165 92.1408 340.18 91.4888C339.196 90.8368 338.573 89.8844 338.311 88.6316L340.458 88.0946C340.663 88.8872 341.05 89.4817 341.619 89.878C342.194 90.2743 342.945 90.4725 343.872 90.4725C344.926 90.4725 345.764 90.2488 346.384 89.8013C347.01 89.3475 347.323 88.8041 347.323 88.1713C347.323 87.66 347.144 87.2317 346.786 86.8865C346.429 86.535 345.879 86.2729 345.137 86.1003L342.683 85.525C341.334 85.2054 340.343 84.71 339.71 84.0389C339.084 83.3613 338.771 82.5144 338.771 81.498C338.771 80.6671 339.004 79.932 339.471 79.2928C339.944 78.6536 340.586 78.1518 341.398 77.7875C342.216 77.4231 343.143 77.2409 344.179 77.2409C345.636 77.2409 346.78 77.5605 347.611 78.1997C348.448 78.8389 349.043 79.6827 349.394 80.731ZM353.069 92.16V77.4327H355.332V92.16H353.069ZM354.22 74.9782C353.779 74.9782 353.398 74.8279 353.079 74.5275C352.765 74.2271 352.609 73.8659 352.609 73.4441C352.609 73.0222 352.765 72.661 353.079 72.3606C353.398 72.0602 353.779 71.91 354.22 71.91C354.661 71.91 355.038 72.0602 355.351 72.3606C355.671 72.661 355.83 73.0222 355.83 73.4441C355.83 73.8659 355.671 74.2271 355.351 74.5275C355.038 74.8279 354.661 74.9782 354.22 74.9782ZM365.651 92.4668C364.232 92.4668 363.008 92.1536 361.979 91.5272C360.956 90.8943 360.167 90.0122 359.611 88.8809C359.061 87.7431 358.786 86.4199 358.786 84.9114C358.786 83.4029 359.061 82.0733 359.611 80.9228C360.167 79.7658 360.94 78.8645 361.931 78.2189C362.928 77.5669 364.091 77.2409 365.421 77.2409C366.188 77.2409 366.945 77.3688 367.693 77.6245C368.441 77.8801 369.122 78.2956 369.736 78.8709C370.349 79.4398 370.838 80.1941 371.203 81.1337C371.567 82.0733 371.749 83.2303 371.749 84.6046V85.5634H360.397V83.6074H369.448C369.448 82.7764 369.282 82.035 368.949 81.383C368.623 80.731 368.157 80.2164 367.549 79.8393C366.949 79.4622 366.239 79.2736 365.421 79.2736C364.52 79.2736 363.74 79.4973 363.081 79.9448C362.429 80.3858 361.928 80.9611 361.576 81.6706C361.225 82.3801 361.049 83.1408 361.049 83.9526V85.2566C361.049 86.3688 361.241 87.3116 361.624 88.085C362.014 88.8521 362.554 89.437 363.244 89.8397C363.935 90.236 364.737 90.4341 365.651 90.4341C366.245 90.4341 366.782 90.351 367.262 90.1848C367.748 90.0122 368.166 89.7566 368.518 89.4178C368.869 89.0726 369.141 88.6443 369.333 88.133L371.519 88.7466C371.289 89.4881 370.902 90.1401 370.359 90.7026C369.815 91.2587 369.144 91.6934 368.345 92.0066C367.546 92.3134 366.648 92.4668 365.651 92.4668ZM377.454 83.3006V92.16H375.191V77.4327H377.377V79.7338H377.569C377.914 78.986 378.438 78.3851 379.141 77.9313C379.845 77.4711 380.752 77.2409 381.864 77.2409C382.862 77.2409 383.734 77.4455 384.482 77.8546C385.23 78.2573 385.812 78.8709 386.227 79.6955C386.642 80.5137 386.85 81.5492 386.85 82.802V92.16H384.587V82.9554C384.587 81.7985 384.287 80.8972 383.686 80.2516C383.085 79.5996 382.261 79.2736 381.212 79.2736C380.49 79.2736 379.845 79.4302 379.276 79.7434C378.713 80.0566 378.269 80.5137 377.943 81.1145C377.617 81.7154 377.454 82.4441 377.454 83.3006Z" fill="white"/>
<path d="M64.3735 83.4417C60.9042 83.4417 57.9265 82.5638 55.4403 80.8081C52.9682 79.0383 51.065 76.4889 49.7307 73.1601C48.4103 69.8171 47.7502 65.793 47.7502 61.0876C47.7642 56.3822 48.4314 52.3791 49.7517 49.0783C51.0861 45.7635 52.9893 43.2352 55.4614 41.4935C57.9475 39.7518 60.9182 38.881 64.3735 38.881C67.8288 38.881 70.7995 39.7518 73.2857 41.4935C75.7718 43.2352 77.675 45.7635 78.9953 49.0783C80.3297 52.3932 80.9969 56.3962 80.9969 61.0876C80.9969 65.807 80.3297 69.8382 78.9953 73.1811C77.675 76.51 75.7718 79.0523 73.2857 80.8081C70.8136 82.5638 67.8429 83.4417 64.3735 83.4417ZM64.3735 76.8471C67.0704 76.8471 69.1983 75.5198 70.7574 72.8651C72.3306 70.1964 73.1171 66.2705 73.1171 61.0876C73.1171 57.6604 72.759 54.781 72.0426 52.4493C71.3263 50.1177 70.315 48.362 69.0087 47.1821C67.7024 45.9882 66.1574 45.3913 64.3735 45.3913C61.6908 45.3913 59.5698 46.7256 58.0107 49.3943C56.4516 52.049 55.6651 55.9468 55.651 61.0876C55.637 64.5288 55.9811 67.4223 56.6834 69.768C57.3997 72.1136 58.411 73.8834 59.7173 75.0773C61.0236 76.2572 62.5757 76.8471 64.3735 76.8471ZM87.997 82.62V76.9735L102.977 62.2885C104.41 60.8418 105.604 59.5566 106.559 58.4329C107.514 57.3092 108.23 56.2207 108.708 55.1672C109.185 54.1138 109.424 52.9901 109.424 51.7962C109.424 50.4337 109.115 49.2679 108.497 48.2988C107.879 47.3156 107.029 46.5571 105.948 46.0233C104.866 45.4896 103.637 45.2227 102.261 45.2227C100.842 45.2227 99.599 45.5177 98.5315 46.1076C97.464 46.6835 96.6353 47.5052 96.0453 48.5727C95.4695 49.6402 95.1815 50.9113 95.1815 52.3861H87.7442C87.7442 49.6472 88.3692 47.2664 89.6193 45.2438C90.8694 43.2212 92.59 41.655 94.7812 40.5454C96.9864 39.4358 99.5147 38.881 102.366 38.881C105.259 38.881 107.802 39.4217 109.993 40.5033C112.184 41.5848 113.884 43.0667 115.092 44.9488C116.314 46.831 116.925 48.98 116.925 51.3959C116.925 53.0112 116.616 54.5984 115.998 56.1575C115.38 57.7166 114.291 59.4442 112.732 61.3404C111.187 63.2366 109.017 65.5331 106.222 68.2299L98.7843 75.7937V76.0886H117.578V82.62H87.997Z" fill="white"/>
</g>
<defs>
<clipPath id="clip0_791_191">
<rect width="717.45" height="132.77" fill="white"/>
</clipPath>
</defs>
</svg>
