<svg id="Layer_1" data-name="Layer 1" xmlns="http://www.w3.org/2000/svg" viewBox="0 0 683.67 683.09"><defs><style>.cls-1{fill:#262626;}.cls-2{fill:#9747ff;}.cls-3{fill:#fff;}.cls-4{fill:#d9202e;}</style></defs><path class="cls-1" d="M342,.06c49.92-1,97.54,9.73,142.46,30.79C572.34,72.07,632.59,138.91,665.3,230.37c2,5.69,3.24,11.69,4.84,17.54L539.47,285.08c-1.08-2.64-2.31-5.24-3.23-7.93q-25.68-74.92-94.43-114.27C410.78,145.09,377,138,341.76,136Q341.87,68,342,.06Z"/><path class="cls-2" d="M539.46,285.08l130.68-37.17c7.4,20.27,10.66,41.5,12.31,62.76,3.56,45.58-.45,90.48-14.74,134.27-14.07,43.12-35.19,82.23-64.58,116.8-7.82,9.2-15,19.12-25.52,25.67-2.38-2.1-4.94-4-7.12-6.31q-43.44-45.55-86.79-91.18,5.06-5.75,10.11-11.49c32.59-36.76,50.35-79.45,52.38-128.71C547.09,327.77,544,306.39,539.46,285.08Z"/><path class="cls-3" d="M264.28,673.76C218,664.24,176.63,644,138.8,616.27,92.75,582.48,57.57,539.54,33.06,488.05c-8.35-17.56-16.74-35.29-19.35-54.95,2.41-.82,4.79-1.77,7.24-2.45q61.41-17.1,122.85-34.13c3.32,4.5,4,10,5.93,15.1C166,455,193.17,489.4,232.44,514.34c19.4,12.32,40.61,20.09,62.2,27.18-.77,3.74-1.45,7.51-2.31,11.23Q278.32,613.26,264.28,673.76Z"/><path class="cls-4" d="M342,.06q-.1,68-.2,135.93c-9.54.79-19.17,1-28.6,2.47-60.34,9.41-107.75,39.45-142.36,89.73-1.71,2.48-2.58,6.1-6.48,6.52-4.79-2.5-9.71-4.79-14.35-7.54Q99.18,197.11,48.49,166.9,150.45,4.81,342,.06Z"/><path class="cls-2" d="M264.28,673.76q14-60.51,28.05-121c.86-3.72,1.54-7.49,2.31-11.23a34.94,34.94,0,0,1,5.62.27C340,550,378.62,546.42,416.42,532c25.23-9.61,46.94-24.73,67.28-42.1q43.38,45.6,86.79,91.18c2.18,2.28,4.74,4.21,7.12,6.31-4,7.72-11.31,12.11-17.71,17.23q-129.47,103.5-292.07,70.55A20.28,20.28,0,0,1,264.28,673.76Z"/><path class="cls-4" d="M48.49,166.9Q99.22,197.05,150,227.17c4.64,2.75,9.56,5,14.35,7.54,2.07,3.6-.81,6-2.23,8.68a207.11,207.11,0,0,0-24.88,105.84c.47,16,4.28,31.54,6.59,47.29Q82.37,413.58,21,430.65c-2.45.68-4.83,1.63-7.24,2.45-7.14-14.25-8.68-30-10.64-45.29-9.88-77.36,4-150.22,43.13-218A26.58,26.58,0,0,1,48.49,166.9Z"/><polygon class="cls-3" points="366.3 308.38 341.96 352.99 317.62 308.38 341.96 263.77 366.3 308.38"/><polygon class="cls-3" points="341.96 422.89 407.65 383.38 276.28 383.38 341.96 422.89"/><polygon class="cls-3" points="341.96 382.9 393.27 352.03 290.66 352.03 341.96 382.9"/></svg>