<svg width="785" height="281" viewBox="0 0 785 281" fill="none" xmlns="http://www.w3.org/2000/svg">
<g clip-path="url(#clip0_791_88)">
<mask id="mask0_791_88" style="mask-type:luminance" maskUnits="userSpaceOnUse" x="40" y="90" width="304" height="191">
<path d="M343.29 90.51H40.0098V280.64H343.29V90.51Z" fill="white"/>
</mask>
<g mask="url(#mask0_791_88)">
<path d="M119.25 322.66C107.318 322.66 97.1268 319.235 88.6752 312.386C80.2789 305.481 73.8159 295.51 69.2863 282.474C64.8119 269.437 62.5747 253.777 62.5747 235.493C62.5747 217.264 64.8119 201.659 69.2863 188.678C73.8159 175.641 80.3065 165.671 88.7581 158.766C97.2649 151.806 107.429 148.325 119.25 148.325C131.071 148.325 141.208 151.806 149.659 158.766C158.166 165.671 164.657 175.641 169.131 188.678C173.661 201.659 175.925 217.264 175.925 235.493C175.925 253.777 173.661 269.437 169.131 282.474C164.657 295.51 158.194 305.481 149.742 312.386C141.346 319.235 131.182 322.66 119.25 322.66ZM119.25 308.74C132.342 308.74 142.561 302.36 149.908 289.6C157.255 276.784 160.928 258.748 160.928 235.493C160.928 220.026 159.243 206.824 155.874 195.886C152.559 184.894 147.781 176.497 141.539 170.697C135.352 164.897 127.923 161.997 119.25 161.997C106.269 161.997 96.0772 168.46 88.6752 181.386C81.2732 194.257 77.5721 212.292 77.5721 235.493C77.5721 250.96 79.2293 264.162 82.5437 275.099C85.9132 286.037 90.6914 294.378 96.8782 300.123C103.12 305.867 110.578 308.74 119.25 308.74ZM262.016 150.646V320.34H246.521V166.886H245.527L205.754 193.318V177.243L245.858 150.646H262.016Z" fill="white"/>
</g>
<path d="M488.176 65.8799V44.0253H495.56C497.275 44.0253 498.676 44.3348 499.765 44.9537C500.86 45.5655 501.671 46.3943 502.198 47.4401C502.724 48.4859 502.987 49.6526 502.987 50.9403C502.987 52.2279 502.724 53.3982 502.198 54.4511C501.678 55.504 500.874 56.3434 499.786 56.9695C498.698 57.5884 497.303 57.8979 495.603 57.8979H490.31V55.5502H495.518C496.691 55.5502 497.634 55.3474 498.345 54.9419C499.057 54.5364 499.573 53.9886 499.893 53.2986C500.22 52.6014 500.384 51.8153 500.384 50.9403C500.384 50.0652 500.22 49.2827 499.893 48.5926C499.573 47.9025 499.053 47.3619 498.335 46.9706C497.616 46.5722 496.663 46.373 495.475 46.373H490.822V65.8799H488.176ZM506.909 65.8799V49.489H509.342V51.9647H509.513C509.812 51.1537 510.352 50.4956 511.135 49.9905C511.917 49.4854 512.799 49.2329 513.781 49.2329C513.966 49.2329 514.197 49.2364 514.475 49.2435C514.752 49.2507 514.962 49.2613 515.104 49.2756V51.8366C515.019 51.8153 514.823 51.7833 514.518 51.7406C514.219 51.6908 513.902 51.6659 513.568 51.6659C512.771 51.6659 512.06 51.8331 511.434 52.1674C510.815 52.4947 510.324 52.95 509.961 53.5333C509.605 54.1096 509.427 54.7676 509.427 55.5075V65.8799H506.909ZM524.463 66.2214C522.884 66.2214 521.521 65.8728 520.376 65.1756C519.238 64.4713 518.359 63.4895 517.74 62.2303C517.128 60.964 516.822 59.4914 516.822 57.8125C516.822 56.1336 517.128 54.6538 517.74 53.3733C518.359 52.0856 519.22 51.0825 520.323 50.364C521.432 49.6384 522.727 49.2756 524.207 49.2756C525.061 49.2756 525.904 49.4178 526.736 49.7024C527.568 49.987 528.326 50.4494 529.009 51.0896C529.692 51.7228 530.236 52.5623 530.642 53.608C531.047 54.6538 531.25 55.9415 531.25 57.471V58.5381H518.615V56.3612H528.689C528.689 55.4364 528.504 54.6111 528.134 53.8855C527.771 53.1599 527.252 52.5872 526.576 52.1674C525.907 51.7477 525.118 51.5378 524.207 51.5378C523.204 51.5378 522.336 51.7868 521.603 52.2848C520.878 52.7757 520.319 53.416 519.928 54.2056C519.537 54.9953 519.341 55.8419 519.341 56.7454V58.1966C519.341 59.4345 519.554 60.4838 519.981 61.3446C520.415 62.1983 521.016 62.8493 521.785 63.2975C522.553 63.7385 523.446 63.9591 524.463 63.9591C525.125 63.9591 525.722 63.8666 526.256 63.6816C526.796 63.4895 527.262 63.205 527.654 62.8279C528.045 62.4438 528.347 61.9671 528.561 61.398L530.994 62.0809C530.738 62.9062 530.307 63.6318 529.703 64.2579C529.098 64.8768 528.351 65.3606 527.462 65.7091C526.572 66.0506 525.573 66.2214 524.463 66.2214ZM544.471 55.3368V57.6844H534.91V55.3368H544.471ZM561.196 49.489C561.068 48.4076 560.548 47.5682 559.638 46.9706C558.727 46.373 557.61 46.0742 556.287 46.0742C555.32 46.0742 554.473 46.2307 553.747 46.5437C553.029 46.8568 552.467 47.2872 552.061 47.8349C551.663 48.3827 551.464 49.0052 551.464 49.7024C551.464 50.2858 551.602 50.7873 551.88 51.207C552.164 51.6196 552.527 51.9647 552.968 52.2421C553.409 52.5125 553.872 52.7366 554.356 52.9144C554.839 53.0852 555.284 53.2239 555.69 53.3306L557.909 53.9282C558.478 54.0776 559.111 54.2839 559.809 54.5471C560.513 54.8103 561.185 55.1696 561.825 55.6249C562.473 56.0731 563.006 56.6493 563.426 57.3536C563.846 58.0579 564.056 58.9223 564.056 59.9467C564.056 61.1277 563.746 62.1948 563.127 63.1481C562.516 64.1014 561.619 64.859 560.438 65.421C559.264 65.983 557.838 66.264 556.159 66.264C554.594 66.264 553.239 66.0115 552.093 65.5064C550.955 65.0013 550.059 64.297 549.404 63.3935C548.757 62.49 548.39 61.4407 548.305 60.2455H551.037C551.108 61.0707 551.385 61.7537 551.869 62.2944C552.36 62.8279 552.979 63.2263 553.726 63.4895C554.48 63.7456 555.291 63.8737 556.159 63.8737C557.169 63.8737 558.076 63.7101 558.88 63.3828C559.684 63.0485 560.321 62.586 560.79 61.9956C561.26 61.398 561.495 60.7008 561.495 59.904C561.495 59.1784 561.292 58.5879 560.886 58.1326C560.481 57.6773 559.947 57.3074 559.286 57.0228C558.624 56.7383 557.909 56.4893 557.141 56.2758L554.452 55.5075C552.744 55.0166 551.393 54.3159 550.397 53.4053C549.401 52.4947 548.903 51.3031 548.903 49.8305C548.903 48.6068 549.233 47.5397 549.895 46.6291C550.564 45.7114 551.46 45 552.584 44.4949C553.715 43.9827 554.978 43.7265 556.372 43.7265C557.781 43.7265 559.033 43.9791 560.129 44.4842C561.224 44.9822 562.092 45.6651 562.733 46.5331C563.38 47.401 563.721 48.3863 563.757 49.489H561.196ZM572.889 66.264C571.85 66.264 570.908 66.0684 570.061 65.6771C569.214 65.2787 568.542 64.7061 568.044 63.9591C567.546 63.205 567.297 62.2944 567.297 61.2273C567.297 60.2882 567.482 59.527 567.852 58.9436C568.222 58.3532 568.716 57.8907 569.335 57.5564C569.954 57.222 570.637 56.973 571.384 56.8094C572.138 56.6387 572.896 56.5035 573.657 56.4039C574.653 56.2758 575.461 56.1798 576.079 56.1158C576.706 56.0446 577.161 55.9272 577.445 55.7636C577.737 55.6 577.883 55.3154 577.883 54.9099V54.8246C577.883 53.7717 577.595 52.9535 577.019 52.3702C576.449 51.7868 575.585 51.4952 574.425 51.4952C573.223 51.4952 572.281 51.7584 571.598 52.2848C570.915 52.8113 570.434 53.3733 570.157 53.9709L567.767 53.1172C568.193 52.1212 568.763 51.3458 569.474 50.7909C570.193 50.2288 570.975 49.8376 571.822 49.617C572.675 49.3894 573.515 49.2756 574.34 49.2756C574.867 49.2756 575.471 49.3396 576.154 49.4676C576.844 49.5886 577.509 49.8411 578.15 50.2253C578.797 50.6094 579.334 51.1892 579.761 51.9647C580.188 52.7401 580.401 53.7788 580.401 55.0807V65.8799H577.883V63.6603H577.755C577.584 64.016 577.3 64.3966 576.901 64.8021C576.503 65.2076 575.973 65.5526 575.311 65.8372C574.65 66.1218 573.842 66.264 572.889 66.264ZM573.273 64.0018C574.269 64.0018 575.108 63.8061 575.791 63.4148C576.481 63.0236 577.001 62.5185 577.349 61.8995C577.705 61.2806 577.883 60.6297 577.883 59.9467V57.6417C577.776 57.7698 577.541 57.8872 577.179 57.9939C576.823 58.0935 576.41 58.1824 575.941 58.2607C575.478 58.3318 575.027 58.3958 574.586 58.4528C574.152 58.5026 573.799 58.5452 573.529 58.5808C572.875 58.6662 572.263 58.8049 571.694 58.997C571.132 59.1819 570.676 59.463 570.328 59.84C569.986 60.2099 569.815 60.715 569.815 61.3553C569.815 62.2303 570.139 62.892 570.787 63.3401C571.441 63.7812 572.27 64.0018 573.273 64.0018ZM587.516 44.0253V65.8799H584.998V44.0253H587.516ZM599.001 66.2214C597.422 66.2214 596.059 65.8728 594.914 65.1756C593.776 64.4713 592.897 63.4895 592.278 62.2303C591.666 60.964 591.361 59.4914 591.361 57.8125C591.361 56.1336 591.666 54.6538 592.278 53.3733C592.897 52.0856 593.758 51.0825 594.861 50.364C595.971 49.6384 597.265 49.2756 598.745 49.2756C599.599 49.2756 600.442 49.4178 601.274 49.7024C602.106 49.987 602.864 50.4494 603.547 51.0896C604.23 51.7228 604.774 52.5623 605.18 53.608C605.585 54.6538 605.788 55.9415 605.788 57.471V58.5381H593.153V56.3612H603.227C603.227 55.4364 603.042 54.6111 602.672 53.8855C602.309 53.1599 601.79 52.5872 601.114 52.1674C600.445 51.7477 599.656 51.5378 598.745 51.5378C597.742 51.5378 596.874 51.7868 596.141 52.2848C595.416 52.7757 594.857 53.416 594.466 54.2056C594.075 54.9953 593.879 55.8419 593.879 56.7454V58.1966C593.879 59.4345 594.092 60.4838 594.519 61.3446C594.953 62.1983 595.554 62.8493 596.323 63.2975C597.091 63.7385 597.984 63.9591 599.001 63.9591C599.663 63.9591 600.26 63.8666 600.794 63.6816C601.335 63.4895 601.801 63.205 602.192 62.8279C602.583 62.4438 602.885 61.9671 603.099 61.398L605.532 62.0809C605.276 62.9062 604.845 63.6318 604.241 64.2579C603.636 64.8768 602.889 65.3606 602 65.7091C601.11 66.0506 600.111 66.2214 599.001 66.2214ZM630.364 49.489C630.236 48.4076 629.716 47.5682 628.806 46.9706C627.895 46.373 626.778 46.0742 625.455 46.0742C624.487 46.0742 623.641 46.2307 622.915 46.5437C622.197 46.8568 621.635 47.2872 621.229 47.8349C620.831 48.3827 620.632 49.0052 620.632 49.7024C620.632 50.2858 620.77 50.7873 621.048 51.207C621.332 51.6196 621.695 51.9647 622.136 52.2421C622.577 52.5125 623.04 52.7366 623.523 52.9144C624.007 53.0852 624.452 53.2239 624.857 53.3306L627.077 53.9282C627.646 54.0776 628.279 54.2839 628.976 54.5471C629.681 54.8103 630.353 55.1696 630.993 55.6249C631.641 56.0731 632.174 56.6493 632.594 57.3536C633.014 58.0579 633.224 58.9223 633.224 59.9467C633.224 61.1277 632.914 62.1948 632.295 63.1481C631.683 64.1014 630.787 64.859 629.606 65.421C628.432 65.983 627.006 66.264 625.327 66.264C623.762 66.264 622.407 66.0115 621.261 65.5064C620.123 65.0013 619.227 64.297 618.572 63.3935C617.925 62.49 617.558 61.4407 617.473 60.2455H620.205C620.276 61.0707 620.553 61.7537 621.037 62.2944C621.528 62.8279 622.147 63.2263 622.894 63.4895C623.648 63.7456 624.459 63.8737 625.327 63.8737C626.337 63.8737 627.244 63.7101 628.048 63.3828C628.852 63.0485 629.489 62.586 629.958 61.9956C630.428 61.398 630.662 60.7008 630.662 59.904C630.662 59.1784 630.46 58.5879 630.054 58.1326C629.649 57.6773 629.115 57.3074 628.454 57.0228C627.792 56.7383 627.077 56.4893 626.309 56.2758L623.619 55.5075C621.912 55.0166 620.56 54.3159 619.564 53.4053C618.568 52.4947 618.07 51.3031 618.07 49.8305C618.07 48.6068 618.401 47.5397 619.063 46.6291C619.732 45.7114 620.628 45 621.752 44.4949C622.883 43.9827 624.146 43.7265 625.54 43.7265C626.949 43.7265 628.201 43.9791 629.297 44.4842C630.392 44.9822 631.26 45.6651 631.9 46.5331C632.548 47.401 632.889 48.3863 632.925 49.489H630.364ZM644.105 66.2214C642.526 66.2214 641.164 65.8728 640.018 65.1756C638.88 64.4713 638.002 63.4895 637.383 62.2303C636.771 60.964 636.465 59.4914 636.465 57.8125C636.465 56.1336 636.771 54.6538 637.383 53.3733C638.002 52.0856 638.862 51.0825 639.965 50.364C641.075 49.6384 642.37 49.2756 643.849 49.2756C644.703 49.2756 645.546 49.4178 646.378 49.7024C647.211 49.987 647.968 50.4494 648.651 51.0896C649.334 51.7228 649.879 52.5623 650.284 53.608C650.69 54.6538 650.892 55.9415 650.892 57.471V58.5381H638.258V56.3612H648.331C648.331 55.4364 648.146 54.6111 647.776 53.8855C647.414 53.1599 646.894 52.5872 646.218 52.1674C645.55 51.7477 644.76 51.5378 643.849 51.5378C642.846 51.5378 641.978 51.7868 641.246 52.2848C640.52 52.7757 639.962 53.416 639.57 54.2056C639.179 54.9953 638.983 55.8419 638.983 56.7454V58.1966C638.983 59.4345 639.197 60.4838 639.624 61.3446C640.058 62.1983 640.659 62.8493 641.427 63.2975C642.195 63.7385 643.088 63.9591 644.105 63.9591C644.767 63.9591 645.365 63.8666 645.898 63.6816C646.439 63.4895 646.905 63.205 647.296 62.8279C647.687 62.4438 647.99 61.9671 648.203 61.398L650.636 62.0809C650.38 62.9062 649.95 63.6318 649.345 64.2579C648.74 64.8768 647.993 65.3606 647.104 65.7091C646.215 66.0506 645.215 66.2214 644.105 66.2214ZM657.071 59.904L657.028 56.7881H657.54L664.711 49.489H667.827L660.187 57.2149H659.973L657.071 59.904ZM654.723 65.8799V44.0253H657.242V65.8799H654.723ZM665.138 65.8799L658.736 57.7698L660.528 56.0197L668.34 65.8799H665.138ZM675.892 66.264C674.854 66.264 673.911 66.0684 673.064 65.6771C672.218 65.2787 671.545 64.7061 671.047 63.9591C670.55 63.205 670.301 62.2944 670.301 61.2273C670.301 60.2882 670.485 59.527 670.855 58.9436C671.225 58.3532 671.72 57.8907 672.339 57.5564C672.958 57.222 673.641 56.973 674.388 56.8094C675.142 56.6387 675.899 56.5035 676.661 56.4039C677.657 56.2758 678.464 56.1798 679.083 56.1158C679.709 56.0446 680.164 55.9272 680.449 55.7636C680.74 55.6 680.886 55.3154 680.886 54.9099V54.8246C680.886 53.7717 680.598 52.9535 680.022 52.3702C679.453 51.7868 678.588 51.4952 677.429 51.4952C676.227 51.4952 675.284 51.7584 674.601 52.2848C673.918 52.8113 673.438 53.3733 673.16 53.9709L670.77 53.1172C671.197 52.1212 671.766 51.3458 672.477 50.7909C673.196 50.2288 673.979 49.8376 674.825 49.617C675.679 49.3894 676.518 49.2756 677.343 49.2756C677.87 49.2756 678.475 49.3396 679.158 49.4676C679.848 49.5886 680.513 49.8411 681.153 50.2253C681.8 50.6094 682.338 51.1892 682.764 51.9647C683.191 52.7401 683.405 53.7788 683.405 55.0807V65.8799H680.886V63.6603H680.758C680.588 64.016 680.303 64.3966 679.905 64.8021C679.506 65.2076 678.976 65.5526 678.315 65.8372C677.653 66.1218 676.845 66.264 675.892 66.264ZM676.276 64.0018C677.272 64.0018 678.112 63.8061 678.795 63.4148C679.485 63.0236 680.004 62.5185 680.353 61.8995C680.708 61.2806 680.886 60.6297 680.886 59.9467V57.6417C680.78 57.7698 680.545 57.8872 680.182 57.9939C679.826 58.0935 679.414 58.1824 678.944 58.2607C678.482 58.3318 678.03 58.3958 677.589 58.4528C677.155 58.5026 676.803 58.5452 676.532 58.5808C675.878 58.6662 675.266 58.8049 674.697 58.997C674.135 59.1819 673.68 59.463 673.331 59.84C672.99 60.2099 672.819 60.715 672.819 61.3553C672.819 62.2303 673.143 62.892 673.79 63.3401C674.444 63.7812 675.273 64.0018 676.276 64.0018ZM688.001 65.8799V49.489H690.434V51.9647H690.605C690.904 51.1537 691.445 50.4956 692.227 49.9905C693.01 49.4854 693.892 49.2329 694.874 49.2329C695.059 49.2329 695.29 49.2364 695.567 49.2435C695.845 49.2507 696.054 49.2613 696.197 49.2756V51.8366C696.111 51.8153 695.916 51.7833 695.61 51.7406C695.311 51.6908 694.994 51.6659 694.66 51.6659C693.863 51.6659 693.152 51.8331 692.526 52.1674C691.907 52.4947 691.416 52.95 691.053 53.5333C690.698 54.1096 690.52 54.7676 690.52 55.5075V65.8799H688.001ZM704.005 66.264C702.967 66.264 702.024 66.0684 701.178 65.6771C700.331 65.2787 699.659 64.7061 699.161 63.9591C698.663 63.205 698.414 62.2944 698.414 61.2273C698.414 60.2882 698.599 59.527 698.969 58.9436C699.339 58.3532 699.833 57.8907 700.452 57.5564C701.071 57.222 701.754 56.973 702.501 56.8094C703.255 56.6387 704.012 56.5035 704.774 56.4039C705.77 56.2758 706.577 56.1798 707.196 56.1158C707.822 56.0446 708.277 55.9272 708.562 55.7636C708.854 55.6 708.999 55.3154 708.999 54.9099V54.8246C708.999 53.7717 708.711 52.9535 708.135 52.3702C707.566 51.7868 706.702 51.4952 705.542 51.4952C704.34 51.4952 703.397 51.7584 702.714 52.2848C702.031 52.8113 701.551 53.3733 701.274 53.9709L698.883 53.1172C699.31 52.1212 699.879 51.3458 700.591 50.7909C701.309 50.2288 702.092 49.8376 702.938 49.617C703.792 49.3894 704.631 49.2756 705.457 49.2756C705.983 49.2756 706.588 49.3396 707.271 49.4676C707.961 49.5886 708.626 49.8411 709.266 50.2253C709.914 50.6094 710.451 51.1892 710.878 51.9647C711.304 52.7401 711.518 53.7788 711.518 55.0807V65.8799H708.999V63.6603H708.871C708.701 64.016 708.416 64.3966 708.018 64.8021C707.619 65.2076 707.089 65.5526 706.428 65.8372C705.766 66.1218 704.959 66.264 704.005 66.264ZM704.39 64.0018C705.386 64.0018 706.225 63.8061 706.908 63.4148C707.598 63.0236 708.117 62.5185 708.466 61.8995C708.822 61.2806 708.999 60.6297 708.999 59.9467V57.6417C708.893 57.7698 708.658 57.8872 708.295 57.9939C707.939 58.0935 707.527 58.1824 707.057 58.2607C706.595 58.3318 706.143 58.3958 705.702 58.4528C705.268 58.5026 704.916 58.5452 704.646 58.5808C703.991 58.6662 703.379 58.8049 702.81 58.997C702.248 59.1819 701.793 59.463 701.444 59.84C701.103 60.2099 700.932 60.715 700.932 61.3553C700.932 62.2303 701.256 62.892 701.903 63.3401C702.558 63.7812 703.386 64.0018 704.39 64.0018ZM718.633 56.0197V65.8799H716.114V49.489H718.548V52.0501H718.761C719.145 51.2177 719.728 50.549 720.511 50.0439C721.294 49.5317 722.304 49.2756 723.542 49.2756C724.651 49.2756 725.622 49.5032 726.455 49.9585C727.287 50.4067 727.935 51.0896 728.397 52.0074C728.859 52.918 729.091 54.0705 729.091 55.4648V65.8799H726.572V55.6356C726.572 54.3479 726.238 53.3448 725.569 52.6263C724.9 51.9007 723.983 51.5378 722.816 51.5378C722.012 51.5378 721.294 51.7121 720.66 52.0607C720.034 52.4093 719.54 52.918 719.177 53.5867C718.814 54.2554 718.633 55.0664 718.633 56.0197ZM740.309 72.368C739.092 72.368 738.046 72.2114 737.171 71.8984C736.296 71.5925 735.567 71.187 734.984 70.6819C734.408 70.1839 733.949 69.6504 733.607 69.0812L735.613 67.6726C735.841 67.9714 736.129 68.3129 736.478 68.6971C736.826 69.0883 737.303 69.4263 737.908 69.7108C738.519 70.0025 739.32 70.1483 740.309 70.1483C741.632 70.1483 742.724 69.8282 743.585 69.1879C744.446 68.5477 744.876 67.5446 744.876 66.1787V62.8493H744.663C744.478 63.1481 744.214 63.518 743.873 63.9591C743.538 64.393 743.055 64.7808 742.422 65.1222C741.796 65.4566 740.949 65.6238 739.882 65.6238C738.559 65.6238 737.371 65.3108 736.318 64.6847C735.272 64.0587 734.443 63.1481 733.831 61.9529C733.227 60.7577 732.924 59.3064 732.924 57.5991C732.924 55.9201 733.219 54.4582 733.81 53.2132C734.4 51.9611 735.222 50.9936 736.275 50.3107C737.328 49.6206 738.544 49.2756 739.925 49.2756C740.992 49.2756 741.838 49.4534 742.464 49.8091C743.097 50.1577 743.581 50.5561 743.916 51.0043C744.257 51.4454 744.52 51.8082 744.705 52.0927H744.961V49.489H747.394V66.3494C747.394 67.758 747.074 68.9034 746.434 69.7855C745.801 70.6748 744.947 71.3257 743.873 71.7384C742.806 72.1581 741.618 72.368 740.309 72.368ZM740.223 63.3615C741.234 63.3615 742.087 63.1303 742.784 62.6679C743.482 62.2054 744.012 61.5403 744.374 60.6724C744.737 59.8044 744.919 58.7658 744.919 57.5564C744.919 56.3754 744.741 55.3332 744.385 54.4297C744.029 53.5262 743.503 52.8184 742.806 52.3062C742.109 51.7939 741.248 51.5378 740.223 51.5378C739.156 51.5378 738.267 51.8082 737.556 52.3488C736.851 52.8895 736.321 53.6152 735.966 54.5258C735.617 55.4364 735.443 56.4466 735.443 57.5564C735.443 58.6946 735.62 59.7013 735.976 60.5763C736.339 61.4442 736.873 62.1272 737.577 62.6252C738.288 63.1161 739.17 63.3615 740.223 63.3615Z" fill="white"/>
<path d="M564.58 106.53V102.261L572.733 95.5171C573.274 95.069 573.736 94.6492 574.12 94.2579C574.511 93.8596 574.81 93.4505 575.017 93.0308C575.23 92.611 575.337 92.1451 575.337 91.6328C575.337 91.0708 575.216 90.5906 574.974 90.1922C574.739 89.7938 574.412 89.4879 573.992 89.2745C573.572 89.054 573.089 88.9437 572.541 88.9437C571.993 88.9437 571.509 89.054 571.09 89.2745C570.677 89.495 570.357 89.8187 570.129 90.2456C569.902 90.6724 569.788 91.1918 569.788 91.8036H564.153C564.153 90.2669 564.498 88.9437 565.188 87.8339C565.879 86.7241 566.853 85.8704 568.112 85.2728C569.372 84.6752 570.848 84.3764 572.541 84.3764C574.291 84.3764 575.806 84.6575 577.087 85.2195C578.374 85.7744 579.367 86.5569 580.064 87.5671C580.768 88.5773 581.12 89.7618 581.12 91.1206C581.12 91.9601 580.946 92.796 580.598 93.6283C580.249 94.4536 579.623 95.3677 578.719 96.3708C577.816 97.3739 576.532 98.5691 574.867 99.9563L572.818 101.664V101.792H581.355V106.53H564.58ZM594.721 84.6752V106.53H588.788V90.1389H588.66L583.879 92.9987V87.962L589.257 84.6752H594.721ZM614.158 84.6752H620.006V99.6576C619.999 101.08 619.64 102.332 618.928 103.414C618.224 104.488 617.249 105.328 616.005 105.932C614.767 106.53 613.34 106.829 611.725 106.829C610.324 106.829 609.043 106.587 607.884 106.103C606.724 105.612 605.799 104.844 605.109 103.798C604.419 102.745 604.078 101.379 604.085 99.7002H610.018C610.039 100.248 610.132 100.71 610.295 101.087C610.466 101.465 610.701 101.749 611 101.941C611.306 102.126 611.676 102.219 612.11 102.219C612.551 102.219 612.921 102.123 613.219 101.931C613.525 101.738 613.756 101.454 613.913 101.077C614.069 100.693 614.151 100.22 614.158 99.6576V84.6752ZM633.532 99.3588V90.1389H639.422V106.53H633.831V103.414H633.66C633.304 104.46 632.682 105.278 631.793 105.868C630.903 106.452 629.847 106.743 628.623 106.743C627.478 106.743 626.475 106.48 625.614 105.954C624.76 105.427 624.095 104.701 623.618 103.777C623.149 102.852 622.911 101.792 622.903 100.597V90.1389H628.794V99.3588C628.801 100.17 629.007 100.806 629.413 101.269C629.825 101.731 630.402 101.963 631.142 101.963C631.632 101.963 632.056 101.859 632.411 101.653C632.774 101.44 633.052 101.141 633.244 100.757C633.443 100.365 633.539 99.8994 633.532 99.3588ZM648.309 84.6752V106.53H642.418V84.6752H648.309ZM651.31 106.53V90.1389H657.201V106.53H651.31ZM654.255 88.4315C653.459 88.4315 652.776 88.1683 652.206 87.6418C651.637 87.1154 651.353 86.4822 651.353 85.7424C651.353 85.0025 651.637 84.3693 652.206 83.8429C652.776 83.3164 653.459 83.0532 654.255 83.0532C655.059 83.0532 655.742 83.3164 656.304 83.8429C656.873 84.3693 657.158 85.0025 657.158 85.7424C657.158 86.4822 656.873 87.1154 656.304 87.6418C655.742 88.1683 655.059 88.4315 654.255 88.4315ZM666.146 106.53V102.261L674.298 95.5171C674.839 95.069 675.302 94.6492 675.686 94.2579C676.077 93.8596 676.376 93.4505 676.582 93.0308C676.795 92.611 676.902 92.1451 676.902 91.6328C676.902 91.0708 676.781 90.5906 676.539 90.1922C676.305 89.7938 675.977 89.4879 675.558 89.2745C675.138 89.054 674.654 88.9437 674.106 88.9437C673.559 88.9437 673.075 89.054 672.655 89.2745C672.242 89.495 671.922 89.8187 671.695 90.2456C671.467 90.6724 671.353 91.1918 671.353 91.8036H665.719C665.719 90.2669 666.064 88.9437 666.754 87.8339C667.444 86.7241 668.419 85.8704 669.678 85.2728C670.937 84.6752 672.413 84.3764 674.106 84.3764C675.856 84.3764 677.372 84.6575 678.652 85.2195C679.94 85.7744 680.932 86.5569 681.63 87.5671C682.334 88.5773 682.686 89.7618 682.686 91.1206C682.686 91.9601 682.512 92.796 682.163 93.6283C681.814 94.4536 681.188 95.3677 680.285 96.3708C679.381 97.3739 678.097 98.5691 676.433 99.9563L674.384 101.664V101.792H682.921V106.53H666.146ZM695.091 107.127C693.106 107.12 691.392 106.661 689.948 105.751C688.504 104.84 687.39 103.528 686.608 101.813C685.825 100.099 685.437 98.0427 685.444 95.6452C685.452 93.2406 685.843 91.1989 686.618 89.5199C687.401 87.841 688.511 86.564 689.948 85.689C691.392 84.814 693.106 84.3764 695.091 84.3764C697.076 84.3764 698.791 84.8175 700.235 85.6997C701.679 86.5747 702.792 87.8517 703.575 89.5306C704.357 91.2095 704.745 93.2477 704.738 95.6452C704.738 98.0569 704.347 100.12 703.564 101.834C702.782 103.549 701.668 104.862 700.224 105.772C698.787 106.676 697.076 107.127 695.091 107.127ZM695.091 102.304C696.116 102.304 696.955 101.77 697.61 100.703C698.271 99.6291 698.598 97.9431 698.591 95.6452C698.591 94.1441 698.442 92.9169 698.143 91.9636C697.844 91.0104 697.432 90.3061 696.905 89.8508C696.379 89.3883 695.774 89.1571 695.091 89.1571C694.067 89.1571 693.231 89.6765 692.583 90.7151C691.936 91.7538 691.605 93.3971 691.591 95.6452C691.584 97.1747 691.73 98.4339 692.029 99.4228C692.327 100.405 692.74 101.13 693.266 101.6C693.8 102.069 694.408 102.304 695.091 102.304ZM707.523 106.53V102.261L715.676 95.5171C716.217 95.069 716.679 94.6492 717.063 94.2579C717.454 93.8596 717.753 93.4505 717.96 93.0308C718.173 92.611 718.28 92.1451 718.28 91.6328C718.28 91.0708 718.159 90.5906 717.917 90.1922C717.682 89.7938 717.355 89.4879 716.935 89.2745C716.515 89.054 716.032 88.9437 715.484 88.9437C714.936 88.9437 714.452 89.054 714.033 89.2745C713.62 89.495 713.3 89.8187 713.072 90.2456C712.844 90.6724 712.731 91.1918 712.731 91.8036H707.096C707.096 90.2669 707.441 88.9437 708.131 87.8339C708.821 86.7241 709.796 85.8704 711.055 85.2728C712.314 84.6752 713.791 84.3764 715.484 84.3764C717.234 84.3764 718.749 84.6575 720.03 85.2195C721.317 85.7744 722.31 86.5569 723.007 87.5671C723.711 88.5773 724.063 89.7618 724.063 91.1206C724.063 91.9601 723.889 92.796 723.541 93.6283C723.192 94.4536 722.566 95.3677 721.662 96.3708C720.759 97.3739 719.475 98.5691 717.81 99.9563L715.761 101.664V101.792H724.298V106.53H707.523ZM726.267 103.115V98.5051L735.06 84.6752H739.243V90.8218H736.853L732.115 98.3343V98.5051H745.091V103.115H726.267ZM736.895 106.53V101.706L737.024 99.7002V84.6752H742.573V106.53H736.895Z" fill="white"/>
</g>
<defs>
<clipPath id="clip0_791_88">
<rect width="784.83" height="280.65" fill="white"/>
</clipPath>
</defs>
</svg>
