<svg width="785" height="281" viewBox="0 0 785 281" fill="none" xmlns="http://www.w3.org/2000/svg">
<g clip-path="url(#clip0_791_113)">
<mask id="mask0_791_113" style="mask-type:luminance" maskUnits="userSpaceOnUse" x="33" y="90" width="360" height="191">
<path d="M392.42 90.5098H33.8301V280.64H392.42V90.5098Z" fill="white"/>
</mask>
<g mask="url(#mask0_791_113)">
<path d="M115.65 322.66C103.719 322.66 93.5272 319.235 85.0756 312.385C76.6792 305.481 70.2163 295.51 65.6867 282.473C61.2123 269.437 58.9751 253.777 58.9751 235.493C58.9751 217.264 61.2123 201.659 65.6867 188.677C70.2163 175.641 76.7069 165.67 85.1584 158.765C93.6653 151.805 103.829 148.325 115.65 148.325C127.472 148.325 137.608 151.805 146.06 158.765C154.566 165.67 161.057 175.641 165.531 188.677C170.061 201.659 172.326 217.264 172.326 235.493C172.326 253.777 170.061 269.437 165.531 282.473C161.057 295.51 154.594 305.481 146.142 312.385C137.746 319.235 127.582 322.66 115.65 322.66ZM115.65 308.74C128.742 308.74 138.961 302.36 146.308 289.599C153.655 276.784 157.328 258.748 157.328 235.493C157.328 220.026 155.644 206.823 152.274 195.886C148.96 184.894 144.181 176.497 137.939 170.697C131.753 164.897 124.323 161.997 115.65 161.997C102.669 161.997 92.4776 168.46 85.0756 181.386C77.6735 194.257 73.9725 212.292 73.9725 235.493C73.9725 250.96 75.6297 264.162 78.944 275.099C82.3136 286.036 87.0918 294.377 93.2786 300.122C99.5206 305.867 106.978 308.74 115.65 308.74ZM206.049 320.34V308.988L261.482 246.678C268.718 238.503 274.546 231.515 278.965 225.715C283.384 219.915 286.588 214.557 288.576 209.641C290.62 204.724 291.642 199.615 291.642 194.312C291.642 187.849 290.123 182.214 287.085 177.409C284.102 172.548 279.987 168.764 274.739 166.057C269.491 163.35 263.581 161.997 257.007 161.997C250.047 161.997 243.943 163.488 238.696 166.471C233.503 169.454 229.471 173.542 226.598 178.734C223.726 183.927 222.29 189.893 222.29 196.632H207.458C207.458 187.241 209.612 178.928 213.921 171.691C218.285 164.4 224.223 158.683 231.735 154.54C239.303 150.397 247.865 148.325 257.422 148.325C266.867 148.325 275.264 150.369 282.611 154.457C289.957 158.489 295.73 163.986 299.928 170.946C304.126 177.906 306.225 185.695 306.225 194.312C306.225 200.554 305.121 206.603 302.911 212.458C300.757 218.313 297.028 224.831 291.725 232.013C286.422 239.194 279.075 247.977 269.685 258.362L227.592 305.342V306.42H311.528V320.34H206.049Z" fill="white"/>
</g>
<path d="M419.227 65.8799V44.0253H421.873V63.5322H432.032V65.8799H419.227ZM440.612 66.264C439.573 66.264 438.63 66.0684 437.784 65.6771C436.937 65.2787 436.265 64.7061 435.767 63.9591C435.269 63.205 435.02 62.2944 435.02 61.2273C435.02 60.2882 435.205 59.527 435.575 58.9436C435.945 58.3532 436.439 57.8907 437.058 57.5564C437.677 57.222 438.36 56.973 439.107 56.8094C439.861 56.6387 440.619 56.5035 441.38 56.4039C442.376 56.2758 443.183 56.1798 443.802 56.1158C444.428 56.0446 444.884 55.9272 445.168 55.7636C445.46 55.6 445.606 55.3154 445.606 54.9099V54.8246C445.606 53.7717 445.318 52.9535 444.741 52.3702C444.172 51.7868 443.308 51.4952 442.148 51.4952C440.946 51.4952 440.003 51.7584 439.32 52.2848C438.637 52.8113 438.157 53.3733 437.88 53.9709L435.489 53.1172C435.916 52.1212 436.485 51.3458 437.197 50.7909C437.915 50.2288 438.698 49.8376 439.544 49.617C440.398 49.3894 441.238 49.2756 442.063 49.2756C442.589 49.2756 443.194 49.3396 443.877 49.4676C444.567 49.5886 445.232 49.8411 445.872 50.2253C446.52 50.6094 447.057 51.1892 447.484 51.9647C447.911 52.7401 448.124 53.7788 448.124 55.0807V65.8799H445.606V63.6603H445.478C445.307 64.016 445.022 64.3966 444.624 64.8021C444.226 65.2076 443.696 65.5526 443.034 65.8372C442.372 66.1218 441.565 66.264 440.612 66.264ZM440.996 64.0018C441.992 64.0018 442.831 63.8061 443.514 63.4148C444.204 63.0236 444.723 62.5185 445.072 61.8995C445.428 61.2806 445.606 60.6297 445.606 59.9467V57.6417C445.499 57.7698 445.264 57.8872 444.901 57.9939C444.546 58.0935 444.133 58.1824 443.663 58.2607C443.201 58.3318 442.749 58.3958 442.308 58.4528C441.874 58.5026 441.522 58.5452 441.252 58.5808C440.597 58.6662 439.985 58.8049 439.416 58.997C438.854 59.1819 438.399 59.463 438.05 59.84C437.709 60.2099 437.538 60.715 437.538 61.3553C437.538 62.2303 437.862 62.892 438.509 63.3401C439.164 63.7812 439.993 64.0018 440.996 64.0018ZM463.05 59.1784V49.489H465.569V65.8799H463.05V63.1054H462.88C462.495 63.9377 461.898 64.6456 461.087 65.2289C460.276 65.8052 459.251 66.0933 458.014 66.0933C456.989 66.0933 456.079 65.8692 455.282 65.421C454.485 64.9657 453.859 64.2828 453.404 63.3722C452.948 62.4544 452.721 61.2984 452.721 59.904V49.489H455.239V59.7333C455.239 60.9285 455.573 61.8818 456.242 62.5932C456.918 63.3046 457.779 63.6603 458.825 63.6603C459.451 63.6603 460.087 63.5002 460.735 63.1801C461.389 62.8599 461.937 62.3691 462.378 61.7075C462.826 61.0458 463.05 60.2028 463.05 59.1784ZM472.7 56.0197V65.8799H470.181V49.489H472.614V52.0501H472.828C473.212 51.2177 473.795 50.549 474.578 50.0439C475.36 49.5317 476.371 49.2756 477.608 49.2756C478.718 49.2756 479.689 49.5032 480.522 49.9585C481.354 50.4067 482.001 51.0896 482.464 52.0074C482.926 52.918 483.157 54.0705 483.157 55.4648V65.8799H480.639V55.6356C480.639 54.3479 480.305 53.3448 479.636 52.6263C478.967 51.9007 478.05 51.5378 476.883 51.5378C476.079 51.5378 475.36 51.7121 474.727 52.0607C474.101 52.4093 473.607 52.918 473.244 53.5867C472.881 54.2554 472.7 55.0664 472.7 56.0197ZM494.418 66.2214C492.882 66.2214 491.558 65.8585 490.449 65.1329C489.339 64.4073 488.485 63.4077 487.887 62.1343C487.29 60.8609 486.991 59.406 486.991 57.7698C486.991 56.1051 487.297 54.636 487.909 53.3626C488.528 52.0821 489.389 51.0825 490.491 50.364C491.601 49.6384 492.896 49.2756 494.376 49.2756C495.528 49.2756 496.567 49.489 497.492 49.9158C498.416 50.3427 499.174 50.9403 499.764 51.7086C500.355 52.4769 500.721 53.3733 500.864 54.3977H498.345C498.153 53.6507 497.726 52.9891 497.065 52.4129C496.41 51.8295 495.528 51.5378 494.418 51.5378C493.436 51.5378 492.576 51.7939 491.836 52.3062C491.103 52.8113 490.53 53.5262 490.118 54.4511C489.712 55.3688 489.509 56.4466 489.509 57.6844C489.509 58.9507 489.709 60.0534 490.107 60.9925C490.513 61.9316 491.082 62.6607 491.814 63.1801C492.554 63.6994 493.422 63.9591 494.418 63.9591C495.073 63.9591 495.667 63.8452 496.2 63.6176C496.734 63.3899 497.186 63.0627 497.556 62.6358C497.925 62.209 498.189 61.6968 498.345 61.0992H500.864C500.721 62.0667 500.369 62.9382 499.807 63.7136C499.252 64.482 498.516 65.0938 497.598 65.5491C496.688 65.9973 495.628 66.2214 494.418 66.2214ZM507.064 56.0197V65.8799H504.545V44.0253H507.064V52.0501H507.277C507.661 51.2035 508.237 50.5312 509.006 50.0332C509.781 49.5281 510.813 49.2756 512.1 49.2756C513.217 49.2756 514.195 49.4996 515.035 49.9478C515.874 50.3889 516.525 51.0683 516.988 51.986C517.457 52.8966 517.692 54.0562 517.692 55.4648V65.8799H515.174V55.6356C515.174 54.3337 514.836 53.327 514.16 52.6156C513.491 51.8971 512.563 51.5378 511.375 51.5378C510.549 51.5378 509.81 51.7121 509.155 52.0607C508.508 52.4093 507.995 52.918 507.618 53.5867C507.249 54.2554 507.064 55.0664 507.064 56.0197ZM522.299 65.8799V49.489H524.818V65.8799H522.299ZM523.58 46.7572C523.089 46.7572 522.666 46.59 522.31 46.2556C521.961 45.9212 521.787 45.5193 521.787 45.0498C521.787 44.5802 521.961 44.1783 522.31 43.8439C522.666 43.5096 523.089 43.3424 523.58 43.3424C524.071 43.3424 524.49 43.5096 524.839 43.8439C525.195 44.1783 525.373 44.5802 525.373 45.0498C525.373 45.5193 525.195 45.9212 524.839 46.2556C524.49 46.59 524.071 46.7572 523.58 46.7572ZM531.949 56.0197V65.8799H529.43V49.489H531.863V52.0501H532.077C532.461 51.2177 533.044 50.549 533.827 50.0439C534.609 49.5317 535.62 49.2756 536.857 49.2756C537.967 49.2756 538.938 49.5032 539.771 49.9585C540.603 50.4067 541.25 51.0896 541.713 52.0074C542.175 52.918 542.406 54.0705 542.406 55.4648V65.8799H539.888V55.6356C539.888 54.3479 539.554 53.3448 538.885 52.6263C538.216 51.9007 537.299 51.5378 536.132 51.5378C535.328 51.5378 534.609 51.7121 533.976 52.0607C533.35 52.4093 532.856 52.918 532.493 53.5867C532.13 54.2554 531.949 55.0664 531.949 56.0197ZM553.625 72.368C552.408 72.368 551.362 72.2114 550.487 71.8984C549.612 71.5925 548.883 71.187 548.3 70.6819C547.723 70.1839 547.264 69.6504 546.923 69.0812L548.929 67.6726C549.157 67.9714 549.445 68.3129 549.794 68.6971C550.142 69.0883 550.619 69.4263 551.223 69.7108C551.835 70.0025 552.636 70.1483 553.625 70.1483C554.948 70.1483 556.04 69.8282 556.901 69.1879C557.761 68.5477 558.192 67.5446 558.192 66.1787V62.8493H557.978C557.793 63.1481 557.53 63.518 557.189 63.9591C556.854 64.393 556.371 64.7808 555.737 65.1222C555.111 65.4566 554.265 65.6238 553.198 65.6238C551.874 65.6238 550.686 65.3108 549.633 64.6847C548.588 64.0587 547.759 63.1481 547.147 61.9529C546.542 60.7577 546.24 59.3064 546.24 57.5991C546.24 55.9201 546.535 54.4582 547.126 53.2132C547.716 51.9611 548.538 50.9936 549.591 50.3107C550.644 49.6206 551.86 49.2756 553.24 49.2756C554.307 49.2756 555.154 49.4534 555.78 49.8091C556.413 50.1577 556.897 50.5561 557.231 51.0043C557.573 51.4454 557.836 51.8082 558.021 52.0927H558.277V49.489H560.71V66.3494C560.71 67.758 560.39 68.9034 559.75 69.7855C559.117 70.6748 558.263 71.3257 557.189 71.7384C556.122 72.1581 554.934 72.368 553.625 72.368ZM553.539 63.3615C554.549 63.3615 555.403 63.1303 556.1 62.6679C556.797 62.2054 557.327 61.5403 557.69 60.6724C558.053 59.8044 558.234 58.7658 558.234 57.5564C558.234 56.3754 558.057 55.3332 557.701 54.4297C557.345 53.5262 556.819 52.8184 556.122 52.3062C555.424 51.7939 554.564 51.5378 553.539 51.5378C552.472 51.5378 551.583 51.8082 550.871 52.3488C550.167 52.8895 549.637 53.6152 549.281 54.5258C548.933 55.4364 548.758 56.4466 548.758 57.5564C548.758 58.6946 548.936 59.7013 549.292 60.5763C549.655 61.4442 550.188 62.1272 550.893 62.6252C551.604 63.1161 552.486 63.3615 553.539 63.3615ZM574.113 65.8799V44.0253H576.76V54.8672H577.016L586.833 44.0253H590.291L581.113 53.8855L590.291 65.8799H587.089L579.491 55.7209L576.76 58.7942V65.8799H574.113ZM611.129 54.9526C611.129 57.2576 610.713 59.2495 609.88 60.9285C609.048 62.6074 607.906 63.9022 606.455 64.8128C605.003 65.7234 603.346 66.1787 601.482 66.1787C599.618 66.1787 597.961 65.7234 596.509 64.8128C595.058 63.9022 593.916 62.6074 593.084 60.9285C592.251 59.2495 591.835 57.2576 591.835 54.9526C591.835 52.6476 592.251 50.6557 593.084 48.9768C593.916 47.2978 595.058 46.0031 596.509 45.0925C597.961 44.1818 599.618 43.7265 601.482 43.7265C603.346 43.7265 605.003 44.1818 606.455 45.0925C607.906 46.0031 609.048 47.2978 609.88 48.9768C610.713 50.6557 611.129 52.6476 611.129 54.9526ZM608.568 54.9526C608.568 53.0603 608.251 51.4631 607.618 50.1613C606.992 48.8594 606.142 47.8741 605.068 47.2053C604 46.5366 602.805 46.2023 601.482 46.2023C600.159 46.2023 598.96 46.5366 597.886 47.2053C596.819 47.8741 595.969 48.8594 595.335 50.1613C594.709 51.4631 594.396 53.0603 594.396 54.9526C594.396 56.845 594.709 58.4421 595.335 59.744C595.969 61.0458 596.819 62.0311 597.886 62.6999C598.96 63.3686 600.159 63.703 601.482 63.703C602.805 63.703 604 63.3686 605.068 62.6999C606.142 62.0311 606.992 61.0458 607.618 59.744C608.251 58.4421 608.568 56.845 608.568 54.9526ZM632.909 44.0253V65.8799H630.348L618.438 48.7206H618.225V65.8799H615.579V44.0253H618.14L630.091 61.2273H630.305V44.0253H632.909ZM638.204 65.8799V44.0253H640.851V54.8672H641.107L650.924 44.0253H654.382L645.204 53.8855L654.382 65.8799H651.18L643.582 55.7209L640.851 58.7942V65.8799H638.204ZM675.22 54.9526C675.22 57.2576 674.804 59.2495 673.971 60.9285C673.139 62.6074 671.997 63.9022 670.546 64.8128C669.095 65.7234 667.437 66.1787 665.573 66.1787C663.709 66.1787 662.052 65.7234 660.6 64.8128C659.149 63.9022 658.007 62.6074 657.175 60.9285C656.342 59.2495 655.926 57.2576 655.926 54.9526C655.926 52.6476 656.342 50.6557 657.175 48.9768C658.007 47.2978 659.149 46.0031 660.6 45.0925C662.052 44.1818 663.709 43.7265 665.573 43.7265C667.437 43.7265 669.095 44.1818 670.546 45.0925C671.997 46.0031 673.139 47.2978 673.971 48.9768C674.804 50.6557 675.22 52.6476 675.22 54.9526ZM672.659 54.9526C672.659 53.0603 672.342 51.4631 671.709 50.1613C671.083 48.8594 670.233 47.8741 669.159 47.2053C668.091 46.5366 666.896 46.2023 665.573 46.2023C664.25 46.2023 663.051 46.5366 661.977 47.2053C660.91 47.8741 660.06 48.8594 659.426 50.1613C658.8 51.4631 658.487 53.0603 658.487 54.9526C658.487 56.845 658.8 58.4421 659.426 59.744C660.06 61.0458 660.91 62.0311 661.977 62.6999C663.051 63.3686 664.25 63.703 665.573 63.703C666.896 63.703 668.091 63.3686 669.159 62.6999C670.233 62.0311 671.083 61.0458 671.709 59.744C672.342 58.4421 672.659 56.845 672.659 54.9526ZM682.316 44.0253V65.8799H679.67V44.0253H682.316ZM704.952 44.0253V65.8799H702.391L690.482 48.7206H690.269V65.8799H687.622V44.0253H690.183L702.135 61.2273H702.349V44.0253H704.952ZM724.547 66.2214C723.181 66.2214 721.975 65.8763 720.93 65.1863C719.884 64.4891 719.066 63.5073 718.475 62.241C717.885 60.9676 717.59 59.463 717.59 57.7271C717.59 56.0055 717.885 54.5115 718.475 53.2452C719.066 51.9789 719.887 51.0007 720.94 50.3107C721.993 49.6206 723.21 49.2756 724.59 49.2756C725.657 49.2756 726.5 49.4534 727.119 49.8091C727.745 50.1577 728.222 50.5561 728.549 51.0043C728.883 51.4454 729.143 51.8082 729.328 52.0927H729.541V44.0253H732.06V65.8799H729.627V63.3615H729.328C729.143 63.6603 728.88 64.0373 728.538 64.4926C728.197 64.9408 727.709 65.3428 727.076 65.6985C726.443 66.0471 725.6 66.2214 724.547 66.2214ZM724.889 63.9591C725.899 63.9591 726.753 63.6959 727.45 63.1694C728.147 62.6358 728.677 61.8995 729.04 60.9605C729.403 60.0143 729.584 58.9223 729.584 57.6844C729.584 56.4608 729.406 55.3901 729.05 54.4724C728.695 53.5476 728.168 52.829 727.471 52.3168C726.774 51.7975 725.913 51.5378 724.889 51.5378C723.822 51.5378 722.932 51.8117 722.221 52.3595C721.517 52.9002 720.987 53.6365 720.631 54.5684C720.282 55.4933 720.108 56.5319 720.108 57.6844C720.108 58.8511 720.286 59.9111 720.642 60.8644C721.004 61.8106 721.538 62.5647 722.242 63.1267C722.954 63.6816 723.836 63.9591 724.889 63.9591ZM737.022 65.8799V49.489H739.54V65.8799H737.022ZM738.302 46.7572C737.811 46.7572 737.388 46.59 737.032 46.2556C736.684 45.9212 736.51 45.5193 736.51 45.0498C736.51 44.5802 736.684 44.1783 737.032 43.8439C737.388 43.5096 737.811 43.3424 738.302 43.3424C738.793 43.3424 739.213 43.5096 739.562 43.8439C739.917 44.1783 740.095 44.5802 740.095 45.0498C740.095 45.5193 739.917 45.9212 739.562 46.2556C739.213 46.59 738.793 46.7572 738.302 46.7572Z" fill="white"/>
<path d="M474.103 84.6752V106.53H471.457V84.6752H474.103ZM479.41 106.53V84.6752H481.928V92.7426H482.141C482.326 92.4581 482.583 92.0953 482.91 91.6542C483.244 91.206 483.721 90.8076 484.34 90.459C484.966 90.1033 485.812 89.9255 486.879 89.9255C488.26 89.9255 489.476 90.2705 490.529 90.9606C491.582 91.6506 492.404 92.6288 492.994 93.8951C493.585 95.1614 493.88 96.6554 493.88 98.377C493.88 100.113 493.585 101.617 492.994 102.891C492.404 104.157 491.585 105.139 490.54 105.836C489.494 106.526 488.288 106.871 486.922 106.871C485.869 106.871 485.026 106.697 484.393 106.348C483.76 105.993 483.273 105.591 482.931 105.143C482.59 104.687 482.326 104.31 482.141 104.011H481.843V106.53H479.41ZM481.885 98.3343C481.885 99.5722 482.067 100.664 482.43 101.61C482.792 102.549 483.322 103.286 484.02 103.819C484.717 104.346 485.571 104.609 486.581 104.609C487.634 104.609 488.512 104.332 489.216 103.777C489.928 103.215 490.461 102.461 490.817 101.514C491.18 100.561 491.361 99.501 491.361 98.3343C491.361 97.1818 491.184 96.1432 490.828 95.2184C490.479 94.2864 489.949 93.5501 489.238 93.0094C488.534 92.4616 487.648 92.1877 486.581 92.1877C485.556 92.1877 484.695 92.4474 483.998 92.9667C483.301 93.479 482.775 94.1975 482.419 95.1223C482.063 96.04 481.885 97.1107 481.885 98.3343ZM508.062 99.8283V90.1389H510.58V106.53H508.062V103.755H507.891C507.507 104.588 506.909 105.295 506.098 105.879C505.287 106.455 504.263 106.743 503.025 106.743C502.001 106.743 501.09 106.519 500.293 106.071C499.496 105.616 498.87 104.933 498.415 104.022C497.96 103.104 497.732 101.948 497.732 100.554V90.1389H500.25V100.383C500.25 101.578 500.585 102.532 501.254 103.243C501.929 103.954 502.79 104.31 503.836 104.31C504.462 104.31 505.099 104.15 505.746 103.83C506.401 103.51 506.948 103.019 507.389 102.357C507.838 101.696 508.062 100.853 508.062 99.8283ZM523.986 106.53V84.6752H526.632V95.5171H526.888L536.706 84.6752H540.163L530.986 94.5354L540.163 106.53H536.962L529.364 96.3708L526.632 99.4441V106.53H523.986ZM548.703 106.871C547.223 106.871 545.925 106.519 544.808 105.815C543.698 105.111 542.83 104.125 542.204 102.859C541.585 101.593 541.276 100.113 541.276 98.4197C541.276 96.7123 541.585 95.2219 542.204 93.9485C542.83 92.6751 543.698 91.6862 544.808 90.9819C545.925 90.2776 547.223 89.9255 548.703 89.9255C550.183 89.9255 551.477 90.2776 552.587 90.9819C553.704 91.6862 554.572 92.6751 555.191 93.9485C555.817 95.2219 556.13 96.7123 556.13 98.4197C556.13 100.113 555.817 101.593 555.191 102.859C554.572 104.125 553.704 105.111 552.587 105.815C551.477 106.519 550.183 106.871 548.703 106.871ZM548.703 104.609C549.827 104.609 550.752 104.321 551.477 103.745C552.203 103.168 552.74 102.411 553.089 101.472C553.437 100.533 553.612 99.5153 553.612 98.4197C553.612 97.3241 553.437 96.3033 553.089 95.3571C552.74 94.4109 552.203 93.6461 551.477 93.0628C550.752 92.4794 549.827 92.1877 548.703 92.1877C547.579 92.1877 546.654 92.4794 545.928 93.0628C545.203 93.6461 544.666 94.4109 544.317 95.3571C543.968 96.3033 543.794 97.3241 543.794 98.4197C543.794 99.5153 543.968 100.533 544.317 101.472C544.666 102.411 545.203 103.168 545.928 103.745C546.654 104.321 547.579 104.609 548.703 104.609ZM567.103 90.1389V92.2731H558.608V90.1389H567.103ZM561.084 86.2119H563.603V101.834C563.603 102.546 563.706 103.079 563.912 103.435C564.125 103.784 564.396 104.019 564.723 104.139C565.057 104.253 565.409 104.31 565.779 104.31C566.057 104.31 566.285 104.296 566.462 104.267C566.64 104.232 566.783 104.203 566.889 104.182L567.401 106.444C567.231 106.508 566.992 106.572 566.686 106.636C566.381 106.708 565.993 106.743 565.523 106.743C564.812 106.743 564.115 106.59 563.432 106.284C562.756 105.978 562.194 105.512 561.746 104.886C561.305 104.26 561.084 103.471 561.084 102.517V86.2119ZM575.714 106.914C574.676 106.914 573.733 106.718 572.886 106.327C572.04 105.929 571.368 105.356 570.87 104.609C570.372 103.855 570.123 102.944 570.123 101.877C570.123 100.938 570.308 100.177 570.677 99.5935C571.047 99.0031 571.542 98.5406 572.161 98.2063C572.78 97.8719 573.463 97.6229 574.21 97.4593C574.964 97.2886 575.721 97.1534 576.483 97.0538C577.479 96.9257 578.286 96.8297 578.905 96.7657C579.531 96.6945 579.986 96.5771 580.271 96.4135C580.563 96.2499 580.708 95.9653 580.708 95.5598V95.4745C580.708 94.4216 580.42 93.6034 579.844 93.0201C579.275 92.4367 578.411 92.1451 577.251 92.1451C576.049 92.1451 575.106 92.4083 574.423 92.9347C573.74 93.4612 573.26 94.0232 572.982 94.6208L570.592 93.7671C571.019 92.7711 571.588 91.9957 572.3 91.4408C573.018 90.8787 573.801 90.4875 574.647 90.2669C575.501 90.0393 576.34 89.9255 577.166 89.9255C577.692 89.9255 578.297 89.9895 578.98 90.1175C579.67 90.2385 580.335 90.491 580.975 90.8752C581.623 91.2593 582.16 91.8391 582.587 92.6146C583.013 93.39 583.227 94.4287 583.227 95.7306V106.53H580.708V104.31H580.58C580.41 104.666 580.125 105.046 579.727 105.452C579.328 105.858 578.798 106.203 578.137 106.487C577.475 106.772 576.668 106.914 575.714 106.914ZM576.098 104.652C577.094 104.652 577.934 104.456 578.617 104.065C579.307 103.673 579.826 103.168 580.175 102.549C580.531 101.931 580.708 101.28 580.708 100.597V98.2916C580.602 98.4197 580.367 98.5371 580.004 98.6438C579.648 98.7434 579.236 98.8323 578.766 98.9106C578.304 98.9817 577.852 99.0457 577.411 99.1027C576.977 99.1525 576.625 99.1951 576.355 99.2307C575.7 99.3161 575.088 99.4548 574.519 99.6469C573.957 99.8319 573.502 100.113 573.153 100.49C572.812 100.86 572.641 101.365 572.641 102.005C572.641 102.88 572.965 103.542 573.612 103.99C574.267 104.431 575.095 104.652 576.098 104.652ZM613.946 84.6752V106.53H611.385L599.476 89.3706H599.263V106.53H596.616V84.6752H599.177L611.129 101.877H611.343V84.6752H613.946ZM629.23 99.8283V90.1389H631.749V106.53H629.23V103.755H629.059C628.675 104.588 628.078 105.295 627.267 105.879C626.456 106.455 625.431 106.743 624.193 106.743C623.169 106.743 622.258 106.519 621.462 106.071C620.665 105.616 620.039 104.933 619.583 104.022C619.128 103.104 618.9 101.948 618.9 100.554V90.1389H621.419V100.383C621.419 101.578 621.753 102.532 622.422 103.243C623.098 103.954 623.959 104.31 625.004 104.31C625.63 104.31 626.267 104.15 626.915 103.83C627.569 103.51 628.117 103.019 628.558 102.357C629.006 101.696 629.23 100.853 629.23 99.8283ZM647.971 93.8098L645.709 94.45C645.567 94.073 645.357 93.7066 645.08 93.3509C644.809 92.9881 644.439 92.6893 643.97 92.4545C643.5 92.2198 642.899 92.1024 642.166 92.1024C641.163 92.1024 640.327 92.3336 639.659 92.796C638.997 93.2513 638.666 93.8311 638.666 94.5354C638.666 95.1614 638.894 95.6559 639.349 96.0187C639.804 96.3815 640.516 96.6839 641.483 96.9257L643.916 97.5233C645.382 97.879 646.474 98.4233 647.192 99.156C647.911 99.8816 648.27 100.817 648.27 101.963C648.27 102.902 648 103.741 647.459 104.481C646.926 105.221 646.179 105.804 645.218 106.231C644.258 106.658 643.141 106.871 641.867 106.871C640.196 106.871 638.812 106.508 637.716 105.783C636.621 105.057 635.927 103.997 635.636 102.603L638.026 102.005C638.254 102.887 638.684 103.549 639.317 103.99C639.957 104.431 640.793 104.652 641.825 104.652C642.999 104.652 643.931 104.403 644.621 103.905C645.318 103.4 645.666 102.795 645.666 102.091C645.666 101.521 645.467 101.045 645.069 100.661C644.67 100.269 644.059 99.9777 643.233 99.7856L640.502 99.1453C639.001 98.7896 637.898 98.2383 637.194 97.4913C636.496 96.7372 636.148 95.7946 636.148 94.6634C636.148 93.7386 636.407 92.9205 636.927 92.2091C637.453 91.4977 638.168 90.9392 639.072 90.5337C639.982 90.1282 641.014 89.9255 642.166 89.9255C643.788 89.9255 645.062 90.2812 645.987 90.9926C646.919 91.704 647.58 92.643 647.971 93.8098ZM656.884 106.914C655.846 106.914 654.903 106.718 654.057 106.327C653.21 105.929 652.538 105.356 652.04 104.609C651.542 103.855 651.293 102.944 651.293 101.877C651.293 100.938 651.478 100.177 651.848 99.5935C652.218 99.0031 652.712 98.5406 653.331 98.2063C653.95 97.8719 654.633 97.6229 655.38 97.4593C656.134 97.2886 656.892 97.1534 657.653 97.0538C658.649 96.9257 659.456 96.8297 660.075 96.7657C660.701 96.6945 661.157 96.5771 661.441 96.4135C661.733 96.2499 661.879 95.9653 661.879 95.5598V95.4745C661.879 94.4216 661.59 93.6034 661.014 93.0201C660.445 92.4367 659.581 92.1451 658.421 92.1451C657.219 92.1451 656.276 92.4083 655.593 92.9347C654.91 93.4612 654.43 94.0232 654.153 94.6208L651.762 93.7671C652.189 92.7711 652.758 91.9957 653.47 91.4408C654.188 90.8787 654.971 90.4875 655.817 90.2669C656.671 90.0393 657.511 89.9255 658.336 89.9255C658.862 89.9255 659.467 89.9895 660.15 90.1175C660.84 90.2385 661.505 90.491 662.145 90.8752C662.793 91.2593 663.33 91.8391 663.757 92.6146C664.184 93.39 664.397 94.4287 664.397 95.7306V106.53H661.879V104.31H661.751C661.58 104.666 661.295 105.046 660.897 105.452C660.498 105.858 659.968 106.203 659.307 106.487C658.645 106.772 657.838 106.914 656.884 106.914ZM657.269 104.652C658.265 104.652 659.104 104.456 659.787 104.065C660.477 103.673 660.996 103.168 661.345 102.549C661.701 101.931 661.879 101.28 661.879 100.597V98.2916C661.772 98.4197 661.537 98.5371 661.174 98.6438C660.819 98.7434 660.406 98.8323 659.936 98.9106C659.474 98.9817 659.022 99.0457 658.581 99.1027C658.147 99.1525 657.795 99.1951 657.525 99.2307C656.87 99.3161 656.258 99.4548 655.689 99.6469C655.127 99.8319 654.672 100.113 654.323 100.49C653.982 100.86 653.811 101.365 653.811 102.005C653.811 102.88 654.135 103.542 654.782 103.99C655.437 104.431 656.266 104.652 657.269 104.652ZM671.512 96.6696V106.53H668.994V90.1389H671.427V92.7H671.64C672.024 91.8676 672.608 91.1989 673.39 90.6938C674.173 90.1816 675.183 89.9255 676.421 89.9255C677.531 89.9255 678.502 90.1531 679.334 90.6084C680.166 91.0566 680.814 91.7396 681.276 92.6573C681.739 93.5679 681.97 94.7204 681.97 96.1147V106.53H679.451V96.2855C679.451 94.9978 679.117 93.9947 678.448 93.2762C677.78 92.5506 676.862 92.1877 675.695 92.1877C674.891 92.1877 674.173 92.362 673.54 92.7106C672.913 93.0592 672.419 93.5679 672.056 94.2366C671.693 94.9053 671.512 95.7163 671.512 96.6696ZM693.7 90.1389V92.2731H685.206V90.1389H693.7ZM687.681 86.2119H690.2V101.834C690.2 102.546 690.303 103.079 690.509 103.435C690.723 103.784 690.993 104.019 691.32 104.139C691.655 104.253 692.007 104.31 692.377 104.31C692.654 104.31 692.882 104.296 693.06 104.267C693.238 104.232 693.38 104.203 693.487 104.182L693.999 106.444C693.828 106.508 693.59 106.572 693.284 106.636C692.978 106.708 692.59 106.743 692.121 106.743C691.409 106.743 690.712 106.59 690.029 106.284C689.353 105.978 688.791 105.512 688.343 104.886C687.902 104.26 687.681 103.471 687.681 102.517V86.2119ZM702.312 106.914C701.273 106.914 700.33 106.718 699.484 106.327C698.637 105.929 697.965 105.356 697.467 104.609C696.969 103.855 696.72 102.944 696.72 101.877C696.72 100.938 696.905 100.177 697.275 99.5935C697.645 99.0031 698.139 98.5406 698.758 98.2063C699.377 97.8719 700.06 97.6229 700.807 97.4593C701.561 97.2886 702.319 97.1534 703.08 97.0538C704.076 96.9257 704.883 96.8297 705.502 96.7657C706.128 96.6945 706.584 96.5771 706.868 96.4135C707.16 96.2499 707.306 95.9653 707.306 95.5598V95.4745C707.306 94.4216 707.018 93.6034 706.441 93.0201C705.872 92.4367 705.008 92.1451 703.848 92.1451C702.646 92.1451 701.703 92.4083 701.02 92.9347C700.337 93.4612 699.857 94.0232 699.58 94.6208L697.189 93.7671C697.616 92.7711 698.185 91.9957 698.897 91.4408C699.615 90.8787 700.398 90.4875 701.245 90.2669C702.098 90.0393 702.938 89.9255 703.763 89.9255C704.289 89.9255 704.894 89.9895 705.577 90.1175C706.267 90.2385 706.932 90.491 707.573 90.8752C708.22 91.2593 708.757 91.8391 709.184 92.6146C709.611 93.39 709.824 94.4287 709.824 95.7306V106.53H707.306V104.31H707.178C707.007 104.666 706.722 105.046 706.324 105.452C705.926 105.858 705.396 106.203 704.734 106.487C704.072 106.772 703.265 106.914 702.312 106.914ZM702.696 104.652C703.692 104.652 704.531 104.456 705.214 104.065C705.904 103.673 706.424 103.168 706.772 102.549C707.128 101.931 707.306 101.28 707.306 100.597V98.2916C707.199 98.4197 706.964 98.5371 706.601 98.6438C706.246 98.7434 705.833 98.8323 705.364 98.9106C704.901 98.9817 704.449 99.0457 704.008 99.1027C703.574 99.1525 703.222 99.1951 702.952 99.2307C702.297 99.3161 701.686 99.4548 701.116 99.6469C700.554 99.8319 700.099 100.113 699.751 100.49C699.409 100.86 699.238 101.365 699.238 102.005C699.238 102.88 699.562 103.542 700.209 103.99C700.864 104.431 701.693 104.652 702.696 104.652ZM714.421 106.53V90.1389H716.854V92.6146H717.025C717.323 91.8036 717.864 91.1455 718.647 90.6404C719.429 90.1353 720.311 89.8828 721.293 89.8828C721.478 89.8828 721.709 89.8863 721.987 89.8934C722.264 89.9006 722.474 89.9112 722.616 89.9255V92.4865C722.531 92.4652 722.335 92.4332 722.029 92.3905C721.73 92.3407 721.414 92.3158 721.08 92.3158C720.283 92.3158 719.571 92.483 718.945 92.8173C718.326 93.1446 717.836 93.5999 717.473 94.1832C717.117 94.7595 716.939 95.4175 716.939 96.1574V106.53H714.421ZM730.425 106.914C729.386 106.914 728.444 106.718 727.597 106.327C726.75 105.929 726.078 105.356 725.58 104.609C725.082 103.855 724.833 102.944 724.833 101.877C724.833 100.938 725.018 100.177 725.388 99.5935C725.758 99.0031 726.252 98.5406 726.871 98.2063C727.49 97.8719 728.173 97.6229 728.92 97.4593C729.674 97.2886 730.432 97.1534 731.193 97.0538C732.189 96.9257 732.997 96.8297 733.615 96.7657C734.242 96.6945 734.697 96.5771 734.981 96.4135C735.273 96.2499 735.419 95.9653 735.419 95.5598V95.4745C735.419 94.4216 735.131 93.6034 734.555 93.0201C733.985 92.4367 733.121 92.1451 731.961 92.1451C730.759 92.1451 729.817 92.4083 729.134 92.9347C728.451 93.4612 727.97 94.0232 727.693 94.6208L725.303 93.7671C725.73 92.7711 726.299 91.9957 727.01 91.4408C727.729 90.8787 728.511 90.4875 729.358 90.2669C730.211 90.0393 731.051 89.9255 731.876 89.9255C732.403 89.9255 733.007 89.9895 733.69 90.1175C734.38 90.2385 735.045 90.491 735.686 90.8752C736.333 91.2593 736.87 91.8391 737.297 92.6146C737.724 93.39 737.937 94.4287 737.937 95.7306V106.53H735.419V104.31H735.291C735.12 104.666 734.836 105.046 734.437 105.452C734.039 105.858 733.509 106.203 732.847 106.487C732.186 106.772 731.378 106.914 730.425 106.914ZM730.809 104.652C731.805 104.652 732.644 104.456 733.327 104.065C734.017 103.673 734.537 103.168 734.885 102.549C735.241 101.931 735.419 101.28 735.419 100.597V98.2916C735.312 98.4197 735.077 98.5371 734.715 98.6438C734.359 98.7434 733.946 98.8323 733.477 98.9106C733.014 98.9817 732.563 99.0457 732.122 99.1027C731.688 99.1525 731.335 99.1951 731.065 99.2307C730.411 99.3161 729.799 99.4548 729.23 99.6469C728.668 99.8319 728.212 100.113 727.864 100.49C727.522 100.86 727.352 101.365 727.352 102.005C727.352 102.88 727.675 103.542 728.323 103.99C728.977 104.431 729.806 104.652 730.809 104.652Z" fill="white"/>
<path d="M554.32 147.19V142.921L562.473 136.177C563.014 135.729 563.476 135.309 563.86 134.918C564.252 134.52 564.551 134.111 564.757 133.691C564.97 133.271 565.077 132.805 565.077 132.293C565.077 131.731 564.956 131.251 564.714 130.852C564.479 130.454 564.152 130.148 563.732 129.935C563.313 129.714 562.829 129.604 562.281 129.604C561.733 129.604 561.25 129.714 560.83 129.935C560.417 130.155 560.097 130.479 559.869 130.906C559.642 131.333 559.528 131.852 559.528 132.464H553.894C553.894 130.927 554.239 129.604 554.929 128.494C555.619 127.384 556.593 126.531 557.853 125.933C559.112 125.335 560.588 125.037 562.281 125.037C564.031 125.037 565.546 125.318 566.827 125.88C568.115 126.435 569.107 127.217 569.804 128.227C570.509 129.237 570.861 130.422 570.861 131.781C570.861 132.62 570.686 133.456 570.338 134.289C569.989 135.114 569.363 136.028 568.46 137.031C567.556 138.034 566.272 139.229 564.607 140.617L562.559 142.324V142.452H571.095V147.19H554.32ZM584.461 125.335V147.19H578.528V130.799H578.4L573.619 133.659V128.622L578.997 125.335H584.461ZM603.899 125.335H609.746V140.318C609.739 141.741 609.38 142.993 608.669 144.074C607.964 145.148 606.99 145.988 605.745 146.592C604.507 147.19 603.081 147.489 601.466 147.489C600.064 147.489 598.784 147.247 597.624 146.763C596.464 146.272 595.54 145.504 594.85 144.458C594.159 143.405 593.818 142.039 593.825 140.36H599.758C599.78 140.908 599.872 141.371 600.036 141.748C600.206 142.125 600.441 142.409 600.74 142.601C601.046 142.786 601.416 142.879 601.85 142.879C602.291 142.879 602.661 142.783 602.96 142.591C603.265 142.399 603.497 142.114 603.653 141.737C603.81 141.353 603.892 140.88 603.899 140.318V125.335ZM623.272 140.019V130.799H629.163V147.19H623.571V144.074H623.4C623.044 145.12 622.422 145.938 621.533 146.528C620.643 147.112 619.587 147.403 618.363 147.403C617.218 147.403 616.215 147.14 615.354 146.614C614.5 146.087 613.835 145.362 613.359 144.437C612.889 143.512 612.651 142.452 612.644 141.257V130.799H618.534V140.019C618.541 140.83 618.748 141.467 619.153 141.929C619.566 142.391 620.142 142.623 620.882 142.623C621.373 142.623 621.796 142.52 622.152 142.313C622.514 142.1 622.792 141.801 622.984 141.417C623.183 141.026 623.279 140.56 623.272 140.019ZM638.049 125.335V147.19H632.159V125.335H638.049ZM641.05 147.19V130.799H646.941V147.19H641.05ZM643.996 129.092C643.199 129.092 642.516 128.828 641.947 128.302C641.378 127.776 641.093 127.142 641.093 126.403C641.093 125.663 641.378 125.029 641.947 124.503C642.516 123.977 643.199 123.713 643.996 123.713C644.799 123.713 645.482 123.977 646.044 124.503C646.614 125.029 646.898 125.663 646.898 126.403C646.898 127.142 646.614 127.776 646.044 128.302C645.482 128.828 644.799 129.092 643.996 129.092ZM655.886 147.19V142.921L664.039 136.177C664.579 135.729 665.042 135.309 665.426 134.918C665.817 134.52 666.116 134.111 666.322 133.691C666.536 133.271 666.642 132.805 666.642 132.293C666.642 131.731 666.521 131.251 666.28 130.852C666.045 130.454 665.718 130.148 665.298 129.935C664.878 129.714 664.394 129.604 663.847 129.604C663.299 129.604 662.815 129.714 662.395 129.935C661.983 130.155 661.663 130.479 661.435 130.906C661.207 131.333 661.093 131.852 661.093 132.464H655.459C655.459 130.927 655.804 129.604 656.494 128.494C657.184 127.384 658.159 126.531 659.418 125.933C660.677 125.335 662.153 125.037 663.847 125.037C665.597 125.037 667.112 125.318 668.392 125.88C669.68 126.435 670.673 127.217 671.37 128.227C672.074 129.237 672.426 130.422 672.426 131.781C672.426 132.62 672.252 133.456 671.903 134.289C671.555 135.114 670.929 136.028 670.025 137.031C669.122 138.034 667.838 139.229 666.173 140.617L664.124 142.324V142.452H672.661V147.19H655.886ZM684.831 147.788C682.847 147.78 681.132 147.322 679.688 146.411C678.244 145.5 677.13 144.188 676.348 142.473C675.565 140.759 675.178 138.703 675.185 136.305C675.192 133.901 675.583 131.859 676.359 130.18C677.141 128.501 678.251 127.224 679.688 126.349C681.132 125.474 682.847 125.037 684.831 125.037C686.816 125.037 688.531 125.478 689.975 126.36C691.419 127.235 692.532 128.512 693.315 130.191C694.098 131.87 694.485 133.908 694.478 136.305C694.478 138.717 694.087 140.78 693.304 142.495C692.522 144.209 691.408 145.522 689.964 146.432C688.527 147.336 686.816 147.788 684.831 147.788ZM684.831 142.964C685.856 142.964 686.695 142.431 687.35 141.363C688.011 140.289 688.339 138.603 688.332 136.305C688.332 134.804 688.182 133.577 687.883 132.624C687.585 131.671 687.172 130.966 686.646 130.511C686.119 130.048 685.514 129.817 684.831 129.817C683.807 129.817 682.971 130.337 682.324 131.375C681.676 132.414 681.346 134.057 681.331 136.305C681.324 137.835 681.47 139.094 681.769 140.083C682.068 141.065 682.48 141.79 683.007 142.26C683.54 142.729 684.148 142.964 684.831 142.964ZM697.263 147.19V142.921L705.416 136.177C705.957 135.729 706.419 135.309 706.803 134.918C707.195 134.52 707.493 134.111 707.7 133.691C707.913 133.271 708.02 132.805 708.02 132.293C708.02 131.731 707.899 131.251 707.657 130.852C707.422 130.454 707.095 130.148 706.675 129.935C706.256 129.714 705.772 129.604 705.224 129.604C704.676 129.604 704.192 129.714 703.773 129.935C703.36 130.155 703.04 130.479 702.812 130.906C702.585 131.333 702.471 131.852 702.471 132.464H696.836C696.836 130.927 697.182 129.604 697.872 128.494C698.562 127.384 699.536 126.531 700.795 125.933C702.055 125.335 703.531 125.037 705.224 125.037C706.974 125.037 708.489 125.318 709.77 125.88C711.058 126.435 712.05 127.217 712.747 128.227C713.451 129.237 713.804 130.422 713.804 131.781C713.804 132.62 713.629 133.456 713.281 134.289C712.932 135.114 712.306 136.028 711.403 137.031C710.499 138.034 709.215 139.229 707.55 140.617L705.501 142.324V142.452H714.038V147.19H697.263ZM716.007 143.775V139.165L724.8 125.335H728.983V131.482H726.593L721.855 138.994V139.165H734.831V143.775H716.007ZM726.636 147.19V142.367L726.764 140.36V125.335H732.313V147.19H726.636Z" fill="white"/>
</g>
<defs>
<clipPath id="clip0_791_113">
<rect width="784.83" height="280.65" fill="white"/>
</clipPath>
</defs>
</svg>
