<svg width="785" height="281" viewBox="0 0 785 281" fill="none" xmlns="http://www.w3.org/2000/svg">
<g clip-path="url(#clip0_791_124)">
<mask id="mask0_791_124" style="mask-type:luminance" maskUnits="userSpaceOnUse" x="392" y="92" width="359" height="189">
<path d="M750.66 92.4702H392.42V280.65H750.66V92.4702Z" fill="white"/>
</mask>
<g mask="url(#mask0_791_124)">
<path d="M530.42 315.86C518.488 315.86 508.297 312.435 499.845 305.586C491.449 298.681 484.986 288.71 480.456 275.674C475.982 262.637 473.745 246.977 473.745 228.693C473.745 210.464 475.982 194.859 480.456 181.878C484.986 168.841 491.476 158.871 499.928 151.966C508.435 145.006 518.599 141.525 530.42 141.525C542.241 141.525 552.378 145.006 560.829 151.966C569.336 158.871 575.827 168.841 580.301 181.878C584.83 194.859 587.095 210.464 587.095 228.693C587.095 246.977 584.83 262.637 580.301 275.674C575.827 288.71 569.364 298.681 560.912 305.586C552.516 312.435 542.352 315.86 530.42 315.86ZM530.42 301.94C543.512 301.94 553.731 295.56 561.078 282.799C568.424 269.984 572.098 251.948 572.098 228.693C572.098 213.226 570.413 200.024 567.044 189.086C563.729 178.094 558.951 169.697 552.709 163.897C546.522 158.097 539.093 155.197 530.42 155.197C517.439 155.197 507.247 161.66 499.845 174.586C492.443 187.457 488.742 205.492 488.742 228.693C488.742 244.16 490.399 257.362 493.714 268.299C497.083 279.237 501.861 287.578 508.048 293.323C514.29 299.067 521.747 301.94 530.42 301.94ZM616.759 277.082V264.488L692.409 143.845H701.689V164.974H694.812L634.076 262.085V263.162H733.258V277.082H616.759ZM695.972 313.54V273.105V267.305V143.845H710.72V313.54H695.972Z" fill="white"/>
</g>
<path d="M80.3021 50.3311H74.2836C74.2409 49.8332 74.127 49.3814 73.9421 48.9759C73.7642 48.5704 73.5152 48.2218 73.1951 47.9301C72.8821 47.6313 72.5015 47.4037 72.0533 47.2472C71.6051 47.0836 71.0964 47.0017 70.5273 47.0017C69.5313 47.0017 68.6883 47.2436 67.9982 47.7274C67.3153 48.2111 66.796 48.9048 66.4403 49.8083C66.0917 50.7117 65.9174 51.7967 65.9174 53.063C65.9174 54.4004 66.0952 55.5209 66.4509 56.4244C66.8137 57.3208 67.3366 57.9966 68.0196 58.4519C68.7025 58.9001 69.5242 59.1242 70.4846 59.1242C71.0324 59.1242 71.5233 59.0566 71.9572 58.9214C72.3912 58.7791 72.7683 58.5764 73.0884 58.3132C73.4085 58.05 73.6682 57.7334 73.8674 57.3634C74.0737 56.9864 74.2124 56.5631 74.2836 56.0936L80.3021 56.1363C80.231 57.0611 79.9713 58.0037 79.5231 58.9641C79.0749 59.9174 78.4382 60.7996 77.613 61.6106C76.7948 62.4145 75.7811 63.0618 74.5717 63.5527C73.3623 64.0436 71.9572 64.289 70.3566 64.289C68.3504 64.289 66.5505 63.8586 64.957 62.9978C63.3705 62.137 62.1149 60.8707 61.19 59.1989C60.2723 57.5271 59.8135 55.4818 59.8135 53.063C59.8135 50.6299 60.283 48.5811 61.2221 46.9164C62.1611 45.2446 63.4274 43.9818 65.021 43.1281C66.6145 42.2673 68.3931 41.8369 70.3566 41.8369C71.7367 41.8369 73.0066 42.0254 74.1662 42.4025C75.3258 42.7795 76.3431 43.3309 77.2181 44.0565C78.0932 44.775 78.7975 45.6607 79.331 46.7136C79.8646 47.7665 80.1883 48.9723 80.3021 50.3311ZM104.165 53.063C104.165 55.496 103.692 57.5484 102.746 59.2202C101.8 60.8849 100.523 62.1477 98.9153 63.0085C97.3075 63.8622 95.5147 64.289 93.537 64.289C91.5451 64.289 89.7452 63.8586 88.1374 62.9978C86.5367 62.1299 85.2633 60.8636 84.3171 59.1989C83.3781 57.5271 82.9085 55.4818 82.9085 53.063C82.9085 50.6299 83.3781 48.5811 84.3171 46.9164C85.2633 45.2446 86.5367 43.9818 88.1374 43.1281C89.7452 42.2673 91.5451 41.8369 93.537 41.8369C95.5147 41.8369 97.3075 42.2673 98.9153 43.1281C100.523 43.9818 101.8 45.2446 102.746 46.9164C103.692 48.5811 104.165 50.6299 104.165 53.063ZM98.0616 53.063C98.0616 51.754 97.8873 50.6513 97.5387 49.7549C97.1972 48.8514 96.6886 48.1685 96.0127 47.706C95.344 47.2365 94.5188 47.0017 93.537 47.0017C92.5553 47.0017 91.7265 47.2365 91.0506 47.706C90.3819 48.1685 89.8732 48.8514 89.5246 49.7549C89.1832 50.6513 89.0124 51.754 89.0124 53.063C89.0124 54.372 89.1832 55.4782 89.5246 56.3817C89.8732 57.2781 90.3819 57.961 91.0506 58.4306C91.7265 58.893 92.5553 59.1242 93.537 59.1242C94.5188 59.1242 95.344 58.893 96.0127 58.4306C96.6886 57.961 97.1972 57.2781 97.5387 56.3817C97.8873 55.4782 98.0616 54.372 98.0616 53.063ZM112.844 42.1357V63.9902H106.911V42.1357H112.844ZM134.565 42.1357V63.9902H129.614L121.717 52.5081H121.589V63.9902H115.656V42.1357H120.692L128.461 53.5752H128.632V42.1357H134.565ZM137.371 63.9902V42.1357H152.738V46.9164H143.305V50.6726H151.799V55.4533H143.305V63.9902H137.371ZM154.92 63.9902V42.1357H170.671V46.9164H160.853V50.6726H169.86V55.4533H160.853V59.2096H170.628V63.9902H154.92ZM185.394 48.9652C185.337 48.2538 185.071 47.6989 184.594 47.3005C184.125 46.9021 183.41 46.7029 182.449 46.7029C181.837 46.7029 181.336 46.7776 180.945 46.927C180.56 47.0693 180.276 47.265 180.091 47.514C179.906 47.7629 179.81 48.0475 179.803 48.3676C179.788 48.6309 179.835 48.8692 179.941 49.0826C180.055 49.2889 180.233 49.4775 180.475 49.6482C180.717 49.8118 181.026 49.9612 181.403 50.0964C181.78 50.2315 182.229 50.3525 182.748 50.4592L184.541 50.8434C185.75 51.0995 186.785 51.4374 187.646 51.8571C188.507 52.2769 189.211 52.7713 189.759 53.3404C190.307 53.9024 190.709 54.5356 190.965 55.2399C191.228 55.9442 191.363 56.7125 191.37 57.5449C191.363 58.9819 191.004 60.1984 190.292 61.1944C189.581 62.1904 188.564 62.948 187.241 63.4673C185.924 63.9867 184.342 64.2463 182.492 64.2463C180.592 64.2463 178.935 63.9653 177.519 63.4033C176.11 62.8413 175.015 61.9769 174.232 60.8102C173.457 59.6364 173.066 58.1353 173.059 56.307H178.693C178.728 56.9757 178.896 57.5377 179.194 57.993C179.493 58.4483 179.913 58.7934 180.454 59.0281C181.001 59.2629 181.652 59.3803 182.406 59.3803C183.04 59.3803 183.57 59.302 183.996 59.1455C184.423 58.989 184.747 58.772 184.968 58.4946C185.188 58.2171 185.302 57.9006 185.309 57.5449C185.302 57.2105 185.192 56.9188 184.978 56.6698C184.772 56.4137 184.43 56.1861 183.954 55.9869C183.477 55.7806 182.833 55.5885 182.022 55.4106L179.845 54.9411C177.91 54.5214 176.384 53.8206 175.267 52.8389C174.158 51.85 173.606 50.5019 173.613 48.7945C173.606 47.4072 173.976 46.1943 174.723 45.1556C175.477 44.1099 176.52 43.2953 177.85 42.7119C179.187 42.1286 180.72 41.8369 182.449 41.8369C184.213 41.8369 185.739 42.1321 187.027 42.7226C188.315 43.3131 189.307 44.1454 190.004 45.2197C190.709 46.2868 191.064 47.5353 191.071 48.9652H185.394ZM193.03 46.9164V42.1357H212.024V46.9164H205.451V63.9902H199.603V46.9164H193.03ZM220.286 63.9902V59.7218L228.439 52.9776C228.98 52.5294 229.442 52.1097 229.826 51.7184C230.218 51.32 230.517 50.9109 230.723 50.4912C230.936 50.0715 231.043 49.6055 231.043 49.0933C231.043 48.5313 230.922 48.0511 230.68 47.6527C230.445 47.2543 230.118 46.9484 229.698 46.735C229.279 46.5144 228.795 46.4042 228.247 46.4042C227.699 46.4042 227.216 46.5144 226.796 46.735C226.383 46.9555 226.063 47.2792 225.835 47.706C225.608 48.1329 225.494 48.6522 225.494 49.264H219.86C219.86 47.7274 220.205 46.4042 220.895 45.2944C221.585 44.1846 222.559 43.3309 223.819 42.7333C225.078 42.1357 226.554 41.8369 228.247 41.8369C229.997 41.8369 231.513 42.1179 232.793 42.6799C234.081 43.2348 235.073 44.0174 235.77 45.0276C236.475 46.0378 236.827 47.2223 236.827 48.5811C236.827 49.4205 236.652 50.2564 236.304 51.0888C235.955 51.914 235.329 52.8282 234.426 53.8313C233.522 54.8344 232.238 56.0295 230.573 57.4168L228.525 59.1242V59.2522H237.062V63.9902H220.286ZM249.232 64.5878C247.247 64.5807 245.533 64.1218 244.088 63.2112C242.644 62.3006 241.531 60.9881 240.748 59.2736C239.966 57.5591 239.578 55.5031 239.585 53.1056C239.592 50.7011 239.984 48.6593 240.759 46.9804C241.542 45.3015 242.651 44.0245 244.088 43.1494C245.533 42.2744 247.247 41.8369 249.232 41.8369C251.217 41.8369 252.931 42.278 254.375 43.1601C255.82 44.0352 256.933 45.3121 257.716 46.9911C258.498 48.67 258.886 50.7082 258.879 53.1056C258.879 55.5173 258.487 57.5804 257.705 59.2949C256.922 61.0094 255.809 62.322 254.365 63.2326C252.928 64.1361 251.217 64.5878 249.232 64.5878ZM249.232 59.7645C250.256 59.7645 251.096 59.2309 251.75 58.1638C252.412 57.0895 252.739 55.4035 252.732 53.1056C252.732 51.6046 252.583 50.3774 252.284 49.4241C251.985 48.4708 251.573 47.7665 251.046 47.3112C250.52 46.8488 249.915 46.6176 249.232 46.6176C248.208 46.6176 247.372 47.1369 246.724 48.1756C246.077 49.2142 245.746 50.8576 245.732 53.1056C245.725 54.6352 245.871 55.8944 246.169 56.8832C246.468 57.865 246.881 58.5906 247.407 59.0602C247.941 59.5297 248.549 59.7645 249.232 59.7645ZM261.664 63.9902V59.7218L269.817 52.9776C270.357 52.5294 270.82 52.1097 271.204 51.7184C271.595 51.32 271.894 50.9109 272.1 50.4912C272.314 50.0715 272.42 49.6055 272.42 49.0933C272.42 48.5313 272.299 48.0511 272.058 47.6527C271.823 47.2543 271.496 46.9484 271.076 46.735C270.656 46.5144 270.172 46.4042 269.625 46.4042C269.077 46.4042 268.593 46.5144 268.173 46.735C267.761 46.9555 267.441 47.2792 267.213 47.706C266.985 48.1329 266.871 48.6522 266.871 49.264H261.237C261.237 47.7274 261.582 46.4042 262.272 45.2944C262.962 44.1846 263.937 43.3309 265.196 42.7333C266.455 42.1357 267.931 41.8369 269.625 41.8369C271.375 41.8369 272.89 42.1179 274.17 42.6799C275.458 43.2348 276.451 44.0174 277.148 45.0276C277.852 46.0378 278.204 47.2223 278.204 48.5811C278.204 49.4205 278.03 50.2564 277.681 51.0888C277.333 51.914 276.707 52.8282 275.803 53.8313C274.9 54.8344 273.616 56.0295 271.951 57.4168L269.902 59.1242V59.2522H278.439V63.9902H261.664ZM280.408 60.5755V55.9655L289.201 42.1357H293.384V48.2823H290.994L286.256 55.7948V55.9655H299.232V60.5755H280.408ZM291.036 63.9902V59.1669L291.164 57.1607V42.1357H296.713V63.9902H291.036Z" fill="white"/>
<path d="M66.9845 104.982C65.6186 104.982 64.4127 104.637 63.367 103.947C62.3212 103.249 61.5031 102.268 60.9126 101.001C60.3221 99.7278 60.0269 98.2232 60.0269 96.4874C60.0269 94.7658 60.3221 93.2718 60.9126 92.0055C61.5031 90.7392 62.3247 89.761 63.3776 89.0709C64.4305 88.3808 65.647 88.0358 67.0272 88.0358C68.0943 88.0358 68.9373 88.2137 69.5562 88.5694C70.1823 88.918 70.6589 89.3163 70.9862 89.7645C71.3205 90.2056 71.5802 90.5684 71.7652 90.853H71.9786V82.7856H74.497V104.64H72.064V102.122H71.7652C71.5802 102.421 71.317 102.798 70.9755 103.253C70.634 103.701 70.1467 104.103 69.5135 104.459C68.8804 104.807 68.0374 104.982 66.9845 104.982ZM67.326 102.719C68.3362 102.719 69.1899 102.456 69.887 101.93C70.5842 101.396 71.1142 100.66 71.477 99.7207C71.8399 98.7746 72.0213 97.6825 72.0213 96.4447C72.0213 95.2211 71.8434 94.1504 71.4877 93.2327C71.132 92.3078 70.6056 91.5893 69.9084 91.0771C69.2112 90.5578 68.3504 90.2981 67.326 90.2981C66.2588 90.2981 65.3696 90.572 64.6582 91.1198C63.9539 91.6604 63.4239 92.3968 63.0682 93.3287C62.7196 94.2535 62.5453 95.2922 62.5453 96.4447C62.5453 97.6114 62.7231 98.6714 63.0788 99.6247C63.4417 100.571 63.9752 101.325 64.6795 101.887C65.3909 102.442 66.2731 102.719 67.326 102.719ZM79.4591 104.64V88.2492H81.9775V104.64H79.4591ZM80.7396 85.5174C80.2487 85.5174 79.8254 85.3502 79.4697 85.0159C79.1212 84.6815 78.9469 84.2796 78.9469 83.81C78.9469 83.3405 79.1212 82.9385 79.4697 82.6042C79.8254 82.2698 80.2487 82.1026 80.7396 82.1026C81.2305 82.1026 81.6502 82.2698 81.9988 82.6042C82.3545 82.9385 82.5324 83.3405 82.5324 83.81C82.5324 84.2796 82.3545 84.6815 81.9988 85.0159C81.6502 85.3502 81.2305 85.5174 80.7396 85.5174ZM95.3831 104.64V82.7856H103.024C104.546 82.7856 105.802 83.0488 106.791 83.5753C107.779 84.0946 108.516 84.7953 109 85.6775C109.483 86.5525 109.725 87.5236 109.725 88.5907C109.725 89.5298 109.558 90.3052 109.224 90.917C108.896 91.5288 108.462 92.0126 107.922 92.3683C107.388 92.724 106.808 92.9872 106.182 93.158V93.3714C106.851 93.4141 107.523 93.6488 108.199 94.0757C108.875 94.5025 109.441 95.1143 109.896 95.9111C110.351 96.7079 110.579 97.6825 110.579 98.835C110.579 99.9306 110.33 100.916 109.832 101.791C109.334 102.666 108.548 103.36 107.474 103.872C106.399 104.384 105.001 104.64 103.28 104.64H95.3831ZM98.0296 102.292H103.28C105.009 102.292 106.236 101.958 106.961 101.289C107.694 100.614 108.06 99.7954 108.06 98.835C108.06 98.0952 107.872 97.4122 107.495 96.7862C107.118 96.153 106.581 95.6479 105.884 95.2709C105.186 94.8867 104.361 94.6946 103.408 94.6946H98.0296V102.292ZM98.0296 92.3896H102.938C103.735 92.3896 104.454 92.2331 105.094 91.9201C105.741 91.6071 106.253 91.166 106.631 90.5969C107.015 90.0278 107.207 89.359 107.207 88.5907C107.207 87.6303 106.872 86.8157 106.204 86.147C105.535 85.4712 104.475 85.1332 103.024 85.1332H98.0296V92.3896ZM119.409 105.024C118.371 105.024 117.428 104.829 116.581 104.437C115.735 104.039 115.063 103.466 114.565 102.719C114.067 101.965 113.818 101.055 113.818 99.9875C113.818 99.0484 114.003 98.2872 114.372 97.7039C114.742 97.1134 115.237 96.651 115.856 96.3166C116.475 95.9823 117.158 95.7333 117.905 95.5696C118.659 95.3989 119.416 95.2637 120.178 95.1641C121.174 95.0361 121.981 94.94 122.6 94.876C123.226 94.8049 123.681 94.6875 123.966 94.5239C124.258 94.3602 124.403 94.0757 124.403 93.6702V93.5848C124.403 92.5319 124.115 91.7138 123.539 91.1304C122.97 90.5471 122.105 90.2554 120.946 90.2554C119.744 90.2554 118.801 90.5186 118.118 91.0451C117.435 91.5715 116.955 92.1335 116.677 92.7311L114.287 91.8774C114.714 90.8814 115.283 90.106 115.994 89.5511C116.713 88.9891 117.496 88.5978 118.342 88.3773C119.196 88.1496 120.035 88.0358 120.861 88.0358C121.387 88.0358 121.992 88.0998 122.675 88.2279C123.365 88.3488 124.03 88.6014 124.67 88.9855C125.318 89.3697 125.855 89.9495 126.281 90.7249C126.708 91.5004 126.922 92.539 126.922 93.8409V104.64H124.403V102.421H124.275C124.105 102.776 123.82 103.157 123.422 103.562C123.023 103.968 122.493 104.313 121.832 104.597C121.17 104.882 120.363 105.024 119.409 105.024ZM119.793 102.762C120.789 102.762 121.629 102.566 122.312 102.175C123.002 101.784 123.521 101.279 123.87 100.66C124.225 100.041 124.403 99.3899 124.403 98.707V96.402C124.297 96.5301 124.062 96.6474 123.699 96.7541C123.343 96.8537 122.931 96.9427 122.461 97.0209C121.999 97.0921 121.547 97.1561 121.106 97.213C120.672 97.2628 120.32 97.3055 120.05 97.3411C119.395 97.4264 118.783 97.5652 118.214 97.7572C117.652 97.9422 117.197 98.2232 116.848 98.6003C116.507 98.9702 116.336 99.4753 116.336 100.116C116.336 100.991 116.66 101.652 117.307 102.1C117.962 102.541 118.79 102.762 119.793 102.762ZM134.037 82.7856V104.64H131.518V82.7856H134.037ZM138.649 104.64V88.2492H141.168V104.64H138.649ZM139.93 85.5174C139.439 85.5174 139.016 85.3502 138.66 85.0159C138.311 84.6815 138.137 84.2796 138.137 83.81C138.137 83.3405 138.311 82.9385 138.66 82.6042C139.016 82.2698 139.439 82.1026 139.93 82.1026C140.421 82.1026 140.841 82.2698 141.189 82.6042C141.545 82.9385 141.723 83.3405 141.723 83.81C141.723 84.2796 141.545 84.6815 141.189 85.0159C140.841 85.3502 140.421 85.5174 139.93 85.5174Z" fill="white"/>
</g>
<defs>
<clipPath id="clip0_791_124">
<rect width="784.83" height="280.65" fill="white"/>
</clipPath>
</defs>
</svg>
