<svg width="718" height="133" viewBox="0 0 718 133" fill="none" xmlns="http://www.w3.org/2000/svg">
<g clip-path="url(#clip0_791_246)">
<path d="M717.45 0H0V132.77H717.45V0Z" fill="#262626"/>
<path d="M171.759 58.48V38.8436H174.137V48.5851H174.367L183.188 38.8436H186.294L178.048 47.703L186.294 58.48H183.418L176.591 49.3521L174.137 52.1135V58.48H171.759ZM194.159 58.7868C192.74 58.7868 191.516 58.4736 190.487 57.8472C189.464 57.2144 188.674 56.3323 188.118 55.2009C187.569 54.0631 187.294 52.7399 187.294 51.2314C187.294 49.7229 187.569 48.3933 188.118 47.2428C188.674 46.0858 189.448 45.1845 190.439 44.5389C191.436 43.8869 192.599 43.5609 193.929 43.5609C194.696 43.5609 195.453 43.6888 196.201 43.9445C196.949 44.2002 197.63 44.6156 198.243 45.1909C198.857 45.7598 199.346 46.5141 199.71 47.4537C200.075 48.3933 200.257 49.5503 200.257 50.9246V51.8834H188.905V49.9274H197.956C197.956 49.0965 197.79 48.355 197.457 47.703C197.131 47.051 196.665 46.5364 196.057 46.1593C195.456 45.7822 194.747 45.5936 193.929 45.5936C193.027 45.5936 192.248 45.8173 191.589 46.2648C190.937 46.7058 190.435 47.2811 190.084 47.9906C189.732 48.7002 189.557 49.4608 189.557 50.2726V51.5766C189.557 52.6888 189.748 53.6316 190.132 54.4051C190.522 55.1721 191.062 55.757 191.752 56.1597C192.443 56.556 193.245 56.7541 194.159 56.7541C194.753 56.7541 195.29 56.671 195.77 56.5048C196.255 56.3323 196.674 56.0766 197.026 55.7378C197.377 55.3926 197.649 54.9644 197.841 54.453L200.027 55.0666C199.797 55.8081 199.41 56.4601 198.867 57.0226C198.323 57.5787 197.652 58.0134 196.853 58.3266C196.054 58.6334 195.156 58.7868 194.159 58.7868ZM212.98 52.4587V43.7527H215.243V58.48H212.98V55.9871H212.827C212.482 56.735 211.945 57.371 211.216 57.8951C210.487 58.4129 209.567 58.6717 208.455 58.6717C207.534 58.6717 206.716 58.4704 206 58.0677C205.284 57.6586 204.722 57.045 204.313 56.2268C203.903 55.4022 203.699 54.3635 203.699 53.1107V43.7527H205.962V52.9573C205.962 54.0311 206.262 54.8877 206.863 55.5269C207.47 56.1661 208.244 56.4857 209.183 56.4857C209.746 56.4857 210.318 56.3418 210.9 56.0542C211.488 55.7666 211.98 55.3255 212.376 54.731C212.779 54.1366 212.98 53.3791 212.98 52.4587ZM221.65 49.6206V58.48H219.387V43.7527H221.574V46.0538H221.765C222.11 45.306 222.635 44.7051 223.338 44.2513C224.041 43.7911 224.949 43.5609 226.061 43.5609C227.058 43.5609 227.93 43.7655 228.678 44.1746C229.426 44.5773 230.008 45.1909 230.423 46.0155C230.839 46.8337 231.047 47.8692 231.047 49.122V58.48H228.784V49.2754C228.784 48.1185 228.483 47.2172 227.882 46.5716C227.282 45.9196 226.457 45.5936 225.409 45.5936C224.686 45.5936 224.041 45.7502 223.472 46.0634C222.909 46.3766 222.465 46.8337 222.139 47.4345C221.813 48.0354 221.65 48.7641 221.65 49.6206ZM241.586 43.7527V45.6703H233.954V43.7527H241.586ZM236.179 40.2243H238.441V54.2612C238.441 54.9004 238.534 55.3798 238.719 55.6994C238.911 56.0127 239.154 56.2236 239.448 56.3323C239.748 56.4345 240.065 56.4857 240.397 56.4857C240.647 56.4857 240.851 56.4729 241.011 56.4473C241.171 56.4153 241.299 56.3898 241.394 56.3706L241.855 58.4033C241.701 58.4608 241.487 58.5183 241.212 58.5759C240.937 58.6398 240.589 58.6717 240.167 58.6717C239.528 58.6717 238.902 58.5343 238.288 58.2595C237.681 57.9846 237.176 57.5659 236.773 57.0034C236.377 56.4409 236.179 55.7314 236.179 54.8749V40.2243ZM254.271 52.4587V43.7527H256.534V58.48H254.271V55.9871H254.118C253.773 56.735 253.236 57.371 252.507 57.8951C251.778 58.4129 250.858 58.6717 249.746 58.6717C248.825 58.6717 248.007 58.4704 247.291 58.0677C246.575 57.6586 246.013 57.045 245.604 56.2268C245.195 55.4022 244.99 54.3635 244.99 53.1107V43.7527H247.253V52.9573C247.253 54.0311 247.553 54.8877 248.154 55.5269C248.761 56.1661 249.535 56.4857 250.474 56.4857C251.037 56.4857 251.609 56.3418 252.191 56.0542C252.779 55.7666 253.271 55.3255 253.667 54.731C254.07 54.1366 254.271 53.3791 254.271 52.4587ZM262.941 49.6206V58.48H260.678V43.7527H262.865V46.0538H263.056C263.401 45.306 263.926 44.7051 264.629 44.2513C265.332 43.7911 266.24 43.5609 267.352 43.5609C268.349 43.5609 269.221 43.7655 269.969 44.1746C270.717 44.5773 271.299 45.1909 271.714 46.0155C272.13 46.8337 272.338 47.8692 272.338 49.122V58.48H270.075V49.2754C270.075 48.1185 269.774 47.2172 269.173 46.5716C268.573 45.9196 267.748 45.5936 266.7 45.5936C265.977 45.5936 265.332 45.7502 264.763 46.0634C264.2 46.3766 263.756 46.8337 263.43 47.4345C263.104 48.0354 262.941 48.7641 262.941 49.6206ZM282.417 64.3095C281.324 64.3095 280.384 64.1689 279.598 63.8877C278.812 63.6128 278.157 63.2484 277.633 62.7946C277.115 62.3472 276.703 61.8678 276.396 61.3564L278.198 60.0908C278.403 60.3592 278.662 60.6661 278.975 61.0112C279.288 61.3628 279.716 61.6664 280.26 61.9221C280.809 62.1842 281.528 62.3152 282.417 62.3152C283.606 62.3152 284.587 62.0276 285.361 61.4523C286.134 60.877 286.521 59.9757 286.521 58.7484V55.757H286.329C286.163 56.0254 285.926 56.3578 285.619 56.7541C285.319 57.144 284.884 57.4924 284.315 57.7992C283.753 58.0997 282.992 58.2499 282.033 58.2499C280.845 58.2499 279.777 57.9686 278.831 57.4061C277.891 56.8436 277.147 56.0254 276.597 54.9516C276.054 53.8777 275.782 52.5737 275.782 51.0396C275.782 49.5311 276.047 48.2176 276.578 47.0989C277.108 45.9739 277.847 45.1046 278.793 44.491C279.739 43.871 280.832 43.5609 282.072 43.5609C283.031 43.5609 283.791 43.7207 284.354 44.0404C284.923 44.3536 285.357 44.7115 285.658 45.1142C285.965 45.5105 286.201 45.8365 286.367 46.0922H286.597V43.7527H288.783V58.9019C288.783 60.1675 288.496 61.1966 287.921 61.9892C287.352 62.7882 286.585 63.3731 285.619 63.7438C284.661 64.121 283.593 64.3095 282.417 64.3095ZM282.34 56.2172C283.248 56.2172 284.015 56.0095 284.641 55.594C285.268 55.1785 285.744 54.5808 286.07 53.801C286.396 53.0212 286.559 52.0879 286.559 51.0013C286.559 49.9402 286.399 49.0038 286.08 48.192C285.76 47.3802 285.287 46.7442 284.661 46.284C284.034 45.8237 283.261 45.5936 282.34 45.5936C281.381 45.5936 280.582 45.8365 279.943 46.3223C279.31 46.8081 278.834 47.4601 278.515 48.2783C278.201 49.0965 278.045 50.0041 278.045 51.0013C278.045 52.024 278.205 52.9285 278.524 53.7147C278.85 54.4945 279.33 55.1082 279.962 55.5556C280.602 55.9967 281.394 56.2172 282.34 56.2172ZM297.259 58.8252C296.326 58.8252 295.479 58.6494 294.718 58.2978C293.958 57.9399 293.354 57.4253 292.906 56.7541C292.459 56.0766 292.235 55.2584 292.235 54.2996C292.235 53.4558 292.401 52.7719 292.734 52.2477C293.066 51.7172 293.51 51.3017 294.066 51.0013C294.623 50.7009 295.236 50.4771 295.907 50.3301C296.585 50.1767 297.266 50.0553 297.95 49.9658C298.845 49.8507 299.57 49.7644 300.126 49.7069C300.689 49.643 301.098 49.5375 301.353 49.3905C301.616 49.2435 301.747 48.9878 301.747 48.6234V48.5467C301.747 47.6007 301.488 46.8656 300.97 46.3415C300.459 45.8173 299.682 45.5553 298.64 45.5553C297.56 45.5553 296.713 45.7918 296.099 46.2648C295.486 46.7378 295.054 47.2428 294.805 47.7797L292.657 47.0127C293.041 46.1178 293.552 45.421 294.191 44.9225C294.837 44.4175 295.54 44.0659 296.301 43.8678C297.068 43.6632 297.822 43.5609 298.563 43.5609C299.036 43.5609 299.58 43.6185 300.193 43.7335C300.813 43.8422 301.411 44.0691 301.986 44.4143C302.568 44.7595 303.051 45.2804 303.434 45.9771C303.818 46.6739 304.009 47.6071 304.009 48.7769V58.48H301.747V56.4857H301.631C301.478 56.8053 301.222 57.1472 300.864 57.5116C300.506 57.8759 300.03 58.1859 299.436 58.4416C298.841 58.6973 298.116 58.8252 297.259 58.8252ZM297.604 56.7925C298.499 56.7925 299.254 56.6167 299.867 56.2651C300.487 55.9136 300.954 55.4597 301.267 54.9036C301.587 54.3475 301.747 53.7627 301.747 53.149V51.078C301.651 51.193 301.44 51.2985 301.114 51.3944C300.794 51.4839 300.423 51.5638 300.002 51.6341C299.586 51.698 299.18 51.7555 298.784 51.8067C298.394 51.8514 298.078 51.8898 297.835 51.9217C297.247 51.9984 296.697 52.1231 296.185 52.2957C295.68 52.4619 295.271 52.7144 294.958 53.0531C294.651 53.3855 294.498 53.8394 294.498 54.4146C294.498 55.2009 294.789 55.7953 295.37 56.198C295.959 56.5943 296.703 56.7925 297.604 56.7925ZM310.402 49.6206V58.48H308.139V43.7527H310.325V46.0538H310.517C310.862 45.306 311.387 44.7051 312.09 44.2513C312.793 43.7911 313.7 43.5609 314.813 43.5609C315.81 43.5609 316.682 43.7655 317.43 44.1746C318.178 44.5773 318.76 45.1909 319.175 46.0155C319.591 46.8337 319.798 47.8692 319.798 49.122V58.48H317.536V49.2754C317.536 48.1185 317.235 47.2172 316.634 46.5716C316.034 45.9196 315.209 45.5936 314.161 45.5936C313.438 45.5936 312.793 45.7502 312.224 46.0634C311.661 46.3766 311.217 46.8337 310.891 47.4345C310.565 48.0354 310.402 48.7641 310.402 49.6206ZM331.834 38.8436H334.672L341.345 55.1433H341.575L348.249 38.8436H351.087V58.48H348.862V43.5609H348.671L342.534 58.48H340.386L334.25 43.5609H334.058V58.48H331.834V38.8436ZM361.531 58.7868C360.201 58.7868 359.034 58.4704 358.031 57.8376C357.034 57.2048 356.254 56.3195 355.691 55.1817C355.135 54.0439 354.857 52.7144 354.857 51.193C354.857 49.659 355.135 48.3198 355.691 47.1756C356.254 46.0315 357.034 45.143 358.031 44.5102C359.034 43.8774 360.201 43.5609 361.531 43.5609C362.86 43.5609 364.023 43.8774 365.021 44.5102C366.024 45.143 366.804 46.0315 367.36 47.1756C367.923 48.3198 368.204 49.659 368.204 51.193C368.204 52.7144 367.923 54.0439 367.36 55.1817C366.804 56.3195 366.024 57.2048 365.021 57.8376C364.023 58.4704 362.86 58.7868 361.531 58.7868ZM361.531 56.7541C362.54 56.7541 363.371 56.4953 364.023 55.9775C364.675 55.4597 365.158 54.779 365.471 53.9352C365.784 53.0915 365.941 52.1774 365.941 51.193C365.941 50.2087 365.784 49.2914 365.471 48.4413C365.158 47.5911 364.675 46.904 364.023 46.3798C363.371 45.8557 362.54 45.5936 361.531 45.5936C360.521 45.5936 359.69 45.8557 359.038 46.3798C358.386 46.904 357.903 47.5911 357.59 48.4413C357.277 49.2914 357.12 50.2087 357.12 51.193C357.12 52.1774 357.277 53.0915 357.59 53.9352C357.903 54.779 358.386 55.4597 359.038 55.9775C359.69 56.4953 360.521 56.7541 361.531 56.7541ZM373.921 49.6206V58.48H371.658V43.7527H373.844V46.0538H374.036C374.381 45.306 374.905 44.7051 375.608 44.2513C376.311 43.7911 377.219 43.5609 378.331 43.5609C379.328 43.5609 380.201 43.7655 380.949 44.1746C381.697 44.5773 382.278 45.1909 382.694 46.0155C383.109 46.8337 383.317 47.8692 383.317 49.122V58.48H381.054V49.2754C381.054 48.1185 380.754 47.2172 380.153 46.5716C379.552 45.9196 378.728 45.5936 377.679 45.5936C376.957 45.5936 376.311 45.7502 375.742 46.0634C375.18 46.3766 374.736 46.8337 374.41 47.4345C374.084 48.0354 373.921 48.7641 373.921 49.6206ZM393.627 58.7868C392.208 58.7868 390.983 58.4736 389.954 57.8472C388.932 57.2144 388.142 56.3323 387.586 55.2009C387.036 54.0631 386.762 52.7399 386.762 51.2314C386.762 49.7229 387.036 48.3933 387.586 47.2428C388.142 46.0858 388.916 45.1845 389.906 44.5389C390.904 43.8869 392.067 43.5609 393.396 43.5609C394.164 43.5609 394.921 43.6888 395.669 43.9445C396.417 44.2002 397.097 44.6156 397.711 45.1909C398.325 45.7598 398.814 46.5141 399.178 47.4537C399.542 48.3933 399.725 49.5503 399.725 50.9246V51.8834H388.372V49.9274H397.423C397.423 49.0965 397.257 48.355 396.925 47.703C396.599 47.051 396.132 46.5364 395.525 46.1593C394.924 45.7822 394.215 45.5936 393.396 45.5936C392.495 45.5936 391.715 45.8173 391.057 46.2648C390.405 46.7058 389.903 47.2811 389.552 47.9906C389.2 48.7002 389.024 49.4608 389.024 50.2726V51.5766C389.024 52.6888 389.216 53.6316 389.6 54.4051C389.99 55.1721 390.53 55.757 391.22 56.1597C391.91 56.556 392.713 56.7541 393.627 56.7541C394.221 56.7541 394.758 56.671 395.237 56.5048C395.723 56.3323 396.142 56.0766 396.493 55.7378C396.845 55.3926 397.117 54.9644 397.308 54.453L399.494 55.0666C399.264 55.8081 398.878 56.4601 398.334 57.0226C397.791 57.5787 397.12 58.0134 396.321 58.3266C395.522 58.6334 394.624 58.7868 393.627 58.7868ZM409.572 43.7527V45.6703H401.939V43.7527H409.572ZM404.164 40.2243H406.427V54.2612C406.427 54.9004 406.519 55.3798 406.705 55.6994C406.896 56.0127 407.139 56.2236 407.433 56.3323C407.734 56.4345 408.05 56.4857 408.383 56.4857C408.632 56.4857 408.836 56.4729 408.996 56.4473C409.156 56.4153 409.284 56.3898 409.38 56.3706L409.84 58.4033C409.687 58.4608 409.472 58.5183 409.198 58.5759C408.923 58.6398 408.574 58.6717 408.153 58.6717C407.513 58.6717 406.887 58.5343 406.273 58.2595C405.666 57.9846 405.161 57.5659 404.758 57.0034C404.362 56.4409 404.164 55.7314 404.164 54.8749V40.2243ZM412.975 58.48V43.7527H415.238V58.48H412.975ZM414.126 41.2982C413.685 41.2982 413.305 41.1479 412.985 40.8475C412.672 40.5471 412.515 40.1859 412.515 39.7641C412.515 39.3422 412.672 38.981 412.985 38.6806C413.305 38.3802 413.685 38.23 414.126 38.23C414.567 38.23 414.944 38.3802 415.257 38.6806C415.577 38.981 415.737 39.3422 415.737 39.7641C415.737 40.1859 415.577 40.5471 415.257 40.8475C414.944 41.1479 414.567 41.2982 414.126 41.2982ZM429.814 47.051L427.782 47.6263C427.654 47.2875 427.465 46.9583 427.216 46.6387C426.973 46.3127 426.641 46.0443 426.219 45.8333C425.797 45.6224 425.257 45.5169 424.598 45.5169C423.697 45.5169 422.946 45.7247 422.345 46.1401C421.751 46.5492 421.454 47.0702 421.454 47.703C421.454 48.2655 421.658 48.7097 422.067 49.0357C422.476 49.3617 423.116 49.6334 423.985 49.8507L426.171 50.3877C427.488 50.7073 428.469 51.1962 429.114 51.8546C429.76 52.5066 430.083 53.3472 430.083 54.3763C430.083 55.22 429.84 55.9743 429.354 56.6391C428.875 57.3038 428.204 57.828 427.341 58.2115C426.478 58.595 425.474 58.7868 424.33 58.7868C422.828 58.7868 421.585 58.4608 420.6 57.8088C419.616 57.1568 418.993 56.2044 418.731 54.9516L420.878 54.4146C421.083 55.2073 421.47 55.8017 422.038 56.198C422.614 56.5943 423.365 56.7925 424.292 56.7925C425.346 56.7925 426.184 56.5688 426.804 56.1213C427.43 55.6675 427.743 55.1242 427.743 54.4913C427.743 53.98 427.564 53.5517 427.206 53.2065C426.848 52.855 426.299 52.5929 425.557 52.4203L423.103 51.845C421.754 51.5254 420.763 51.0301 420.13 50.3589C419.504 49.6813 419.191 48.8344 419.191 47.818C419.191 46.9871 419.424 46.252 419.891 45.6128C420.364 44.9736 421.006 44.4718 421.818 44.1075C422.636 43.7431 423.563 43.5609 424.598 43.5609C426.056 43.5609 427.2 43.8805 428.031 44.5198C428.868 45.159 429.463 46.0027 429.814 47.051ZM437.823 58.8252C436.89 58.8252 436.043 58.6494 435.282 58.2978C434.521 57.9399 433.917 57.4253 433.47 56.7541C433.022 56.0766 432.799 55.2584 432.799 54.2996C432.799 53.4558 432.965 52.7719 433.297 52.2477C433.63 51.7172 434.074 51.3017 434.63 51.0013C435.186 50.7009 435.8 50.4771 436.471 50.3301C437.148 50.1767 437.829 50.0553 438.513 49.9658C439.408 49.8507 440.134 49.7644 440.69 49.7069C441.252 49.643 441.661 49.5375 441.917 49.3905C442.179 49.2435 442.31 48.9878 442.31 48.6234V48.5467C442.31 47.6007 442.051 46.8656 441.533 46.3415C441.022 45.8173 440.245 45.5553 439.203 45.5553C438.123 45.5553 437.276 45.7918 436.663 46.2648C436.049 46.7378 435.618 47.2428 435.368 47.7797L433.221 47.0127C433.604 46.1178 434.115 45.421 434.755 44.9225C435.4 44.4175 436.103 44.0659 436.864 43.8678C437.631 43.6632 438.385 43.5609 439.127 43.5609C439.6 43.5609 440.143 43.6185 440.757 43.7335C441.377 43.8422 441.974 44.0691 442.55 44.4143C443.131 44.7595 443.614 45.2804 443.998 45.9771C444.381 46.6739 444.573 47.6071 444.573 48.7769V58.48H442.31V56.4857H442.195C442.042 56.8053 441.786 57.1472 441.428 57.5116C441.07 57.8759 440.594 58.1859 439.999 58.4416C439.405 58.6973 438.679 58.8252 437.823 58.8252ZM438.168 56.7925C439.063 56.7925 439.817 56.6167 440.431 56.2651C441.051 55.9136 441.517 55.4597 441.831 54.9036C442.15 54.3475 442.31 53.7627 442.31 53.149V51.078C442.214 51.193 442.003 51.2985 441.677 51.3944C441.358 51.4839 440.987 51.5638 440.565 51.6341C440.15 51.698 439.744 51.7555 439.347 51.8067C438.957 51.8514 438.641 51.8898 438.398 51.9217C437.81 51.9984 437.26 52.1231 436.749 52.2957C436.244 52.4619 435.835 52.7144 435.522 53.0531C435.215 53.3855 435.061 53.8394 435.061 54.4146C435.061 55.2009 435.352 55.7953 435.934 56.198C436.522 56.5943 437.267 56.7925 438.168 56.7925ZM459.135 47.051L457.102 47.6263C456.974 47.2875 456.786 46.9583 456.536 46.6387C456.293 46.3127 455.961 46.0443 455.539 45.8333C455.117 45.6224 454.577 45.5169 453.919 45.5169C453.017 45.5169 452.266 45.7247 451.666 46.1401C451.071 46.5492 450.774 47.0702 450.774 47.703C450.774 48.2655 450.978 48.7097 451.388 49.0357C451.797 49.3617 452.436 49.6334 453.305 49.8507L455.491 50.3877C456.808 50.7073 457.789 51.1962 458.435 51.8546C459.08 52.5066 459.403 53.3472 459.403 54.3763C459.403 55.22 459.16 55.9743 458.674 56.6391C458.195 57.3038 457.524 57.828 456.661 58.2115C455.798 58.595 454.794 58.7868 453.65 58.7868C452.148 58.7868 450.905 58.4608 449.921 57.8088C448.936 57.1568 448.313 56.2044 448.051 54.9516L450.199 54.4146C450.403 55.2073 450.79 55.8017 451.359 56.198C451.934 56.5943 452.685 56.7925 453.612 56.7925C454.667 56.7925 455.504 56.5688 456.124 56.1213C456.75 55.6675 457.064 55.1242 457.064 54.4913C457.064 53.98 456.885 53.5517 456.527 53.2065C456.169 52.855 455.619 52.5929 454.878 52.4203L452.423 51.845C451.074 51.5254 450.084 51.0301 449.451 50.3589C448.824 49.6813 448.511 48.8344 448.511 47.818C448.511 46.9871 448.744 46.252 449.211 45.6128C449.684 44.9736 450.326 44.4718 451.138 44.1075C451.956 43.7431 452.883 43.5609 453.919 43.5609C455.376 43.5609 456.52 43.8805 457.351 44.5198C458.189 45.159 458.783 46.0027 459.135 47.051ZM462.809 58.48V43.7527H465.072V58.48H462.809ZM463.96 41.2982C463.519 41.2982 463.138 41.1479 462.819 40.8475C462.506 40.5471 462.349 40.1859 462.349 39.7641C462.349 39.3422 462.506 38.981 462.819 38.6806C463.138 38.3802 463.519 38.23 463.96 38.23C464.401 38.23 464.778 38.3802 465.091 38.6806C465.411 38.981 465.571 39.3422 465.571 39.7641C465.571 40.1859 465.411 40.5471 465.091 40.8475C464.778 41.1479 464.401 41.2982 463.96 41.2982ZM482.371 58.7868C481.144 58.7868 480.061 58.4768 479.121 57.8568C478.181 57.2303 477.446 56.3482 476.916 55.2104C476.385 54.0663 476.12 52.7144 476.12 51.1547C476.12 49.6078 476.385 48.2655 476.916 47.1277C477.446 45.9899 478.185 45.111 479.131 44.491C480.077 43.871 481.17 43.5609 482.41 43.5609C483.369 43.5609 484.126 43.7207 484.682 44.0404C485.245 44.3536 485.673 44.7115 485.967 45.1142C486.267 45.5105 486.501 45.8365 486.667 46.0922H486.859V38.8436H489.121V58.48H486.935V56.2172H486.667C486.501 56.4857 486.264 56.8244 485.957 57.2335C485.65 57.6362 485.213 57.9974 484.644 58.317C484.075 58.6302 483.317 58.7868 482.371 58.7868ZM482.678 56.7541C483.586 56.7541 484.353 56.5176 484.979 56.0446C485.606 55.5652 486.082 54.9036 486.408 54.0599C486.734 53.2097 486.897 52.2286 486.897 51.1163C486.897 50.0169 486.737 49.0549 486.418 48.2303C486.098 47.3994 485.625 46.7538 484.998 46.2935C484.372 45.8269 483.599 45.5936 482.678 45.5936C481.719 45.5936 480.92 45.8397 480.281 46.3319C479.648 46.8177 479.172 47.4793 478.853 48.3166C478.539 49.1476 478.383 50.0808 478.383 51.1163C478.383 52.1646 478.543 53.1171 478.862 53.9736C479.188 54.8237 479.668 55.5013 480.3 56.0063C480.94 56.5048 481.732 56.7541 482.678 56.7541ZM493.58 58.48V43.7527H495.843V58.48H493.58ZM494.73 41.2982C494.289 41.2982 493.909 41.1479 493.589 40.8475C493.276 40.5471 493.12 40.1859 493.12 39.7641C493.12 39.3422 493.276 38.981 493.589 38.6806C493.909 38.3802 494.289 38.23 494.73 38.23C495.171 38.23 495.549 38.3802 495.862 38.6806C496.181 38.981 496.341 39.3422 496.341 39.7641C496.341 40.1859 496.181 40.5471 495.862 40.8475C495.549 41.1479 495.171 41.2982 494.73 41.2982ZM507.581 58.48V43.7527H509.767V46.0538H509.959C510.265 45.2676 510.761 44.6572 511.445 44.2225C512.129 43.7815 512.95 43.5609 513.909 43.5609C514.881 43.5609 515.689 43.7815 516.335 44.2225C516.987 44.6572 517.495 45.2676 517.859 46.0538H518.013C518.39 45.2932 518.955 44.6891 519.71 44.2417C520.464 43.7879 521.368 43.5609 522.423 43.5609C523.74 43.5609 524.817 43.9732 525.654 44.7978C526.492 45.616 526.91 46.8912 526.91 48.6234V58.48H524.648V48.6234C524.648 47.5368 524.35 46.7602 523.756 46.2935C523.161 45.8269 522.461 45.5936 521.656 45.5936C520.621 45.5936 519.818 45.9068 519.249 46.5332C518.681 47.1533 518.396 47.9395 518.396 48.8919V58.48H516.095V48.3933C516.095 47.556 515.823 46.8816 515.28 46.3703C514.737 45.8525 514.037 45.5936 513.18 45.5936C512.592 45.5936 512.042 45.7502 511.531 46.0634C511.026 46.3766 510.617 46.8113 510.304 47.3674C509.997 47.9171 509.844 48.5531 509.844 49.2754V58.48H507.581ZM535.381 58.8252C534.448 58.8252 533.601 58.6494 532.841 58.2978C532.08 57.9399 531.476 57.4253 531.028 56.7541C530.581 56.0766 530.357 55.2584 530.357 54.2996C530.357 53.4558 530.523 52.7719 530.856 52.2477C531.188 51.7172 531.632 51.3017 532.189 51.0013C532.745 50.7009 533.358 50.4771 534.029 50.3301C534.707 50.1767 535.388 50.0553 536.072 49.9658C536.967 49.8507 537.692 49.7644 538.248 49.7069C538.811 49.643 539.22 49.5375 539.475 49.3905C539.738 49.2435 539.869 48.9878 539.869 48.6234V48.5467C539.869 47.6007 539.61 46.8656 539.092 46.3415C538.581 45.8173 537.804 45.5553 536.762 45.5553C535.682 45.5553 534.835 45.7918 534.221 46.2648C533.608 46.7378 533.176 47.2428 532.927 47.7797L530.779 47.0127C531.163 46.1178 531.674 45.421 532.313 44.9225C532.959 44.4175 533.662 44.0659 534.423 43.8678C535.19 43.6632 535.944 43.5609 536.685 43.5609C537.158 43.5609 537.702 43.6185 538.315 43.7335C538.935 43.8422 539.533 44.0691 540.108 44.4143C540.69 44.7595 541.173 45.2804 541.556 45.9771C541.94 46.6739 542.131 47.6071 542.131 48.7769V58.48H539.869V56.4857H539.754C539.6 56.8053 539.344 57.1472 538.987 57.5116C538.629 57.8759 538.152 58.1859 537.558 58.4416C536.963 58.6973 536.238 58.8252 535.381 58.8252ZM535.727 56.7925C536.621 56.7925 537.376 56.6167 537.989 56.2651C538.609 55.9136 539.076 55.4597 539.389 54.9036C539.709 54.3475 539.869 53.7627 539.869 53.149V51.078C539.773 51.193 539.562 51.2985 539.236 51.3944C538.916 51.4839 538.545 51.5638 538.124 51.6341C537.708 51.698 537.302 51.7555 536.906 51.8067C536.516 51.8514 536.2 51.8898 535.957 51.9217C535.369 51.9984 534.819 52.1231 534.308 52.2957C533.803 52.4619 533.393 52.7144 533.08 53.0531C532.773 53.3855 532.62 53.8394 532.62 54.4146C532.62 55.2009 532.911 55.7953 533.493 56.198C534.081 56.5943 534.825 56.7925 535.727 56.7925ZM556.693 47.051L554.661 47.6263C554.533 47.2875 554.344 46.9583 554.095 46.6387C553.852 46.3127 553.52 46.0443 553.098 45.8333C552.676 45.6224 552.136 45.5169 551.477 45.5169C550.576 45.5169 549.825 45.7247 549.224 46.1401C548.63 46.5492 548.332 47.0702 548.332 47.703C548.332 48.2655 548.537 48.7097 548.946 49.0357C549.355 49.3617 549.994 49.6334 550.864 49.8507L553.05 50.3877C554.367 50.7073 555.348 51.1962 555.993 51.8546C556.639 52.5066 556.962 53.3472 556.962 54.3763C556.962 55.22 556.719 55.9743 556.233 56.6391C555.754 57.3038 555.082 57.828 554.22 58.2115C553.357 58.595 552.353 58.7868 551.209 58.7868C549.707 58.7868 548.464 58.4608 547.479 57.8088C546.495 57.1568 545.872 56.2044 545.609 54.9516L547.757 54.4146C547.962 55.2073 548.348 55.8017 548.917 56.198C549.493 56.5943 550.244 56.7925 551.171 56.7925C552.225 56.7925 553.063 56.5688 553.683 56.1213C554.309 55.6675 554.622 55.1242 554.622 54.4913C554.622 53.98 554.443 53.5517 554.085 53.2065C553.727 52.855 553.178 52.5929 552.436 52.4203L549.982 51.845C548.633 51.5254 547.642 51.0301 547.009 50.3589C546.383 49.6813 546.07 48.8344 546.07 47.818C546.07 46.9871 546.303 46.252 546.77 45.6128C547.243 44.9736 547.885 44.4718 548.697 44.1075C549.515 43.7431 550.442 43.5609 551.477 43.5609C552.935 43.5609 554.079 43.8805 554.91 44.5198C555.747 45.159 556.342 46.0027 556.693 47.051ZM564.702 58.8252C563.768 58.8252 562.922 58.6494 562.161 58.2978C561.4 57.9399 560.796 57.4253 560.349 56.7541C559.901 56.0766 559.678 55.2584 559.678 54.2996C559.678 53.4558 559.844 52.7719 560.176 52.2477C560.509 51.7172 560.953 51.3017 561.509 51.0013C562.065 50.7009 562.679 50.4771 563.35 50.3301C564.027 50.1767 564.708 50.0553 565.392 49.9658C566.287 49.8507 567.012 49.7644 567.569 49.7069C568.131 49.643 568.54 49.5375 568.796 49.3905C569.058 49.2435 569.189 48.9878 569.189 48.6234V48.5467C569.189 47.6007 568.93 46.8656 568.412 46.3415C567.901 45.8173 567.124 45.5553 566.082 45.5553C565.002 45.5553 564.155 45.7918 563.542 46.2648C562.928 46.7378 562.496 47.2428 562.247 47.7797L560.099 47.0127C560.483 46.1178 560.994 45.421 561.634 44.9225C562.279 44.4175 562.982 44.0659 563.743 43.8678C564.51 43.6632 565.264 43.5609 566.006 43.5609C566.479 43.5609 567.022 43.6185 567.636 43.7335C568.256 43.8422 568.853 44.0691 569.429 44.4143C570.01 44.7595 570.493 45.2804 570.876 45.9771C571.26 46.6739 571.452 47.6071 571.452 48.7769V58.48H569.189V56.4857H569.074C568.92 56.8053 568.665 57.1472 568.307 57.5116C567.949 57.8759 567.473 58.1859 566.878 58.4416C566.284 58.6973 565.558 58.8252 564.702 58.8252ZM565.047 56.7925C565.942 56.7925 566.696 56.6167 567.31 56.2651C567.93 55.9136 568.396 55.4597 568.71 54.9036C569.029 54.3475 569.189 53.7627 569.189 53.149V51.078C569.093 51.193 568.882 51.2985 568.556 51.3944C568.237 51.4839 567.866 51.5638 567.444 51.6341C567.028 51.698 566.623 51.7555 566.226 51.8067C565.836 51.8514 565.52 51.8898 565.277 51.9217C564.689 51.9984 564.139 52.1231 563.628 52.2957C563.123 52.4619 562.714 52.7144 562.401 53.0531C562.094 53.3855 561.94 53.8394 561.94 54.4146C561.94 55.2009 562.231 55.7953 562.813 56.198C563.401 56.5943 564.146 56.7925 565.047 56.7925ZM588.737 58.7868C587.509 58.7868 586.426 58.4768 585.486 57.8568C584.547 57.2303 583.812 56.3482 583.281 55.2104C582.75 54.0663 582.485 52.7144 582.485 51.1547C582.485 49.6078 582.75 48.2655 583.281 47.1277C583.812 45.9899 584.55 45.111 585.496 44.491C586.442 43.871 587.535 43.5609 588.775 43.5609C589.734 43.5609 590.491 43.7207 591.047 44.0404C591.61 44.3536 592.038 44.7115 592.332 45.1142C592.633 45.5105 592.866 45.8365 593.032 46.0922H593.224V38.8436H595.487V58.48H593.301V56.2172H593.032C592.866 56.4857 592.629 56.8244 592.323 57.2335C592.016 57.6362 591.578 57.9974 591.009 58.317C590.44 58.6302 589.683 58.7868 588.737 58.7868ZM589.043 56.7541C589.951 56.7541 590.718 56.5176 591.345 56.0446C591.971 55.5652 592.447 54.9036 592.773 54.0599C593.099 53.2097 593.262 52.2286 593.262 51.1163C593.262 50.0169 593.102 49.0549 592.783 48.2303C592.463 47.3994 591.99 46.7538 591.364 46.2935C590.737 45.8269 589.964 45.5936 589.043 45.5936C588.085 45.5936 587.286 45.8397 586.646 46.3319C586.014 46.8177 585.537 47.4793 585.218 48.3166C584.905 49.1476 584.748 50.0808 584.748 51.1163C584.748 52.1646 584.908 53.1171 585.227 53.9736C585.553 54.8237 586.033 55.5013 586.666 56.0063C587.305 56.5048 588.097 56.7541 589.043 56.7541ZM606.12 58.7868C604.701 58.7868 603.477 58.4736 602.448 57.8472C601.425 57.2144 600.635 56.3323 600.079 55.2009C599.53 54.0631 599.255 52.7399 599.255 51.2314C599.255 49.7229 599.53 48.3933 600.079 47.2428C600.635 46.0858 601.409 45.1845 602.4 44.5389C603.397 43.8869 604.56 43.5609 605.89 43.5609C606.657 43.5609 607.414 43.6888 608.162 43.9445C608.91 44.2002 609.591 44.6156 610.204 45.1909C610.818 45.7598 611.307 46.5141 611.671 47.4537C612.036 48.3933 612.218 49.5503 612.218 50.9246V51.8834H600.866V49.9274H609.917C609.917 49.0965 609.75 48.355 609.418 47.703C609.092 47.051 608.625 46.5364 608.018 46.1593C607.417 45.7822 606.708 45.5936 605.89 45.5936C604.988 45.5936 604.209 45.8173 603.55 46.2648C602.898 46.7058 602.396 47.2811 602.045 47.9906C601.693 48.7002 601.517 49.4608 601.517 50.2726V51.5766C601.517 52.6888 601.709 53.6316 602.093 54.4051C602.483 55.1721 603.023 55.757 603.713 56.1597C604.403 56.556 605.206 56.7541 606.12 56.7541C606.714 56.7541 607.251 56.671 607.731 56.5048C608.216 56.3323 608.635 56.0766 608.987 55.7378C609.338 55.3926 609.61 54.9644 609.802 54.453L611.988 55.0666C611.758 55.8081 611.371 56.4601 610.828 57.0226C610.284 57.5787 609.613 58.0134 608.814 58.3266C608.015 58.6334 607.117 58.7868 606.12 58.7868ZM615.66 64.0027V43.7527H617.846V46.0922H618.114C618.281 45.8365 618.511 45.5105 618.805 45.1142C619.105 44.7115 619.533 44.3536 620.09 44.0404C620.652 43.7207 621.413 43.5609 622.372 43.5609C623.612 43.5609 624.705 43.871 625.651 44.491C626.597 45.111 627.335 45.9899 627.866 47.1277C628.396 48.2655 628.661 49.6078 628.661 51.1547C628.661 52.7144 628.396 54.0663 627.866 55.2104C627.335 56.3482 626.6 57.2303 625.66 57.8568C624.721 58.4768 623.637 58.7868 622.41 58.7868C621.464 58.7868 620.706 58.6302 620.138 58.317C619.569 57.9974 619.131 57.6362 618.824 57.2335C618.517 56.8244 618.281 56.4857 618.114 56.2172H617.923V64.0027H615.66ZM617.884 51.1163C617.884 52.2286 618.047 53.2097 618.373 54.0599C618.699 54.9036 619.176 55.5652 619.802 56.0446C620.428 56.5176 621.195 56.7541 622.103 56.7541C623.049 56.7541 623.839 56.5048 624.471 56.0063C625.111 55.5013 625.59 54.8237 625.91 53.9736C626.236 53.1171 626.399 52.1646 626.399 51.1163C626.399 50.0808 626.239 49.1476 625.919 48.3166C625.606 47.4793 625.13 46.8177 624.491 46.3319C623.858 45.8397 623.062 45.5936 622.103 45.5936C621.183 45.5936 620.409 45.8269 619.783 46.2935C619.156 46.7538 618.683 47.3994 618.364 48.2303C618.044 49.0549 617.884 50.0169 617.884 51.1163ZM636.447 58.8252C635.514 58.8252 634.667 58.6494 633.906 58.2978C633.145 57.9399 632.541 57.4253 632.094 56.7541C631.646 56.0766 631.423 55.2584 631.423 54.2996C631.423 53.4558 631.589 52.7719 631.921 52.2477C632.254 51.7172 632.698 51.3017 633.254 51.0013C633.81 50.7009 634.424 50.4771 635.095 50.3301C635.772 50.1767 636.453 50.0553 637.137 49.9658C638.032 49.8507 638.758 49.7644 639.314 49.7069C639.876 49.643 640.285 49.5375 640.541 49.3905C640.803 49.2435 640.934 48.9878 640.934 48.6234V48.5467C640.934 47.6007 640.675 46.8656 640.157 46.3415C639.646 45.8173 638.869 45.5553 637.828 45.5553C636.747 45.5553 635.9 45.7918 635.287 46.2648C634.673 46.7378 634.242 47.2428 633.992 47.7797L631.845 47.0127C632.228 46.1178 632.739 45.421 633.379 44.9225C634.024 44.4175 634.727 44.0659 635.488 43.8678C636.255 43.6632 637.009 43.5609 637.751 43.5609C638.224 43.5609 638.767 43.6185 639.381 43.7335C640.001 43.8422 640.598 44.0691 641.174 44.4143C641.755 44.7595 642.238 45.2804 642.622 45.9771C643.005 46.6739 643.197 47.6071 643.197 48.7769V58.48H640.934V56.4857H640.819C640.666 56.8053 640.41 57.1472 640.052 57.5116C639.694 57.8759 639.218 58.1859 638.623 58.4416C638.029 58.6973 637.303 58.8252 636.447 58.8252ZM636.792 56.7925C637.687 56.7925 638.441 56.6167 639.055 56.2651C639.675 55.9136 640.141 55.4597 640.455 54.9036C640.774 54.3475 640.934 53.7627 640.934 53.149V51.078C640.838 51.193 640.627 51.2985 640.301 51.3944C639.982 51.4839 639.611 51.5638 639.189 51.6341C638.774 51.698 638.368 51.7555 637.971 51.8067C637.581 51.8514 637.265 51.8898 637.022 51.9217C636.434 51.9984 635.884 52.1231 635.373 52.2957C634.868 52.4619 634.459 52.7144 634.146 53.0531C633.839 53.3855 633.685 53.8394 633.685 54.4146C633.685 55.2009 633.976 55.7953 634.558 56.198C635.146 56.5943 635.891 56.7925 636.792 56.7925ZM649.59 49.6206V58.48H647.327V43.7527H649.513V46.0538H649.705C650.05 45.306 650.574 44.7051 651.277 44.2513C651.98 43.7911 652.888 43.5609 654 43.5609C654.997 43.5609 655.87 43.7655 656.618 44.1746C657.366 44.5773 657.947 45.1909 658.363 46.0155C658.778 46.8337 658.986 47.8692 658.986 49.122V58.48H656.723V49.2754C656.723 48.1185 656.423 47.2172 655.822 46.5716C655.221 45.9196 654.396 45.5936 653.348 45.5936C652.626 45.5936 651.98 45.7502 651.411 46.0634C650.849 46.3766 650.405 46.8337 650.079 47.4345C649.753 48.0354 649.59 48.7641 649.59 49.6206Z" fill="white"/>
<path d="M177.013 95.8968C175.786 95.8968 174.702 95.5868 173.763 94.9667C172.823 94.3403 172.088 93.4582 171.557 92.3204C171.027 91.1763 170.762 89.8243 170.762 88.2647C170.762 86.7178 171.027 85.3755 171.557 84.2377C172.088 83.0999 172.826 82.221 173.772 81.601C174.718 80.9809 175.811 80.6709 177.051 80.6709C178.01 80.6709 178.768 80.8307 179.324 81.1503C179.886 81.4635 180.314 81.8215 180.608 82.2242C180.909 82.6205 181.142 82.9465 181.308 83.2022H181.5V75.9536H183.763V95.59H181.577V93.3272H181.308C181.142 93.5956 180.906 93.9344 180.599 94.3435C180.292 94.7462 179.854 95.1074 179.285 95.427C178.716 95.7402 177.959 95.8968 177.013 95.8968ZM177.32 93.8641C178.227 93.8641 178.994 93.6276 179.621 93.1546C180.247 92.6752 180.724 92.0136 181.05 91.1699C181.376 90.3197 181.539 89.3385 181.539 88.2263C181.539 87.1269 181.379 86.1649 181.059 85.3403C180.74 84.5094 180.267 83.8638 179.64 83.4035C179.014 82.9369 178.24 82.7036 177.32 82.7036C176.361 82.7036 175.562 82.9497 174.923 83.4419C174.29 83.9277 173.814 84.5893 173.494 85.4266C173.181 86.2576 173.024 87.1908 173.024 88.2263C173.024 89.2746 173.184 90.227 173.504 91.0836C173.83 91.9337 174.309 92.6113 174.942 93.1162C175.581 93.6148 176.374 93.8641 177.32 93.8641ZM192.555 95.9351C191.622 95.9351 190.775 95.7594 190.014 95.4078C189.254 95.0498 188.65 94.5353 188.202 93.8641C187.755 93.1866 187.531 92.3684 187.531 91.4096C187.531 90.5658 187.697 89.8819 188.03 89.3577C188.362 88.8272 188.806 88.4117 189.362 88.1113C189.919 87.8108 190.532 87.5871 191.203 87.4401C191.881 87.2867 192.562 87.1653 193.246 87.0758C194.14 86.9607 194.866 86.8744 195.422 86.8169C195.985 86.753 196.394 86.6475 196.649 86.5005C196.911 86.3535 197.042 86.0978 197.042 85.7334V85.6567C197.042 84.7107 196.784 83.9756 196.266 83.4515C195.754 82.9273 194.978 82.6652 193.936 82.6652C192.856 82.6652 192.009 82.9018 191.395 83.3748C190.781 83.8478 190.35 84.3527 190.101 84.8897L187.953 84.1226C188.336 83.2277 188.848 82.531 189.487 82.0324C190.133 81.5275 190.836 81.1759 191.596 80.9777C192.363 80.7732 193.118 80.6709 193.859 80.6709C194.332 80.6709 194.876 80.7285 195.489 80.8435C196.109 80.9522 196.707 81.1791 197.282 81.5243C197.864 81.8694 198.346 82.3904 198.73 83.0871C199.113 83.7839 199.305 84.7171 199.305 85.8868V95.59H197.042V93.5956H196.927C196.774 93.9152 196.518 94.2572 196.16 94.6216C195.802 94.9859 195.326 95.2959 194.732 95.5516C194.137 95.8073 193.412 95.9351 192.555 95.9351ZM192.9 93.9025C193.795 93.9025 194.55 93.7267 195.163 93.3751C195.783 93.0236 196.25 92.5697 196.563 92.0136C196.883 91.4575 197.042 90.8726 197.042 90.259V88.188C196.947 88.303 196.736 88.4085 196.41 88.5044C196.09 88.5939 195.719 88.6738 195.297 88.7441C194.882 88.808 194.476 88.8655 194.08 88.9167C193.69 88.9614 193.373 88.9998 193.131 89.0317C192.542 89.1084 191.993 89.2331 191.481 89.4057C190.976 89.5719 190.567 89.8243 190.254 90.1631C189.947 90.4955 189.794 90.9493 189.794 91.5246C189.794 92.3108 190.085 92.9053 190.666 93.308C191.254 93.7043 191.999 93.9025 192.9 93.9025ZM205.698 86.7306V95.59H203.435V80.8627H205.621V83.1638H205.813C206.158 82.416 206.682 81.8151 207.386 81.3613C208.089 80.901 208.996 80.6709 210.109 80.6709C211.106 80.6709 211.978 80.8755 212.726 81.2846C213.474 81.6873 214.056 82.3009 214.471 83.1255C214.887 83.9437 215.094 84.9792 215.094 86.232V95.59H212.832V86.3854C212.832 85.2285 212.531 84.3272 211.93 83.6816C211.329 83.0296 210.505 82.7036 209.457 82.7036C208.734 82.7036 208.089 82.8602 207.52 83.1734C206.957 83.4866 206.513 83.9437 206.187 84.5445C205.861 85.1454 205.698 85.8741 205.698 86.7306ZM226.823 95.59V80.8627H229.009V83.1638H229.201C229.508 82.3776 230.003 81.7672 230.687 81.3325C231.371 80.8915 232.192 80.6709 233.151 80.6709C234.123 80.6709 234.931 80.8915 235.577 81.3325C236.229 81.7672 236.737 82.3776 237.101 83.1638H237.255C237.632 82.4032 238.198 81.7991 238.952 81.3517C239.706 80.8978 240.611 80.6709 241.665 80.6709C242.982 80.6709 244.059 81.0832 244.896 81.9078C245.734 82.726 246.153 84.0012 246.153 85.7334V95.59H243.89V85.7334C243.89 84.6468 243.593 83.8702 242.998 83.4035C242.404 82.9369 241.704 82.7036 240.898 82.7036C239.863 82.7036 239.061 83.0168 238.492 83.6432C237.923 84.2633 237.638 85.0495 237.638 86.0019V95.59H235.337V85.5033C235.337 84.666 235.066 83.9916 234.522 83.4802C233.979 82.9625 233.279 82.7036 232.422 82.7036C231.834 82.7036 231.285 82.8602 230.773 83.1734C230.268 83.4866 229.859 83.9213 229.546 84.4774C229.239 85.0271 229.086 85.6631 229.086 86.3854V95.59H226.823ZM254.624 95.9351C253.69 95.9351 252.843 95.7594 252.083 95.4078C251.322 95.0498 250.718 94.5353 250.271 93.8641C249.823 93.1866 249.599 92.3684 249.599 91.4096C249.599 90.5658 249.766 89.8819 250.098 89.3577C250.43 88.8272 250.875 88.4117 251.431 88.1113C251.987 87.8108 252.6 87.5871 253.272 87.4401C253.949 87.2867 254.63 87.1653 255.314 87.0758C256.209 86.9607 256.934 86.8744 257.49 86.8169C258.053 86.753 258.462 86.6475 258.718 86.5005C258.98 86.3535 259.111 86.0978 259.111 85.7334V85.6567C259.111 84.7107 258.852 83.9756 258.334 83.4515C257.823 82.9273 257.046 82.6652 256.004 82.6652C254.924 82.6652 254.077 82.9018 253.463 83.3748C252.85 83.8478 252.418 84.3527 252.169 84.8897L250.021 84.1226C250.405 83.2277 250.916 82.531 251.555 82.0324C252.201 81.5275 252.904 81.1759 253.665 80.9777C254.432 80.7732 255.186 80.6709 255.928 80.6709C256.401 80.6709 256.944 80.7285 257.558 80.8435C258.178 80.9522 258.775 81.1791 259.35 81.5243C259.932 81.8694 260.415 82.3904 260.798 83.0871C261.182 83.7839 261.374 84.7171 261.374 85.8868V95.59H259.111V93.5956H258.996C258.842 93.9152 258.587 94.2572 258.229 94.6216C257.871 94.9859 257.395 95.2959 256.8 95.5516C256.206 95.8073 255.48 95.9351 254.624 95.9351ZM254.969 93.9025C255.864 93.9025 256.618 93.7267 257.232 93.3751C257.852 93.0236 258.318 92.5697 258.631 92.0136C258.951 91.4575 259.111 90.8726 259.111 90.259V88.188C259.015 88.303 258.804 88.4085 258.478 88.5044C258.158 88.5939 257.788 88.6738 257.366 88.7441C256.95 88.808 256.544 88.8655 256.148 88.9167C255.758 88.9614 255.442 88.9998 255.199 89.0317C254.611 89.1084 254.061 89.2331 253.55 89.4057C253.045 89.5719 252.636 89.8243 252.322 90.1631C252.016 90.4955 251.862 90.9493 251.862 91.5246C251.862 92.3108 252.153 92.9053 252.735 93.308C253.323 93.7043 254.067 93.9025 254.969 93.9025ZM265.504 95.59V80.8627H267.69V83.1638H267.881C268.188 82.3776 268.684 81.7672 269.368 81.3325C270.052 80.8915 270.873 80.6709 271.832 80.6709C272.803 80.6709 273.612 80.8915 274.258 81.3325C274.91 81.7672 275.418 82.3776 275.782 83.1638H275.935C276.313 82.4032 276.878 81.7991 277.633 81.3517C278.387 80.8978 279.291 80.6709 280.346 80.6709C281.663 80.6709 282.74 81.0832 283.577 81.9078C284.415 82.726 284.833 84.0012 284.833 85.7334V95.59H282.57V85.7334C282.57 84.6468 282.273 83.8702 281.679 83.4035C281.084 82.9369 280.384 82.7036 279.579 82.7036C278.543 82.7036 277.741 83.0168 277.172 83.6432C276.603 84.2633 276.319 85.0495 276.319 86.0019V95.59H274.018V85.5033C274.018 84.666 273.746 83.9916 273.203 83.4802C272.66 82.9625 271.96 82.7036 271.103 82.7036C270.515 82.7036 269.965 82.8602 269.454 83.1734C268.949 83.4866 268.54 83.9213 268.227 84.4774C267.92 85.0271 267.766 85.6631 267.766 86.3854V95.59H265.504ZM288.97 101.113V80.8627H291.157V83.2022H291.425C291.591 82.9465 291.821 82.6205 292.115 82.2242C292.416 81.8215 292.844 81.4635 293.4 81.1503C293.963 80.8307 294.723 80.6709 295.682 80.6709C296.922 80.6709 298.015 80.9809 298.961 81.601C299.907 82.221 300.646 83.0999 301.176 84.2377C301.707 85.3755 301.972 86.7178 301.972 88.2647C301.972 89.8243 301.707 91.1763 301.176 92.3204C300.646 93.4582 299.91 94.3403 298.971 94.9667C298.031 95.5868 296.948 95.8968 295.72 95.8968C294.774 95.8968 294.017 95.7402 293.448 95.427C292.879 95.1074 292.441 94.7462 292.134 94.3435C291.828 93.9344 291.591 93.5956 291.425 93.3272H291.233V101.113H288.97ZM291.195 88.2263C291.195 89.3385 291.358 90.3197 291.684 91.1699C292.01 92.0136 292.486 92.6752 293.112 93.1546C293.739 93.6276 294.506 93.8641 295.414 93.8641C296.36 93.8641 297.149 93.6148 297.782 93.1162C298.421 92.6113 298.9 91.9337 299.22 91.0836C299.546 90.227 299.709 89.2746 299.709 88.2263C299.709 87.1908 299.549 86.2576 299.23 85.4266C298.916 84.5893 298.44 83.9277 297.801 83.4419C297.168 82.9497 296.372 82.7036 295.414 82.7036C294.493 82.7036 293.72 82.9369 293.093 83.4035C292.467 83.8638 291.994 84.5094 291.674 85.3403C291.355 86.1649 291.195 87.1269 291.195 88.2263ZM314.705 89.5687V80.8627H316.968V95.59H314.705V93.0971H314.551C314.206 93.8449 313.669 94.4809 312.941 95.0051C312.212 95.5228 311.291 95.7817 310.179 95.7817C309.259 95.7817 308.441 95.5804 307.725 95.1777C307.009 94.7686 306.446 94.155 306.037 93.3368C305.628 92.5122 305.424 91.4735 305.424 90.2206V80.8627H307.686V90.0672C307.686 91.1411 307.987 91.9976 308.588 92.6368C309.195 93.276 309.968 93.5956 310.908 93.5956C311.47 93.5956 312.043 93.4518 312.624 93.1642C313.212 92.8765 313.704 92.4355 314.101 91.841C314.503 91.2466 314.705 90.4891 314.705 89.5687ZM328.706 95.59V80.8627H330.892V83.1638H331.084C331.39 82.3776 331.886 81.7672 332.57 81.3325C333.254 80.8915 334.075 80.6709 335.034 80.6709C336.006 80.6709 336.814 80.8915 337.46 81.3325C338.112 81.7672 338.62 82.3776 338.984 83.1638H339.138C339.515 82.4032 340.08 81.7991 340.835 81.3517C341.589 80.8978 342.493 80.6709 343.548 80.6709C344.865 80.6709 345.942 81.0832 346.779 81.9078C347.617 82.726 348.035 84.0012 348.035 85.7334V95.59H345.773V85.7334C345.773 84.6468 345.475 83.8702 344.881 83.4035C344.286 82.9369 343.586 82.7036 342.781 82.7036C341.746 82.7036 340.943 83.0168 340.374 83.6432C339.806 84.2633 339.521 85.0495 339.521 86.0019V95.59H337.22V85.5033C337.22 84.666 336.948 83.9916 336.405 83.4802C335.862 82.9625 335.162 82.7036 334.305 82.7036C333.717 82.7036 333.167 82.8602 332.656 83.1734C332.151 83.4866 331.742 83.9213 331.429 84.4774C331.122 85.0271 330.969 85.6631 330.969 86.3854V95.59H328.706ZM358.347 95.8968C356.928 95.8968 355.704 95.5836 354.675 94.9572C353.652 94.3243 352.863 93.4422 352.307 92.3108C351.757 91.1731 351.482 89.8499 351.482 88.3414C351.482 86.8329 351.757 85.5033 352.307 84.3527C352.863 83.1958 353.636 82.2945 354.627 81.6489C355.624 80.9969 356.788 80.6709 358.117 80.6709C358.884 80.6709 359.642 80.7988 360.39 81.0545C361.137 81.3101 361.818 81.7256 362.432 82.3009C363.045 82.8698 363.534 83.6241 363.899 84.5637C364.263 85.5033 364.445 86.6603 364.445 88.0346V88.9934H353.093V87.0374H362.144C362.144 86.2064 361.978 85.465 361.646 84.813C361.32 84.161 360.853 83.6464 360.246 83.2693C359.645 82.8922 358.935 82.7036 358.117 82.7036C357.216 82.7036 356.436 82.9273 355.778 83.3748C355.126 83.8158 354.624 84.3911 354.272 85.1006C353.921 85.8101 353.745 86.5708 353.745 87.3826V88.6866C353.745 89.7988 353.937 90.7416 354.32 91.515C354.71 92.2821 355.25 92.867 355.941 93.2697C356.631 93.666 357.433 93.8641 358.347 93.8641C358.942 93.8641 359.479 93.781 359.958 93.6148C360.444 93.4422 360.863 93.1866 361.214 92.8478C361.566 92.5026 361.837 92.0743 362.029 91.563L364.215 92.1766C363.985 92.9181 363.598 93.5701 363.055 94.1326C362.512 94.6887 361.841 95.1233 361.042 95.4366C360.243 95.7434 359.344 95.8968 358.347 95.8968ZM367.887 95.59V80.8627H370.074V83.1638H370.265C370.572 82.3776 371.067 81.7672 371.751 81.3325C372.435 80.8915 373.257 80.6709 374.216 80.6709C375.187 80.6709 375.996 80.8915 376.641 81.3325C377.293 81.7672 377.801 82.3776 378.166 83.1638H378.319C378.696 82.4032 379.262 81.7991 380.016 81.3517C380.771 80.8978 381.675 80.6709 382.73 80.6709C384.047 80.6709 385.124 81.0832 385.961 81.9078C386.798 82.726 387.217 84.0012 387.217 85.7334V95.59H384.954V85.7334C384.954 84.6468 384.657 83.8702 384.062 83.4035C383.468 82.9369 382.768 82.7036 381.963 82.7036C380.927 82.7036 380.125 83.0168 379.556 83.6432C378.987 84.2633 378.703 85.0495 378.703 86.0019V95.59H376.402V85.5033C376.402 84.666 376.13 83.9916 375.587 83.4802C375.043 82.9625 374.343 82.7036 373.487 82.7036C372.899 82.7036 372.349 82.8602 371.838 83.1734C371.333 83.4866 370.924 83.9213 370.61 84.4774C370.304 85.0271 370.15 85.6631 370.15 86.3854V95.59H367.887ZM391.661 95.59V75.9536H393.924V83.2022H394.116C394.282 82.9465 394.512 82.6205 394.806 82.2242C395.106 81.8215 395.535 81.4635 396.091 81.1503C396.653 80.8307 397.414 80.6709 398.373 80.6709C399.613 80.6709 400.706 80.9809 401.652 81.601C402.598 82.221 403.336 83.0999 403.867 84.2377C404.397 85.3755 404.662 86.7178 404.662 88.2647C404.662 89.8243 404.397 91.1763 403.867 92.3204C403.336 93.4582 402.601 94.3403 401.661 94.9667C400.722 95.5868 399.638 95.8968 398.411 95.8968C397.465 95.8968 396.708 95.7402 396.139 95.427C395.57 95.1074 395.132 94.7462 394.825 94.3435C394.518 93.9344 394.282 93.5956 394.116 93.3272H393.847V95.59H391.661ZM393.885 88.2263C393.885 89.3385 394.048 90.3197 394.374 91.1699C394.7 92.0136 395.177 92.6752 395.803 93.1546C396.43 93.6276 397.197 93.8641 398.104 93.8641C399.05 93.8641 399.84 93.6148 400.472 93.1162C401.112 92.6113 401.591 91.9337 401.911 91.0836C402.237 90.227 402.4 89.2746 402.4 88.2263C402.4 87.1908 402.24 86.2576 401.92 85.4266C401.607 84.5893 401.131 83.9277 400.492 83.4419C399.859 82.9497 399.063 82.7036 398.104 82.7036C397.184 82.7036 396.41 82.9369 395.784 83.4035C395.157 83.8638 394.684 84.5094 394.365 85.3403C394.045 86.1649 393.885 87.1269 393.885 88.2263ZM408.124 95.59V80.8627H410.387V95.59H408.124ZM409.274 78.4081C408.833 78.4081 408.453 78.2579 408.133 77.9575C407.82 77.6571 407.664 77.2959 407.664 76.8741C407.664 76.4522 407.82 76.091 408.133 75.7906C408.453 75.4902 408.833 75.34 409.274 75.34C409.715 75.34 410.093 75.4902 410.406 75.7906C410.725 76.091 410.885 76.4522 410.885 76.8741C410.885 77.2959 410.725 77.6571 410.406 77.9575C410.093 78.2579 409.715 78.4081 409.274 78.4081ZM418.865 95.9351C417.932 95.9351 417.085 95.7594 416.324 95.4078C415.563 95.0498 414.959 94.5353 414.512 93.8641C414.064 93.1866 413.841 92.3684 413.841 91.4096C413.841 90.5658 414.007 89.8819 414.339 89.3577C414.672 88.8272 415.116 88.4117 415.672 88.1113C416.228 87.8108 416.842 87.5871 417.513 87.4401C418.19 87.2867 418.871 87.1653 419.555 87.0758C420.45 86.9607 421.176 86.8744 421.732 86.8169C422.294 86.753 422.703 86.6475 422.959 86.5005C423.221 86.3535 423.352 86.0978 423.352 85.7334V85.6567C423.352 84.7107 423.093 83.9756 422.575 83.4515C422.064 82.9273 421.287 82.6652 420.245 82.6652C419.165 82.6652 418.318 82.9018 417.705 83.3748C417.091 83.8478 416.66 84.3527 416.41 84.8897L414.263 84.1226C414.646 83.2277 415.157 82.531 415.797 82.0324C416.442 81.5275 417.145 81.1759 417.906 80.9777C418.673 80.7732 419.427 80.6709 420.169 80.6709C420.642 80.6709 421.185 80.7285 421.799 80.8435C422.419 80.9522 423.016 81.1791 423.592 81.5243C424.173 81.8694 424.656 82.3904 425.04 83.0871C425.423 83.7839 425.615 84.7171 425.615 85.8868V95.59H423.352V93.5956H423.237C423.084 93.9152 422.828 94.2572 422.47 94.6216C422.112 94.9859 421.636 95.2959 421.041 95.5516C420.447 95.8073 419.721 95.9351 418.865 95.9351ZM419.21 93.9025C420.105 93.9025 420.859 93.7267 421.473 93.3751C422.093 93.0236 422.559 92.5697 422.873 92.0136C423.192 91.4575 423.352 90.8726 423.352 90.259V88.188C423.256 88.303 423.045 88.4085 422.719 88.5044C422.4 88.5939 422.029 88.6738 421.607 88.7441C421.191 88.808 420.786 88.8655 420.389 88.9167C419.999 88.9614 419.683 88.9998 419.44 89.0317C418.852 89.1084 418.302 89.2331 417.791 89.4057C417.286 89.5719 416.877 89.8243 416.564 90.1631C416.257 90.4955 416.103 90.9493 416.103 91.5246C416.103 92.3108 416.394 92.9053 416.976 93.308C417.564 93.7043 418.309 93.9025 419.21 93.9025ZM430.675 101.113C430.291 101.113 429.949 101.081 429.649 101.017C429.349 100.959 429.141 100.902 429.026 100.844L429.601 98.8499C430.151 98.9905 430.637 99.0417 431.058 99.0033C431.48 98.965 431.854 98.7764 432.18 98.4376C432.513 98.1052 432.816 97.5651 433.091 96.8172L433.513 95.6667L428.067 80.8627H430.521L434.587 92.5985H434.74L438.806 80.8627H441.26L435.009 97.7377C434.727 98.4983 434.379 99.128 433.964 99.6265C433.548 100.132 433.066 100.505 432.516 100.748C431.972 100.991 431.359 101.113 430.675 101.113ZM448.132 95.9351C447.199 95.9351 446.352 95.7594 445.592 95.4078C444.831 95.0498 444.227 94.5353 443.779 93.8641C443.332 93.1866 443.108 92.3684 443.108 91.4096C443.108 90.5658 443.274 89.8819 443.607 89.3577C443.939 88.8272 444.383 88.4117 444.94 88.1113C445.496 87.8108 446.109 87.5871 446.78 87.4401C447.458 87.2867 448.139 87.1653 448.823 87.0758C449.718 86.9607 450.443 86.8744 450.999 86.8169C451.562 86.753 451.971 86.6475 452.226 86.5005C452.489 86.3535 452.62 86.0978 452.62 85.7334V85.6567C452.62 84.7107 452.361 83.9756 451.843 83.4515C451.332 82.9273 450.555 82.6652 449.513 82.6652C448.433 82.6652 447.586 82.9018 446.972 83.3748C446.359 83.8478 445.927 84.3527 445.678 84.8897L443.53 84.1226C443.914 83.2277 444.425 82.531 445.064 82.0324C445.71 81.5275 446.413 81.1759 447.174 80.9777C447.941 80.7732 448.695 80.6709 449.436 80.6709C449.909 80.6709 450.453 80.7285 451.066 80.8435C451.686 80.9522 452.284 81.1791 452.859 81.5243C453.441 81.8694 453.924 82.3904 454.307 83.0871C454.691 83.7839 454.882 84.7171 454.882 85.8868V95.59H452.62V93.5956H452.505C452.351 93.9152 452.095 94.2572 451.737 94.6216C451.38 94.9859 450.903 95.2959 450.309 95.5516C449.714 95.8073 448.989 95.9351 448.132 95.9351ZM448.478 93.9025C449.372 93.9025 450.127 93.7267 450.74 93.3751C451.36 93.0236 451.827 92.5697 452.14 92.0136C452.46 91.4575 452.62 90.8726 452.62 90.259V88.188C452.524 88.303 452.313 88.4085 451.987 88.5044C451.667 88.5939 451.296 88.6738 450.875 88.7441C450.459 88.808 450.053 88.8655 449.657 88.9167C449.267 88.9614 448.951 88.9998 448.708 89.0317C448.12 89.1084 447.57 89.2331 447.059 89.4057C446.554 89.5719 446.144 89.8243 445.831 90.1631C445.524 90.4955 445.371 90.9493 445.371 91.5246C445.371 92.3108 445.662 92.9053 446.244 93.308C446.832 93.7043 447.576 93.9025 448.478 93.9025ZM459.012 95.59V80.8627H461.275V95.59H459.012ZM460.163 78.4081C459.722 78.4081 459.342 78.2579 459.022 77.9575C458.709 77.6571 458.552 77.2959 458.552 76.8741C458.552 76.4522 458.709 76.091 459.022 75.7906C459.342 75.4902 459.722 75.34 460.163 75.34C460.604 75.34 460.981 75.4902 461.294 75.7906C461.614 76.091 461.774 76.4522 461.774 76.8741C461.774 77.2959 461.614 77.6571 461.294 77.9575C460.981 78.2579 460.604 78.4081 460.163 78.4081ZM477.347 95.9351C476.414 95.9351 475.567 95.7594 474.806 95.4078C474.046 95.0498 473.442 94.5353 472.994 93.8641C472.547 93.1866 472.323 92.3684 472.323 91.4096C472.323 90.5658 472.489 89.8819 472.822 89.3577C473.154 88.8272 473.598 88.4117 474.154 88.1113C474.71 87.8108 475.324 87.5871 475.995 87.4401C476.673 87.2867 477.354 87.1653 478.038 87.0758C478.932 86.9607 479.658 86.8744 480.214 86.8169C480.777 86.753 481.186 86.6475 481.441 86.5005C481.703 86.3535 481.834 86.0978 481.834 85.7334V85.6567C481.834 84.7107 481.576 83.9756 481.058 83.4515C480.546 82.9273 479.77 82.6652 478.728 82.6652C477.648 82.6652 476.801 82.9018 476.187 83.3748C475.573 83.8478 475.142 84.3527 474.893 84.8897L472.745 84.1226C473.128 83.2277 473.64 82.531 474.279 82.0324C474.925 81.5275 475.628 81.1759 476.388 80.9777C477.155 80.7732 477.91 80.6709 478.651 80.6709C479.124 80.6709 479.668 80.7285 480.281 80.8435C480.901 80.9522 481.499 81.1791 482.074 81.5243C482.656 81.8694 483.138 82.3904 483.522 83.0871C483.905 83.7839 484.097 84.7171 484.097 85.8868V95.59H481.834V93.5956H481.719C481.566 93.9152 481.31 94.2572 480.952 94.6216C480.594 94.9859 480.118 95.2959 479.524 95.5516C478.929 95.8073 478.204 95.9351 477.347 95.9351ZM477.692 93.9025C478.587 93.9025 479.342 93.7267 479.955 93.3751C480.575 93.0236 481.042 92.5697 481.355 92.0136C481.675 91.4575 481.834 90.8726 481.834 90.259V88.188C481.739 88.303 481.528 88.4085 481.202 88.5044C480.882 88.5939 480.511 88.6738 480.089 88.7441C479.674 88.808 479.268 88.8655 478.872 88.9167C478.482 88.9614 478.165 88.9998 477.922 89.0317C477.334 89.1084 476.785 89.2331 476.273 89.4057C475.768 89.5719 475.359 89.8243 475.046 90.1631C474.739 90.4955 474.586 90.9493 474.586 91.5246C474.586 92.3108 474.877 92.9053 475.458 93.308C476.046 93.7043 476.791 93.9025 477.692 93.9025ZM490.337 90.2206L490.298 87.4209H490.759L497.202 80.8627H500.001L493.136 87.8045H492.945L490.337 90.2206ZM488.227 95.59V75.9536H490.49V95.59H488.227ZM497.585 95.59L491.832 88.303L493.443 86.7306L500.462 95.59H497.585ZM509.319 80.8627V82.7803H501.687V80.8627H509.319ZM503.911 77.3343H506.174V91.3712C506.174 92.0104 506.266 92.4898 506.452 92.8094C506.644 93.1226 506.886 93.3336 507.18 93.4422C507.481 93.5445 507.797 93.5956 508.13 93.5956C508.379 93.5956 508.584 93.5829 508.743 93.5573C508.903 93.5253 509.031 93.4998 509.127 93.4806L509.587 95.5133C509.434 95.5708 509.22 95.6283 508.945 95.6858C508.67 95.7498 508.321 95.7817 507.9 95.7817C507.26 95.7817 506.634 95.6443 506.02 95.3694C505.413 95.0946 504.908 94.6759 504.505 94.1134C504.109 93.5509 503.911 92.8414 503.911 91.9849V77.3343ZM512.722 95.59V80.8627H514.985V95.59H512.722ZM513.873 78.4081C513.432 78.4081 513.052 78.2579 512.732 77.9575C512.419 77.6571 512.262 77.2959 512.262 76.8741C512.262 76.4522 512.419 76.091 512.732 75.7906C513.052 75.4902 513.432 75.34 513.873 75.34C514.314 75.34 514.691 75.4902 515.004 75.7906C515.324 76.091 515.484 76.4522 515.484 76.8741C515.484 77.2959 515.324 77.6571 515.004 77.9575C514.691 78.2579 514.314 78.4081 513.873 78.4081ZM531.172 80.8627L525.726 95.59H523.425L517.979 80.8627H520.434L524.499 92.5985H524.652L528.718 80.8627H531.172ZM534.159 95.59V80.8627H536.422V95.59H534.159ZM535.309 78.4081C534.868 78.4081 534.488 78.2579 534.169 77.9575C533.855 77.6571 533.699 77.2959 533.699 76.8741C533.699 76.4522 533.855 76.091 534.169 75.7906C534.488 75.4902 534.868 75.34 535.309 75.34C535.751 75.34 536.128 75.4902 536.441 75.7906C536.76 76.091 536.92 76.4522 536.92 76.8741C536.92 77.2959 536.76 77.6571 536.441 77.9575C536.128 78.2579 535.751 78.4081 535.309 78.4081ZM546.971 80.8627V82.7803H539.339V80.8627H546.971ZM541.563 77.3343H543.826V91.3712C543.826 92.0104 543.919 92.4898 544.104 92.8094C544.296 93.1226 544.539 93.3336 544.833 93.4422C545.133 93.5445 545.45 93.5956 545.782 93.5956C546.031 93.5956 546.236 93.5829 546.396 93.5573C546.555 93.5253 546.683 93.4998 546.779 93.4806L547.239 95.5133C547.086 95.5708 546.872 95.6283 546.597 95.6858C546.322 95.7498 545.974 95.7817 545.552 95.7817C544.913 95.7817 544.286 95.6443 543.673 95.3694C543.065 95.0946 542.56 94.6759 542.158 94.1134C541.761 93.5509 541.563 92.8414 541.563 91.9849V77.3343ZM554.709 95.9351C553.775 95.9351 552.928 95.7594 552.168 95.4078C551.407 95.0498 550.803 94.5353 550.356 93.8641C549.908 93.1866 549.684 92.3684 549.684 91.4096C549.684 90.5658 549.851 89.8819 550.183 89.3577C550.515 88.8272 550.96 88.4117 551.516 88.1113C552.072 87.8108 552.685 87.5871 553.357 87.4401C554.034 87.2867 554.715 87.1653 555.399 87.0758C556.294 86.9607 557.019 86.8744 557.575 86.8169C558.138 86.753 558.547 86.6475 558.803 86.5005C559.065 86.3535 559.196 86.0978 559.196 85.7334V85.6567C559.196 84.7107 558.937 83.9756 558.419 83.4515C557.908 82.9273 557.131 82.6652 556.089 82.6652C555.009 82.6652 554.162 82.9018 553.548 83.3748C552.935 83.8478 552.503 84.3527 552.254 84.8897L550.106 84.1226C550.49 83.2277 551.001 82.531 551.64 82.0324C552.286 81.5275 552.989 81.1759 553.75 80.9777C554.517 80.7732 555.271 80.6709 556.013 80.6709C556.486 80.6709 557.029 80.7285 557.642 80.8435C558.263 80.9522 558.86 81.1791 559.435 81.5243C560.017 81.8694 560.5 82.3904 560.883 83.0871C561.267 83.7839 561.459 84.7171 561.459 85.8868V95.59H559.196V93.5956H559.081C558.927 93.9152 558.672 94.2572 558.314 94.6216C557.956 94.9859 557.479 95.2959 556.885 95.5516C556.291 95.8073 555.565 95.9351 554.709 95.9351ZM555.054 93.9025C555.949 93.9025 556.703 93.7267 557.316 93.3751C557.937 93.0236 558.403 92.5697 558.716 92.0136C559.036 91.4575 559.196 90.8726 559.196 90.259V88.188C559.1 88.303 558.889 88.4085 558.563 88.5044C558.243 88.5939 557.873 88.6738 557.451 88.7441C557.035 88.808 556.629 88.8655 556.233 88.9167C555.843 88.9614 555.527 88.9998 555.284 89.0317C554.696 89.1084 554.146 89.2331 553.635 89.4057C553.13 89.5719 552.721 89.8243 552.407 90.1631C552.101 90.4955 551.947 90.9493 551.947 91.5246C551.947 92.3108 552.238 92.9053 552.82 93.308C553.408 93.7043 554.152 93.9025 555.054 93.9025ZM576.02 84.161L573.988 84.7363C573.86 84.3975 573.671 84.0683 573.422 83.7487C573.179 83.4227 572.847 83.1542 572.425 82.9433C572.003 82.7324 571.463 82.6269 570.805 82.6269C569.903 82.6269 569.152 82.8346 568.551 83.2501C567.957 83.6592 567.66 84.1802 567.66 84.813C567.66 85.3755 567.864 85.8197 568.273 86.1457C568.682 86.4717 569.322 86.7434 570.191 86.9607L572.377 87.4976C573.694 87.8172 574.675 88.3062 575.32 88.9646C575.966 89.6166 576.289 90.4572 576.289 91.4863C576.289 92.33 576.046 93.0843 575.56 93.7491C575.081 94.4138 574.41 94.938 573.547 95.3215C572.684 95.705 571.68 95.8968 570.536 95.8968C569.034 95.8968 567.791 95.5708 566.806 94.9188C565.822 94.2668 565.199 93.3144 564.937 92.0616L567.084 91.5246C567.289 92.3172 567.676 92.9117 568.244 93.308C568.82 93.7043 569.571 93.9025 570.498 93.9025C571.552 93.9025 572.39 93.6787 573.01 93.2313C573.636 92.7775 573.949 92.2341 573.949 91.6013C573.949 91.09 573.77 90.6617 573.412 90.3165C573.055 89.965 572.505 89.7029 571.763 89.5303L569.309 88.955C567.96 88.6354 566.969 88.14 566.336 87.4689C565.71 86.7913 565.397 85.9444 565.397 84.928C565.397 84.0971 565.63 83.362 566.097 82.7228C566.57 82.0836 567.212 81.5818 568.024 81.2175C568.842 80.8531 569.769 80.6709 570.805 80.6709C572.262 80.6709 573.406 80.9905 574.237 81.6297C575.074 82.2689 575.669 83.1127 576.02 84.161ZM587.596 95.59V75.9536H589.973V85.6951H590.204L599.025 75.9536H602.131L593.885 84.813L602.131 95.59H599.255L592.428 86.4621L589.973 89.2235V95.59H587.596ZM609.804 95.8968C608.474 95.8968 607.308 95.5804 606.304 94.9476C605.307 94.3148 604.527 93.4295 603.965 92.2917C603.409 91.1539 603.131 89.8243 603.131 88.303C603.131 86.7689 603.409 85.4298 603.965 84.2856C604.527 83.1415 605.307 82.253 606.304 81.6202C607.308 80.9873 608.474 80.6709 609.804 80.6709C611.134 80.6709 612.297 80.9873 613.294 81.6202C614.298 82.253 615.077 83.1415 615.634 84.2856C616.196 85.4298 616.477 86.7689 616.477 88.303C616.477 89.8243 616.196 91.1539 615.634 92.2917C615.077 93.4295 614.298 94.3148 613.294 94.9476C612.297 95.5804 611.134 95.8968 609.804 95.8968ZM609.804 93.8641C610.814 93.8641 611.645 93.6052 612.297 93.0875C612.949 92.5697 613.431 91.889 613.745 91.0452C614.058 90.2015 614.214 89.2874 614.214 88.303C614.214 87.3187 614.058 86.4014 613.745 85.5513C613.431 84.7011 612.949 84.014 612.297 83.4898C611.645 82.9657 610.814 82.7036 609.804 82.7036C608.794 82.7036 607.963 82.9657 607.311 83.4898C606.659 84.014 606.176 84.7011 605.863 85.5513C605.55 86.4014 605.393 87.3187 605.393 88.303C605.393 89.2874 605.55 90.2015 605.863 91.0452C606.176 91.889 606.659 92.5697 607.311 93.0875C607.963 93.6052 608.794 93.8641 609.804 93.8641ZM619.931 95.59V80.8627H622.117V83.1638H622.309C622.616 82.3776 623.111 81.7672 623.795 81.3325C624.479 80.8915 625.301 80.6709 626.259 80.6709C627.231 80.6709 628.04 80.8915 628.685 81.3325C629.337 81.7672 629.845 82.3776 630.21 83.1638H630.363C630.74 82.4032 631.306 81.7991 632.06 81.3517C632.815 80.8978 633.719 80.6709 634.774 80.6709C636.09 80.6709 637.168 81.0832 638.005 81.9078C638.842 82.726 639.261 84.0012 639.261 85.7334V95.59H636.998V85.7334C636.998 84.6468 636.701 83.8702 636.106 83.4035C635.512 82.9369 634.812 82.7036 634.007 82.7036C632.971 82.7036 632.169 83.0168 631.6 83.6432C631.031 84.2633 630.747 85.0495 630.747 86.0019V95.59H628.446V85.5033C628.446 84.666 628.174 83.9916 627.631 83.4802C627.087 82.9625 626.387 82.7036 625.531 82.7036C624.943 82.7036 624.393 82.8602 623.882 83.1734C623.377 83.4866 622.968 83.9213 622.654 84.4774C622.348 85.0271 622.194 85.6631 622.194 86.3854V95.59H619.931ZM643.398 95.59V80.8627H645.661V95.59H643.398ZM644.549 78.4081C644.108 78.4081 643.727 78.2579 643.408 77.9575C643.095 77.6571 642.938 77.2959 642.938 76.8741C642.938 76.4522 643.095 76.091 643.408 75.7906C643.727 75.4902 644.108 75.34 644.549 75.34C644.99 75.34 645.367 75.4902 645.68 75.7906C646 76.091 646.16 76.4522 646.16 76.8741C646.16 77.2959 646 77.6571 645.68 77.9575C645.367 78.2579 644.99 78.4081 644.549 78.4081ZM656.21 80.8627V82.7803H648.578V80.8627H656.21ZM650.803 77.3343H653.065V91.3712C653.065 92.0104 653.158 92.4898 653.343 92.8094C653.535 93.1226 653.778 93.3336 654.072 93.4422C654.373 93.5445 654.689 93.5956 655.021 93.5956C655.271 93.5956 655.475 93.5829 655.635 93.5573C655.795 93.5253 655.923 93.4998 656.018 93.4806L656.479 95.5133C656.325 95.5708 656.111 95.6283 655.836 95.6858C655.561 95.7498 655.213 95.7817 654.791 95.7817C654.152 95.7817 653.526 95.6443 652.912 95.3694C652.305 95.0946 651.8 94.6759 651.397 94.1134C651.001 93.5509 650.803 92.8414 650.803 91.9849V77.3343ZM665.631 95.8968C664.211 95.8968 662.987 95.5836 661.958 94.9572C660.936 94.3243 660.146 93.4422 659.59 92.3108C659.04 91.1731 658.765 89.8499 658.765 88.3414C658.765 86.8329 659.04 85.5033 659.59 84.3527C660.146 83.1958 660.92 82.2945 661.91 81.6489C662.907 80.9969 664.071 80.6709 665.4 80.6709C666.167 80.6709 666.925 80.7988 667.673 81.0545C668.421 81.3101 669.101 81.7256 669.715 82.3009C670.329 82.8698 670.818 83.6241 671.182 84.5637C671.546 85.5033 671.729 86.6603 671.729 88.0346V88.9934H660.376V87.0374H669.427C669.427 86.2064 669.261 85.465 668.929 84.813C668.603 84.161 668.136 83.6464 667.529 83.2693C666.928 82.8922 666.219 82.7036 665.4 82.7036C664.499 82.7036 663.719 82.9273 663.061 83.3748C662.409 83.8158 661.907 84.3911 661.556 85.1006C661.204 85.8101 661.028 86.5708 661.028 87.3826V88.6866C661.028 89.7988 661.22 90.7416 661.604 91.515C661.993 92.2821 662.534 92.867 663.224 93.2697C663.914 93.666 664.716 93.8641 665.631 93.8641C666.225 93.8641 666.762 93.781 667.241 93.6148C667.727 93.4422 668.146 93.1866 668.497 92.8478C668.849 92.5026 669.121 92.0743 669.312 91.563L671.498 92.1766C671.268 92.9181 670.882 93.5701 670.338 94.1326C669.795 94.6887 669.124 95.1233 668.325 95.4366C667.526 95.7434 666.628 95.8968 665.631 95.8968Z" fill="white"/>
<path d="M68.5532 86.2817C65.0839 86.2817 62.1061 85.4038 59.62 83.6481C57.1479 81.8783 55.2447 79.329 53.9103 76.0001C52.59 72.6572 51.9299 68.633 51.9299 63.9276C51.9439 59.2222 52.6111 55.2191 53.9314 51.9183C55.2658 48.6035 57.169 46.0752 59.6411 44.3335C62.1272 42.5918 65.0979 41.721 68.5532 41.721C72.0085 41.721 74.9792 42.5918 77.4654 44.3335C79.9515 46.0752 81.8547 48.6035 83.175 51.9183C84.5094 55.2332 85.1766 59.2363 85.1766 63.9276C85.1766 68.647 84.5094 72.6782 83.175 76.0212C81.8547 79.35 79.9515 81.8924 77.4654 83.6481C74.9933 85.4038 72.0226 86.2817 68.5532 86.2817ZM68.5532 79.6871C71.25 79.6871 73.378 78.3598 74.9371 75.7051C76.5102 73.0364 77.2968 69.1106 77.2968 63.9276C77.2968 60.5004 76.9386 57.621 76.2223 55.2894C75.506 52.9577 74.4946 51.202 73.1884 50.0221C71.8821 48.8282 70.3371 48.2313 68.5532 48.2313C65.8704 48.2313 63.7495 49.5657 62.1904 52.2344C60.6313 54.8891 59.8447 58.7868 59.8307 63.9276C59.8167 67.3689 60.1608 70.2623 60.8631 72.608C61.5794 74.9537 62.5907 76.7235 63.897 77.9174C65.2033 79.0972 66.7553 79.6871 68.5532 79.6871ZM109.727 42.3109V85.46H101.911V49.9168H101.658L91.5657 56.3639V49.2005L102.29 42.3109H109.727Z" fill="white"/>
</g>
<defs>
<clipPath id="clip0_791_246">
<rect width="717.45" height="132.77" fill="white"/>
</clipPath>
</defs>
</svg>
