<svg width="718" height="133" viewBox="0 0 718 133" fill="none" xmlns="http://www.w3.org/2000/svg">
<g clip-path="url(#clip0_791_209)">
<path d="M717.45 0H0V132.77H717.45V0Z" fill="white"/>
<path d="M171.759 51.63V31.9936H178.624C179.992 31.9936 181.12 32.2301 182.008 32.7032C182.897 33.1698 183.558 33.7994 183.993 34.592C184.428 35.3782 184.645 36.2507 184.645 37.2095C184.645 38.0533 184.495 38.75 184.194 39.2997C183.9 39.8495 183.51 40.2841 183.025 40.6037C182.545 40.9233 182.024 41.1598 181.462 41.3132V41.505C182.063 41.5434 182.667 41.7543 183.274 42.1378C183.881 42.5213 184.389 43.0711 184.798 43.787C185.208 44.5029 185.412 45.3786 185.412 46.4141C185.412 47.3985 185.188 48.2838 184.741 49.07C184.294 49.8562 183.587 50.4794 182.622 50.9397C181.657 51.3999 180.401 51.63 178.854 51.63H171.759ZM174.137 49.5206H178.854C180.407 49.5206 181.51 49.2202 182.162 48.6194C182.82 48.0121 183.149 47.277 183.149 46.4141C183.149 45.7493 182.98 45.1357 182.641 44.5732C182.302 44.0043 181.82 43.5505 181.193 43.2117C180.567 42.8665 179.825 42.6939 178.969 42.6939H174.137V49.5206ZM174.137 40.6229H178.547C179.263 40.6229 179.909 40.4823 180.484 40.201C181.066 39.9198 181.526 39.5235 181.865 39.0121C182.21 38.5007 182.382 37.8999 182.382 37.2095C182.382 36.3466 182.082 35.6147 181.481 35.0139C180.88 34.4066 179.928 34.103 178.624 34.103H174.137V40.6229ZM195.187 51.9368C193.768 51.9368 192.544 51.6236 191.515 50.9972C190.492 50.3644 189.703 49.4823 189.147 48.3509C188.597 47.2131 188.322 45.8899 188.322 44.3814C188.322 42.8729 188.597 41.5434 189.147 40.3928C189.703 39.2358 190.476 38.3346 191.467 37.689C192.464 37.037 193.627 36.711 194.957 36.711C195.724 36.711 196.482 36.8388 197.229 37.0945C197.977 37.3502 198.658 37.7657 199.272 38.3409C199.885 38.9098 200.374 39.6641 200.739 40.6037C201.103 41.5434 201.285 42.7003 201.285 44.0746V45.0334H189.933V43.0774H198.984C198.984 42.2465 198.818 41.505 198.485 40.853C198.159 40.201 197.693 39.6865 197.086 39.3093C196.485 38.9322 195.775 38.7436 194.957 38.7436C194.056 38.7436 193.276 38.9674 192.618 39.4148C191.966 39.8559 191.464 40.4311 191.112 41.1407C190.761 41.8502 190.585 42.6108 190.585 43.4226V44.7266C190.585 45.8388 190.777 46.7816 191.16 47.5551C191.55 48.3221 192.09 48.907 192.781 49.3097C193.471 49.706 194.273 49.9042 195.187 49.9042C195.782 49.9042 196.319 49.8211 196.798 49.6549C197.284 49.4823 197.702 49.2266 198.054 48.8878C198.406 48.5426 198.677 48.1144 198.869 47.603L201.055 48.2167C200.825 48.9581 200.438 49.6101 199.895 50.1726C199.352 50.7287 198.68 51.1634 197.881 51.4766C197.082 51.7834 196.184 51.9368 195.187 51.9368ZM206.99 31.9936V51.63H204.727V31.9936H206.99ZM211.134 51.63V36.9027H213.397V51.63H211.134ZM212.285 34.4482C211.844 34.4482 211.464 34.298 211.144 33.9975C210.831 33.6971 210.674 33.336 210.674 32.9141C210.674 32.4922 210.831 32.1311 211.144 31.8306C211.464 31.5302 211.844 31.38 212.285 31.38C212.726 31.38 213.103 31.5302 213.416 31.8306C213.736 32.1311 213.896 32.4922 213.896 32.9141C213.896 33.336 213.736 33.6971 213.416 33.9975C213.103 34.298 212.726 34.4482 212.285 34.4482ZM230.697 51.9368C229.469 51.9368 228.386 51.6268 227.446 51.0068C226.507 50.3804 225.771 49.4983 225.241 48.3605C224.71 47.2163 224.445 45.8644 224.445 44.3047C224.445 42.7578 224.71 41.4155 225.241 40.2777C225.771 39.1399 226.51 38.261 227.456 37.641C228.402 37.021 229.495 36.711 230.735 36.711C231.694 36.711 232.451 36.8708 233.007 37.1904C233.57 37.5036 233.998 37.8615 234.292 38.2642C234.593 38.6605 234.826 38.9865 234.992 39.2422H235.184V31.9936H237.447V51.63H235.26V49.3672H234.992C234.826 49.6357 234.589 49.9745 234.282 50.3836C233.976 50.7863 233.538 51.1474 232.969 51.467C232.4 51.7802 231.643 51.9368 230.697 51.9368ZM231.003 49.9042C231.911 49.9042 232.678 49.6676 233.305 49.1946C233.931 48.7152 234.407 48.0537 234.733 47.2099C235.059 46.3598 235.222 45.3786 235.222 44.2664C235.222 43.1669 235.062 42.2049 234.743 41.3804C234.423 40.5494 233.95 39.9038 233.324 39.4436C232.697 38.977 231.924 38.7436 231.003 38.7436C230.045 38.7436 229.246 38.9897 228.606 39.4819C227.974 39.9677 227.497 40.6293 227.178 41.4667C226.865 42.2976 226.708 43.2309 226.708 44.2664C226.708 45.3147 226.868 46.2671 227.187 47.1236C227.513 47.9738 227.993 48.6513 228.626 49.1563C229.265 49.6549 230.057 49.9042 231.003 49.9042ZM246.239 51.9752C245.306 51.9752 244.459 51.7994 243.698 51.4478C242.937 51.0899 242.333 50.5753 241.886 49.9042C241.438 49.2266 241.215 48.4084 241.215 47.4496C241.215 46.6059 241.381 45.9219 241.713 45.3978C242.046 44.8672 242.49 44.4517 243.046 44.1513C243.602 43.8509 244.216 43.6272 244.887 43.4801C245.564 43.3267 246.245 43.2053 246.929 43.1158C247.824 43.0007 248.55 42.9145 249.106 42.8569C249.668 42.793 250.077 42.6875 250.333 42.5405C250.595 42.3935 250.726 42.1378 250.726 41.7735V41.6968C250.726 40.7507 250.467 40.0157 249.949 39.4915C249.438 38.9674 248.661 38.7053 247.619 38.7053C246.539 38.7053 245.692 38.9418 245.079 39.4148C244.465 39.8878 244.034 40.3928 243.784 40.9297L241.637 40.1627C242.02 39.2678 242.531 38.5711 243.171 38.0725C243.816 37.5675 244.519 37.2159 245.28 37.0178C246.047 36.8132 246.801 36.711 247.543 36.711C248.016 36.711 248.559 36.7685 249.173 36.8836C249.793 36.9922 250.39 37.2191 250.966 37.5643C251.547 37.9095 252.03 38.4304 252.414 39.1272C252.797 39.8239 252.989 40.7571 252.989 41.9269V51.63H250.726V49.6357H250.611C250.458 49.9553 250.202 50.2973 249.844 50.6616C249.486 51.026 249.01 51.336 248.415 51.5917C247.821 51.8473 247.095 51.9752 246.239 51.9752ZM246.584 49.9425C247.479 49.9425 248.233 49.7667 248.847 49.4152C249.467 49.0636 249.933 48.6098 250.247 48.0537C250.566 47.4975 250.726 46.9127 250.726 46.299V44.228C250.63 44.3431 250.419 44.4485 250.093 44.5444C249.774 44.6339 249.403 44.7138 248.981 44.7841C248.566 44.848 248.16 44.9056 247.763 44.9567C247.373 45.0015 247.057 45.0398 246.814 45.0718C246.226 45.1485 245.676 45.2731 245.165 45.4457C244.66 45.6119 244.251 45.8644 243.938 46.2032C243.631 46.5355 243.477 46.9894 243.477 47.5647C243.477 48.3509 243.768 48.9453 244.35 49.348C244.938 49.7444 245.683 49.9425 246.584 49.9425ZM259.382 42.7706V51.63H257.119V36.9027H259.305V39.2039H259.497C259.842 38.456 260.366 37.8551 261.069 37.4013C261.772 36.9411 262.68 36.711 263.792 36.711C264.789 36.711 265.662 36.9155 266.41 37.3246C267.158 37.7273 267.739 38.3409 268.155 39.1655C268.57 39.9837 268.778 41.0192 268.778 42.2721V51.63H266.515V42.4255C266.515 41.2685 266.215 40.3672 265.614 39.7216C265.013 39.0696 264.188 38.7436 263.14 38.7436C262.418 38.7436 261.772 38.9002 261.203 39.2135C260.641 39.5267 260.197 39.9837 259.871 40.5845C259.545 41.1854 259.382 41.9141 259.382 42.7706ZM280.507 36.9027H282.769V52.7039C282.769 53.6115 282.613 54.3978 282.3 55.0625C281.993 55.7273 281.526 56.2419 280.9 56.6062C280.28 56.9706 279.497 57.1527 278.551 57.1527C278.474 57.1527 278.397 57.1527 278.32 57.1527C278.244 57.1527 278.167 57.1527 278.09 57.1527V55.0434C278.167 55.0434 278.237 55.0434 278.301 55.0434C278.365 55.0434 278.436 55.0434 278.512 55.0434C279.203 55.0434 279.708 54.8388 280.027 54.4297C280.347 54.027 280.507 53.4517 280.507 52.7039V36.9027ZM281.619 34.4482C281.178 34.4482 280.797 34.298 280.478 33.9975C280.165 33.6971 280.008 33.336 280.008 32.9141C280.008 32.4922 280.165 32.1311 280.478 31.8306C280.797 31.5302 281.178 31.38 281.619 31.38C282.06 31.38 282.437 31.5302 282.75 31.8306C283.07 32.1311 283.23 32.4922 283.23 32.9141C283.23 33.336 283.07 33.6971 282.75 33.9975C282.437 34.298 282.06 34.4482 281.619 34.4482ZM296.195 45.6087V36.9027H298.458V51.63H296.195V49.1371H296.042C295.696 49.885 295.16 50.521 294.431 51.0451C293.702 51.5629 292.782 51.8218 291.669 51.8218C290.749 51.8218 289.931 51.6204 289.215 51.2177C288.499 50.8086 287.937 50.195 287.527 49.3768C287.118 48.5522 286.914 47.5135 286.914 46.2607V36.9027H289.177V46.1073C289.177 47.1811 289.477 48.0377 290.078 48.6769C290.685 49.3161 291.459 49.6357 292.398 49.6357C292.961 49.6357 293.533 49.4919 294.114 49.2042C294.703 48.9166 295.195 48.4755 295.591 47.8811C295.994 47.2866 296.195 46.5292 296.195 45.6087ZM306.936 51.9752C306.003 51.9752 305.156 51.7994 304.395 51.4478C303.635 51.0899 303.031 50.5753 302.583 49.9042C302.136 49.2266 301.912 48.4084 301.912 47.4496C301.912 46.6059 302.078 45.9219 302.411 45.3978C302.743 44.8672 303.187 44.4517 303.743 44.1513C304.299 43.8509 304.913 43.6272 305.584 43.4801C306.262 43.3267 306.942 43.2053 307.626 43.1158C308.521 43.0007 309.247 42.9145 309.803 42.8569C310.365 42.793 310.775 42.6875 311.03 42.5405C311.292 42.3935 311.423 42.1378 311.423 41.7735V41.6968C311.423 40.7507 311.164 40.0157 310.647 39.4915C310.135 38.9674 309.359 38.7053 308.317 38.7053C307.237 38.7053 306.39 38.9418 305.776 39.4148C305.162 39.8878 304.731 40.3928 304.482 40.9297L302.334 40.1627C302.717 39.2678 303.229 38.5711 303.868 38.0725C304.513 37.5675 305.217 37.2159 305.977 37.0178C306.744 36.8132 307.499 36.711 308.24 36.711C308.713 36.711 309.256 36.7685 309.87 36.8836C310.49 36.9922 311.088 37.2191 311.663 37.5643C312.245 37.9095 312.727 38.4304 313.111 39.1272C313.494 39.8239 313.686 40.7571 313.686 41.9269V51.63H311.423V49.6357H311.308C311.155 49.9553 310.899 50.2973 310.541 50.6616C310.183 51.026 309.707 51.336 309.113 51.5917C308.518 51.8473 307.793 51.9752 306.936 51.9752ZM307.281 49.9425C308.176 49.9425 308.93 49.7667 309.544 49.4152C310.164 49.0636 310.631 48.6098 310.944 48.0537C311.263 47.4975 311.423 46.9127 311.423 46.299V44.228C311.327 44.3431 311.116 44.4485 310.79 44.5444C310.471 44.6339 310.1 44.7138 309.678 44.7841C309.263 44.848 308.857 44.9056 308.461 44.9567C308.071 45.0015 307.754 45.0398 307.511 45.0718C306.923 45.1485 306.374 45.2731 305.862 45.4457C305.357 45.6119 304.948 45.8644 304.635 46.2032C304.328 46.5355 304.175 46.9894 304.175 47.5647C304.175 48.3509 304.466 48.9453 305.047 49.348C305.635 49.7444 306.38 49.9425 307.281 49.9425ZM320.079 31.9936V51.63H317.816V31.9936H320.079ZM336.151 51.9752C335.218 51.9752 334.371 51.7994 333.61 51.4478C332.849 51.0899 332.245 50.5753 331.798 49.9042C331.35 49.2266 331.127 48.4084 331.127 47.4496C331.127 46.6059 331.293 45.9219 331.625 45.3978C331.958 44.8672 332.402 44.4517 332.958 44.1513C333.514 43.8509 334.128 43.6272 334.799 43.4801C335.477 43.3267 336.157 43.2053 336.841 43.1158C337.736 43.0007 338.462 42.9145 339.018 42.8569C339.58 42.793 339.989 42.6875 340.245 42.5405C340.507 42.3935 340.638 42.1378 340.638 41.7735V41.6968C340.638 40.7507 340.379 40.0157 339.862 39.4915C339.35 38.9674 338.574 38.7053 337.532 38.7053C336.451 38.7053 335.604 38.9418 334.991 39.4148C334.377 39.8878 333.946 40.3928 333.696 40.9297L331.549 40.1627C331.932 39.2678 332.444 38.5711 333.083 38.0725C333.728 37.5675 334.431 37.2159 335.192 37.0178C335.959 36.8132 336.713 36.711 337.455 36.711C337.928 36.711 338.471 36.7685 339.085 36.8836C339.705 36.9922 340.303 37.2191 340.878 37.5643C341.46 37.9095 341.942 38.4304 342.326 39.1272C342.709 39.8239 342.901 40.7571 342.901 41.9269V51.63H340.638V49.6357H340.523C340.37 49.9553 340.114 50.2973 339.756 50.6616C339.398 51.026 338.922 51.336 338.327 51.5917C337.733 51.8473 337.007 51.9752 336.151 51.9752ZM336.496 49.9425C337.391 49.9425 338.145 49.7667 338.759 49.4152C339.379 49.0636 339.846 48.6098 340.159 48.0537C340.478 47.4975 340.638 46.9127 340.638 46.299V44.228C340.542 44.3431 340.331 44.4485 340.005 44.5444C339.686 44.6339 339.315 44.7138 338.893 44.7841C338.478 44.848 338.072 44.9056 337.675 44.9567C337.286 45.0015 336.969 45.0398 336.726 45.0718C336.138 45.1485 335.588 45.2731 335.077 45.4457C334.572 45.6119 334.163 45.8644 333.85 46.2032C333.543 46.5355 333.39 46.9894 333.39 47.5647C333.39 48.3509 333.68 48.9453 334.262 49.348C334.85 49.7444 335.595 49.9425 336.496 49.9425ZM357.463 40.201L355.43 40.7763C355.302 40.4375 355.114 40.1083 354.864 39.7887C354.622 39.4627 354.289 39.1943 353.867 38.9833C353.445 38.7724 352.905 38.6669 352.247 38.6669C351.346 38.6669 350.595 38.8747 349.994 39.2902C349.399 39.6993 349.102 40.2202 349.102 40.853C349.102 41.4155 349.307 41.8598 349.716 42.1858C350.125 42.5118 350.764 42.7834 351.633 43.0007L353.819 43.5377C355.136 43.8573 356.117 44.3463 356.763 45.0046C357.408 45.6566 357.731 46.4972 357.731 47.5263C357.731 48.3701 357.488 49.1243 357.003 49.7891C356.523 50.4539 355.852 50.978 354.989 51.3615C354.126 51.7451 353.123 51.9368 351.978 51.9368C350.476 51.9368 349.233 51.6108 348.249 50.9588C347.264 50.3069 346.641 49.3544 346.379 48.1016L348.527 47.5647C348.731 48.3573 349.118 48.9517 349.687 49.348C350.262 49.7444 351.013 49.9425 351.94 49.9425C352.995 49.9425 353.832 49.7188 354.452 49.2713C355.079 48.8175 355.392 48.2742 355.392 47.6414C355.392 47.13 355.213 46.7017 354.855 46.3566C354.497 46.005 353.947 45.7429 353.206 45.5703L350.751 44.9951C349.402 44.6755 348.412 44.1801 347.779 43.5089C347.152 42.8314 346.839 41.9844 346.839 40.9681C346.839 40.1371 347.073 39.402 347.539 38.7628C348.012 38.1236 348.655 37.6218 349.466 37.2575C350.285 36.8931 351.211 36.711 352.247 36.711C353.704 36.711 354.848 37.0306 355.679 37.6698C356.517 38.309 357.111 39.1527 357.463 40.201ZM371.569 40.201L369.537 40.7763C369.409 40.4375 369.22 40.1083 368.971 39.7887C368.728 39.4627 368.396 39.1943 367.974 38.9833C367.552 38.7724 367.012 38.6669 366.353 38.6669C365.452 38.6669 364.701 38.8747 364.1 39.2902C363.506 39.6993 363.208 40.2202 363.208 40.853C363.208 41.4155 363.413 41.8598 363.822 42.1858C364.231 42.5118 364.87 42.7834 365.74 43.0007L367.926 43.5377C369.243 43.8573 370.224 44.3463 370.869 45.0046C371.515 45.6566 371.838 46.4972 371.838 47.5263C371.838 48.3701 371.595 49.1243 371.109 49.7891C370.63 50.4539 369.958 50.978 369.096 51.3615C368.233 51.7451 367.229 51.9368 366.085 51.9368C364.583 51.9368 363.339 51.6108 362.355 50.9588C361.371 50.3069 360.748 49.3544 360.485 48.1016L362.633 47.5647C362.838 48.3573 363.224 48.9517 363.793 49.348C364.369 49.7444 365.12 49.9425 366.047 49.9425C367.101 49.9425 367.939 49.7188 368.559 49.2713C369.185 48.8175 369.498 48.2742 369.498 47.6414C369.498 47.13 369.319 46.7017 368.961 46.3566C368.603 46.005 368.054 45.7429 367.312 45.5703L364.858 44.9951C363.509 44.6755 362.518 44.1801 361.885 43.5089C361.259 42.8314 360.946 41.9844 360.946 40.9681C360.946 40.1371 361.179 39.402 361.646 38.7628C362.119 38.1236 362.761 37.6218 363.573 37.2575C364.391 36.8931 365.318 36.711 366.353 36.711C367.811 36.711 368.955 37.0306 369.786 37.6698C370.623 38.309 371.218 39.1527 371.569 40.201ZM381.419 51.9368C380 51.9368 378.775 51.6236 377.746 50.9972C376.724 50.3644 375.934 49.4823 375.378 48.3509C374.828 47.2131 374.554 45.8899 374.554 44.3814C374.554 42.8729 374.828 41.5434 375.378 40.3928C375.934 39.2358 376.708 38.3346 377.698 37.689C378.696 37.037 379.859 36.711 381.188 36.711C381.956 36.711 382.713 36.8388 383.461 37.0945C384.209 37.3502 384.889 37.7657 385.503 38.3409C386.117 38.9098 386.606 39.6641 386.97 40.6037C387.334 41.5434 387.517 42.7003 387.517 44.0746V45.0334H376.164V43.0774H385.215C385.215 42.2465 385.049 41.505 384.717 40.853C384.391 40.201 383.924 39.6865 383.317 39.3093C382.716 38.9322 382.007 38.7436 381.188 38.7436C380.287 38.7436 379.507 38.9674 378.849 39.4148C378.197 39.8559 377.695 40.4311 377.344 41.1407C376.992 41.8502 376.816 42.6108 376.816 43.4226V44.7266C376.816 45.8388 377.008 46.7816 377.392 47.5551C377.782 48.3221 378.322 48.907 379.012 49.3097C379.702 49.706 380.505 49.9042 381.419 49.9042C382.013 49.9042 382.55 49.8211 383.029 49.6549C383.515 49.4823 383.934 49.2266 384.285 48.8878C384.637 48.5426 384.909 48.1144 385.1 47.603L387.286 48.2167C387.056 48.9581 386.67 49.6101 386.126 50.1726C385.583 50.7287 384.912 51.1634 384.113 51.4766C383.314 51.7834 382.416 51.9368 381.419 51.9368ZM397.364 36.9027V38.8203H389.731V36.9027H397.364ZM391.956 33.3743H394.219V47.4113C394.219 48.0505 394.311 48.5299 394.497 48.8495C394.688 49.1627 394.931 49.3736 395.225 49.4823C395.526 49.5846 395.842 49.6357 396.175 49.6357C396.424 49.6357 396.628 49.6229 396.788 49.5973C396.948 49.5654 397.076 49.5398 397.172 49.5206L397.632 51.5533C397.479 51.6108 397.264 51.6684 396.99 51.7259C396.715 51.7898 396.366 51.8218 395.945 51.8218C395.305 51.8218 394.679 51.6843 394.065 51.4095C393.458 51.1346 392.953 50.7159 392.55 50.1534C392.154 49.5909 391.956 48.8814 391.956 48.0249V33.3743ZM410.47 46.2607L410.432 43.461H410.892L417.335 36.9027H420.135L413.27 43.8445H413.078L410.47 46.2607ZM408.361 51.63V31.9936H410.624V51.63H408.361ZM417.719 51.63L411.966 44.3431L413.577 42.7706L420.595 51.63H417.719ZM423.048 51.63V36.9027H425.234V39.1272H425.387C425.656 38.3985 426.141 37.8072 426.844 37.3534C427.548 36.8995 428.34 36.6726 429.222 36.6726C429.388 36.6726 429.596 36.6758 429.846 36.6822C430.095 36.6886 430.283 36.6982 430.411 36.711V39.0121C430.335 38.9929 430.159 38.9642 429.884 38.9258C429.615 38.8811 429.331 38.8587 429.031 38.8587C428.315 38.8587 427.675 39.0089 427.113 39.3093C426.557 39.6034 426.116 40.0125 425.79 40.5366C425.47 41.0544 425.31 41.6456 425.31 42.3104V51.63H423.048ZM433.093 51.63V36.9027H435.356V51.63H433.093ZM434.244 34.4482C433.803 34.4482 433.423 34.298 433.103 33.9975C432.79 33.6971 432.633 33.336 432.633 32.9141C432.633 32.4922 432.79 32.1311 433.103 31.8306C433.423 31.5302 433.803 31.38 434.244 31.38C434.685 31.38 435.062 31.5302 435.375 31.8306C435.695 32.1311 435.855 32.4922 435.855 32.9141C435.855 33.336 435.695 33.6971 435.375 33.9975C435.062 34.298 434.685 34.4482 434.244 34.4482ZM439.501 57.1527V36.9027H441.687V39.2422H441.955C442.121 38.9865 442.352 38.6605 442.646 38.2642C442.946 37.8615 443.374 37.5036 443.93 37.1904C444.493 36.8708 445.254 36.711 446.212 36.711C447.452 36.711 448.545 37.021 449.491 37.641C450.438 38.261 451.176 39.1399 451.706 40.2777C452.237 41.4155 452.502 42.7578 452.502 44.3047C452.502 45.8644 452.237 47.2163 451.706 48.3605C451.176 49.4983 450.441 50.3804 449.501 51.0068C448.561 51.6268 447.478 51.9368 446.251 51.9368C445.305 51.9368 444.547 51.7802 443.978 51.467C443.409 51.1474 442.972 50.7863 442.665 50.3836C442.358 49.9745 442.121 49.6357 441.955 49.3672H441.763V57.1527H439.501ZM441.725 44.2664C441.725 45.3786 441.888 46.3598 442.214 47.2099C442.54 48.0537 443.016 48.7152 443.643 49.1946C444.269 49.6676 445.036 49.9042 445.944 49.9042C446.89 49.9042 447.679 49.6549 448.312 49.1563C448.951 48.6513 449.431 47.9738 449.75 47.1236C450.076 46.2671 450.239 45.3147 450.239 44.2664C450.239 43.2309 450.08 42.2976 449.76 41.4667C449.447 40.6293 448.971 39.9677 448.331 39.4819C447.699 38.9897 446.903 38.7436 445.944 38.7436C445.023 38.7436 444.25 38.977 443.624 39.4436C442.997 39.9038 442.524 40.5494 442.205 41.3804C441.885 42.2049 441.725 43.1669 441.725 44.2664ZM462.359 36.9027V38.8203H454.727V36.9027H462.359ZM456.951 33.3743H459.214V47.4113C459.214 48.0505 459.306 48.5299 459.492 48.8495C459.684 49.1627 459.926 49.3736 460.221 49.4823C460.521 49.5846 460.837 49.6357 461.17 49.6357C461.419 49.6357 461.624 49.6229 461.783 49.5973C461.943 49.5654 462.071 49.5398 462.167 49.5206L462.627 51.5533C462.474 51.6108 462.26 51.6684 461.985 51.7259C461.71 51.7898 461.362 51.8218 460.94 51.8218C460.3 51.8218 459.674 51.6843 459.06 51.4095C458.453 51.1346 457.948 50.7159 457.545 50.1534C457.149 49.5909 456.951 48.8814 456.951 48.0249V33.3743ZM471.587 51.9368C470.258 51.9368 469.091 51.6204 468.088 50.9876C467.09 50.3548 466.311 49.4695 465.748 48.3317C465.192 47.1939 464.914 45.8644 464.914 44.3431C464.914 42.809 465.192 41.4698 465.748 40.3257C466.311 39.1815 467.09 38.293 468.088 37.6602C469.091 37.0274 470.258 36.711 471.587 36.711C472.917 36.711 474.08 37.0274 475.077 37.6602C476.081 38.293 476.861 39.1815 477.417 40.3257C477.979 41.4698 478.26 42.809 478.26 44.3431C478.26 45.8644 477.979 47.1939 477.417 48.3317C476.861 49.4695 476.081 50.3548 475.077 50.9876C474.08 51.6204 472.917 51.9368 471.587 51.9368ZM471.587 49.9042C472.597 49.9042 473.428 49.6453 474.08 49.1275C474.732 48.6098 475.215 47.929 475.528 47.0853C475.841 46.2415 475.998 45.3274 475.998 44.3431C475.998 43.3587 475.841 42.4414 475.528 41.5913C475.215 40.7412 474.732 40.054 474.08 39.5299C473.428 39.0057 472.597 38.7436 471.587 38.7436C470.577 38.7436 469.746 39.0057 469.094 39.5299C468.442 40.054 467.96 40.7412 467.646 41.5913C467.333 42.4414 467.177 43.3587 467.177 44.3431C467.177 45.3274 467.333 46.2415 467.646 47.0853C467.96 47.929 468.442 48.6098 469.094 49.1275C469.746 49.6453 470.577 49.9042 471.587 49.9042ZM489.308 57.1527V36.9027H491.494V39.2422H491.763C491.929 38.9865 492.159 38.6605 492.453 38.2642C492.754 37.8615 493.182 37.5036 493.738 37.1904C494.301 36.8708 495.061 36.711 496.02 36.711C497.26 36.711 498.353 37.021 499.299 37.641C500.245 38.261 500.983 39.1399 501.514 40.2777C502.044 41.4155 502.31 42.7578 502.31 44.3047C502.31 45.8644 502.044 47.2163 501.514 48.3605C500.983 49.4983 500.248 50.3804 499.309 51.0068C498.369 51.6268 497.286 51.9368 496.058 51.9368C495.112 51.9368 494.355 51.7802 493.786 51.467C493.217 51.1474 492.779 50.7863 492.472 50.3836C492.166 49.9745 491.929 49.6357 491.763 49.3672H491.571V57.1527H489.308ZM491.533 44.2664C491.533 45.3786 491.696 46.3598 492.022 47.2099C492.348 48.0537 492.824 48.7152 493.45 49.1946C494.077 49.6676 494.844 49.9042 495.752 49.9042C496.698 49.9042 497.487 49.6549 498.12 49.1563C498.759 48.6513 499.238 47.9738 499.558 47.1236C499.884 46.2671 500.047 45.3147 500.047 44.2664C500.047 43.2309 499.887 42.2976 499.568 41.4667C499.254 40.6293 498.778 39.9677 498.139 39.4819C497.506 38.9897 496.71 38.7436 495.752 38.7436C494.831 38.7436 494.058 38.977 493.431 39.4436C492.805 39.9038 492.332 40.5494 492.012 41.3804C491.693 42.2049 491.533 43.1669 491.533 44.2664ZM505.761 51.63V36.9027H508.024V51.63H505.761ZM506.912 34.4482C506.471 34.4482 506.091 34.298 505.771 33.9975C505.458 33.6971 505.301 33.336 505.301 32.9141C505.301 32.4922 505.458 32.1311 505.771 31.8306C506.091 31.5302 506.471 31.38 506.912 31.38C507.353 31.38 507.73 31.5302 508.043 31.8306C508.363 32.1311 508.523 32.4922 508.523 32.9141C508.523 33.336 508.363 33.6971 508.043 33.9975C507.73 34.298 507.353 34.4482 506.912 34.4482ZM514.431 31.9936V51.63H512.169V31.9936H514.431ZM518.576 51.63V36.9027H520.839V51.63H518.576ZM519.726 34.4482C519.285 34.4482 518.905 34.298 518.585 33.9975C518.272 33.6971 518.116 33.336 518.116 32.9141C518.116 32.4922 518.272 32.1311 518.585 31.8306C518.905 31.5302 519.285 31.38 519.726 31.38C520.168 31.38 520.545 31.5302 520.858 31.8306C521.177 32.1311 521.337 32.4922 521.337 32.9141C521.337 33.336 521.177 33.6971 520.858 33.9975C520.545 34.298 520.168 34.4482 519.726 34.4482ZM527.246 42.7706V51.63H524.983V31.9936H527.246V39.2039H527.438C527.783 38.4432 528.301 37.8392 528.991 37.3917C529.688 36.9379 530.615 36.711 531.771 36.711C532.775 36.711 533.654 36.9123 534.408 37.315C535.162 37.7113 535.747 38.3218 536.163 39.1463C536.585 39.9645 536.796 41.0064 536.796 42.2721V51.63H534.533V42.4255C534.533 41.2557 534.229 40.3512 533.622 39.712C533.021 39.0664 532.187 38.7436 531.119 38.7436C530.378 38.7436 529.713 38.9002 529.125 39.2135C528.544 39.5267 528.083 39.9837 527.744 40.5845C527.412 41.1854 527.246 41.9141 527.246 42.7706ZM545.269 51.9752C544.336 51.9752 543.489 51.7994 542.728 51.4478C541.968 51.0899 541.364 50.5753 540.916 49.9042C540.469 49.2266 540.245 48.4084 540.245 47.4496C540.245 46.6059 540.411 45.9219 540.744 45.3978C541.076 44.8672 541.52 44.4517 542.076 44.1513C542.632 43.8509 543.246 43.6272 543.917 43.4801C544.595 43.3267 545.275 43.2053 545.959 43.1158C546.854 43.0007 547.58 42.9145 548.136 42.8569C548.698 42.793 549.108 42.6875 549.363 42.5405C549.625 42.3935 549.756 42.1378 549.756 41.7735V41.6968C549.756 40.7507 549.497 40.0157 548.98 39.4915C548.468 38.9674 547.692 38.7053 546.65 38.7053C545.57 38.7053 544.723 38.9418 544.109 39.4148C543.495 39.8878 543.064 40.3928 542.815 40.9297L540.667 40.1627C541.05 39.2678 541.562 38.5711 542.201 38.0725C542.847 37.5675 543.55 37.2159 544.31 37.0178C545.077 36.8132 545.832 36.711 546.573 36.711C547.046 36.711 547.589 36.7685 548.203 36.8836C548.823 36.9922 549.421 37.2191 549.996 37.5643C550.578 37.9095 551.06 38.4304 551.444 39.1272C551.827 39.8239 552.019 40.7571 552.019 41.9269V51.63H549.756V49.6357H549.641C549.488 49.9553 549.232 50.2973 548.874 50.6616C548.516 51.026 548.04 51.336 547.446 51.5917C546.851 51.8473 546.126 51.9752 545.269 51.9752ZM545.614 49.9425C546.509 49.9425 547.263 49.7667 547.877 49.4152C548.497 49.0636 548.964 48.6098 549.277 48.0537C549.597 47.4975 549.756 46.9127 549.756 46.299V44.228C549.66 44.3431 549.449 44.4485 549.123 44.5444C548.804 44.6339 548.433 44.7138 548.011 44.7841C547.596 44.848 547.19 44.9056 546.794 44.9567C546.404 45.0015 546.087 45.0398 545.844 45.0718C545.256 45.1485 544.707 45.2731 544.195 45.4457C543.69 45.6119 543.281 45.8644 542.968 46.2032C542.661 46.5355 542.508 46.9894 542.508 47.5647C542.508 48.3509 542.799 48.9453 543.38 49.348C543.968 49.7444 544.713 49.9425 545.614 49.9425ZM558.412 42.7706V51.63H556.149V36.9027H558.335V39.2039H558.527C558.872 38.456 559.396 37.8551 560.099 37.4013C560.803 36.9411 561.71 36.711 562.822 36.711C563.82 36.711 564.692 36.9155 565.44 37.3246C566.188 37.7273 566.77 38.3409 567.185 39.1655C567.6 39.9837 567.808 41.0192 567.808 42.2721V51.63H565.545V42.4255C565.545 41.2685 565.245 40.3672 564.644 39.7216C564.043 39.0696 563.219 38.7436 562.17 38.7436C561.448 38.7436 560.803 38.9002 560.234 39.2135C559.671 39.5267 559.227 39.9837 558.901 40.5845C558.575 41.1854 558.412 41.9141 558.412 42.7706ZM581.646 46.2607L581.608 43.461H582.068L588.511 36.9027H591.311L584.446 43.8445H584.254L581.646 46.2607ZM579.537 51.63V31.9936H581.8V51.63H579.537ZM588.895 51.63L583.142 44.3431L584.753 42.7706L591.771 51.63H588.895ZM598.557 51.9752C597.624 51.9752 596.777 51.7994 596.016 51.4478C595.256 51.0899 594.652 50.5753 594.204 49.9042C593.757 49.2266 593.533 48.4084 593.533 47.4496C593.533 46.6059 593.699 45.9219 594.032 45.3978C594.364 44.8672 594.808 44.4517 595.364 44.1513C595.92 43.8509 596.534 43.6272 597.205 43.4801C597.883 43.3267 598.564 43.2053 599.248 43.1158C600.142 43.0007 600.868 42.9145 601.424 42.8569C601.987 42.793 602.396 42.6875 602.651 42.5405C602.913 42.3935 603.044 42.1378 603.044 41.7735V41.6968C603.044 40.7507 602.786 40.0157 602.268 39.4915C601.756 38.9674 600.98 38.7053 599.938 38.7053C598.858 38.7053 598.011 38.9418 597.397 39.4148C596.783 39.8878 596.352 40.3928 596.103 40.9297L593.955 40.1627C594.338 39.2678 594.85 38.5711 595.489 38.0725C596.135 37.5675 596.838 37.2159 597.598 37.0178C598.365 36.8132 599.12 36.711 599.861 36.711C600.334 36.711 600.877 36.7685 601.491 36.8836C602.111 36.9922 602.709 37.2191 603.284 37.5643C603.866 37.9095 604.348 38.4304 604.732 39.1272C605.115 39.8239 605.307 40.7571 605.307 41.9269V51.63H603.044V49.6357H602.929C602.776 49.9553 602.52 50.2973 602.162 50.6616C601.804 51.026 601.328 51.336 600.734 51.5917C600.139 51.8473 599.414 51.9752 598.557 51.9752ZM598.902 49.9425C599.797 49.9425 600.551 49.7667 601.165 49.4152C601.785 49.0636 602.252 48.6098 602.565 48.0537C602.885 47.4975 603.044 46.9127 603.044 46.299V44.228C602.949 44.3431 602.738 44.4485 602.412 44.5444C602.092 44.6339 601.721 44.7138 601.299 44.7841C600.884 44.848 600.478 44.9056 600.082 44.9567C599.692 45.0015 599.375 45.0398 599.132 45.0718C598.544 45.1485 597.995 45.2731 597.483 45.4457C596.978 45.6119 596.569 45.8644 596.256 46.2032C595.949 46.5355 595.796 46.9894 595.796 47.5647C595.796 48.3509 596.087 48.9453 596.668 49.348C597.256 49.7444 598.001 49.9425 598.902 49.9425ZM609.437 51.63V36.9027H611.623V39.2039H611.815C612.122 38.4176 612.617 37.8072 613.301 37.3725C613.985 36.9315 614.807 36.711 615.765 36.711C616.737 36.711 617.546 36.9315 618.191 37.3725C618.843 37.8072 619.351 38.4176 619.716 39.2039H619.869C620.246 38.4432 620.812 37.8392 621.566 37.3917C622.32 36.9379 623.225 36.711 624.28 36.711C625.596 36.711 626.673 37.1233 627.511 37.9478C628.348 38.766 628.767 40.0412 628.767 41.7735V51.63H626.504V41.7735C626.504 40.6868 626.207 39.9102 625.612 39.4436C625.018 38.977 624.318 38.7436 623.513 38.7436C622.477 38.7436 621.675 39.0569 621.106 39.6833C620.537 40.3033 620.253 41.0895 620.253 42.0419V51.63H617.951V41.5434C617.951 40.706 617.68 40.0316 617.136 39.5203C616.593 39.0025 615.893 38.7436 615.037 38.7436C614.449 38.7436 613.899 38.9002 613.388 39.2135C612.883 39.5267 612.473 39.9613 612.16 40.5174C611.853 41.0671 611.7 41.7032 611.7 42.4255V51.63H609.437ZM642.185 45.6087V36.9027H644.448V51.63H642.185V49.1371H642.032C641.687 49.885 641.15 50.521 640.421 51.0451C639.692 51.5629 638.772 51.8218 637.66 51.8218C636.739 51.8218 635.921 51.6204 635.205 51.2177C634.489 50.8086 633.927 50.195 633.518 49.3768C633.109 48.5522 632.904 47.5135 632.904 46.2607V36.9027H635.167V46.1073C635.167 47.1811 635.467 48.0377 636.068 48.6769C636.675 49.3161 637.449 49.6357 638.388 49.6357C638.951 49.6357 639.523 49.4919 640.105 49.2042C640.693 48.9166 641.185 48.4755 641.581 47.8811C641.984 47.2866 642.185 46.5292 642.185 45.6087Z" fill="#262626"/>
<path d="M173.715 69.1036V88.74H171.452V69.1036H173.715ZM182.193 89.0852C181.26 89.0852 180.413 88.9094 179.652 88.5578C178.891 88.1999 178.287 87.6853 177.84 87.0141C177.392 86.3366 177.169 85.5184 177.169 84.5596C177.169 83.7158 177.335 83.0319 177.667 82.5077C178 81.9772 178.444 81.5617 179 81.2613C179.556 80.9609 180.17 80.7371 180.841 80.5901C181.519 80.4367 182.199 80.3153 182.883 80.2258C183.778 80.1107 184.504 80.0244 185.06 79.9669C185.622 79.903 186.031 79.7975 186.287 79.6505C186.549 79.5035 186.68 79.2478 186.68 78.8835V78.8068C186.68 77.8607 186.421 77.1256 185.903 76.6015C185.392 76.0773 184.616 75.8153 183.574 75.8153C182.493 75.8153 181.646 76.0518 181.033 76.5248C180.419 76.9978 179.988 77.5028 179.738 78.0397L177.591 77.2727C177.974 76.3778 178.486 75.681 179.125 75.1825C179.77 74.6775 180.473 74.3259 181.234 74.1278C182.001 73.9232 182.755 73.821 183.497 73.821C183.97 73.821 184.513 73.8785 185.127 73.9935C185.747 74.1022 186.345 74.3291 186.92 74.6743C187.502 75.0195 187.984 75.5404 188.368 76.2371C188.751 76.9339 188.943 77.8671 188.943 79.0369V88.74H186.68V86.7457H186.565C186.412 87.0653 186.156 87.4072 185.798 87.7716C185.44 88.1359 184.964 88.446 184.369 88.7016C183.775 88.9573 183.049 89.0852 182.193 89.0852ZM182.538 87.0525C183.433 87.0525 184.187 86.8767 184.801 86.5251C185.421 86.1736 185.888 85.7197 186.201 85.1636C186.52 84.6075 186.68 84.0227 186.68 83.409V81.338C186.584 81.4531 186.373 81.5585 186.047 81.6544C185.728 81.7439 185.357 81.8238 184.935 81.8941C184.52 81.958 184.114 82.0156 183.717 82.0667C183.328 82.1114 183.011 82.1498 182.768 82.1818C182.18 82.2585 181.63 82.3831 181.119 82.5557C180.614 82.7219 180.205 82.9744 179.892 83.3131C179.585 83.6455 179.432 84.0994 179.432 84.6746C179.432 85.4609 179.722 86.0553 180.304 86.458C180.892 86.8543 181.637 87.0525 182.538 87.0525ZM195.336 69.1036V88.74H193.073V69.1036H195.336ZM208.761 82.7187V74.0127H211.024V88.74H208.761V86.2471H208.608C208.263 86.995 207.726 87.631 206.997 88.1551C206.269 88.6729 205.348 88.9318 204.236 88.9318C203.315 88.9318 202.497 88.7304 201.781 88.3277C201.065 87.9186 200.503 87.305 200.094 86.4868C199.685 85.6622 199.48 84.6235 199.48 83.3707V74.0127H201.743V83.2173C201.743 84.2911 202.043 85.1477 202.644 85.7869C203.252 86.4261 204.025 86.7457 204.965 86.7457C205.527 86.7457 206.099 86.6019 206.681 86.3142C207.269 86.0266 207.761 85.5855 208.157 84.9911C208.56 84.3966 208.761 83.6391 208.761 82.7187ZM222.762 94.2627V74.0127H224.949V76.3522H225.217C225.383 76.0965 225.613 75.7705 225.907 75.3742C226.208 74.9715 226.636 74.6136 227.192 74.3004C227.755 73.9808 228.515 73.821 229.474 73.821C230.714 73.821 231.807 74.131 232.753 74.751C233.699 75.371 234.438 76.2499 234.968 77.3877C235.499 78.5255 235.764 79.8678 235.764 81.4147C235.764 82.9744 235.499 84.3263 234.968 85.4705C234.438 86.6082 233.702 87.4903 232.763 88.1168C231.823 88.7368 230.74 89.0468 229.512 89.0468C228.566 89.0468 227.809 88.8902 227.24 88.577C226.671 88.2574 226.233 87.8962 225.926 87.4935C225.62 87.0845 225.383 86.7457 225.217 86.4772H225.025V94.2627H222.762ZM224.987 81.3764C224.987 82.4886 225.15 83.4697 225.476 84.3199C225.802 85.1636 226.278 85.8252 226.904 86.3046C227.531 86.7776 228.298 87.0141 229.206 87.0141C230.152 87.0141 230.941 86.7648 231.574 86.2663C232.213 85.7613 232.692 85.0837 233.012 84.2336C233.338 83.3771 233.501 82.4246 233.501 81.3764C233.501 80.3408 233.341 79.4076 233.022 78.5766C232.708 77.7393 232.232 77.0777 231.593 76.5919C230.96 76.0997 230.164 75.8536 229.206 75.8536C228.285 75.8536 227.512 76.0869 226.885 76.5536C226.259 77.0138 225.786 77.6594 225.466 78.4903C225.147 79.3149 224.987 80.2769 224.987 81.3764ZM243.549 89.0852C242.616 89.0852 241.769 88.9094 241.009 88.5578C240.248 88.1999 239.644 87.6853 239.196 87.0141C238.749 86.3366 238.525 85.5184 238.525 84.5596C238.525 83.7158 238.691 83.0319 239.024 82.5077C239.356 81.9772 239.8 81.5617 240.357 81.2613C240.913 80.9609 241.526 80.7371 242.197 80.5901C242.875 80.4367 243.556 80.3153 244.24 80.2258C245.135 80.1107 245.86 80.0244 246.416 79.9669C246.979 79.903 247.388 79.7975 247.643 79.6505C247.906 79.5035 248.037 79.2478 248.037 78.8835V78.8068C248.037 77.8607 247.778 77.1256 247.26 76.6015C246.749 76.0773 245.972 75.8153 244.93 75.8153C243.85 75.8153 243.003 76.0518 242.389 76.5248C241.776 76.9978 241.344 77.5028 241.095 78.0397L238.947 77.2727C239.331 76.3778 239.842 75.681 240.481 75.1825C241.127 74.6775 241.83 74.3259 242.591 74.1278C243.358 73.9232 244.112 73.821 244.853 73.821C245.326 73.821 245.87 73.8785 246.483 73.9935C247.103 74.1022 247.701 74.3291 248.276 74.6743C248.858 75.0195 249.341 75.5404 249.724 76.2371C250.108 76.9339 250.299 77.8671 250.299 79.0369V88.74H248.037V86.7457H247.922C247.768 87.0653 247.512 87.4072 247.154 87.7716C246.797 88.1359 246.32 88.446 245.726 88.7016C245.131 88.9573 244.406 89.0852 243.549 89.0852ZM243.895 87.0525C244.789 87.0525 245.544 86.8767 246.157 86.5251C246.777 86.1736 247.244 85.7197 247.557 85.1636C247.877 84.6075 248.037 84.0227 248.037 83.409V81.338C247.941 81.4531 247.73 81.5585 247.404 81.6544C247.084 81.7439 246.713 81.8238 246.292 81.8941C245.876 81.958 245.47 82.0156 245.074 82.0667C244.684 82.1114 244.368 82.1498 244.125 82.1818C243.537 82.2585 242.987 82.3831 242.475 82.5557C241.971 82.7219 241.561 82.9744 241.248 83.3131C240.941 83.6455 240.788 84.0994 240.788 84.6746C240.788 85.4609 241.079 86.0553 241.661 86.458C242.249 86.8543 242.993 87.0525 243.895 87.0525ZM256.692 79.8806V88.74H254.429V74.0127H256.616V76.3139H256.807C257.152 75.566 257.677 74.9651 258.38 74.5113C259.083 74.0511 259.991 73.821 261.103 73.821C262.1 73.821 262.972 74.0255 263.72 74.4346C264.468 74.8373 265.05 75.4509 265.465 76.2755C265.881 77.0937 266.089 78.1292 266.089 79.382V88.74H263.826V79.5354C263.826 78.3785 263.525 77.4772 262.924 76.8316C262.324 76.1796 261.499 75.8536 260.451 75.8536C259.728 75.8536 259.083 76.0102 258.514 76.3234C257.951 76.6367 257.507 77.0937 257.181 77.6945C256.855 78.2954 256.692 79.0241 256.692 79.8806ZM276.628 74.0127V75.9303H268.996V74.0127H276.628ZM271.221 70.4843H273.483V84.5212C273.483 85.1604 273.576 85.6398 273.761 85.9595C273.953 86.2727 274.196 86.4836 274.49 86.5923C274.79 86.6945 275.107 86.7457 275.439 86.7457C275.689 86.7457 275.893 86.7329 276.053 86.7073C276.213 86.6754 276.341 86.6498 276.436 86.6306L276.897 88.6633C276.743 88.7208 276.529 88.7783 276.254 88.8359C275.979 88.8998 275.631 88.9318 275.209 88.9318C274.57 88.9318 273.944 88.7943 273.33 88.5195C272.723 88.2446 272.218 87.8259 271.815 87.2634C271.419 86.7009 271.221 85.9914 271.221 85.1349V70.4843ZM284.366 89.0852C283.433 89.0852 282.586 88.9094 281.825 88.5578C281.064 88.1999 280.46 87.6853 280.013 87.0141C279.565 86.3366 279.342 85.5184 279.342 84.5596C279.342 83.7158 279.508 83.0319 279.84 82.5077C280.173 81.9772 280.617 81.5617 281.173 81.2613C281.729 80.9609 282.343 80.7371 283.014 80.5901C283.691 80.4367 284.372 80.3153 285.056 80.2258C285.951 80.1107 286.676 80.0244 287.233 79.9669C287.795 79.903 288.204 79.7975 288.46 79.6505C288.722 79.5035 288.853 79.2478 288.853 78.8835V78.8068C288.853 77.8607 288.594 77.1256 288.076 76.6015C287.565 76.0773 286.788 75.8153 285.746 75.8153C284.666 75.8153 283.819 76.0518 283.206 76.5248C282.592 76.9978 282.161 77.5028 281.911 78.0397L279.763 77.2727C280.147 76.3778 280.658 75.681 281.298 75.1825C281.943 74.6775 282.646 74.3259 283.407 74.1278C284.174 73.9232 284.928 73.821 285.67 73.821C286.143 73.821 286.686 73.8785 287.3 73.9935C287.92 74.1022 288.517 74.3291 289.093 74.6743C289.674 75.0195 290.157 75.5404 290.54 76.2371C290.924 76.9339 291.116 77.8671 291.116 79.0369V88.74H288.853V86.7457H288.738C288.585 87.0653 288.329 87.4072 287.971 87.7716C287.613 88.1359 287.137 88.446 286.542 88.7016C285.948 88.9573 285.222 89.0852 284.366 89.0852ZM284.711 87.0525C285.606 87.0525 286.36 86.8767 286.974 86.5251C287.594 86.1736 288.06 85.7197 288.374 85.1636C288.693 84.6075 288.853 84.0227 288.853 83.409V81.338C288.757 81.4531 288.546 81.5585 288.22 81.6544C287.901 81.7439 287.53 81.8238 287.108 81.8941C286.692 81.958 286.287 82.0156 285.89 82.0667C285.5 82.1114 285.184 82.1498 284.941 82.1818C284.353 82.2585 283.803 82.3831 283.292 82.5557C282.787 82.7219 282.378 82.9744 282.065 83.3131C281.758 83.6455 281.604 84.0994 281.604 84.6746C281.604 85.4609 281.895 86.0553 282.477 86.458C283.065 86.8543 283.81 87.0525 284.711 87.0525ZM304.527 82.7187V74.0127H306.79V88.74H304.527V86.2471H304.374C304.028 86.995 303.492 87.631 302.763 88.1551C302.034 88.6729 301.114 88.9318 300.002 88.9318C299.081 88.9318 298.263 88.7304 297.547 88.3277C296.831 87.9186 296.269 87.305 295.859 86.4868C295.45 85.6622 295.246 84.6235 295.246 83.3707V74.0127H297.509V83.2173C297.509 84.2911 297.809 85.1477 298.41 85.7869C299.017 86.4261 299.791 86.7457 300.73 86.7457C301.293 86.7457 301.865 86.6019 302.446 86.3142C303.035 86.0266 303.527 85.5855 303.923 84.9911C304.326 84.3966 304.527 83.6391 304.527 82.7187ZM324.089 89.0468C322.862 89.0468 321.778 88.7368 320.839 88.1168C319.899 87.4903 319.164 86.6082 318.634 85.4705C318.103 84.3263 317.838 82.9744 317.838 81.4147C317.838 79.8678 318.103 78.5255 318.634 77.3877C319.164 76.2499 319.902 75.371 320.848 74.751C321.794 74.131 322.887 73.821 324.127 73.821C325.086 73.821 325.844 73.9808 326.4 74.3004C326.962 74.6136 327.391 74.9715 327.685 75.3742C327.985 75.7705 328.218 76.0965 328.385 76.3522H328.576V69.1036H330.839V88.74H328.653V86.4772H328.385C328.218 86.7457 327.982 87.0845 327.675 87.4935C327.368 87.8962 326.93 88.2574 326.362 88.577C325.793 88.8902 325.035 89.0468 324.089 89.0468ZM324.396 87.0141C325.304 87.0141 326.071 86.7776 326.697 86.3046C327.324 85.8252 327.8 85.1636 328.126 84.3199C328.452 83.4697 328.615 82.4886 328.615 81.3764C328.615 80.2769 328.455 79.3149 328.135 78.4903C327.816 77.6594 327.343 77.0138 326.716 76.5536C326.09 76.0869 325.316 75.8536 324.396 75.8536C323.437 75.8536 322.638 76.0997 321.999 76.5919C321.366 77.0777 320.89 77.7393 320.57 78.5766C320.257 79.4076 320.1 80.3408 320.1 81.3764C320.1 82.4246 320.26 83.3771 320.58 84.2336C320.906 85.0837 321.385 85.7613 322.018 86.2663C322.657 86.7648 323.45 87.0141 324.396 87.0141ZM341.472 89.0468C340.053 89.0468 338.829 88.7336 337.8 88.1072C336.777 87.4744 335.988 86.5923 335.432 85.4609C334.882 84.3231 334.607 82.9999 334.607 81.4914C334.607 79.9829 334.882 78.6533 335.432 77.5028C335.988 76.3458 336.761 75.4445 337.752 74.7989C338.749 74.147 339.913 73.821 341.242 73.821C342.009 73.821 342.767 73.9488 343.515 74.2045C344.262 74.4602 344.943 74.8756 345.557 75.4509C346.17 76.0198 346.659 76.7741 347.024 77.7137C347.388 78.6533 347.57 79.8103 347.57 81.1846V82.1434H336.218V80.1874H345.269C345.269 79.3565 345.103 78.615 344.771 77.963C344.445 77.311 343.978 76.7965 343.371 76.4193C342.77 76.0422 342.06 75.8536 341.242 75.8536C340.341 75.8536 339.561 76.0773 338.903 76.5248C338.251 76.9658 337.749 77.5411 337.397 78.2506C337.046 78.9602 336.87 79.7208 336.87 80.5326V81.8366C336.87 82.9488 337.062 83.8916 337.445 84.6651C337.835 85.4321 338.375 86.017 339.066 86.4197C339.756 86.816 340.558 87.0141 341.472 87.0141C342.067 87.0141 342.604 86.931 343.083 86.7648C343.569 86.5923 343.988 86.3366 344.339 85.9978C344.691 85.6526 344.962 85.2244 345.154 84.713L347.34 85.3266C347.11 86.0681 346.723 86.7201 346.18 87.2826C345.637 87.8387 344.966 88.2734 344.167 88.5866C343.368 88.8934 342.469 89.0468 341.472 89.0468ZM353.275 79.8806V88.74H351.012V74.0127H353.199V76.3139H353.39C353.735 75.566 354.26 74.9651 354.963 74.5113C355.666 74.0511 356.574 73.821 357.686 73.821C358.683 73.821 359.555 74.0255 360.303 74.4346C361.051 74.8373 361.633 75.4509 362.048 76.2755C362.464 77.0937 362.672 78.1292 362.672 79.382V88.74H360.409V79.5354C360.409 78.3785 360.108 77.4772 359.507 76.8316C358.907 76.1796 358.082 75.8536 357.034 75.8536C356.311 75.8536 355.666 76.0102 355.097 76.3234C354.534 76.6367 354.09 77.0937 353.764 77.6945C353.438 78.2954 353.275 79.0241 353.275 79.8806ZM372.751 94.5695C371.658 94.5695 370.718 94.4289 369.932 94.1477C369.146 93.8728 368.491 93.5085 367.967 93.0546C367.449 92.6072 367.036 92.1278 366.73 91.6164L368.532 90.3508C368.737 90.6193 368.996 90.9261 369.309 91.2712C369.622 91.6228 370.05 91.9264 370.594 92.1821C371.143 92.4442 371.862 92.5752 372.751 92.5752C373.94 92.5752 374.921 92.2876 375.695 91.7123C376.468 91.137 376.855 90.2357 376.855 89.0085V86.017H376.663C376.497 86.2854 376.26 86.6178 375.953 87.0141C375.653 87.4041 375.218 87.7524 374.649 88.0592C374.087 88.3597 373.326 88.5099 372.367 88.5099C371.179 88.5099 370.111 88.2286 369.165 87.6661C368.225 87.1036 367.481 86.2854 366.931 85.2116C366.388 84.1377 366.116 82.8337 366.116 81.2996C366.116 79.7911 366.381 78.4776 366.912 77.359C367.442 76.234 368.181 75.3646 369.127 74.751C370.073 74.131 371.166 73.821 372.406 73.821C373.365 73.821 374.125 73.9808 374.688 74.3004C375.257 74.6136 375.691 74.9715 375.992 75.3742C376.299 75.7705 376.535 76.0965 376.701 76.3522H376.931V74.0127H379.117V89.1619C379.117 90.4275 378.83 91.4566 378.255 92.2492C377.686 93.0482 376.919 93.6331 375.953 94.0038C374.995 94.381 373.927 94.5695 372.751 94.5695ZM372.674 86.4772C373.582 86.4772 374.349 86.2695 374.975 85.854C375.602 85.4385 376.078 84.8408 376.404 84.061C376.73 83.2812 376.893 82.3479 376.893 81.2613C376.893 80.2002 376.733 79.2638 376.414 78.452C376.094 77.6402 375.621 77.0042 374.995 76.544C374.368 76.0837 373.595 75.8536 372.674 75.8536C371.715 75.8536 370.916 76.0965 370.277 76.5823C369.644 77.0681 369.168 77.7201 368.849 78.5383C368.535 79.3565 368.379 80.2641 368.379 81.2613C368.379 82.284 368.539 83.1885 368.858 83.9747C369.184 84.7545 369.664 85.3682 370.296 85.8156C370.936 86.2567 371.728 86.4772 372.674 86.4772ZM387.593 89.0852C386.66 89.0852 385.813 88.9094 385.052 88.5578C384.292 88.1999 383.688 87.6853 383.24 87.0141C382.793 86.3366 382.569 85.5184 382.569 84.5596C382.569 83.7158 382.735 83.0319 383.068 82.5077C383.4 81.9772 383.844 81.5617 384.4 81.2613C384.957 80.9609 385.57 80.7371 386.241 80.5901C386.919 80.4367 387.6 80.3153 388.284 80.2258C389.179 80.1107 389.904 80.0244 390.46 79.9669C391.023 79.903 391.432 79.7975 391.687 79.6505C391.949 79.5035 392.081 79.2478 392.081 78.8835V78.8068C392.081 77.8607 391.822 77.1256 391.304 76.6015C390.793 76.0773 390.016 75.8153 388.974 75.8153C387.894 75.8153 387.047 76.0518 386.433 76.5248C385.82 76.9978 385.388 77.5028 385.139 78.0397L382.991 77.2727C383.375 76.3778 383.886 75.681 384.525 75.1825C385.171 74.6775 385.874 74.3259 386.634 74.1278C387.402 73.9232 388.156 73.821 388.897 73.821C389.37 73.821 389.914 73.8785 390.527 73.9935C391.147 74.1022 391.745 74.3291 392.32 74.6743C392.902 75.0195 393.384 75.5404 393.768 76.2371C394.152 76.9339 394.343 77.8671 394.343 79.0369V88.74H392.081V86.7457H391.965C391.812 87.0653 391.556 87.4072 391.198 87.7716C390.84 88.1359 390.364 88.446 389.77 88.7016C389.175 88.9573 388.45 89.0852 387.593 89.0852ZM387.938 87.0525C388.833 87.0525 389.588 86.8767 390.201 86.5251C390.821 86.1736 391.288 85.7197 391.601 85.1636C391.921 84.6075 392.081 84.0227 392.081 83.409V81.338C391.985 81.4531 391.774 81.5585 391.448 81.6544C391.128 81.7439 390.757 81.8238 390.335 81.8941C389.92 81.958 389.514 82.0156 389.118 82.0667C388.728 82.1114 388.411 82.1498 388.169 82.1818C387.581 82.2585 387.031 82.3831 386.519 82.5557C386.014 82.7219 385.605 82.9744 385.292 83.3131C384.985 83.6455 384.832 84.0994 384.832 84.6746C384.832 85.4609 385.123 86.0553 385.704 86.458C386.293 86.8543 387.037 87.0525 387.938 87.0525ZM400.736 79.8806V88.74H398.473V74.0127H400.659V76.3139H400.851C401.196 75.566 401.721 74.9651 402.424 74.5113C403.127 74.0511 404.034 73.821 405.147 73.821C406.144 73.821 407.016 74.0255 407.764 74.4346C408.512 74.8373 409.094 75.4509 409.509 76.2755C409.925 77.0937 410.132 78.1292 410.132 79.382V88.74H407.87V79.5354C407.87 78.3785 407.569 77.4772 406.968 76.8316C406.368 76.1796 405.543 75.8536 404.495 75.8536C403.772 75.8536 403.127 76.0102 402.558 76.3234C401.995 76.6367 401.551 77.0937 401.225 77.6945C400.899 78.2954 400.736 79.0241 400.736 79.8806ZM421.861 88.74V74.0127H424.047V76.3139H424.239C424.546 75.5276 425.041 74.9172 425.725 74.4825C426.409 74.0415 427.23 73.821 428.189 73.821C429.161 73.821 429.969 74.0415 430.615 74.4825C431.267 74.9172 431.775 75.5276 432.139 76.3139H432.293C432.67 75.5532 433.236 74.9492 433.99 74.5017C434.744 74.0479 435.649 73.821 436.703 73.821C438.02 73.821 439.097 74.2332 439.935 75.0578C440.772 75.876 441.191 77.1512 441.191 78.8835V88.74H438.928V78.8835C438.928 77.7968 438.631 77.0202 438.036 76.5536C437.442 76.0869 436.742 75.8536 435.936 75.8536C434.901 75.8536 434.099 76.1668 433.53 76.7933C432.961 77.4133 432.676 78.1995 432.676 79.1519V88.74H430.375V78.6533C430.375 77.816 430.104 77.1416 429.56 76.6303C429.017 76.1125 428.317 75.8536 427.46 75.8536C426.872 75.8536 426.323 76.0102 425.811 76.3234C425.306 76.6367 424.897 77.0713 424.584 77.6274C424.277 78.1771 424.124 78.8131 424.124 79.5354V88.74H421.861ZM454.609 82.7187V74.0127H456.872V88.74H454.609V86.2471H454.456C454.111 86.995 453.574 87.631 452.845 88.1551C452.116 88.6729 451.196 88.9318 450.084 88.9318C449.163 88.9318 448.345 88.7304 447.629 88.3277C446.913 87.9186 446.351 87.305 445.941 86.4868C445.532 85.6622 445.328 84.6235 445.328 83.3707V74.0127H447.591V83.2173C447.591 84.2911 447.891 85.1477 448.492 85.7869C449.099 86.4261 449.873 86.7457 450.812 86.7457C451.375 86.7457 451.947 86.6019 452.528 86.3142C453.117 86.0266 453.609 85.5855 454.005 84.9911C454.408 84.3966 454.609 83.6391 454.609 82.7187ZM466.577 89.0468C465.35 89.0468 464.267 88.7368 463.327 88.1168C462.387 87.4903 461.652 86.6082 461.122 85.4705C460.591 84.3263 460.326 82.9744 460.326 81.4147C460.326 79.8678 460.591 78.5255 461.122 77.3877C461.652 76.2499 462.391 75.371 463.337 74.751C464.283 74.131 465.376 73.821 466.616 73.821C467.575 73.821 468.332 73.9808 468.888 74.3004C469.451 74.6136 469.879 74.9715 470.173 75.3742C470.473 75.7705 470.707 76.0965 470.873 76.3522H471.065V69.1036H473.327V88.74H471.141V86.4772H470.873C470.707 86.7457 470.47 87.0845 470.163 87.4935C469.857 87.8962 469.419 88.2574 468.85 88.577C468.281 88.8902 467.523 89.0468 466.577 89.0468ZM466.884 87.0141C467.792 87.0141 468.559 86.7776 469.185 86.3046C469.812 85.8252 470.288 85.1636 470.614 84.3199C470.94 83.4697 471.103 82.4886 471.103 81.3764C471.103 80.2769 470.943 79.3149 470.624 78.4903C470.304 77.6594 469.831 77.0138 469.205 76.5536C468.578 76.0869 467.805 75.8536 466.884 75.8536C465.925 75.8536 465.126 76.0997 464.487 76.5919C463.854 77.0777 463.378 77.7393 463.059 78.5766C462.745 79.4076 462.589 80.3408 462.589 81.3764C462.589 82.4246 462.749 83.3771 463.068 84.2336C463.394 85.0837 463.874 85.7613 464.506 86.2663C465.146 86.7648 465.938 87.0141 466.884 87.0141ZM482.12 89.0852C481.186 89.0852 480.339 88.9094 479.579 88.5578C478.818 88.1999 478.214 87.6853 477.767 87.0141C477.319 86.3366 477.096 85.5184 477.096 84.5596C477.096 83.7158 477.262 83.0319 477.594 82.5077C477.926 81.9772 478.371 81.5617 478.927 81.2613C479.483 80.9609 480.097 80.7371 480.768 80.5901C481.445 80.4367 482.126 80.3153 482.81 80.2258C483.705 80.1107 484.43 80.0244 484.987 79.9669C485.549 79.903 485.958 79.7975 486.214 79.6505C486.476 79.5035 486.607 79.2478 486.607 78.8835V78.8068C486.607 77.8607 486.348 77.1256 485.83 76.6015C485.319 76.0773 484.542 75.8153 483.5 75.8153C482.42 75.8153 481.573 76.0518 480.96 76.5248C480.346 76.9978 479.914 77.5028 479.665 78.0397L477.517 77.2727C477.901 76.3778 478.412 75.681 479.051 75.1825C479.697 74.6775 480.4 74.3259 481.161 74.1278C481.928 73.9232 482.682 73.821 483.424 73.821C483.897 73.821 484.44 73.8785 485.054 73.9935C485.674 74.1022 486.271 74.3291 486.847 74.6743C487.428 75.0195 487.911 75.5404 488.294 76.2371C488.678 76.9339 488.87 77.8671 488.87 79.0369V88.74H486.607V86.7457H486.492C486.338 87.0653 486.083 87.4072 485.725 87.7716C485.367 88.1359 484.891 88.446 484.296 88.7016C483.702 88.9573 482.976 89.0852 482.12 89.0852ZM482.465 87.0525C483.36 87.0525 484.114 86.8767 484.728 86.5251C485.348 86.1736 485.814 85.7197 486.127 85.1636C486.447 84.6075 486.607 84.0227 486.607 83.409V81.338C486.511 81.4531 486.3 81.5585 485.974 81.6544C485.654 81.7439 485.284 81.8238 484.862 81.8941C484.446 81.958 484.04 82.0156 483.644 82.0667C483.254 82.1114 482.938 82.1498 482.695 82.1818C482.107 82.2585 481.557 82.3831 481.046 82.5557C480.541 82.7219 480.132 82.9744 479.819 83.3131C479.512 83.6455 479.358 84.0994 479.358 84.6746C479.358 85.4609 479.649 86.0553 480.231 86.458C480.819 86.8543 481.564 87.0525 482.465 87.0525ZM495.263 79.8806V88.74H493V69.1036H495.263V76.3139H495.454C495.799 75.5532 496.317 74.9492 497.008 74.5017C497.704 74.0479 498.631 73.821 499.788 73.821C500.792 73.821 501.671 74.0223 502.425 74.425C503.179 74.8213 503.764 75.4318 504.179 76.2563C504.601 77.0745 504.812 78.1164 504.812 79.382V88.74H502.549V79.5354C502.549 78.3657 502.246 77.4612 501.639 76.822C501.038 76.1764 500.204 75.8536 499.136 75.8536C498.395 75.8536 497.73 76.0102 497.142 76.3234C496.56 76.6367 496.1 77.0937 495.761 77.6945C495.429 78.2954 495.263 79.0241 495.263 79.8806ZM522.107 89.0468C520.879 89.0468 519.796 88.7368 518.856 88.1168C517.917 87.4903 517.182 86.6082 516.651 85.4705C516.121 84.3263 515.855 82.9744 515.855 81.4147C515.855 79.8678 516.121 78.5255 516.651 77.3877C517.182 76.2499 517.92 75.371 518.866 74.751C519.812 74.131 520.905 73.821 522.145 73.821C523.104 73.821 523.861 73.9808 524.417 74.3004C524.98 74.6136 525.408 74.9715 525.702 75.3742C526.003 75.7705 526.236 76.0965 526.402 76.3522H526.594V69.1036H528.857V88.74H526.671V86.4772H526.402C526.236 86.7457 525.999 87.0845 525.693 87.4935C525.386 87.8962 524.948 88.2574 524.379 88.577C523.81 88.8902 523.053 89.0468 522.107 89.0468ZM522.414 87.0141C523.321 87.0141 524.088 86.7776 524.715 86.3046C525.341 85.8252 525.817 85.1636 526.143 84.3199C526.469 83.4697 526.632 82.4886 526.632 81.3764C526.632 80.2769 526.472 79.3149 526.153 78.4903C525.833 77.6594 525.36 77.0138 524.734 76.5536C524.107 76.0869 523.334 75.8536 522.414 75.8536C521.455 75.8536 520.656 76.0997 520.017 76.5919C519.384 77.0777 518.907 77.7393 518.588 78.5766C518.275 79.4076 518.118 80.3408 518.118 81.3764C518.118 82.4246 518.278 83.3771 518.597 84.2336C518.923 85.0837 519.403 85.7613 520.036 86.2663C520.675 86.7648 521.468 87.0141 522.414 87.0141ZM537.649 89.0852C536.716 89.0852 535.869 88.9094 535.108 88.5578C534.347 88.1999 533.743 87.6853 533.296 87.0141C532.849 86.3366 532.625 85.5184 532.625 84.5596C532.625 83.7158 532.791 83.0319 533.123 82.5077C533.456 81.9772 533.9 81.5617 534.456 81.2613C535.012 80.9609 535.626 80.7371 536.297 80.5901C536.975 80.4367 537.655 80.3153 538.339 80.2258C539.234 80.1107 539.96 80.0244 540.516 79.9669C541.078 79.903 541.487 79.7975 541.743 79.6505C542.005 79.5035 542.136 79.2478 542.136 78.8835V78.8068C542.136 77.8607 541.877 77.1256 541.36 76.6015C540.848 76.0773 540.072 75.8153 539.03 75.8153C537.949 75.8153 537.102 76.0518 536.489 76.5248C535.875 76.9978 535.444 77.5028 535.194 78.0397L533.047 77.2727C533.43 76.3778 533.942 75.681 534.581 75.1825C535.226 74.6775 535.93 74.3259 536.69 74.1278C537.457 73.9232 538.211 73.821 538.953 73.821C539.426 73.821 539.969 73.8785 540.583 73.9935C541.203 74.1022 541.801 74.3291 542.376 74.6743C542.958 75.0195 543.44 75.5404 543.824 76.2371C544.207 76.9339 544.399 77.8671 544.399 79.0369V88.74H542.136V86.7457H542.021C541.868 87.0653 541.612 87.4072 541.254 87.7716C540.896 88.1359 540.42 88.446 539.825 88.7016C539.231 88.9573 538.506 89.0852 537.649 89.0852ZM537.994 87.0525C538.889 87.0525 539.643 86.8767 540.257 86.5251C540.877 86.1736 541.344 85.7197 541.657 85.1636C541.976 84.6075 542.136 84.0227 542.136 83.409V81.338C542.04 81.4531 541.829 81.5585 541.503 81.6544C541.184 81.7439 540.813 81.8238 540.391 81.8941C539.976 81.958 539.57 82.0156 539.173 82.0667C538.784 82.1114 538.467 82.1498 538.224 82.1818C537.636 82.2585 537.086 82.3831 536.575 82.5557C536.07 82.7219 535.661 82.9744 535.348 83.3131C535.041 83.6455 534.888 84.0994 534.888 84.6746C534.888 85.4609 535.178 86.0553 535.76 86.458C536.348 86.8543 537.093 87.0525 537.994 87.0525ZM550.792 79.8806V88.74H548.529V74.0127H550.715V76.3139H550.907C551.252 75.566 551.776 74.9651 552.479 74.5113C553.182 74.0511 554.09 73.821 555.202 73.821C556.199 73.821 557.072 74.0255 557.82 74.4346C558.568 74.8373 559.149 75.4509 559.565 76.2755C559.98 77.0937 560.188 78.1292 560.188 79.382V88.74H557.925V79.5354C557.925 78.3785 557.625 77.4772 557.024 76.8316C556.423 76.1796 555.599 75.8536 554.55 75.8536C553.828 75.8536 553.182 76.0102 552.614 76.3234C552.051 76.6367 551.607 77.0937 551.281 77.6945C550.955 78.2954 550.792 79.0241 550.792 79.8806ZM574.18 79.8806V88.74H571.917V74.0127H574.103V76.3139H574.295C574.64 75.566 575.164 74.9651 575.867 74.5113C576.57 74.0511 577.478 73.821 578.59 73.821C579.587 73.821 580.46 74.0255 581.208 74.4346C581.955 74.8373 582.537 75.4509 582.953 76.2755C583.368 77.0937 583.576 78.1292 583.576 79.382V88.74H581.313V79.5354C581.313 78.3785 581.013 77.4772 580.412 76.8316C579.811 76.1796 578.986 75.8536 577.938 75.8536C577.216 75.8536 576.57 76.0102 576.001 76.3234C575.439 76.6367 574.994 77.0937 574.669 77.6945C574.343 78.2954 574.18 79.0241 574.18 79.8806ZM588.641 94.2627C588.257 94.2627 587.915 94.2308 587.615 94.1668C587.314 94.1093 587.107 94.0518 586.992 93.9943L587.567 91.9999C588.117 92.1406 588.602 92.1917 589.024 92.1533C589.446 92.115 589.82 91.9264 590.146 91.5876C590.478 91.2553 590.782 90.7151 591.057 89.9673L591.479 88.8167L586.033 74.0127H588.487L592.553 85.7485H592.706L596.771 74.0127H599.226L592.975 90.8877C592.693 91.6484 592.345 92.278 591.929 92.7766C591.514 93.2815 591.031 93.6555 590.482 93.8984C589.938 94.1413 589.325 94.2627 588.641 94.2627ZM606.098 89.0852C605.165 89.0852 604.318 88.9094 603.557 88.5578C602.797 88.1999 602.193 87.6853 601.745 87.0141C601.298 86.3366 601.074 85.5184 601.074 84.5596C601.074 83.7158 601.24 83.0319 601.573 82.5077C601.905 81.9772 602.349 81.5617 602.905 81.2613C603.461 80.9609 604.075 80.7371 604.746 80.5901C605.424 80.4367 606.105 80.3153 606.789 80.2258C607.683 80.1107 608.409 80.0244 608.965 79.9669C609.528 79.903 609.937 79.7975 610.192 79.6505C610.454 79.5035 610.585 79.2478 610.585 78.8835V78.8068C610.585 77.8607 610.327 77.1256 609.809 76.6015C609.297 76.0773 608.521 75.8153 607.479 75.8153C606.399 75.8153 605.552 76.0518 604.938 76.5248C604.324 76.9978 603.893 77.5028 603.644 78.0397L601.496 77.2727C601.879 76.3778 602.391 75.681 603.03 75.1825C603.676 74.6775 604.379 74.3259 605.139 74.1278C605.906 73.9232 606.661 73.821 607.402 73.821C607.875 73.821 608.419 73.8785 609.032 73.9935C609.652 74.1022 610.25 74.3291 610.825 74.6743C611.407 75.0195 611.889 75.5404 612.273 76.2371C612.656 76.9339 612.848 77.8671 612.848 79.0369V88.74H610.585V86.7457H610.47C610.317 87.0653 610.061 87.4072 609.703 87.7716C609.345 88.1359 608.869 88.446 608.275 88.7016C607.68 88.9573 606.955 89.0852 606.098 89.0852ZM606.443 87.0525C607.338 87.0525 608.093 86.8767 608.706 86.5251C609.326 86.1736 609.793 85.7197 610.106 85.1636C610.426 84.6075 610.585 84.0227 610.585 83.409V81.338C610.49 81.4531 610.279 81.5585 609.953 81.6544C609.633 81.7439 609.262 81.8238 608.84 81.8941C608.425 81.958 608.019 82.0156 607.623 82.0667C607.233 82.1114 606.916 82.1498 606.673 82.1818C606.085 82.2585 605.536 82.3831 605.024 82.5557C604.519 82.7219 604.11 82.9744 603.797 83.3131C603.49 83.6455 603.337 84.0994 603.337 84.6746C603.337 85.4609 603.628 86.0553 604.209 86.458C604.797 86.8543 605.542 87.0525 606.443 87.0525ZM616.978 88.74V74.0127H619.164V76.3139H619.356C619.663 75.5276 620.158 74.9172 620.842 74.4825C621.526 74.0415 622.348 73.821 623.306 73.821C624.278 73.821 625.087 74.0415 625.732 74.4825C626.384 74.9172 626.892 75.5276 627.257 76.3139H627.41C627.787 75.5532 628.353 74.9492 629.107 74.5017C629.861 74.0479 630.766 73.821 631.821 73.821C633.137 73.821 634.214 74.2332 635.052 75.0578C635.889 75.876 636.308 77.1512 636.308 78.8835V88.74H634.045V78.8835C634.045 77.7968 633.748 77.0202 633.153 76.5536C632.559 76.0869 631.859 75.8536 631.054 75.8536C630.018 75.8536 629.216 76.1668 628.647 76.7933C628.078 77.4133 627.794 78.1995 627.794 79.1519V88.74H625.492V78.6533C625.492 77.816 625.221 77.1416 624.677 76.6303C624.134 76.1125 623.434 75.8536 622.578 75.8536C621.99 75.8536 621.44 76.0102 620.929 76.3234C620.424 76.6367 620.014 77.0713 619.701 77.6274C619.394 78.1771 619.241 78.8131 619.241 79.5354V88.74H616.978ZM644.779 89.0852C643.846 89.0852 642.999 88.9094 642.238 88.5578C641.477 88.1999 640.873 87.6853 640.426 87.0141C639.978 86.3366 639.755 85.5184 639.755 84.5596C639.755 83.7158 639.921 83.0319 640.253 82.5077C640.586 81.9772 641.03 81.5617 641.586 81.2613C642.142 80.9609 642.756 80.7371 643.427 80.5901C644.104 80.4367 644.785 80.3153 645.469 80.2258C646.364 80.1107 647.09 80.0244 647.646 79.9669C648.208 79.903 648.617 79.7975 648.873 79.6505C649.135 79.5035 649.266 79.2478 649.266 78.8835V78.8068C649.266 77.8607 649.007 77.1256 648.489 76.6015C647.978 76.0773 647.201 75.8153 646.16 75.8153C645.079 75.8153 644.232 76.0518 643.619 76.5248C643.005 76.9978 642.574 77.5028 642.324 78.0397L640.177 77.2727C640.56 76.3778 641.071 75.681 641.711 75.1825C642.356 74.6775 643.059 74.3259 643.82 74.1278C644.587 73.9232 645.341 73.821 646.083 73.821C646.556 73.821 647.099 73.8785 647.713 73.9935C648.333 74.1022 648.93 74.3291 649.506 74.6743C650.087 75.0195 650.57 75.5404 650.954 76.2371C651.337 76.9339 651.529 77.8671 651.529 79.0369V88.74H649.266V86.7457H649.151C648.998 87.0653 648.742 87.4072 648.384 87.7716C648.026 88.1359 647.55 88.446 646.955 88.7016C646.361 88.9573 645.635 89.0852 644.779 89.0852ZM645.124 87.0525C646.019 87.0525 646.773 86.8767 647.387 86.5251C648.007 86.1736 648.473 85.7197 648.787 85.1636C649.106 84.6075 649.266 84.0227 649.266 83.409V81.338C649.17 81.4531 648.959 81.5585 648.633 81.6544C648.314 81.7439 647.943 81.8238 647.521 81.8941C647.106 81.958 646.7 82.0156 646.303 82.0667C645.913 82.1114 645.597 82.1498 645.354 82.1818C644.766 82.2585 644.216 82.3831 643.705 82.5557C643.2 82.7219 642.791 82.9744 642.478 83.3131C642.171 83.6455 642.017 84.0994 642.017 84.6746C642.017 85.4609 642.308 86.0553 642.89 86.458C643.478 86.8543 644.223 87.0525 645.124 87.0525ZM657.922 79.8806V88.74H655.659V74.0127H657.845V76.3139H658.037C658.382 75.566 658.906 74.9651 659.609 74.5113C660.312 74.0511 661.22 73.821 662.332 73.821C663.329 73.821 664.202 74.0255 664.95 74.4346C665.698 74.8373 666.279 75.4509 666.695 76.2755C667.11 77.0937 667.318 78.1292 667.318 79.382V88.74H665.055V79.5354C665.055 78.3785 664.755 77.4772 664.154 76.8316C663.553 76.1796 662.729 75.8536 661.68 75.8536C660.958 75.8536 660.312 76.0102 659.743 76.3234C659.181 76.6367 658.737 77.0937 658.411 77.6945C658.085 78.2954 657.922 79.0241 657.922 79.8806Z" fill="#262626"/>
<path d="M63.063 84.7517C59.5936 84.7517 56.6159 83.8739 54.1298 82.1181C51.6577 80.3483 49.7545 77.799 48.4201 74.4701C47.0998 71.1272 46.4396 67.103 46.4396 62.3976C46.4537 57.6923 47.1209 53.6892 48.4412 50.3884C49.7755 47.0735 51.6788 44.5453 54.1508 42.8036C56.637 41.0619 59.6077 40.191 63.063 40.191C66.5183 40.191 69.489 41.0619 71.9751 42.8036C74.4613 44.5453 76.3645 47.0735 77.6848 50.3884C79.0192 53.7032 79.6863 57.7063 79.6863 62.3976C79.6863 67.1171 79.0192 71.1483 77.6848 74.4912C76.3645 77.8201 74.4613 80.3624 71.9751 82.1181C69.503 83.8739 66.5323 84.7517 63.063 84.7517ZM63.063 78.1572C65.7598 78.1572 67.8878 76.8298 69.4469 74.1752C71.02 71.5064 71.8066 67.5806 71.8066 62.3976C71.8066 58.9704 71.4484 56.091 70.7321 53.7594C70.0157 51.4278 69.0044 49.672 67.6981 48.4922C66.3919 47.2983 64.8468 46.7013 63.063 46.7013C60.3802 46.7013 58.2593 48.0357 56.7002 50.7044C55.1411 53.3591 54.3545 57.2568 54.3405 62.3976C54.3264 65.8389 54.6705 68.7324 55.3728 71.078C56.0892 73.4237 57.1005 75.1935 58.4068 76.3874C59.713 77.5672 61.2651 78.1572 63.063 78.1572ZM85.9069 75.9239V69.7086L104.216 40.781H109.399V49.6299H106.238L93.9131 69.1608V69.4979H119.47V75.9239H85.9069ZM106.491 83.9301V74.0277L106.576 71.2466V40.781H113.95V83.9301H106.491Z" fill="#080808"/>
</g>
<defs>
<clipPath id="clip0_791_209">
<rect width="717.45" height="132.77" fill="white"/>
</clipPath>
</defs>
</svg>
