<svg width="718" height="133" viewBox="0 0 718 133" fill="none" xmlns="http://www.w3.org/2000/svg">
<g clip-path="url(#clip0_791_197)">
<path d="M717.45 0H0V132.77H717.45V0Z" fill="#9747FF"/>
<path d="M182.497 39.4228C182.382 38.4512 181.916 37.6969 181.097 37.16C180.279 36.623 179.276 36.3546 178.087 36.3546C177.218 36.3546 176.457 36.4952 175.805 36.7764C175.159 37.0577 174.654 37.4444 174.29 37.9366C173.932 38.4288 173.753 38.9881 173.753 39.6145C173.753 40.1387 173.878 40.5893 174.127 40.9664C174.383 41.3372 174.709 41.6472 175.105 41.8965C175.501 42.1394 175.917 42.3407 176.351 42.5005C176.786 42.6539 177.186 42.7786 177.55 42.8745L179.544 43.4114C180.056 43.5456 180.624 43.731 181.251 43.9675C181.884 44.204 182.488 44.5268 183.063 44.9359C183.645 45.3386 184.124 45.8563 184.501 46.4892C184.878 47.122 185.067 47.8986 185.067 48.8191C185.067 49.8801 184.789 50.8389 184.233 51.6955C183.683 52.552 182.878 53.2328 181.817 53.7377C180.762 54.2427 179.48 54.4952 177.972 54.4952C176.566 54.4952 175.348 54.2683 174.319 53.8144C173.296 53.3606 172.491 52.7278 171.903 51.916C171.321 51.1042 170.992 50.1614 170.915 49.0875H173.369C173.433 49.829 173.683 50.4426 174.117 50.9284C174.558 51.4078 175.115 51.7658 175.786 52.0023C176.463 52.2324 177.192 52.3475 177.972 52.3475C178.879 52.3475 179.694 52.2005 180.417 51.9064C181.139 51.606 181.711 51.1905 182.133 50.66C182.555 50.123 182.766 49.4966 182.766 48.7807C182.766 48.1287 182.584 47.5982 182.219 47.1891C181.855 46.78 181.376 46.4476 180.781 46.1919C180.187 45.9362 179.544 45.7125 178.854 45.5208L176.438 44.8304C174.904 44.3894 173.689 43.7598 172.794 42.9416C171.899 42.1234 171.452 41.0527 171.452 39.7296C171.452 38.6301 171.749 37.6713 172.344 36.8531C172.944 36.0286 173.75 35.3894 174.76 34.9355C175.776 34.4753 176.911 34.2452 178.164 34.2452C179.429 34.2452 180.554 34.4721 181.539 34.9259C182.523 35.3734 183.303 35.987 183.878 36.7669C184.46 37.5467 184.767 38.432 184.798 39.4228H182.497ZM194.844 54.4568C193.425 54.4568 192.201 54.1436 191.172 53.5172C190.149 52.8844 189.36 52.0023 188.804 50.8709C188.254 49.7331 187.979 48.41 187.979 46.9014C187.979 45.3929 188.254 44.0634 188.804 42.9128C189.36 41.7558 190.133 40.8546 191.124 40.209C192.121 39.557 193.285 39.231 194.614 39.231C195.381 39.231 196.139 39.3588 196.887 39.6145C197.634 39.8702 198.315 40.2857 198.929 40.861C199.543 41.4299 200.032 42.1841 200.396 43.1237C200.76 44.0634 200.942 45.2203 200.942 46.5946V47.5534H189.59V45.5975H198.641C198.641 44.7665 198.475 44.025 198.143 43.373C197.817 42.721 197.35 42.2065 196.743 41.8294C196.142 41.4522 195.432 41.2637 194.614 41.2637C193.713 41.2637 192.933 41.4874 192.275 41.9348C191.623 42.3759 191.121 42.9512 190.769 43.6607C190.418 44.3702 190.242 45.1308 190.242 45.9426V47.2466C190.242 48.3588 190.434 49.3017 190.817 50.0751C191.207 50.8421 191.747 51.427 192.438 51.8297C193.128 52.226 193.93 52.4242 194.844 52.4242C195.439 52.4242 195.976 52.3411 196.455 52.1749C196.941 52.0023 197.36 51.7466 197.711 51.4078C198.063 51.0627 198.334 50.6344 198.526 50.123L200.712 50.7367C200.482 51.4781 200.095 52.1301 199.552 52.6926C199.009 53.2487 198.338 53.6834 197.539 53.9966C196.74 54.3034 195.842 54.4568 194.844 54.4568ZM204.384 54.15V39.4228H206.571V41.7239H206.762C207.069 40.9377 207.565 40.3272 208.248 39.8926C208.932 39.4515 209.754 39.231 210.713 39.231C211.684 39.231 212.493 39.4515 213.138 39.8926C213.79 40.3272 214.299 40.9377 214.663 41.7239H214.816C215.193 40.9632 215.759 40.3592 216.513 39.9117C217.268 39.4579 218.172 39.231 219.227 39.231C220.544 39.231 221.621 39.6433 222.458 40.4679C223.295 41.286 223.714 42.5612 223.714 44.2935V54.15H221.451V44.2935C221.451 43.2068 221.154 42.4302 220.56 41.9636C219.965 41.497 219.265 41.2637 218.46 41.2637C217.424 41.2637 216.622 41.5769 216.053 42.2033C215.484 42.8233 215.2 43.6095 215.2 44.562V54.15H212.899V44.0634C212.899 43.226 212.627 42.5517 212.084 42.0403C211.54 41.5225 210.84 41.2637 209.984 41.2637C209.396 41.2637 208.846 41.4203 208.335 41.7335C207.83 42.0467 207.421 42.4813 207.108 43.0375C206.801 43.5872 206.647 44.2232 206.647 44.9455V54.15H204.384ZM237.133 48.1287V39.4228H239.395V54.15H237.133V51.6571H236.979C236.634 52.405 236.097 53.041 235.368 53.5652C234.64 54.0829 233.719 54.3418 232.607 54.3418C231.687 54.3418 230.868 54.1404 230.152 53.7377C229.437 53.3286 228.874 52.715 228.465 51.8968C228.056 51.0723 227.851 50.0335 227.851 48.7807V39.4228H230.114V48.6273C230.114 49.7012 230.415 50.5577 231.015 51.1969C231.623 51.8361 232.396 52.1557 233.336 52.1557C233.898 52.1557 234.47 52.0119 235.052 51.7242C235.64 51.4366 236.132 50.9955 236.528 50.4011C236.931 49.8066 237.133 49.0492 237.133 48.1287ZM247.874 54.4952C246.94 54.4952 246.093 54.3194 245.333 53.9679C244.572 53.6099 243.968 53.0953 243.521 52.4242C243.073 51.7466 242.849 50.9284 242.849 49.9696C242.849 49.1259 243.016 48.4419 243.348 47.9178C243.68 47.3872 244.125 46.9718 244.681 46.6713C245.237 46.3709 245.85 46.1472 246.522 46.0002C247.199 45.8468 247.88 45.7253 248.564 45.6358C249.459 45.5208 250.184 45.4345 250.74 45.3769C251.303 45.313 251.712 45.2076 251.968 45.0605C252.23 44.9135 252.361 44.6578 252.361 44.2935V44.2168C252.361 43.2708 252.102 42.5357 251.584 42.0115C251.073 41.4874 250.296 41.2253 249.254 41.2253C248.174 41.2253 247.327 41.4618 246.713 41.9348C246.1 42.4078 245.668 42.9128 245.419 43.4497L243.271 42.6827C243.655 41.7878 244.166 41.0911 244.805 40.5925C245.451 40.0875 246.154 39.736 246.915 39.5378C247.682 39.3333 248.436 39.231 249.178 39.231C249.651 39.231 250.194 39.2885 250.808 39.4036C251.428 39.5122 252.025 39.7392 252.6 40.0843C253.182 40.4295 253.665 40.9505 254.048 41.6472C254.432 42.3439 254.624 43.2772 254.624 44.4469V54.15H252.361V52.1557H252.246C252.092 52.4753 251.837 52.8173 251.479 53.1816C251.121 53.546 250.645 53.856 250.05 54.1117C249.456 54.3674 248.73 54.4952 247.874 54.4952ZM248.219 52.4625C249.114 52.4625 249.868 52.2867 250.482 51.9352C251.102 51.5836 251.568 51.1298 251.881 50.5737C252.201 50.0176 252.361 49.4327 252.361 48.8191V46.748C252.265 46.8631 252.054 46.9686 251.728 47.0644C251.408 47.1539 251.038 47.2338 250.616 47.3041C250.2 47.3681 249.794 47.4256 249.398 47.4767C249.008 47.5215 248.692 47.5598 248.449 47.5918C247.861 47.6685 247.311 47.7931 246.8 47.9657C246.295 48.1319 245.886 48.3844 245.572 48.7232C245.266 49.0556 245.112 49.5094 245.112 50.0847C245.112 50.8709 245.403 51.4654 245.985 51.8681C246.573 52.2644 247.317 52.4625 248.219 52.4625ZM270.681 54.4952C269.748 54.4952 268.901 54.3194 268.14 53.9679C267.38 53.6099 266.776 53.0953 266.328 52.4242C265.881 51.7466 265.657 50.9284 265.657 49.9696C265.657 49.1259 265.823 48.4419 266.156 47.9178C266.488 47.3872 266.932 46.9718 267.488 46.6713C268.044 46.3709 268.658 46.1472 269.329 46.0002C270.007 45.8468 270.688 45.7253 271.372 45.6358C272.266 45.5208 272.992 45.4345 273.548 45.3769C274.111 45.313 274.52 45.2076 274.775 45.0605C275.037 44.9135 275.168 44.6578 275.168 44.2935V44.2168C275.168 43.2708 274.91 42.5357 274.392 42.0115C273.88 41.4874 273.104 41.2253 272.062 41.2253C270.982 41.2253 270.135 41.4618 269.521 41.9348C268.907 42.4078 268.476 42.9128 268.227 43.4497L266.079 42.6827C266.462 41.7878 266.974 41.0911 267.613 40.5925C268.259 40.0875 268.962 39.736 269.722 39.5378C270.489 39.3333 271.244 39.231 271.985 39.231C272.458 39.231 273.002 39.2885 273.615 39.4036C274.235 39.5122 274.833 39.7392 275.408 40.0843C275.99 40.4295 276.472 40.9505 276.856 41.6472C277.239 42.3439 277.431 43.2772 277.431 44.4469V54.15H275.168V52.1557H275.053C274.9 52.4753 274.644 52.8173 274.286 53.1816C273.928 53.546 273.452 53.856 272.858 54.1117C272.263 54.3674 271.538 54.4952 270.681 54.4952ZM271.026 52.4625C271.921 52.4625 272.676 52.2867 273.289 51.9352C273.909 51.5836 274.376 51.1298 274.689 50.5737C275.009 50.0176 275.168 49.4327 275.168 48.8191V46.748C275.073 46.8631 274.862 46.9686 274.536 47.0644C274.216 47.1539 273.845 47.2338 273.423 47.3041C273.008 47.3681 272.602 47.4256 272.206 47.4767C271.816 47.5215 271.499 47.5598 271.256 47.5918C270.668 47.6685 270.119 47.7931 269.607 47.9657C269.102 48.1319 268.693 48.3844 268.38 48.7232C268.073 49.0556 267.92 49.5094 267.92 50.0847C267.92 50.8709 268.211 51.4654 268.792 51.8681C269.38 52.2644 270.125 52.4625 271.026 52.4625ZM291.993 42.721L289.96 43.2963C289.833 42.9576 289.644 42.6284 289.395 42.3088C289.152 41.9828 288.819 41.7143 288.398 41.5034C287.976 41.2924 287.436 41.187 286.777 41.187C285.876 41.187 285.125 41.3947 284.524 41.8102C283.93 42.2193 283.632 42.7402 283.632 43.373C283.632 43.9355 283.837 44.3798 284.246 44.7058C284.655 45.0318 285.294 45.3034 286.164 45.5208L288.35 46.0577C289.666 46.3773 290.648 46.8663 291.293 47.5247C291.939 48.1767 292.262 49.0172 292.262 50.0463C292.262 50.8901 292.019 51.6443 291.533 52.3091C291.053 52.9739 290.382 53.498 289.519 53.8816C288.656 54.2651 287.653 54.4568 286.509 54.4568C285.007 54.4568 283.763 54.1308 282.779 53.4789C281.795 52.8269 281.171 51.8745 280.909 50.6216L283.057 50.0847C283.262 50.8773 283.648 51.4718 284.217 51.8681C284.792 52.2644 285.544 52.4625 286.47 52.4625C287.525 52.4625 288.362 52.2388 288.982 51.7914C289.609 51.3375 289.922 50.7942 289.922 50.1614C289.922 49.65 289.743 49.2218 289.385 48.8766C289.027 48.525 288.477 48.263 287.736 48.0904L285.281 47.5151C283.933 47.1955 282.942 46.7001 282.309 46.0289C281.683 45.3514 281.369 44.5044 281.369 43.4881C281.369 42.6571 281.603 41.922 282.069 41.2828C282.542 40.6436 283.185 40.1419 283.997 39.7775C284.815 39.4132 285.742 39.231 286.777 39.231C288.235 39.231 289.379 39.5506 290.21 40.1898C291.047 40.829 291.642 41.6728 291.993 42.721ZM306.1 42.721L304.067 43.2963C303.939 42.9576 303.75 42.6284 303.501 42.3088C303.258 41.9828 302.926 41.7143 302.504 41.5034C302.082 41.2924 301.542 41.187 300.884 41.187C299.982 41.187 299.231 41.3947 298.63 41.8102C298.036 42.2193 297.739 42.7402 297.739 43.373C297.739 43.9355 297.943 44.3798 298.352 44.7058C298.761 45.0318 299.401 45.3034 300.27 45.5208L302.456 46.0577C303.773 46.3773 304.754 46.8663 305.4 47.5247C306.045 48.1767 306.368 49.0172 306.368 50.0463C306.368 50.8901 306.125 51.6443 305.639 52.3091C305.16 52.9739 304.489 53.498 303.626 53.8816C302.763 54.2651 301.759 54.4568 300.615 54.4568C299.113 54.4568 297.87 54.1308 296.885 53.4789C295.901 52.8269 295.278 51.8745 295.016 50.6216L297.163 50.0847C297.368 50.8773 297.755 51.4718 298.324 51.8681C298.899 52.2644 299.65 52.4625 300.577 52.4625C301.631 52.4625 302.469 52.2388 303.089 51.7914C303.715 51.3375 304.028 50.7942 304.028 50.1614C304.028 49.65 303.85 49.2218 303.492 48.8766C303.134 48.525 302.584 48.263 301.842 48.0904L299.388 47.5151C298.039 47.1955 297.048 46.7001 296.416 46.0289C295.789 45.3514 295.476 44.5044 295.476 43.4881C295.476 42.6571 295.709 41.922 296.176 41.2828C296.649 40.6436 297.291 40.1419 298.103 39.7775C298.921 39.4132 299.848 39.231 300.884 39.231C302.341 39.231 303.485 39.5506 304.316 40.1898C305.153 40.829 305.748 41.6728 306.1 42.721ZM315.949 54.4568C314.53 54.4568 313.306 54.1436 312.277 53.5172C311.254 52.8844 310.464 52.0023 309.908 50.8709C309.359 49.7331 309.084 48.41 309.084 46.9014C309.084 45.3929 309.359 44.0634 309.908 42.9128C310.464 41.7558 311.238 40.8546 312.229 40.209C313.226 39.557 314.389 39.231 315.719 39.231C316.486 39.231 317.243 39.3588 317.991 39.6145C318.739 39.8702 319.42 40.2857 320.033 40.861C320.647 41.4299 321.136 42.1841 321.5 43.1237C321.865 44.0634 322.047 45.2203 322.047 46.5946V47.5534H310.695V45.5975H319.746C319.746 44.7665 319.58 44.025 319.247 43.373C318.921 42.721 318.455 42.2065 317.847 41.8294C317.246 41.4522 316.537 41.2637 315.719 41.2637C314.817 41.2637 314.038 41.4874 313.379 41.9348C312.727 42.3759 312.225 42.9512 311.874 43.6607C311.522 44.3702 311.347 45.1308 311.347 45.9426V47.2466C311.347 48.3588 311.538 49.3017 311.922 50.0751C312.312 50.8421 312.852 51.427 313.542 51.8297C314.233 52.226 315.035 52.4242 315.949 52.4242C316.543 52.4242 317.08 52.3411 317.56 52.1749C318.045 52.0023 318.464 51.7466 318.816 51.4078C319.167 51.0627 319.439 50.6344 319.631 50.123L321.817 50.7367C321.587 51.4781 321.2 52.1301 320.657 52.6926C320.113 53.2487 319.442 53.6834 318.643 53.9966C317.844 54.3034 316.946 54.4568 315.949 54.4568ZM331.894 39.4228V41.3404H324.262V39.4228H331.894ZM326.486 35.8943H328.749V49.9313C328.749 50.5705 328.842 51.0499 329.027 51.3695C329.219 51.6827 329.462 51.8936 329.756 52.0023C330.056 52.1046 330.373 52.1557 330.705 52.1557C330.954 52.1557 331.159 52.1429 331.319 52.1174C331.478 52.0854 331.606 52.0598 331.702 52.0406L332.162 54.0733C332.009 54.1308 331.795 54.1884 331.52 54.2459C331.245 54.3098 330.897 54.3418 330.475 54.3418C329.836 54.3418 329.209 54.2044 328.596 53.9295C327.988 53.6546 327.483 53.236 327.081 52.6735C326.684 52.111 326.486 51.4014 326.486 50.5449V35.8943ZM345.001 48.7807L344.962 45.981H345.423L351.866 39.4228H354.665L347.8 46.3645H347.609L345.001 48.7807ZM342.891 54.15V34.5137H345.154V54.15H342.891ZM352.249 54.15L346.496 46.8631L348.107 45.2906L355.126 54.15H352.249ZM357.578 54.15V39.4228H359.764V41.6472H359.917C360.186 40.9185 360.672 40.3272 361.375 39.8734C362.078 39.4196 362.87 39.1926 363.753 39.1926C363.919 39.1926 364.127 39.1958 364.376 39.2022C364.625 39.2086 364.814 39.2182 364.941 39.231V41.5321C364.865 41.513 364.689 41.4842 364.414 41.4458C364.146 41.4011 363.861 41.3787 363.561 41.3787C362.845 41.3787 362.206 41.5289 361.643 41.8294C361.087 42.1234 360.646 42.5325 360.32 43.0566C360 43.5744 359.841 44.1656 359.841 44.8304V54.15H357.578ZM367.624 54.15V39.4228H369.887V54.15H367.624ZM368.774 36.9682C368.333 36.9682 367.953 36.818 367.633 36.5176C367.32 36.2171 367.164 35.856 367.164 35.4341C367.164 35.0122 367.32 34.6511 367.633 34.3507C367.953 34.0502 368.333 33.9 368.774 33.9C369.215 33.9 369.593 34.0502 369.906 34.3507C370.225 34.6511 370.385 35.0122 370.385 35.4341C370.385 35.856 370.225 36.2171 369.906 36.5176C369.593 36.818 369.215 36.9682 368.774 36.9682ZM374.031 59.6728V39.4228H376.217V41.7622H376.486C376.652 41.5066 376.882 41.1806 377.176 40.7843C377.476 40.3816 377.905 40.0236 378.461 39.7104C379.023 39.3908 379.784 39.231 380.743 39.231C381.983 39.231 383.076 39.541 384.022 40.161C384.968 40.7811 385.706 41.66 386.237 42.7978C386.767 43.9355 387.032 45.2779 387.032 46.8247C387.032 48.3844 386.767 49.7363 386.237 50.8805C385.706 52.0183 384.971 52.9004 384.031 53.5268C383.092 54.1468 382.008 54.4568 380.781 54.4568C379.835 54.4568 379.078 54.3002 378.509 53.987C377.94 53.6674 377.502 53.3063 377.195 52.9036C376.888 52.4945 376.652 52.1557 376.486 51.8872H376.294V59.6728H374.031ZM376.255 46.7864C376.255 47.8986 376.418 48.8798 376.744 49.7299C377.07 50.5737 377.547 51.2353 378.173 51.7147C378.799 52.1877 379.566 52.4242 380.474 52.4242C381.42 52.4242 382.21 52.1749 382.842 51.6763C383.482 51.1713 383.961 50.4938 384.281 49.6436C384.607 48.7871 384.77 47.8347 384.77 46.7864C384.77 45.7509 384.61 44.8176 384.29 43.9867C383.977 43.1493 383.501 42.4877 382.862 42.0019C382.229 41.5098 381.433 41.2637 380.474 41.2637C379.554 41.2637 378.78 41.497 378.154 41.9636C377.527 42.4238 377.054 43.0694 376.735 43.9004C376.415 44.725 376.255 45.687 376.255 46.7864ZM396.889 39.4228V41.3404H389.257V39.4228H396.889ZM391.481 35.8943H393.744V49.9313C393.744 50.5705 393.837 51.0499 394.022 51.3695C394.214 51.6827 394.457 51.8936 394.751 52.0023C395.051 52.1046 395.368 52.1557 395.7 52.1557C395.949 52.1557 396.154 52.1429 396.314 52.1174C396.473 52.0854 396.601 52.0598 396.697 52.0406L397.157 54.0733C397.004 54.1308 396.79 54.1884 396.515 54.2459C396.24 54.3098 395.892 54.3418 395.47 54.3418C394.831 54.3418 394.204 54.2044 393.591 53.9295C392.983 53.6546 392.478 53.236 392.076 52.6735C391.679 52.111 391.481 51.4014 391.481 50.5449V35.8943ZM406.117 54.4568C404.788 54.4568 403.621 54.1404 402.618 53.5076C401.621 52.8748 400.841 51.9895 400.278 50.8517C399.722 49.7139 399.444 48.3844 399.444 46.8631C399.444 45.329 399.722 43.9899 400.278 42.8457C400.841 41.7015 401.621 40.813 402.618 40.1802C403.621 39.5474 404.788 39.231 406.117 39.231C407.447 39.231 408.61 39.5474 409.608 40.1802C410.611 40.813 411.391 41.7015 411.947 42.8457C412.509 43.9899 412.791 45.329 412.791 46.8631C412.791 48.3844 412.509 49.7139 411.947 50.8517C411.391 51.9895 410.611 52.8748 409.608 53.5076C408.61 54.1404 407.447 54.4568 406.117 54.4568ZM406.117 52.4242C407.127 52.4242 407.958 52.1653 408.61 51.6475C409.262 51.1298 409.745 50.449 410.058 49.6053C410.371 48.7615 410.528 47.8475 410.528 46.8631C410.528 45.8787 410.371 44.9615 410.058 44.1113C409.745 43.2612 409.262 42.574 408.61 42.0499C407.958 41.5257 407.127 41.2637 406.117 41.2637C405.108 41.2637 404.277 41.5257 403.625 42.0499C402.973 42.574 402.49 43.2612 402.177 44.1113C401.864 44.9615 401.707 45.8787 401.707 46.8631C401.707 47.8475 401.864 48.7615 402.177 49.6053C402.49 50.449 402.973 51.1298 403.625 51.6475C404.277 52.1653 405.108 52.4242 406.117 52.4242ZM429.4 54.4568C428.172 54.4568 427.089 54.1468 426.149 53.5268C425.21 52.9004 424.475 52.0183 423.944 50.8805C423.414 49.7363 423.148 48.3844 423.148 46.8247C423.148 45.2779 423.414 43.9355 423.944 42.7978C424.475 41.66 425.213 40.7811 426.159 40.161C427.105 39.541 428.198 39.231 429.438 39.231C430.397 39.231 431.154 39.3908 431.71 39.7104C432.273 40.0236 432.701 40.3816 432.995 40.7843C433.296 41.1806 433.529 41.5066 433.695 41.7622H433.887V34.5137H436.15V54.15H433.964V51.8872H433.695C433.529 52.1557 433.292 52.4945 432.986 52.9036C432.679 53.3063 432.241 53.6674 431.672 53.987C431.103 54.3002 430.346 54.4568 429.4 54.4568ZM429.706 52.4242C430.614 52.4242 431.381 52.1877 432.008 51.7147C432.634 51.2353 433.11 50.5737 433.436 49.7299C433.762 48.8798 433.925 47.8986 433.925 46.7864C433.925 45.687 433.765 44.725 433.446 43.9004C433.126 43.0694 432.653 42.4238 432.027 41.9636C431.4 41.497 430.627 41.2637 429.706 41.2637C428.748 41.2637 427.949 41.5098 427.309 42.0019C426.677 42.4877 426.2 43.1493 425.881 43.9867C425.568 44.8176 425.411 45.7509 425.411 46.7864C425.411 47.8347 425.571 48.7871 425.89 49.6436C426.216 50.4938 426.696 51.1713 427.329 51.6763C427.968 52.1749 428.76 52.4242 429.706 52.4242ZM444.942 54.4952C444.009 54.4952 443.162 54.3194 442.401 53.9679C441.64 53.6099 441.036 53.0953 440.589 52.4242C440.142 51.7466 439.918 50.9284 439.918 49.9696C439.918 49.1259 440.084 48.4419 440.416 47.9178C440.749 47.3872 441.193 46.9718 441.749 46.6713C442.305 46.3709 442.919 46.1472 443.59 46.0002C444.268 45.8468 444.948 45.7253 445.632 45.6358C446.527 45.5208 447.253 45.4345 447.809 45.3769C448.371 45.313 448.78 45.2076 449.036 45.0605C449.298 44.9135 449.429 44.6578 449.429 44.2935V44.2168C449.429 43.2708 449.17 42.5357 448.653 42.0115C448.141 41.4874 447.365 41.2253 446.323 41.2253C445.242 41.2253 444.395 41.4618 443.782 41.9348C443.168 42.4078 442.737 42.9128 442.487 43.4497L440.34 42.6827C440.723 41.7878 441.235 41.0911 441.874 40.5925C442.519 40.0875 443.222 39.736 443.983 39.5378C444.75 39.3333 445.504 39.231 446.246 39.231C446.719 39.231 447.262 39.2885 447.876 39.4036C448.496 39.5122 449.094 39.7392 449.669 40.0843C450.251 40.4295 450.733 40.9505 451.117 41.6472C451.5 42.3439 451.692 43.2772 451.692 44.4469V54.15H449.429V52.1557H449.314C449.161 52.4753 448.905 52.8173 448.547 53.1816C448.189 53.546 447.713 53.856 447.118 54.1117C446.524 54.3674 445.798 54.4952 444.942 54.4952ZM445.287 52.4625C446.182 52.4625 446.936 52.2867 447.55 51.9352C448.17 51.5836 448.637 51.1298 448.95 50.5737C449.269 50.0176 449.429 49.4327 449.429 48.8191V46.748C449.333 46.8631 449.122 46.9686 448.796 47.0644C448.477 47.1539 448.106 47.2338 447.684 47.3041C447.269 47.3681 446.863 47.4256 446.466 47.4767C446.077 47.5215 445.76 47.5598 445.517 47.5918C444.929 47.6685 444.379 47.7931 443.868 47.9657C443.363 48.1319 442.954 48.3844 442.641 48.7232C442.334 49.0556 442.181 49.5094 442.181 50.0847C442.181 50.8709 442.471 51.4654 443.053 51.8681C443.641 52.2644 444.386 52.4625 445.287 52.4625ZM458.085 45.2906V54.15H455.822V39.4228H458.008V41.7239H458.2C458.545 40.976 459.069 40.3752 459.772 39.9213C460.475 39.4611 461.383 39.231 462.495 39.231C463.492 39.231 464.365 39.4355 465.113 39.8446C465.861 40.2473 466.442 40.861 466.858 41.6855C467.273 42.5037 467.481 43.5392 467.481 44.7921V54.15H465.218V44.9455C465.218 43.7885 464.918 42.8872 464.317 42.2416C463.716 41.5897 462.892 41.2637 461.843 41.2637C461.121 41.2637 460.475 41.4203 459.907 41.7335C459.344 42.0467 458.9 42.5037 458.574 43.1046C458.248 43.7054 458.085 44.4341 458.085 45.2906ZM485.768 39.4228V41.3404H477.829V39.4228H485.768ZM480.207 54.15V37.3901C480.207 36.5463 480.405 35.8432 480.801 35.2807C481.198 34.7182 481.712 34.2963 482.345 34.0151C482.978 33.7338 483.646 33.5932 484.349 33.5932C484.905 33.5932 485.359 33.6379 485.71 33.7274C486.062 33.8169 486.324 33.9 486.497 33.9767L485.845 35.9327C485.73 35.8943 485.57 35.8464 485.365 35.7889C485.167 35.7313 484.905 35.7026 484.579 35.7026C483.831 35.7026 483.291 35.8911 482.959 36.2683C482.633 36.6454 482.47 37.1983 482.47 37.927V54.15H480.207ZM488.939 54.15V39.4228H491.202V54.15H488.939ZM490.09 36.9682C489.649 36.9682 489.268 36.818 488.949 36.5176C488.636 36.2171 488.479 35.856 488.479 35.4341C488.479 35.0122 488.636 34.6511 488.949 34.3507C489.268 34.0502 489.649 33.9 490.09 33.9C490.531 33.9 490.908 34.0502 491.221 34.3507C491.541 34.6511 491.701 35.0122 491.701 35.4341C491.701 35.856 491.541 36.2171 491.221 36.5176C490.908 36.818 490.531 36.9682 490.09 36.9682ZM499.68 54.4952C498.747 54.4952 497.9 54.3194 497.139 53.9679C496.379 53.6099 495.775 53.0953 495.327 52.4242C494.88 51.7466 494.656 50.9284 494.656 49.9696C494.656 49.1259 494.822 48.4419 495.155 47.9178C495.487 47.3872 495.931 46.9718 496.487 46.6713C497.044 46.3709 497.657 46.1472 498.328 46.0002C499.006 45.8468 499.687 45.7253 500.371 45.6358C501.265 45.5208 501.991 45.4345 502.547 45.3769C503.11 45.313 503.519 45.2076 503.774 45.0605C504.036 44.9135 504.167 44.6578 504.167 44.2935V44.2168C504.167 43.2708 503.909 42.5357 503.391 42.0115C502.879 41.4874 502.103 41.2253 501.061 41.2253C499.981 41.2253 499.134 41.4618 498.52 41.9348C497.906 42.4078 497.475 42.9128 497.226 43.4497L495.078 42.6827C495.461 41.7878 495.973 41.0911 496.612 40.5925C497.258 40.0875 497.961 39.736 498.721 39.5378C499.488 39.3333 500.243 39.231 500.984 39.231C501.457 39.231 502.001 39.2885 502.614 39.4036C503.234 39.5122 503.832 39.7392 504.407 40.0843C504.989 40.4295 505.471 40.9505 505.855 41.6472C506.238 42.3439 506.43 43.2772 506.43 44.4469V54.15H504.167V52.1557H504.052C503.899 52.4753 503.643 52.8173 503.285 53.1816C502.927 53.546 502.451 53.856 501.857 54.1117C501.262 54.3674 500.537 54.4952 499.68 54.4952ZM500.025 52.4625C500.92 52.4625 501.675 52.2867 502.288 51.9352C502.908 51.5836 503.375 51.1298 503.688 50.5737C504.008 50.0176 504.167 49.4327 504.167 48.8191V46.748C504.072 46.8631 503.861 46.9686 503.535 47.0644C503.215 47.1539 502.844 47.2338 502.422 47.3041C502.007 47.3681 501.601 47.4256 501.205 47.4767C500.815 47.5215 500.498 47.5598 500.256 47.5918C499.667 47.6685 499.118 47.7931 498.606 47.9657C498.101 48.1319 497.692 48.3844 497.379 48.7232C497.072 49.0556 496.919 49.5094 496.919 50.0847C496.919 50.8709 497.21 51.4654 497.791 51.8681C498.379 52.2644 499.124 52.4625 500.025 52.4625ZM516.965 39.4228V41.3404H509.333V39.4228H516.965ZM511.557 35.8943H513.82V49.9313C513.82 50.5705 513.913 51.0499 514.098 51.3695C514.29 51.6827 514.533 51.8936 514.827 52.0023C515.127 52.1046 515.444 52.1557 515.776 52.1557C516.025 52.1557 516.23 52.1429 516.39 52.1174C516.55 52.0854 516.677 52.0598 516.773 52.0406L517.234 54.0733C517.08 54.1308 516.866 54.1884 516.591 54.2459C516.316 54.3098 515.968 54.3418 515.546 54.3418C514.907 54.3418 514.28 54.2044 513.667 53.9295C513.06 53.6546 512.555 53.236 512.152 52.6735C511.756 52.111 511.557 51.4014 511.557 50.5449V35.8943ZM533.524 54.4568C532.296 54.4568 531.213 54.1468 530.273 53.5268C529.334 52.9004 528.599 52.0183 528.068 50.8805C527.538 49.7363 527.272 48.3844 527.272 46.8247C527.272 45.2779 527.538 43.9355 528.068 42.7978C528.599 41.66 529.337 40.7811 530.283 40.161C531.229 39.541 532.322 39.231 533.562 39.231C534.521 39.231 535.278 39.3908 535.834 39.7104C536.397 40.0236 536.825 40.3816 537.119 40.7843C537.42 41.1806 537.653 41.5066 537.819 41.7622H538.011V34.5137H540.274V54.15H538.088V51.8872H537.819C537.653 52.1557 537.416 52.4945 537.11 52.9036C536.803 53.3063 536.365 53.6674 535.796 53.987C535.227 54.3002 534.47 54.4568 533.524 54.4568ZM533.831 52.4242C534.738 52.4242 535.505 52.1877 536.132 51.7147C536.758 51.2353 537.234 50.5737 537.56 49.7299C537.886 48.8798 538.049 47.8986 538.049 46.7864C538.049 45.687 537.889 44.725 537.57 43.9004C537.25 43.0694 536.777 42.4238 536.151 41.9636C535.524 41.497 534.751 41.2637 533.831 41.2637C532.872 41.2637 532.073 41.5098 531.434 42.0019C530.801 42.4877 530.324 43.1493 530.005 43.9867C529.692 44.8176 529.535 45.7509 529.535 46.7864C529.535 47.8347 529.695 48.7871 530.014 49.6436C530.34 50.4938 530.82 51.1713 531.453 51.6763C532.092 52.1749 532.884 52.4242 533.831 52.4242ZM544.732 54.15V39.4228H546.995V54.15H544.732ZM545.883 36.9682C545.442 36.9682 545.061 36.818 544.742 36.5176C544.429 36.2171 544.272 35.856 544.272 35.4341C544.272 35.0122 544.429 34.6511 544.742 34.3507C545.061 34.0502 545.442 33.9 545.883 33.9C546.324 33.9 546.701 34.0502 547.014 34.3507C547.334 34.6511 547.494 35.0122 547.494 35.4341C547.494 35.856 547.334 36.2171 547.014 36.5176C546.701 36.818 546.324 36.9682 545.883 36.9682ZM553.402 34.5137V54.15H551.139V34.5137H553.402ZM557.547 54.15V39.4228H559.809V54.15H557.547ZM558.697 36.9682C558.256 36.9682 557.876 36.818 557.556 36.5176C557.243 36.2171 557.086 35.856 557.086 35.4341C557.086 35.0122 557.243 34.6511 557.556 34.3507C557.876 34.0502 558.256 33.9 558.697 33.9C559.138 33.9 559.515 34.0502 559.829 34.3507C560.148 34.6511 560.308 35.0122 560.308 35.4341C560.308 35.856 560.148 36.2171 559.829 36.5176C559.515 36.818 559.138 36.9682 558.697 36.9682ZM566.217 45.2906V54.15H563.954V39.4228H566.14V41.7239H566.332C566.677 40.976 567.201 40.3752 567.904 39.9213C568.607 39.4611 569.515 39.231 570.627 39.231C571.624 39.231 572.497 39.4355 573.245 39.8446C573.993 40.2473 574.574 40.861 574.99 41.6855C575.405 42.5037 575.613 43.5392 575.613 44.7921V54.15H573.35V44.9455C573.35 43.7885 573.05 42.8872 572.449 42.2416C571.848 41.5897 571.023 41.2637 569.975 41.2637C569.253 41.2637 568.607 41.4203 568.038 41.7335C567.476 42.0467 567.032 42.5037 566.706 43.1046C566.38 43.7054 566.217 44.4341 566.217 45.2906ZM585.309 54.4568C584.082 54.4568 582.998 54.1468 582.059 53.5268C581.119 52.9004 580.384 52.0183 579.853 50.8805C579.323 49.7363 579.057 48.3844 579.057 46.8247C579.057 45.2779 579.323 43.9355 579.853 42.7978C580.384 41.66 581.122 40.7811 582.068 40.161C583.014 39.541 584.107 39.231 585.347 39.231C586.306 39.231 587.063 39.3908 587.62 39.7104C588.182 40.0236 588.61 40.3816 588.904 40.7843C589.205 41.1806 589.438 41.5066 589.604 41.7622H589.796V34.5137H592.059V54.15H589.873V51.8872H589.604C589.438 52.1557 589.202 52.4945 588.895 52.9036C588.588 53.3063 588.15 53.6674 587.581 53.987C587.012 54.3002 586.255 54.4568 585.309 54.4568ZM585.616 52.4242C586.523 52.4242 587.29 52.1877 587.917 51.7147C588.543 51.2353 589.019 50.5737 589.345 49.7299C589.671 48.8798 589.834 47.8986 589.834 46.7864C589.834 45.687 589.675 44.725 589.355 43.9004C589.035 43.0694 588.562 42.4238 587.936 41.9636C587.31 41.497 586.536 41.2637 585.616 41.2637C584.657 41.2637 583.858 41.5098 583.219 42.0019C582.586 42.4877 582.11 43.1493 581.79 43.9867C581.477 44.8176 581.32 45.7509 581.32 46.7864C581.32 47.8347 581.48 48.7871 581.8 49.6436C582.126 50.4938 582.605 51.1713 583.238 51.6763C583.877 52.1749 584.67 52.4242 585.616 52.4242ZM605.799 48.1287V39.4228H608.061V54.15H605.799V51.6571H605.645C605.3 52.405 604.763 53.041 604.034 53.5652C603.306 54.0829 602.385 54.3418 601.273 54.3418C600.353 54.3418 599.534 54.1404 598.818 53.7377C598.103 53.3286 597.54 52.715 597.131 51.8968C596.722 51.0723 596.517 50.0335 596.517 48.7807V39.4228H598.78V48.6273C598.78 49.7012 599.081 50.5577 599.681 51.1969C600.289 51.8361 601.062 52.1557 602.002 52.1557C602.564 52.1557 603.136 52.0119 603.718 51.7242C604.306 51.4366 604.798 50.9955 605.195 50.4011C605.597 49.8066 605.799 49.0492 605.799 48.1287ZM614.469 45.2906V54.15H612.206V39.4228H614.392V41.7239H614.584C614.929 40.976 615.453 40.3752 616.156 39.9213C616.859 39.4611 617.767 39.231 618.879 39.231C619.876 39.231 620.749 39.4355 621.497 39.8446C622.244 40.2473 622.826 40.861 623.242 41.6855C623.657 42.5037 623.865 43.5392 623.865 44.7921V54.15H621.602V44.9455C621.602 43.7885 621.302 42.8872 620.701 42.2416C620.1 41.5897 619.275 41.2637 618.227 41.2637C617.505 41.2637 616.859 41.4203 616.29 41.7335C615.728 42.0467 615.284 42.5037 614.958 43.1046C614.632 43.7054 614.469 44.4341 614.469 45.2906ZM633.944 59.9796C632.851 59.9796 631.912 59.8389 631.125 59.5577C630.339 59.2828 629.684 58.9185 629.16 58.4647C628.642 58.0172 628.23 57.5378 627.923 57.0264L629.726 55.7608C629.93 56.0293 630.189 56.3361 630.502 56.6813C630.815 57.0328 631.244 57.3365 631.787 57.5921C632.337 57.8542 633.056 57.9853 633.944 57.9853C635.133 57.9853 636.114 57.6976 636.888 57.1223C637.661 56.547 638.048 55.6458 638.048 54.4185V51.427H637.856C637.69 51.6955 637.454 52.0279 637.147 52.4242C636.846 52.8141 636.412 53.1625 635.843 53.4693C635.28 53.7697 634.52 53.9199 633.561 53.9199C632.372 53.9199 631.304 53.6387 630.358 53.0762C629.419 52.5137 628.674 51.6955 628.124 50.6216C627.581 49.5478 627.309 48.2438 627.309 46.7097C627.309 45.2012 627.575 43.8876 628.105 42.769C628.636 41.644 629.374 40.7747 630.32 40.161C631.266 39.541 632.359 39.231 633.599 39.231C634.558 39.231 635.319 39.3908 635.881 39.7104C636.45 40.0236 636.885 40.3816 637.185 40.7843C637.492 41.1806 637.728 41.5066 637.895 41.7622H638.125V39.4228H640.311V54.5719C640.311 55.8375 640.023 56.8666 639.448 57.6593C638.879 58.4583 638.112 59.0431 637.147 59.4139C636.188 59.791 635.12 59.9796 633.944 59.9796ZM633.868 51.8872C634.775 51.8872 635.542 51.6795 636.169 51.264C636.795 50.8485 637.271 50.2509 637.597 49.471C637.923 48.6912 638.086 47.758 638.086 46.6713C638.086 45.6103 637.927 44.6738 637.607 43.862C637.287 43.0502 636.814 42.4142 636.188 41.954C635.562 41.4938 634.788 41.2637 633.868 41.2637C632.909 41.2637 632.11 41.5066 631.471 41.9924C630.838 42.4781 630.362 43.1301 630.042 43.9483C629.729 44.7665 629.572 45.6742 629.572 46.6713C629.572 47.6941 629.732 48.5985 630.052 49.3848C630.378 50.1646 630.857 50.7782 631.49 51.2257C632.129 51.6667 632.922 51.8872 633.868 51.8872ZM644.453 54.15V39.4228H646.716V54.15H644.453ZM645.603 36.9682C645.162 36.9682 644.782 36.818 644.462 36.5176C644.149 36.2171 643.993 35.856 643.993 35.4341C643.993 35.0122 644.149 34.6511 644.462 34.3507C644.782 34.0502 645.162 33.9 645.603 33.9C646.044 33.9 646.422 34.0502 646.735 34.3507C647.054 34.6511 647.214 35.0122 647.214 35.4341C647.214 35.856 647.054 36.2171 646.735 36.5176C646.422 36.818 646.044 36.9682 645.603 36.9682Z" fill="white"/>
<path d="M177.435 91.5668C176.105 91.5668 174.939 91.2504 173.935 90.6176C172.938 89.9848 172.158 89.0995 171.596 87.9617C171.04 86.8239 170.762 85.4944 170.762 83.9731C170.762 82.439 171.04 81.0999 171.596 79.9557C172.158 78.8115 172.938 77.923 173.935 77.2902C174.939 76.6574 176.105 76.341 177.435 76.341C178.764 76.341 179.928 76.6574 180.925 77.2902C181.928 77.923 182.708 78.8115 183.264 79.9557C183.827 81.0999 184.108 82.439 184.108 83.9731C184.108 85.4944 183.827 86.8239 183.264 87.9617C182.708 89.0995 181.928 89.9848 180.925 90.6176C179.928 91.2504 178.764 91.5668 177.435 91.5668ZM177.435 89.5342C178.445 89.5342 179.276 89.2753 179.928 88.7575C180.58 88.2398 181.062 87.559 181.376 86.7153C181.689 85.8715 181.845 84.9575 181.845 83.9731C181.845 82.9887 181.689 82.0714 181.376 81.2213C181.062 80.3712 180.58 79.684 179.928 79.1599C179.276 78.6357 178.445 78.3736 177.435 78.3736C176.425 78.3736 175.594 78.6357 174.942 79.1599C174.29 79.684 173.807 80.3712 173.494 81.2213C173.181 82.0714 173.024 82.9887 173.024 83.9731C173.024 84.9575 173.181 85.8715 173.494 86.7153C173.807 87.559 174.29 88.2398 174.942 88.7575C175.594 89.2753 176.425 89.5342 177.435 89.5342ZM189.825 71.6236V91.26H187.562V71.6236H189.825ZM200.144 91.5668C198.725 91.5668 197.501 91.2536 196.472 90.6272C195.449 89.9944 194.66 89.1123 194.104 87.9809C193.554 86.8431 193.279 85.52 193.279 84.0114C193.279 82.5029 193.554 81.1734 194.104 80.0228C194.66 78.8658 195.433 77.9646 196.424 77.319C197.421 76.667 198.585 76.341 199.914 76.341C200.681 76.341 201.439 76.4688 202.186 76.7245C202.934 76.9802 203.615 77.3957 204.229 77.9709C204.842 78.5398 205.331 79.2941 205.696 80.2337C206.06 81.1734 206.242 82.3303 206.242 83.7046V84.6634H194.89V82.7075H203.941C203.941 81.8765 203.775 81.135 203.442 80.483C203.116 79.831 202.65 79.3165 202.043 78.9393C201.442 78.5622 200.732 78.3736 199.914 78.3736C199.013 78.3736 198.233 78.5974 197.575 79.0448C196.923 79.4859 196.421 80.0611 196.069 80.7707C195.718 81.4802 195.542 82.2408 195.542 83.0526V84.3566C195.542 85.4688 195.734 86.4116 196.117 87.1851C196.507 87.9521 197.047 88.537 197.738 88.9397C198.428 89.336 199.23 89.5342 200.144 89.5342C200.739 89.5342 201.276 89.4511 201.755 89.2849C202.241 89.1123 202.659 88.8566 203.011 88.5178C203.363 88.1727 203.634 87.7444 203.826 87.233L206.012 87.8467C205.782 88.5881 205.395 89.2401 204.852 89.8026C204.309 90.3587 203.637 90.7934 202.838 91.1066C202.039 91.4134 201.141 91.5668 200.144 91.5668ZM211.947 82.4006V91.26H209.684V71.6236H211.947V78.8339H212.139C212.484 78.0732 213.002 77.4692 213.692 77.0217C214.389 76.5679 215.316 76.341 216.473 76.341C217.476 76.341 218.355 76.5423 219.109 76.945C219.864 77.3413 220.449 77.9518 220.864 78.7763C221.286 79.5945 221.497 80.6364 221.497 81.9021V91.26H219.234V82.0555C219.234 80.8857 218.93 79.9812 218.323 79.342C217.722 78.6964 216.888 78.3736 215.821 78.3736C215.079 78.3736 214.414 78.5303 213.826 78.8435C213.245 79.1567 212.784 79.6137 212.446 80.2146C212.113 80.8154 211.947 81.5441 211.947 82.4006ZM235.34 85.8907L235.301 83.091H235.761L242.205 76.5327H245.004L238.139 83.4745H237.948L235.34 85.8907ZM233.23 91.26V71.6236H235.493V91.26H233.23ZM242.588 91.26L236.835 83.9731L238.446 82.4006L245.465 91.26H242.588ZM253.485 91.5668C252.066 91.5668 250.842 91.2536 249.813 90.6272C248.79 89.9944 248.001 89.1123 247.445 87.9809C246.895 86.8431 246.62 85.52 246.62 84.0114C246.62 82.5029 246.895 81.1734 247.445 80.0228C248.001 78.8658 248.774 77.9646 249.765 77.319C250.762 76.667 251.925 76.341 253.255 76.341C254.022 76.341 254.779 76.4688 255.527 76.7245C256.275 76.9802 256.956 77.3957 257.57 77.9709C258.183 78.5398 258.672 79.2941 259.036 80.2337C259.401 81.1734 259.583 82.3303 259.583 83.7046V84.6634H248.231V82.7075H257.282C257.282 81.8765 257.116 81.135 256.783 80.483C256.457 79.831 255.991 79.3165 255.383 78.9393C254.783 78.5622 254.073 78.3736 253.255 78.3736C252.354 78.3736 251.574 78.5974 250.915 79.0448C250.263 79.4859 249.762 80.0611 249.41 80.7707C249.059 81.4802 248.883 82.2408 248.883 83.0526V84.3566C248.883 85.4688 249.074 86.4116 249.458 87.1851C249.848 87.9521 250.388 88.537 251.078 88.9397C251.769 89.336 252.571 89.5342 253.485 89.5342C254.079 89.5342 254.616 89.4511 255.096 89.2849C255.582 89.1123 256 88.8566 256.352 88.5178C256.703 88.1727 256.975 87.7444 257.167 87.233L259.353 87.8467C259.123 88.5881 258.736 89.2401 258.193 89.8026C257.649 90.3587 256.978 90.7934 256.179 91.1066C255.38 91.4134 254.482 91.5668 253.485 91.5668ZM267.359 91.6052C266.426 91.6052 265.579 91.4294 264.818 91.0778C264.057 90.7199 263.453 90.2053 263.006 89.5342C262.559 88.8566 262.335 88.0384 262.335 87.0796C262.335 86.2359 262.501 85.5519 262.833 85.0278C263.166 84.4972 263.61 84.0817 264.166 83.7813C264.722 83.4809 265.336 83.2572 266.007 83.1102C266.685 82.9567 267.365 82.8353 268.049 82.7458C268.944 82.6307 269.67 82.5445 270.226 82.4869C270.788 82.423 271.197 82.3175 271.453 82.1705C271.715 82.0235 271.846 81.7678 271.846 81.4035V81.3268C271.846 80.3807 271.587 79.6457 271.07 79.1215C270.558 78.5974 269.782 78.3353 268.74 78.3353C267.659 78.3353 266.812 78.5718 266.199 79.0448C265.585 79.5178 265.154 80.0228 264.904 80.5597L262.757 79.7927C263.14 78.8978 263.652 78.2011 264.291 77.7025C264.936 77.1975 265.639 76.8459 266.4 76.6478C267.167 76.4432 267.921 76.341 268.663 76.341C269.136 76.341 269.679 76.3985 270.293 76.5136C270.913 76.6222 271.511 76.8491 272.086 77.1943C272.668 77.5395 273.15 78.0604 273.534 78.7572C273.917 79.4539 274.109 80.3871 274.109 81.5569V91.26H271.846V89.2657H271.731C271.578 89.5853 271.322 89.9273 270.964 90.2916C270.606 90.656 270.13 90.966 269.535 91.2217C268.941 91.4773 268.215 91.6052 267.359 91.6052ZM267.704 89.5725C268.599 89.5725 269.353 89.3967 269.967 89.0452C270.587 88.6936 271.054 88.2398 271.367 87.6837C271.686 87.1276 271.846 86.5427 271.846 85.929V83.858C271.75 83.9731 271.539 84.0785 271.213 84.1744C270.894 84.2639 270.523 84.3438 270.101 84.4141C269.686 84.478 269.28 84.5356 268.883 84.5867C268.494 84.6315 268.177 84.6698 267.934 84.7018C267.346 84.7785 266.796 84.9031 266.285 85.0757C265.78 85.2419 265.371 85.4944 265.058 85.8332C264.751 86.1655 264.598 86.6194 264.598 87.1947C264.598 87.9809 264.888 88.5754 265.47 88.978C266.058 89.3744 266.803 89.5725 267.704 89.5725ZM278.239 91.26V76.5327H280.425V78.8339H280.617C280.924 78.0477 281.419 77.4372 282.103 77.0026C282.787 76.5615 283.608 76.341 284.567 76.341C285.539 76.341 286.347 76.5615 286.993 77.0026C287.645 77.4372 288.153 78.0477 288.517 78.8339H288.671C289.048 78.0732 289.614 77.4692 290.368 77.0217C291.122 76.5679 292.027 76.341 293.081 76.341C294.398 76.341 295.475 76.7533 296.312 77.5778C297.15 78.396 297.569 79.6712 297.569 81.4035V91.26H295.306V81.4035C295.306 80.3168 295.009 79.5402 294.414 79.0736C293.82 78.607 293.12 78.3736 292.314 78.3736C291.279 78.3736 290.477 78.6869 289.908 79.3133C289.339 79.9333 289.054 80.7195 289.054 81.6719V91.26H286.753V81.1734C286.753 80.336 286.482 79.6616 285.938 79.1503C285.395 78.6325 284.695 78.3736 283.838 78.3736C283.25 78.3736 282.701 78.5303 282.189 78.8435C281.684 79.1567 281.275 79.5913 280.962 80.1474C280.655 80.6972 280.502 81.3332 280.502 82.0555V91.26H278.239ZM306.04 91.6052C305.106 91.6052 304.259 91.4294 303.499 91.0778C302.738 90.7199 302.134 90.2053 301.687 89.5342C301.239 88.8566 301.015 88.0384 301.015 87.0796C301.015 86.2359 301.182 85.5519 301.514 85.0278C301.846 84.4972 302.291 84.0817 302.847 83.7813C303.403 83.4809 304.017 83.2572 304.688 83.1102C305.365 82.9567 306.046 82.8353 306.73 82.7458C307.625 82.6307 308.35 82.5445 308.906 82.4869C309.469 82.423 309.878 82.3175 310.134 82.1705C310.396 82.0235 310.527 81.7678 310.527 81.4035V81.3268C310.527 80.3807 310.268 79.6457 309.75 79.1215C309.239 78.5974 308.462 78.3353 307.42 78.3353C306.34 78.3353 305.493 78.5718 304.879 79.0448C304.266 79.5178 303.834 80.0228 303.585 80.5597L301.437 79.7927C301.821 78.8978 302.332 78.2011 302.971 77.7025C303.617 77.1975 304.32 76.8459 305.081 76.6478C305.848 76.4432 306.602 76.341 307.344 76.341C307.817 76.341 308.36 76.3985 308.974 76.5136C309.594 76.6222 310.191 76.8491 310.767 77.1943C311.348 77.5395 311.831 78.0604 312.214 78.7572C312.598 79.4539 312.79 80.3871 312.79 81.5569V91.26H310.527V89.2657H310.412C310.258 89.5853 310.003 89.9273 309.645 90.2916C309.287 90.656 308.811 90.966 308.216 91.2217C307.622 91.4773 306.896 91.6052 306.04 91.6052ZM306.385 89.5725C307.28 89.5725 308.034 89.3967 308.648 89.0452C309.268 88.6936 309.734 88.2398 310.047 87.6837C310.367 87.1276 310.527 86.5427 310.527 85.929V83.858C310.431 83.9731 310.22 84.0785 309.894 84.1744C309.574 84.2639 309.204 84.3438 308.782 84.4141C308.366 84.478 307.96 84.5356 307.564 84.5867C307.174 84.6315 306.858 84.6698 306.615 84.7018C306.027 84.7785 305.477 84.9031 304.966 85.0757C304.461 85.2419 304.052 85.4944 303.738 85.8332C303.432 86.1655 303.278 86.6194 303.278 87.1947C303.278 87.9809 303.569 88.5754 304.151 88.978C304.739 89.3744 305.483 89.5725 306.385 89.5725ZM319.182 82.4006V91.26H316.92V76.5327H319.106V78.8339H319.297C319.643 78.086 320.167 77.4852 320.87 77.0313C321.573 76.5711 322.481 76.341 323.593 76.341C324.59 76.341 325.463 76.5455 326.21 76.9546C326.958 77.3573 327.54 77.9709 327.956 78.7955C328.371 79.6137 328.579 80.6492 328.579 81.9021V91.26H326.316V82.0555C326.316 80.8985 326.016 79.9972 325.415 79.3516C324.814 78.6996 323.989 78.3736 322.941 78.3736C322.219 78.3736 321.573 78.5303 321.004 78.8435C320.442 79.1567 319.997 79.6137 319.671 80.2146C319.345 80.8154 319.182 81.5441 319.182 82.4006ZM337.047 91.6052C336.114 91.6052 335.267 91.4294 334.507 91.0778C333.746 90.7199 333.142 90.2053 332.694 89.5342C332.247 88.8566 332.023 88.0384 332.023 87.0796C332.023 86.2359 332.189 85.5519 332.522 85.0278C332.854 84.4972 333.298 84.0817 333.855 83.7813C334.411 83.4809 335.024 83.2572 335.695 83.1102C336.373 82.9567 337.054 82.8353 337.738 82.7458C338.633 82.6307 339.358 82.5445 339.914 82.4869C340.477 82.423 340.886 82.3175 341.142 82.1705C341.404 82.0235 341.535 81.7678 341.535 81.4035V81.3268C341.535 80.3807 341.276 79.6457 340.758 79.1215C340.247 78.5974 339.47 78.3353 338.428 78.3353C337.348 78.3353 336.501 78.5718 335.887 79.0448C335.274 79.5178 334.842 80.0228 334.593 80.5597L332.445 79.7927C332.829 78.8978 333.34 78.2011 333.979 77.7025C334.625 77.1975 335.328 76.8459 336.089 76.6478C336.856 76.4432 337.61 76.341 338.351 76.341C338.824 76.341 339.368 76.3985 339.981 76.5136C340.601 76.6222 341.199 76.8491 341.774 77.1943C342.356 77.5395 342.839 78.0604 343.222 78.7572C343.606 79.4539 343.797 80.3871 343.797 81.5569V91.26H341.535V89.2657H341.42C341.266 89.5853 341.01 89.9273 340.653 90.2916C340.295 90.656 339.818 90.966 339.224 91.2217C338.629 91.4773 337.904 91.6052 337.047 91.6052ZM337.393 89.5725C338.287 89.5725 339.042 89.3967 339.655 89.0452C340.275 88.6936 340.742 88.2398 341.055 87.6837C341.375 87.1276 341.535 86.5427 341.535 85.929V83.858C341.439 83.9731 341.228 84.0785 340.902 84.1744C340.582 84.2639 340.211 84.3438 339.79 84.4141C339.374 84.478 338.968 84.5356 338.572 84.5867C338.182 84.6315 337.866 84.6698 337.623 84.7018C337.035 84.7785 336.485 84.9031 335.974 85.0757C335.469 85.2419 335.059 85.4944 334.746 85.8332C334.439 86.1655 334.286 86.6194 334.286 87.1947C334.286 87.9809 334.577 88.5754 335.159 88.978C335.747 89.3744 336.491 89.5725 337.393 89.5725ZM350.19 82.4006V91.26H347.927V76.5327H350.114V78.8339H350.305C350.65 78.086 351.175 77.4852 351.878 77.0313C352.581 76.5711 353.489 76.341 354.601 76.341C355.598 76.341 356.47 76.5455 357.218 76.9546C357.966 77.3573 358.548 77.9709 358.963 78.7955C359.379 79.6137 359.587 80.6492 359.587 81.9021V91.26H357.324V82.0555C357.324 80.8985 357.023 79.9972 356.422 79.3516C355.822 78.6996 354.997 78.3736 353.949 78.3736C353.226 78.3736 352.581 78.5303 352.012 78.8435C351.449 79.1567 351.005 79.6137 350.679 80.2146C350.353 80.8154 350.19 81.5441 350.19 82.4006ZM372.773 96.7827C372.389 96.7827 372.047 96.7508 371.747 96.6869C371.446 96.6293 371.238 96.5718 371.123 96.5143L371.699 94.52C372.248 94.6606 372.734 94.7117 373.156 94.6734C373.578 94.635 373.952 94.4464 374.278 94.1077C374.61 93.7753 374.914 93.2352 375.189 92.4873L375.611 91.3367L370.165 76.5327H372.619L376.684 88.2685H376.838L380.903 76.5327H383.358L377.106 93.4077C376.825 94.1684 376.477 94.798 376.061 95.2966C375.646 95.8016 375.163 96.1755 374.613 96.4184C374.07 96.6613 373.456 96.7827 372.773 96.7827ZM390.23 91.6052C389.297 91.6052 388.45 91.4294 387.689 91.0778C386.929 90.7199 386.324 90.2053 385.877 89.5342C385.43 88.8566 385.206 88.0384 385.206 87.0796C385.206 86.2359 385.372 85.5519 385.704 85.0278C386.037 84.4972 386.481 84.0817 387.037 83.7813C387.593 83.4809 388.207 83.2572 388.878 83.1102C389.556 82.9567 390.236 82.8353 390.92 82.7458C391.815 82.6307 392.541 82.5445 393.097 82.4869C393.659 82.423 394.068 82.3175 394.324 82.1705C394.586 82.0235 394.717 81.7678 394.717 81.4035V81.3268C394.717 80.3807 394.458 79.6457 393.941 79.1215C393.429 78.5974 392.653 78.3353 391.611 78.3353C390.53 78.3353 389.684 78.5718 389.07 79.0448C388.456 79.5178 388.025 80.0228 387.775 80.5597L385.628 79.7927C386.011 78.8978 386.523 78.2011 387.162 77.7025C387.807 77.1975 388.511 76.8459 389.271 76.6478C390.038 76.4432 390.793 76.341 391.534 76.341C392.007 76.341 392.55 76.3985 393.164 76.5136C393.784 76.6222 394.382 76.8491 394.957 77.1943C395.539 77.5395 396.021 78.0604 396.405 78.7572C396.788 79.4539 396.98 80.3871 396.98 81.5569V91.26H394.717V89.2657H394.602C394.449 89.5853 394.193 89.9273 393.835 90.2916C393.477 90.656 393.001 90.966 392.407 91.2217C391.812 91.4773 391.087 91.6052 390.23 91.6052ZM390.575 89.5725C391.47 89.5725 392.224 89.3967 392.838 89.0452C393.458 88.6936 393.925 88.2398 394.238 87.6837C394.557 87.1276 394.717 86.5427 394.717 85.929V83.858C394.621 83.9731 394.41 84.0785 394.084 84.1744C393.765 84.2639 393.394 84.3438 392.972 84.4141C392.557 84.478 392.151 84.5356 391.755 84.5867C391.365 84.6315 391.048 84.6698 390.805 84.7018C390.217 84.7785 389.668 84.9031 389.156 85.0757C388.651 85.2419 388.242 85.4944 387.929 85.8332C387.622 86.1655 387.469 86.6194 387.469 87.1947C387.469 87.9809 387.759 88.5754 388.341 88.978C388.929 89.3744 389.674 89.5725 390.575 89.5725ZM403.373 82.4006V91.26H401.11V76.5327H403.296V78.8339H403.488C403.833 78.086 404.357 77.4852 405.06 77.0313C405.763 76.5711 406.671 76.341 407.783 76.341C408.781 76.341 409.653 76.5455 410.401 76.9546C411.149 77.3573 411.73 77.9709 412.146 78.7955C412.561 79.6137 412.769 80.6492 412.769 81.9021V91.26H410.506V82.0555C410.506 80.8985 410.206 79.9972 409.605 79.3516C409.004 78.6996 408.18 78.3736 407.131 78.3736C406.409 78.3736 405.763 78.5303 405.195 78.8435C404.632 79.1567 404.188 79.6137 403.862 80.2146C403.536 80.8154 403.373 81.5441 403.373 82.4006ZM422.849 97.0896C421.756 97.0896 420.816 96.9489 420.03 96.6677C419.244 96.3928 418.588 96.0285 418.064 95.5746C417.546 95.1272 417.134 94.6478 416.827 94.1364L418.63 92.8708C418.834 93.1393 419.093 93.4461 419.407 93.7913C419.72 94.1428 420.148 94.4464 420.691 94.7021C421.241 94.9642 421.96 95.0952 422.849 95.0952C424.038 95.0952 425.019 94.8076 425.792 94.2323C426.566 93.657 426.952 92.7557 426.952 91.5285V88.537H426.761C426.594 88.8055 426.358 89.1379 426.051 89.5342C425.751 89.9241 425.316 90.2724 424.747 90.5793C424.185 90.8797 423.424 91.0299 422.465 91.0299C421.276 91.0299 420.209 90.7486 419.263 90.1861C418.323 89.6236 417.578 88.8055 417.029 87.7316C416.485 86.6577 416.214 85.3538 416.214 83.8197C416.214 82.3111 416.479 80.9976 417.009 79.879C417.54 78.754 418.278 77.8847 419.224 77.271C420.17 76.651 421.263 76.341 422.503 76.341C423.462 76.341 424.223 76.5008 424.785 76.8204C425.354 77.1336 425.789 77.4915 426.089 77.8942C426.396 78.2905 426.633 78.6165 426.799 78.8722H427.029V76.5327H429.215V91.6819C429.215 92.9475 428.927 93.9766 428.352 94.7692C427.783 95.5682 427.016 96.1531 426.051 96.5239C425.092 96.901 424.025 97.0896 422.849 97.0896ZM422.772 88.9972C423.68 88.9972 424.447 88.7895 425.073 88.374C425.699 87.9585 426.176 87.3609 426.502 86.581C426.828 85.8012 426.991 84.868 426.991 83.7813C426.991 82.7202 426.831 81.7838 426.511 80.972C426.192 80.1602 425.719 79.5242 425.092 79.064C424.466 78.6038 423.692 78.3736 422.772 78.3736C421.813 78.3736 421.014 78.6165 420.375 79.1023C419.742 79.5881 419.266 80.2401 418.946 81.0583C418.633 81.8765 418.476 82.7842 418.476 83.7813C418.476 84.804 418.636 85.7085 418.956 86.4947C419.282 87.2746 419.761 87.8882 420.394 88.3356C421.033 88.7767 421.826 88.9972 422.772 88.9972ZM447.356 76.5327V78.4504H439.724V76.5327H447.356ZM441.948 73.0043H444.211V87.0413C444.211 87.6805 444.304 88.1599 444.489 88.4795C444.681 88.7927 444.924 89.0036 445.218 89.1123C445.518 89.2146 445.834 89.2657 446.167 89.2657C446.416 89.2657 446.621 89.2529 446.78 89.2273C446.94 89.1954 447.068 89.1698 447.164 89.1506L447.624 91.1833C447.471 91.2408 447.257 91.2984 446.982 91.3559C446.707 91.4198 446.359 91.4518 445.937 91.4518C445.297 91.4518 444.671 91.3143 444.057 91.0395C443.45 90.7646 442.945 90.3459 442.543 89.7834C442.146 89.2209 441.948 88.5114 441.948 87.6549V73.0043ZM456.776 91.5668C455.357 91.5668 454.133 91.2536 453.104 90.6272C452.081 89.9944 451.292 89.1123 450.736 87.9809C450.186 86.8431 449.911 85.52 449.911 84.0114C449.911 82.5029 450.186 81.1734 450.736 80.0228C451.292 78.8658 452.065 77.9646 453.056 77.319C454.053 76.667 455.216 76.341 456.546 76.341C457.313 76.341 458.07 76.4688 458.818 76.7245C459.566 76.9802 460.247 77.3957 460.861 77.9709C461.474 78.5398 461.963 79.2941 462.328 80.2337C462.692 81.1734 462.874 82.3303 462.874 83.7046V84.6634H451.522V82.7075H460.573C460.573 81.8765 460.407 81.135 460.074 80.483C459.748 79.831 459.282 79.3165 458.674 78.9393C458.074 78.5622 457.364 78.3736 456.546 78.3736C455.645 78.3736 454.865 78.5974 454.206 79.0448C453.554 79.4859 453.053 80.0611 452.701 80.7707C452.35 81.4802 452.174 82.2408 452.174 83.0526V84.3566C452.174 85.4688 452.366 86.4116 452.749 87.1851C453.139 87.9521 453.679 88.537 454.369 88.9397C455.06 89.336 455.862 89.5342 456.776 89.5342C457.37 89.5342 457.907 89.4511 458.387 89.2849C458.873 89.1123 459.291 88.8566 459.643 88.5178C459.994 88.1727 460.266 87.7444 460.458 87.233L462.644 87.8467C462.414 88.5881 462.027 89.2401 461.484 89.8026C460.94 90.3587 460.269 90.7934 459.47 91.1066C458.671 91.4134 457.773 91.5668 456.776 91.5668ZM466.316 91.26V76.5327H468.502V78.7572H468.656C468.924 78.0285 469.41 77.4372 470.113 76.9834C470.816 76.5295 471.609 76.3026 472.491 76.3026C472.657 76.3026 472.865 76.3058 473.114 76.3122C473.363 76.3186 473.552 76.3282 473.68 76.341V78.6421C473.603 78.6229 473.427 78.5942 473.152 78.5558C472.884 78.5111 472.6 78.4887 472.299 78.4887C471.583 78.4887 470.944 78.6389 470.381 78.9393C469.825 79.2334 469.384 79.6425 469.058 80.1666C468.739 80.6844 468.579 81.2756 468.579 81.9404V91.26H466.316ZM476.362 96.7827V76.5327H478.548V78.8722H478.817C478.983 78.6165 479.213 78.2905 479.507 77.8942C479.807 77.4915 480.236 77.1336 480.792 76.8204C481.354 76.5008 482.115 76.341 483.074 76.341C484.314 76.341 485.407 76.651 486.353 77.271C487.299 77.891 488.037 78.77 488.568 79.9077C489.098 81.0455 489.363 82.3879 489.363 83.9347C489.363 85.4944 489.098 86.8463 488.568 87.9905C488.037 89.1283 487.302 90.0104 486.362 90.6368C485.423 91.2568 484.339 91.5668 483.112 91.5668C482.166 91.5668 481.409 91.4102 480.84 91.097C480.271 90.7774 479.833 90.4163 479.526 90.0136C479.219 89.6045 478.983 89.2657 478.817 88.9972H478.625V96.7827H476.362ZM478.586 83.8964C478.586 85.0086 478.749 85.9898 479.075 86.8399C479.401 87.6837 479.878 88.3452 480.504 88.8246C481.131 89.2977 481.898 89.5342 482.805 89.5342C483.751 89.5342 484.541 89.2849 485.173 88.7863C485.813 88.2813 486.292 87.6038 486.612 86.7536C486.938 85.8971 487.101 84.9447 487.101 83.8964C487.101 82.8609 486.941 81.9276 486.621 81.0967C486.308 80.2593 485.832 79.5977 485.193 79.1119C484.56 78.6197 483.764 78.3736 482.805 78.3736C481.885 78.3736 481.111 78.607 480.485 79.0736C479.858 79.5338 479.385 80.1794 479.066 81.0104C478.746 81.8349 478.586 82.7969 478.586 83.8964ZM498.99 91.5668C497.571 91.5668 496.347 91.2536 495.318 90.6272C494.295 89.9944 493.506 89.1123 492.949 87.9809C492.4 86.8431 492.125 85.52 492.125 84.0114C492.125 82.5029 492.4 81.1734 492.949 80.0228C493.506 78.8658 494.279 77.9646 495.27 77.319C496.267 76.667 497.43 76.341 498.76 76.341C499.527 76.341 500.284 76.4688 501.032 76.7245C501.78 76.9802 502.461 77.3957 503.074 77.9709C503.688 78.5398 504.177 79.2941 504.541 80.2337C504.906 81.1734 505.088 82.3303 505.088 83.7046V84.6634H493.736V82.7075H502.787C502.787 81.8765 502.621 81.135 502.288 80.483C501.962 79.831 501.496 79.3165 500.888 78.9393C500.287 78.5622 499.578 78.3736 498.76 78.3736C497.858 78.3736 497.079 78.5974 496.42 79.0448C495.768 79.4859 495.267 80.0611 494.915 80.7707C494.563 81.4802 494.388 82.2408 494.388 83.0526V84.3566C494.388 85.4688 494.579 86.4116 494.963 87.1851C495.353 87.9521 495.893 88.537 496.583 88.9397C497.274 89.336 498.076 89.5342 498.99 89.5342C499.584 89.5342 500.121 89.4511 500.601 89.2849C501.086 89.1123 501.505 88.8566 501.857 88.5178C502.208 88.1727 502.48 87.7444 502.672 87.233L504.858 87.8467C504.628 88.5881 504.241 89.2401 503.698 89.8026C503.154 90.3587 502.483 90.7934 501.684 91.1066C500.885 91.4134 499.987 91.5668 498.99 91.5668ZM508.53 91.26V76.5327H510.716V78.7572H510.869C511.138 78.0285 511.624 77.4372 512.327 76.9834C513.03 76.5295 513.823 76.3026 514.705 76.3026C514.871 76.3026 515.079 76.3058 515.328 76.3122C515.577 76.3186 515.766 76.3282 515.894 76.341V78.6421C515.817 78.6229 515.641 78.5942 515.366 78.5558C515.098 78.5111 514.813 78.4887 514.513 78.4887C513.797 78.4887 513.158 78.6389 512.595 78.9393C512.039 79.2334 511.598 79.6425 511.272 80.1666C510.953 80.6844 510.793 81.2756 510.793 81.9404V91.26H508.53ZM524.111 91.5668C522.73 91.5668 521.541 91.2408 520.544 90.5888C519.547 89.9369 518.78 89.0388 518.243 87.8946C517.706 86.7504 517.437 85.4432 517.437 83.9731C517.437 82.4773 517.712 81.1574 518.262 80.0132C518.818 78.8626 519.591 77.9646 520.582 77.319C521.579 76.667 522.743 76.341 524.072 76.341C525.108 76.341 526.041 76.5327 526.872 76.9163C527.703 77.2998 528.384 77.8367 528.914 78.5271C529.445 79.2174 529.774 80.0228 529.902 80.9432H527.639C527.466 80.2721 527.083 79.6776 526.488 79.1599C525.9 78.6357 525.108 78.3736 524.111 78.3736C523.229 78.3736 522.455 78.6038 521.79 79.064C521.132 79.5178 520.617 80.1602 520.247 80.9912C519.882 81.8158 519.7 82.7842 519.7 83.8964C519.7 85.0342 519.879 86.0249 520.237 86.8687C520.601 87.7124 521.113 88.3676 521.771 88.8342C522.436 89.3008 523.216 89.5342 524.111 89.5342C524.699 89.5342 525.232 89.4319 525.712 89.2273C526.191 89.0228 526.597 88.7288 526.93 88.3452C527.262 87.9617 527.498 87.5015 527.639 86.9646H529.902C529.774 87.8339 529.458 88.6169 528.953 89.3136C528.454 90.004 527.792 90.5537 526.968 90.9628C526.15 91.3655 525.197 91.5668 524.111 91.5668ZM537.544 91.6052C536.61 91.6052 535.763 91.4294 535.003 91.0778C534.242 90.7199 533.638 90.2053 533.191 89.5342C532.743 88.8566 532.519 88.0384 532.519 87.0796C532.519 86.2359 532.686 85.5519 533.018 85.0278C533.35 84.4972 533.795 84.0817 534.351 83.7813C534.907 83.4809 535.52 83.2572 536.192 83.1102C536.869 82.9567 537.55 82.8353 538.234 82.7458C539.129 82.6307 539.854 82.5445 540.41 82.4869C540.973 82.423 541.382 82.3175 541.638 82.1705C541.9 82.0235 542.031 81.7678 542.031 81.4035V81.3268C542.031 80.3807 541.772 79.6457 541.254 79.1215C540.743 78.5974 539.966 78.3353 538.924 78.3353C537.844 78.3353 536.997 78.5718 536.383 79.0448C535.77 79.5178 535.338 80.0228 535.089 80.5597L532.941 79.7927C533.325 78.8978 533.836 78.2011 534.475 77.7025C535.121 77.1975 535.824 76.8459 536.585 76.6478C537.352 76.4432 538.106 76.341 538.847 76.341C539.32 76.341 539.864 76.3985 540.477 76.5136C541.097 76.6222 541.695 76.8491 542.27 77.1943C542.852 77.5395 543.335 78.0604 543.718 78.7572C544.102 79.4539 544.294 80.3871 544.294 81.5569V91.26H542.031V89.2657H541.916C541.762 89.5853 541.507 89.9273 541.149 90.2916C540.791 90.656 540.314 90.966 539.72 91.2217C539.126 91.4773 538.4 91.6052 537.544 91.6052ZM537.889 89.5725C538.784 89.5725 539.538 89.3967 540.151 89.0452C540.771 88.6936 541.238 88.2398 541.551 87.6837C541.871 87.1276 542.031 86.5427 542.031 85.929V83.858C541.935 83.9731 541.724 84.0785 541.398 84.1744C541.078 84.2639 540.708 84.3438 540.286 84.4141C539.87 84.478 539.464 84.5356 539.068 84.5867C538.678 84.6315 538.362 84.6698 538.119 84.7018C537.531 84.7785 536.981 84.9031 536.47 85.0757C535.965 85.2419 535.556 85.4944 535.242 85.8332C534.936 86.1655 534.782 86.6194 534.782 87.1947C534.782 87.9809 535.073 88.5754 535.655 88.978C536.243 89.3744 536.987 89.5725 537.889 89.5725ZM549.354 96.7827C548.97 96.7827 548.628 96.7508 548.328 96.6869C548.027 96.6293 547.82 96.5718 547.704 96.5143L548.28 94.52C548.829 94.6606 549.315 94.7117 549.737 94.6734C550.159 94.635 550.533 94.4464 550.859 94.1077C551.191 93.7753 551.495 93.2352 551.77 92.4873L552.192 91.3367L546.746 76.5327H549.2L553.266 88.2685H553.419L557.484 76.5327H559.939L553.687 93.4077C553.406 94.1684 553.058 94.798 552.642 95.2966C552.227 95.8016 551.744 96.1755 551.195 96.4184C550.651 96.6613 550.038 96.7827 549.354 96.7827ZM566.811 91.6052C565.878 91.6052 565.031 91.4294 564.27 91.0778C563.51 90.7199 562.906 90.2053 562.458 89.5342C562.011 88.8566 561.787 88.0384 561.787 87.0796C561.787 86.2359 561.953 85.5519 562.286 85.0278C562.618 84.4972 563.062 84.0817 563.618 83.7813C564.174 83.4809 564.788 83.2572 565.459 83.1102C566.137 82.9567 566.817 82.8353 567.501 82.7458C568.396 82.6307 569.122 82.5445 569.678 82.4869C570.24 82.423 570.65 82.3175 570.905 82.1705C571.167 82.0235 571.298 81.7678 571.298 81.4035V81.3268C571.298 80.3807 571.039 79.6457 570.522 79.1215C570.01 78.5974 569.234 78.3353 568.192 78.3353C567.112 78.3353 566.265 78.5718 565.651 79.0448C565.037 79.5178 564.606 80.0228 564.357 80.5597L562.209 79.7927C562.592 78.8978 563.104 78.2011 563.743 77.7025C564.388 77.1975 565.092 76.8459 565.852 76.6478C566.619 76.4432 567.374 76.341 568.115 76.341C568.588 76.341 569.131 76.3985 569.745 76.5136C570.365 76.6222 570.963 76.8491 571.538 77.1943C572.12 77.5395 572.602 78.0604 572.986 78.7572C573.369 79.4539 573.561 80.3871 573.561 81.5569V91.26H571.298V89.2657H571.183C571.03 89.5853 570.774 89.9273 570.416 90.2916C570.058 90.656 569.582 90.966 568.988 91.2217C568.393 91.4773 567.668 91.6052 566.811 91.6052ZM567.156 89.5725C568.051 89.5725 568.805 89.3967 569.419 89.0452C570.039 88.6936 570.506 88.2398 570.819 87.6837C571.138 87.1276 571.298 86.5427 571.298 85.929V83.858C571.202 83.9731 570.991 84.0785 570.665 84.1744C570.346 84.2639 569.975 84.3438 569.553 84.4141C569.138 84.478 568.732 84.5356 568.336 84.5867C567.946 84.6315 567.629 84.6698 567.386 84.7018C566.798 84.7785 566.249 84.9031 565.737 85.0757C565.232 85.2419 564.823 85.4944 564.51 85.8332C564.203 86.1655 564.05 86.6194 564.05 87.1947C564.05 87.9809 564.341 88.5754 564.922 88.978C565.51 89.3744 566.255 89.5725 567.156 89.5725Z" fill="white"/>
<path d="M63.4829 84.4417C60.0136 84.4417 57.0358 83.5638 54.5497 81.8081C52.0776 80.0383 50.1744 77.4889 48.84 74.1601C47.5197 70.8171 46.8596 66.793 46.8596 62.0876C46.8736 57.3822 47.5408 53.3791 48.8611 50.0783C50.1955 46.7635 52.0987 44.2352 54.5708 42.4935C57.0569 40.7518 60.0276 39.881 63.4829 39.881C66.9382 39.881 69.9089 40.7518 72.3951 42.4935C74.8812 44.2352 76.7844 46.7635 78.1047 50.0783C79.4391 53.3932 80.1063 57.3962 80.1063 62.0876C80.1063 66.807 79.4391 70.8382 78.1047 74.1811C76.7844 77.51 74.8812 80.0523 72.3951 81.8081C69.923 83.5638 66.9523 84.4417 63.4829 84.4417ZM63.4829 77.8471C66.1797 77.8471 68.3077 76.5198 69.8668 73.8651C71.4399 71.1964 72.2265 67.2705 72.2265 62.0876C72.2265 58.6604 71.8683 55.781 71.152 53.4493C70.4356 51.1177 69.4243 49.362 68.1181 48.1821C66.8118 46.9882 65.2667 46.3913 63.4829 46.3913C60.8001 46.3913 58.6792 47.7256 57.1201 50.3943C55.561 53.049 54.7744 56.9468 54.7604 62.0876C54.7463 65.5288 55.0905 68.4223 55.7928 70.768C56.5091 73.1136 57.5204 74.8834 58.8267 76.0773C60.133 77.2572 61.685 77.8471 63.4829 77.8471ZM102.592 84.2099C99.5581 84.2099 96.8613 83.6902 94.5016 82.6508C92.1559 81.6114 90.3019 80.1647 88.9394 78.3106C87.5769 76.4566 86.8536 74.3146 86.7693 71.8846H94.6912C94.7614 73.0504 95.1477 74.0688 95.85 74.9396C96.5523 75.7964 97.4863 76.4636 98.6522 76.9412C99.818 77.4187 101.124 77.6575 102.571 77.6575C104.116 77.6575 105.486 77.3906 106.679 76.8569C107.873 76.3091 108.807 75.5506 109.482 74.5814C110.156 73.6123 110.486 72.4956 110.472 71.2315C110.486 69.9252 110.149 68.7734 109.46 67.7762C108.772 66.7789 107.775 65.9994 106.469 65.4375C105.176 64.8757 103.617 64.5948 101.791 64.5948H97.978V58.5691H101.791C103.294 58.5691 104.608 58.3092 105.731 57.7895C106.869 57.2698 107.761 56.5394 108.407 55.5984C109.053 54.6432 109.369 53.5406 109.355 52.2906C109.369 51.0686 109.095 50.0081 108.533 49.1091C107.986 48.1962 107.206 47.4868 106.195 46.9812C105.198 46.4755 104.025 46.2227 102.676 46.2227C101.356 46.2227 100.134 46.4615 99.0103 46.9391C97.8867 47.4166 96.9807 48.0978 96.2924 48.9827C95.6042 49.8536 95.239 50.893 95.1969 52.1009H87.6753C87.7314 49.685 88.4267 47.5641 89.7611 45.7381C91.1095 43.8981 92.9074 42.4654 95.1547 41.4401C97.4021 40.4007 99.9233 39.881 102.718 39.881C105.598 39.881 108.098 40.4217 110.219 41.5033C112.354 42.5708 114.004 44.0105 115.17 45.8224C116.336 47.6343 116.919 49.6359 116.919 51.827C116.933 54.257 116.217 56.2936 114.77 57.937C113.337 59.5804 111.455 60.6549 109.123 61.1606V61.4977C112.157 61.919 114.482 63.0427 116.097 64.8687C117.727 66.6806 118.534 68.935 118.52 71.6318C118.52 74.0477 117.832 76.2108 116.455 78.121C115.093 80.0172 113.211 81.5061 110.809 82.5876C108.421 83.6692 105.682 84.2099 102.592 84.2099Z" fill="white"/>
</g>
<defs>
<clipPath id="clip0_791_197">
<rect width="717.45" height="132.77" fill="white"/>
</clipPath>
</defs>
</svg>
