<svg version="1.2" xmlns="http://www.w3.org/2000/svg" viewBox="0 0 318 83" width="318" height="83"><style>.a{fill:#fff}</style><g style="opacity:.2"><path fill-rule="evenodd" class="a" d="m81.9 41.7c0 22.5-18.3 40.8-40.8 40.8-22.5 0-40.8-18.3-40.8-40.8 0-22.6 18.3-40.8 40.8-40.8 22.5 0 40.8 18.2 40.8 40.8zm-41 3.4h-18.4l18.6 11.2 18.6-11.2h-18.4l8.6-15.8-8.8-16.2-8.8 16.2zm24 11.4h-47.7l23.9 14.3z"/><path class="a" d="m102.9 45.2h5.8l10.2 12h10.1l-13.5-15.9 13.5-15.8h-10.1l-10.2 12h-5.8v-12h-8.2v31.7h8.2z"/><path fill-rule="evenodd" class="a" d="m163.6 41.3c0 10.7-6.6 16.6-18.6 16.6-12 0-18.6-5.9-18.6-16.6 0-10.7 6.6-16.5 18.6-16.5 12 0 18.6 5.8 18.6 16.5zm-8.4 0.2c0-6.3-3-8.8-10.2-8.8-7.2 0-10.2 2.5-10.2 8.6 0 6.1 3.1 8.7 10.2 8.7 7.2 0 10.2-2.5 10.2-8.5z"/><path class="a" d="m198.4 57.2v-31.7h-8.1v19l-16.7-19h-7.7v31.7h8.2v-19.1l16.6 19.1z"/><path class="a" d="m236.6 25.5h-10.1l-10.1 12h-5.9v-12h-8.1v31.7h8.1v-12h5.9l10.1 12h10.1l-13.4-15.9z"/><path fill-rule="evenodd" class="a" d="m271.2 41.3c0 10.7-6.6 16.6-18.6 16.6-12 0-18.6-5.9-18.6-16.6 0-10.7 6.6-16.5 18.6-16.5 12 0 18.6 5.8 18.6 16.5zm-8.4 0.2c0-6.3-2.9-8.8-10.2-8.8-7.2 0-10.2 2.5-10.2 8.6 0 6.1 3.1 8.7 10.2 8.7 7.3 0 10.2-2.5 10.2-8.5z"/><path class="a" d="m273.5 57.2h8.2v-31.7h-8.2z"/><path class="a" d="m309.4 25.5v19l-16.7-19h-7.7v31.7h8.2v-19.1l16.6 19.1h7.7v-31.7z"/></g></svg>