<svg id="Layer_1" data-name="Layer 1" xmlns="http://www.w3.org/2000/svg" xmlns:xlink="http://www.w3.org/1999/xlink" viewBox="0 0 866.05 222.76"><defs><style>.cls-1{fill:url(#linear-gradient);}.cls-2{fill:#fff;}</style><linearGradient id="linear-gradient" x1="193.77" y1="214.37" x2="101.28" y2="98.76" gradientUnits="userSpaceOnUse"><stop offset="0" stop-color="#550a29"/><stop offset="1" stop-color="#d9202e"/></linearGradient></defs><circle class="cls-1" cx="111.38" cy="111.38" r="111.38"/><polygon class="cls-2" points="135.47 77.66 111.38 121.81 87.29 77.66 111.38 33.5 135.47 77.66"/><polygon class="cls-2" points="111.38 191 176.39 151.89 46.36 151.89 111.38 191"/><polygon class="cls-2" points="111.38 151.41 162.16 120.86 60.59 120.86 111.38 151.41"/><polygon class="cls-2" points="280.12 120.96 296.05 120.96 323.87 153.69 351.35 153.69 314.65 110.51 351.35 67.34 323.87 67.34 296.05 100.07 280.12 100.07 280.12 67.34 257.87 67.34 257.87 153.69 280.12 153.69 280.12 120.96"/><path class="cls-2" d="M395.14,65.29c-32.76,0-50.81,16-50.81,45.09,0,29.24,18.05,45.35,50.81,45.35s50.68-16.11,50.68-45.35C445.82,81.3,427.82,65.29,395.14,65.29Zm0,68.87c-19.54,0-27.88-7.07-27.88-23.65,0-16.8,8.08-23.65,27.88-23.65s27.75,7,27.75,24.2C422.89,127.47,414.85,134.16,395.14,134.16Z"/><polygon class="cls-2" points="540.87 153.69 540.87 67.34 518.62 67.34 518.62 119.22 473.21 67.34 452.2 67.34 452.2 153.69 474.45 153.69 474.45 101.8 519.85 153.69 540.87 153.69"/><polygon class="cls-2" points="645.17 67.34 617.68 67.34 589.86 100.07 573.94 100.07 573.94 67.34 551.69 67.34 551.69 153.69 573.94 153.69 573.94 120.96 589.86 120.96 617.68 153.69 645.17 153.69 608.47 110.51 645.17 67.34"/><path class="cls-2" d="M689,65.29c-32.77,0-50.81,16-50.81,45.09,0,29.24,18,45.35,50.81,45.35s50.68-16.11,50.68-45.35C739.64,81.3,721.64,65.29,689,65.29Zm0,68.87c-19.54,0-27.88-7.07-27.88-23.65,0-16.8,8.08-23.65,27.88-23.65s27.74,7,27.74,24.2C716.7,127.47,708.67,134.16,689,134.16Z"/><rect class="cls-2" x="746.01" y="67.34" width="22.25" height="86.35"/><polygon class="cls-2" points="843.79 67.34 843.79 119.22 798.39 67.34 777.38 67.34 777.38 153.69 799.63 153.69 799.63 101.8 845.03 153.69 866.05 153.69 866.05 67.34 843.79 67.34"/></svg>