<svg version="1.2" xmlns="http://www.w3.org/2000/svg" viewBox="0 0 740 191" width="740" height="191"><defs><linearGradient id="P" gradientUnits="userSpaceOnUse"/><linearGradient id="g1" x2="1" href="#P" gradientTransform="matrix(-78.84,-98.55,98.55,-78.84,165.93,183.26)"><stop stop-color="#550a29"/><stop offset="1" stop-color="#d9202e"/></linearGradient></defs><style>.a{fill:url(#g1)}.b{fill:#fff}.c{fill:#161616}</style><path class="a" d="m95.7 190.4c-52.5 0-95-42.4-95-94.9 0-52.5 42.5-95 95-95 52.5 0 94.9 42.5 94.9 95 0 52.5-42.4 94.9-94.9 94.9z"/><path class="b" d="m116.2 66.7l-20.5 37.7-20.5-37.7 20.5-37.6 20.5 37.6z"/><path class="b" d="m95.7 163.3l55.4-33.3h-110.8l55.4 33.3z"/><path class="b" d="m95.7 129.6l43.3-26h-86.6l43.3 26z"/><path class="c" d="m239.5 103.6h13.6l23.7 27.9h23.5l-31.3-36.8 31.3-36.8h-23.5l-23.7 27.9h-13.6v-27.9h-18.9v73.6h18.9v-27.9z"/><path fill-rule="evenodd" class="c" d="m380.8 94.6c0 24.9-15.3 38.7-43.2 38.7-27.9 0-43.3-13.9-43.3-38.7 0-24.8 15.4-38.4 43.3-38.4 27.8 0 43.2 13.5 43.2 38.4zm-19.6 0.6c0-14.6-6.7-20.6-23.6-20.6-16.9 0-23.8 5.8-23.8 20.1 0 14.2 7.1 20.2 23.8 20.2 16.8 0 23.6-5.7 23.6-19.7z"/><path class="c" d="m461.8 131.5v-73.6h-19v44.3l-38.7-44.3h-17.9v73.6h19v-44.2l38.7 44.2h17.9z"/><path class="c" d="m550.7 57.9h-23.4l-23.7 27.9h-13.6v-27.9h-19v73.6h19v-27.9h13.6l23.7 27.9h23.4l-31.3-36.8 31.3-36.8z"/><path fill-rule="evenodd" class="c" d="m631.2 94.6c0 24.9-15.2 38.7-43.2 38.7-27.9 0-43.3-13.9-43.3-38.7 0-24.8 15.4-38.4 43.3-38.4 27.9 0 43.2 13.5 43.2 38.4zm-19.5 0.6c0-14.6-6.8-20.6-23.7-20.6-16.8 0-23.7 5.8-23.7 20.1 0 14.2 7.1 20.2 23.7 20.2 16.8 0 23.7-5.7 23.7-19.7z"/><path class="c" d="m636.7 57.9h19v73.6h-19z"/><path class="c" d="m720 57.9v44.3l-38.7-44.3h-17.9v73.6h19v-44.2l38.7 44.2h17.9v-73.6h-19z"/></svg>