<svg width="785" height="281" viewBox="0 0 785 281" fill="none" xmlns="http://www.w3.org/2000/svg">
<g clip-path="url(#clip0_791_98)">
<mask id="mask0_791_98" style="mask-type:luminance" maskUnits="userSpaceOnUse" x="372" y="92" width="395" height="189">
<path d="M766.87 92.4702H372.27V280.65H766.87V92.4702Z" fill="white"/>
</mask>
<g mask="url(#mask0_791_98)">
<path d="M514.52 323.52C502.588 323.52 492.396 320.095 483.945 313.246C475.548 306.341 469.085 296.37 464.556 283.334C460.081 270.297 457.844 254.637 457.844 236.353C457.844 218.124 460.081 202.519 464.556 189.538C469.085 176.501 475.576 166.531 484.028 159.626C492.534 152.666 502.698 149.186 514.52 149.186C526.341 149.186 536.477 152.666 544.929 159.626C553.436 166.531 559.926 176.501 564.4 189.538C568.93 202.519 571.195 218.124 571.195 236.353C571.195 254.637 568.93 270.297 564.4 283.334C559.926 296.37 553.463 306.341 545.012 313.246C536.615 320.095 526.451 323.52 514.52 323.52ZM514.52 309.6C527.611 309.6 537.83 303.22 545.177 290.46C552.524 277.644 556.197 259.609 556.197 236.353C556.197 220.886 554.513 207.684 551.143 196.746C547.829 185.754 543.051 177.358 536.809 171.557C530.622 165.757 523.192 162.857 514.52 162.857C501.538 162.857 491.347 169.32 483.945 182.246C476.543 195.117 472.842 213.152 472.842 236.353C472.842 251.82 474.499 265.022 477.813 275.959C481.183 286.897 485.961 295.238 492.148 300.983C498.39 306.728 505.847 309.6 514.52 309.6ZM660.019 323.52C649.579 323.52 640.244 321.642 632.013 317.886C623.783 314.074 617.264 308.799 612.459 302.06C607.653 295.321 605.112 287.56 604.836 278.777H620.496C620.772 284.963 622.678 290.377 626.213 295.017C629.748 299.602 634.444 303.192 640.299 305.788C646.154 308.329 652.673 309.6 659.854 309.6C667.698 309.6 674.603 308.136 680.568 305.208C686.589 302.281 691.285 298.276 694.654 293.194C698.079 288.057 699.792 282.257 699.792 275.794C699.792 268.944 698.052 262.895 694.571 257.648C691.091 252.4 686.092 248.312 679.574 245.385C673.111 242.457 665.378 240.993 656.374 240.993H646.431V227.073H656.374C663.72 227.073 670.211 225.747 675.845 223.096C681.535 220.389 686.009 216.605 689.268 211.744C692.528 206.883 694.157 201.166 694.157 194.592C694.157 188.35 692.749 182.854 689.931 178.103C687.114 173.353 683.137 169.624 678 166.917C672.918 164.211 666.98 162.857 660.185 162.857C653.612 162.857 647.591 164.128 642.122 166.669C636.653 169.21 632.234 172.8 628.865 177.44C625.55 182.08 623.783 187.577 623.562 193.929H608.564C608.785 185.091 611.216 177.33 615.856 170.646C620.551 163.907 626.765 158.659 634.499 154.903C642.288 151.091 650.905 149.186 660.351 149.186C670.349 149.186 678.994 151.229 686.286 155.317C693.577 159.405 699.212 164.846 703.189 171.64C707.221 178.379 709.237 185.809 709.237 193.929C709.237 203.596 706.614 211.882 701.366 218.787C696.118 225.637 689.048 230.387 680.154 233.039V234.116C690.981 236.27 699.488 241.076 705.675 248.533C711.917 255.935 715.038 265.022 715.038 275.794C715.038 284.853 712.662 293.001 707.912 300.237C703.161 307.418 696.643 313.108 688.357 317.306C680.126 321.449 670.681 323.52 660.019 323.52Z" fill="white"/>
</g>
<path d="M65.2265 63.9902V42.1357H72.611C74.3184 42.1357 75.7198 42.4274 76.8154 43.0107C77.911 43.587 78.722 44.3802 79.2484 45.3904C79.7749 46.4006 80.0381 47.5495 80.0381 48.8372C80.0381 50.1248 79.7749 51.2666 79.2484 52.2626C78.722 53.2586 77.9145 54.0412 76.8261 54.6103C75.7376 55.1723 74.3468 55.4533 72.6537 55.4533H66.6778V53.063H72.5683C73.735 53.063 74.6741 52.8922 75.3855 52.5507C76.104 52.2093 76.6233 51.7255 76.9435 51.0995C77.2707 50.4663 77.4343 49.7122 77.4343 48.8372C77.4343 47.9621 77.2707 47.1974 76.9435 46.5429C76.6162 45.8884 76.0933 45.3833 75.3748 45.0276C74.6563 44.6648 73.7065 44.4833 72.5256 44.4833H67.873V63.9902H65.2265ZM75.5135 54.1728L80.8918 63.9902H77.8185L72.5256 54.1728H75.5135ZM94.4362 57.2887V47.5993H96.9546V63.9902H94.4362V61.2157H94.2654C93.8813 62.0481 93.2837 62.7559 92.4727 63.3393C91.6617 63.9155 90.6372 64.2037 89.3994 64.2037C88.375 64.2037 87.4643 63.9796 86.6676 63.5314C85.8708 63.0761 85.2447 62.3931 84.7894 61.4825C84.3341 60.5648 84.1065 59.4087 84.1065 58.0144V47.5993H86.6249V57.8436C86.6249 59.0388 86.9592 59.9921 87.628 60.7035C88.3038 61.4149 89.1646 61.7706 90.2104 61.7706C90.8364 61.7706 91.4731 61.6106 92.1205 61.2904C92.775 60.9703 93.3228 60.4794 93.7639 59.8178C94.2121 59.1562 94.4362 58.3132 94.4362 57.2887ZM104.086 54.1301V63.9902H101.567V47.5993H104V50.1604H104.214C104.598 49.3281 105.181 48.6593 105.964 48.1542C106.746 47.642 107.756 47.3859 108.994 47.3859C110.104 47.3859 111.075 47.6136 111.908 48.0689C112.74 48.517 113.387 49.2 113.85 50.1177C114.312 51.0283 114.543 52.1808 114.543 53.5752V63.9902H112.025V53.7459C112.025 52.4583 111.691 51.4552 111.022 50.7366C110.353 50.011 109.435 49.6482 108.269 49.6482C107.465 49.6482 106.746 49.8225 106.113 50.1711C105.487 50.5197 104.993 51.0283 104.63 51.6971C104.267 52.3658 104.086 53.1768 104.086 54.1301ZM131.31 63.9902L126.316 47.5993H128.963L132.506 60.1486H132.676L136.176 47.5993H138.866L142.323 60.1059H142.494L146.037 47.5993H148.683L143.689 63.9902H141.213L137.628 51.3983H137.372L133.786 63.9902H131.31ZM152.012 63.9902V47.5993H154.531V63.9902H152.012ZM153.293 44.8675C152.802 44.8675 152.379 44.7003 152.023 44.366C151.675 44.0316 151.5 43.6297 151.5 43.1601C151.5 42.6906 151.675 42.2886 152.023 41.9543C152.379 41.6199 152.802 41.4527 153.293 41.4527C153.784 41.4527 154.204 41.6199 154.552 41.9543C154.908 42.2886 155.086 42.6906 155.086 43.1601C155.086 43.6297 154.908 44.0316 154.552 44.366C154.204 44.7003 153.784 44.8675 153.293 44.8675ZM166.272 47.5993V49.7336H157.778V47.5993H166.272ZM160.253 43.6723H162.772V59.2949C162.772 60.0063 162.875 60.5399 163.081 60.8956C163.295 61.2442 163.565 61.479 163.892 61.5999C164.226 61.7137 164.579 61.7706 164.949 61.7706C165.226 61.7706 165.454 61.7564 165.632 61.7279C165.809 61.6924 165.952 61.6639 166.058 61.6426L166.571 63.9049C166.4 63.9689 166.162 64.0329 165.856 64.0969C165.55 64.1681 165.162 64.2037 164.692 64.2037C163.981 64.2037 163.284 64.0507 162.601 63.7448C161.925 63.4389 161.363 62.9729 160.915 62.3469C160.474 61.7208 160.253 60.9312 160.253 59.9779V43.6723ZM172.931 54.1301V63.9902H170.412V42.1357H172.931V50.1604H173.144C173.528 49.3138 174.104 48.6415 174.873 48.1436C175.648 47.6385 176.68 47.3859 177.967 47.3859C179.084 47.3859 180.062 47.61 180.902 48.0582C181.741 48.4993 182.392 49.1787 182.855 50.0964C183.324 51.007 183.559 52.1666 183.559 53.5752V63.9902H181.041V53.7459C181.041 52.444 180.703 51.4374 180.027 50.726C179.358 50.0075 178.43 49.6482 177.242 49.6482C176.417 49.6482 175.677 49.8225 175.022 50.1711C174.375 50.5197 173.863 51.0283 173.485 51.6971C173.116 52.3658 172.931 53.1768 172.931 54.1301ZM196.618 63.9902V47.5993H199.136V63.9902H196.618ZM197.898 44.8675C197.408 44.8675 196.984 44.7003 196.629 44.366C196.28 44.0316 196.106 43.6297 196.106 43.1601C196.106 42.6906 196.28 42.2886 196.629 41.9543C196.984 41.6199 197.408 41.4527 197.898 41.4527C198.389 41.4527 198.809 41.6199 199.158 41.9543C199.513 42.2886 199.691 42.6906 199.691 43.1601C199.691 43.6297 199.513 44.0316 199.158 44.366C198.809 44.7003 198.389 44.8675 197.898 44.8675ZM206.267 54.1301V63.9902H203.749V47.5993H206.182V50.1604H206.395C206.78 49.3281 207.363 48.6593 208.145 48.1542C208.928 47.642 209.938 47.3859 211.176 47.3859C212.286 47.3859 213.257 47.6136 214.089 48.0689C214.922 48.517 215.569 49.2 216.031 50.1177C216.494 51.0283 216.725 52.1808 216.725 53.5752V63.9902H214.207V53.7459C214.207 52.4583 213.872 51.4552 213.204 50.7366C212.535 50.011 211.617 49.6482 210.45 49.6482C209.647 49.6482 208.928 49.8225 208.295 50.1711C207.669 50.5197 207.174 51.0283 206.812 51.6971C206.449 52.3658 206.267 53.1768 206.267 54.1301ZM228.626 47.5993V49.7336H219.79V47.5993H228.626ZM222.437 63.9902V45.337C222.437 44.398 222.657 43.6154 223.098 42.9894C223.539 42.3633 224.112 41.8938 224.816 41.5808C225.521 41.2678 226.264 41.1113 227.047 41.1113C227.666 41.1113 228.171 41.1611 228.562 41.2607C228.953 41.3603 229.245 41.4527 229.437 41.5381L228.711 43.715C228.583 43.6723 228.406 43.619 228.178 43.555C227.957 43.4909 227.666 43.4589 227.303 43.4589C226.47 43.4589 225.869 43.6688 225.499 44.0885C225.137 44.5082 224.955 45.1236 224.955 45.9346V63.9902H222.437ZM234.674 42.1357V63.9902H232.156V42.1357H234.674ZM249.616 57.2887V47.5993H252.135V63.9902H249.616V61.2157H249.446C249.061 62.0481 248.464 62.7559 247.653 63.3393C246.842 63.9155 245.817 64.2037 244.579 64.2037C243.555 64.2037 242.644 63.9796 241.848 63.5314C241.051 63.0761 240.425 62.3931 239.97 61.4825C239.514 60.5648 239.287 59.4087 239.287 58.0144V47.5993H241.805V57.8436C241.805 59.0388 242.139 59.9921 242.808 60.7035C243.484 61.4149 244.345 61.7706 245.39 61.7706C246.017 61.7706 246.653 61.6106 247.301 61.2904C247.955 60.9703 248.503 60.4794 248.944 59.8178C249.392 59.1562 249.616 58.3132 249.616 57.2887ZM263.619 64.3317C262.04 64.3317 260.678 63.9831 259.532 63.2859C258.394 62.5816 257.516 61.5999 256.897 60.3407C256.285 59.0744 255.979 57.6018 255.979 55.9228C255.979 54.2439 256.285 52.7642 256.897 51.4836C257.516 50.196 258.376 49.1929 259.479 48.4744C260.589 47.7487 261.884 47.3859 263.363 47.3859C264.217 47.3859 265.06 47.5282 265.892 47.8127C266.725 48.0973 267.482 48.5597 268.165 49.2C268.848 49.8332 269.393 50.6726 269.798 51.7184C270.204 52.7642 270.406 54.0518 270.406 55.5814V56.6485H257.772V54.4716H267.845C267.845 53.5467 267.66 52.7215 267.29 51.9958C266.928 51.2702 266.408 50.6975 265.732 50.2778C265.064 49.8581 264.274 49.6482 263.363 49.6482C262.36 49.6482 261.492 49.8972 260.76 50.3952C260.034 50.886 259.476 51.5263 259.084 52.316C258.693 53.1056 258.497 53.9522 258.497 54.8557V56.307C258.497 57.5449 258.711 58.5942 259.138 59.455C259.572 60.3087 260.173 60.9596 260.941 61.4078C261.709 61.8489 262.602 62.0694 263.619 62.0694C264.281 62.0694 264.879 61.9769 265.412 61.792C265.953 61.5999 266.419 61.3153 266.81 60.9383C267.201 60.5541 267.504 60.0775 267.717 59.5083L270.15 60.1913C269.894 61.0165 269.464 61.7422 268.859 62.3682C268.254 62.9871 267.507 63.4709 266.618 63.8195C265.729 64.161 264.729 64.3317 263.619 64.3317ZM276.756 54.1301V63.9902H274.237V47.5993H276.67V50.1604H276.884C277.268 49.3281 277.851 48.6593 278.634 48.1542C279.416 47.642 280.427 47.3859 281.664 47.3859C282.774 47.3859 283.745 47.6136 284.578 48.0689C285.41 48.517 286.057 49.2 286.52 50.1177C286.982 51.0283 287.213 52.1808 287.213 53.5752V63.9902H284.695V53.7459C284.695 52.4583 284.361 51.4552 283.692 50.7366C283.023 50.011 282.105 49.6482 280.939 49.6482C280.135 49.6482 279.416 49.8225 278.783 50.1711C278.157 50.5197 277.663 51.0283 277.3 51.6971C276.937 52.3658 276.756 53.1768 276.756 54.1301ZM298.474 64.3317C296.938 64.3317 295.614 63.9689 294.504 63.2433C293.395 62.5176 292.541 61.5181 291.943 60.2447C291.346 58.9712 291.047 57.5164 291.047 55.8801C291.047 54.2154 291.353 52.7464 291.965 51.473C292.584 50.1924 293.444 49.1929 294.547 48.4744C295.657 47.7487 296.952 47.3859 298.431 47.3859C299.584 47.3859 300.623 47.5993 301.547 48.0262C302.472 48.453 303.23 49.0506 303.82 49.8189C304.411 50.5873 304.777 51.4836 304.92 52.5081H302.401C302.209 51.7611 301.782 51.0995 301.121 50.5232C300.466 49.9399 299.584 49.6482 298.474 49.6482C297.492 49.6482 296.632 49.9043 295.892 50.4165C295.159 50.9216 294.586 51.6366 294.174 52.5614C293.768 53.4791 293.565 54.5569 293.565 55.7948C293.565 57.0611 293.765 58.1638 294.163 59.1028C294.569 60.0419 295.138 60.7711 295.87 61.2904C296.61 61.8098 297.478 62.0694 298.474 62.0694C299.129 62.0694 299.723 61.9556 300.256 61.7279C300.79 61.5003 301.242 61.173 301.611 60.7462C301.981 60.3194 302.245 59.8071 302.401 59.2096H304.92C304.777 60.1771 304.425 61.0485 303.863 61.824C303.308 62.5923 302.572 63.2041 301.654 63.6594C300.744 64.1076 299.684 64.3317 298.474 64.3317ZM315.473 64.3317C313.894 64.3317 312.532 63.9831 311.386 63.2859C310.248 62.5816 309.369 61.5999 308.751 60.3407C308.139 59.0744 307.833 57.6018 307.833 55.9228C307.833 54.2439 308.139 52.7642 308.751 51.4836C309.369 50.196 310.23 49.1929 311.333 48.4744C312.443 47.7487 313.738 47.3859 315.217 47.3859C316.071 47.3859 316.914 47.5282 317.746 47.8127C318.579 48.0973 319.336 48.5597 320.019 49.2C320.702 49.8332 321.246 50.6726 321.652 51.7184C322.057 52.7642 322.26 54.0518 322.26 55.5814V56.6485H309.626V54.4716H319.699C319.699 53.5467 319.514 52.7215 319.144 51.9958C318.781 51.2702 318.262 50.6975 317.586 50.2778C316.918 49.8581 316.128 49.6482 315.217 49.6482C314.214 49.6482 313.346 49.8972 312.613 50.3952C311.888 50.886 311.329 51.5263 310.938 52.316C310.547 53.1056 310.351 53.9522 310.351 54.8557V56.307C310.351 57.5449 310.565 58.5942 310.991 59.455C311.425 60.3087 312.027 60.9596 312.795 61.4078C313.563 61.8489 314.456 62.0694 315.473 62.0694C316.135 62.0694 316.733 61.9769 317.266 61.792C317.807 61.5999 318.273 61.3153 318.664 60.9383C319.055 60.5541 319.358 60.0775 319.571 59.5083L322.004 60.1913C321.748 61.0165 321.318 61.7422 320.713 62.3682C320.108 62.9871 319.361 63.4709 318.472 63.8195C317.583 64.161 316.583 64.3317 315.473 64.3317ZM326.091 63.9902V47.5993H328.524V50.075H328.695C328.994 49.264 329.534 48.606 330.317 48.1009C331.099 47.5958 331.982 47.3432 332.963 47.3432C333.148 47.3432 333.38 47.3468 333.657 47.3539C333.934 47.361 334.144 47.3717 334.287 47.3859V49.947C334.201 49.9256 334.006 49.8936 333.7 49.8509C333.401 49.8011 333.084 49.7762 332.75 49.7762C331.953 49.7762 331.242 49.9434 330.616 50.2778C329.997 50.605 329.506 51.0603 329.143 51.6437C328.787 52.2199 328.61 52.878 328.61 53.6179V63.9902H326.091ZM353.364 42.1357V63.9902H350.718V44.9102H350.589L345.254 48.453V45.7639L350.718 42.1357H353.364ZM366.778 64.289C365.17 64.289 363.8 63.8515 362.669 62.9765C361.538 62.0943 360.674 60.8173 360.076 59.1455C359.479 57.4666 359.18 55.4391 359.18 53.063C359.18 50.7011 359.479 48.6842 360.076 47.0124C360.681 45.3335 361.549 44.0529 362.68 43.1708C363.818 42.2815 365.184 41.8369 366.778 41.8369C368.371 41.8369 369.734 42.2815 370.865 43.1708C372.003 44.0529 372.871 45.3335 373.468 47.0124C374.073 48.6842 374.375 50.7011 374.375 53.063C374.375 55.4391 374.077 57.4666 373.479 59.1455C372.882 60.8173 372.017 62.0943 370.886 62.9765C369.755 63.8515 368.385 64.289 366.778 64.289ZM366.778 61.9414C368.371 61.9414 369.609 61.173 370.491 59.6364C371.373 58.0998 371.814 55.9086 371.814 53.063C371.814 51.1706 371.612 49.5593 371.206 48.2289C370.808 46.8986 370.232 45.8848 369.477 45.1876C368.73 44.4905 367.831 44.1419 366.778 44.1419C365.198 44.1419 363.964 44.9209 363.075 46.4789C362.185 48.0297 361.741 50.2244 361.741 53.063C361.741 54.9553 361.94 56.5631 362.338 57.8863C362.737 59.2096 363.309 60.2162 364.056 60.9063C364.811 61.5963 365.718 61.9414 366.778 61.9414ZM387.266 63.9902V42.1357H389.913V52.9776H390.169L399.986 42.1357H403.444L394.267 51.9958L403.444 63.9902H400.242L392.645 53.8313L389.913 56.9046V63.9902H387.266ZM411.983 64.3317C410.504 64.3317 409.205 63.9796 408.088 63.2753C406.979 62.571 406.111 61.5857 405.485 60.3194C404.866 59.053 404.556 57.5733 404.556 55.8801C404.556 54.1728 404.866 52.6824 405.485 51.4089C406.111 50.1355 406.979 49.1466 408.088 48.4423C409.205 47.7381 410.504 47.3859 411.983 47.3859C413.463 47.3859 414.758 47.7381 415.868 48.4423C416.985 49.1466 417.852 50.1355 418.471 51.4089C419.097 52.6824 419.41 54.1728 419.41 55.8801C419.41 57.5733 419.097 59.053 418.471 60.3194C417.852 61.5857 416.985 62.571 415.868 63.2753C414.758 63.9796 413.463 64.3317 411.983 64.3317ZM411.983 62.0694C413.107 62.0694 414.032 61.7813 414.758 61.2051C415.483 60.6288 416.021 59.8712 416.369 58.9321C416.718 57.993 416.892 56.9757 416.892 55.8801C416.892 54.7846 416.718 53.7637 416.369 52.8175C416.021 51.8713 415.483 51.1066 414.758 50.5232C414.032 49.9399 413.107 49.6482 411.983 49.6482C410.859 49.6482 409.934 49.9399 409.209 50.5232C408.483 51.1066 407.946 51.8713 407.597 52.8175C407.249 53.7637 407.075 54.7846 407.075 55.8801C407.075 56.9757 407.249 57.993 407.597 58.9321C407.946 59.8712 408.483 60.6288 409.209 61.2051C409.934 61.7813 410.859 62.0694 411.983 62.0694ZM430.383 47.5993V49.7336H421.889V47.5993H430.383ZM424.365 43.6723H426.883V59.2949C426.883 60.0063 426.986 60.5399 427.192 60.8956C427.406 61.2442 427.676 61.479 428.003 61.5999C428.338 61.7137 428.69 61.7706 429.06 61.7706C429.337 61.7706 429.565 61.7564 429.743 61.7279C429.921 61.6924 430.063 61.6639 430.17 61.6426L430.682 63.9049C430.511 63.9689 430.273 64.0329 429.967 64.0969C429.661 64.1681 429.273 64.2037 428.804 64.2037C428.092 64.2037 427.395 64.0507 426.712 63.7448C426.036 63.4389 425.474 62.9729 425.026 62.3469C424.585 61.7208 424.365 60.9312 424.365 59.9779V43.6723ZM438.995 64.3744C437.956 64.3744 437.013 64.1788 436.167 63.7875C435.32 63.3891 434.648 62.8164 434.15 62.0694C433.652 61.3153 433.403 60.4047 433.403 59.3376C433.403 58.3985 433.588 57.6373 433.958 57.054C434.328 56.4635 434.822 56.0011 435.441 55.6667C436.06 55.3324 436.743 55.0834 437.49 54.9197C438.244 54.749 439.002 54.6138 439.763 54.5142C440.759 54.3862 441.566 54.2901 442.185 54.2261C442.811 54.155 443.267 54.0376 443.551 53.874C443.843 53.7103 443.989 53.4258 443.989 53.0203V52.9349C443.989 51.882 443.701 51.0639 443.124 50.4805C442.555 49.8972 441.691 49.6055 440.531 49.6055C439.329 49.6055 438.386 49.8687 437.704 50.3952C437.021 50.9216 436.54 51.4836 436.263 52.0812L433.873 51.2275C434.299 50.2315 434.869 49.4561 435.58 48.9012C436.298 48.3392 437.081 47.9479 437.928 47.7274C438.781 47.4997 439.621 47.3859 440.446 47.3859C440.972 47.3859 441.577 47.4499 442.26 47.578C442.95 47.6989 443.615 47.9515 444.256 48.3356C444.903 48.7198 445.44 49.2996 445.867 50.075C446.294 50.8505 446.507 51.8891 446.507 53.191V63.9902H443.989V61.7706H443.861C443.69 62.1263 443.405 62.5069 443.007 62.9124C442.609 63.318 442.079 63.663 441.417 63.9475C440.755 64.2321 439.948 64.3744 438.995 64.3744ZM439.379 62.1121C440.375 62.1121 441.214 61.9165 441.897 61.5252C442.587 61.1339 443.107 60.6288 443.455 60.0099C443.811 59.391 443.989 58.74 443.989 58.0571V55.7521C443.882 55.8801 443.647 55.9975 443.285 56.1042C442.929 56.2038 442.516 56.2928 442.047 56.371C441.584 56.4422 441.133 56.5062 440.691 56.5631C440.257 56.6129 439.905 56.6556 439.635 56.6912C438.981 56.7765 438.369 56.9153 437.8 57.1073C437.238 57.2923 436.782 57.5733 436.434 57.9504C436.092 58.3203 435.921 58.8254 435.921 59.4657C435.921 60.3407 436.245 61.0023 436.893 61.4505C437.547 61.8916 438.376 62.1121 439.379 62.1121Z" fill="white"/>
<path d="M72.9951 82.7856H78.8429V97.7679C78.8358 99.1907 78.4766 100.443 77.7651 101.524C77.0608 102.598 76.0862 103.438 74.8412 104.043C73.6034 104.64 72.177 104.939 70.5621 104.939C69.1606 104.939 67.8801 104.697 66.7205 104.213C65.5609 103.722 64.6361 102.954 63.946 101.908C63.2559 100.855 62.9144 99.4895 62.9216 97.8106H68.8547C68.8761 98.3584 68.9685 98.8208 69.1322 99.1978C69.3029 99.5749 69.5377 99.8595 69.8365 100.052C70.1424 100.237 70.5123 100.329 70.9463 100.329C71.3873 100.329 71.7573 100.233 72.0561 100.041C72.362 99.8488 72.5932 99.5642 72.7497 99.1872C72.9062 98.803 72.988 98.3299 72.9951 97.7679V82.7856ZM92.3686 97.4691V88.2492H98.2591V104.64H92.6674V101.524H92.4967C92.141 102.57 91.5185 103.388 90.6292 103.979C89.74 104.562 88.6835 104.854 87.4599 104.854C86.3145 104.854 85.3114 104.59 84.4506 104.064C83.5969 103.537 82.9318 102.812 82.4551 101.887C81.9856 100.962 81.7473 99.9021 81.7402 98.707V88.2492H87.6306V97.4691C87.6378 98.2801 87.8441 98.9168 88.2496 99.3793C88.6622 99.8417 89.2384 100.073 89.9783 100.073C90.4692 100.073 90.8925 99.9697 91.2482 99.7634C91.611 99.55 91.8884 99.2512 92.0805 98.867C92.2797 98.4758 92.3757 98.0098 92.3686 97.4691ZM107.146 82.7856V104.64H101.255V82.7856H107.146ZM110.147 104.64V88.2492H116.037V104.64H110.147ZM113.092 86.5418C112.295 86.5418 111.612 86.2786 111.043 85.7522C110.474 85.2257 110.189 84.5926 110.189 83.8527C110.189 83.1128 110.474 82.4797 111.043 81.9532C111.612 81.4268 112.295 81.1636 113.092 81.1636C113.896 81.1636 114.579 81.4268 115.141 81.9532C115.71 82.4797 115.995 83.1128 115.995 83.8527C115.995 84.5926 115.71 85.2257 115.141 85.7522C114.579 86.2786 113.896 86.5418 113.092 86.5418ZM135.782 91.4933V95.9325H125.537V91.4933H135.782ZM156.969 89.6151C156.912 88.9037 156.646 88.3488 156.169 87.9504C155.699 87.552 154.984 87.3528 154.024 87.3528C153.412 87.3528 152.911 87.4275 152.519 87.5769C152.135 87.7192 151.851 87.9149 151.666 88.1639C151.481 88.4129 151.385 88.6974 151.378 89.0176C151.363 89.2808 151.41 89.5191 151.516 89.7325C151.63 89.9388 151.808 90.1274 152.05 90.2981C152.292 90.4617 152.601 90.6111 152.978 90.7463C153.355 90.8814 153.803 91.0024 154.323 91.1091L156.115 91.4933C157.325 91.7494 158.36 92.0873 159.221 92.507C160.082 92.9268 160.786 93.4212 161.334 93.9903C161.881 94.5523 162.283 95.1855 162.54 95.8898C162.803 96.5941 162.938 97.3624 162.945 98.1948C162.938 99.6318 162.579 100.848 161.867 101.844C161.156 102.84 160.139 103.598 158.815 104.117C157.499 104.637 155.916 104.896 154.067 104.896C152.167 104.896 150.51 104.615 149.094 104.053C147.685 103.491 146.59 102.627 145.807 101.46C145.032 100.286 144.64 98.7852 144.633 96.9569H150.268C150.303 97.6256 150.47 98.1876 150.769 98.6429C151.068 99.0982 151.488 99.4433 152.028 99.678C152.576 99.9128 153.227 100.03 153.981 100.03C154.614 100.03 155.144 99.9519 155.571 99.7954C155.998 99.6389 156.322 99.4219 156.542 99.1445C156.763 98.867 156.877 98.5505 156.884 98.1948C156.877 97.8604 156.766 97.5687 156.553 97.3197C156.347 97.0636 156.005 96.836 155.529 96.6368C155.052 96.4305 154.408 96.2384 153.597 96.0605L151.42 95.591C149.485 95.1713 147.959 94.4705 146.842 93.4888C145.732 92.4999 145.181 91.1518 145.188 89.4444C145.181 88.0571 145.551 86.8442 146.298 85.8055C147.052 84.7598 148.094 83.9452 149.425 83.3618C150.762 82.7785 152.295 82.4868 154.024 82.4868C155.788 82.4868 157.314 82.782 158.602 83.3725C159.89 83.963 160.882 84.7953 161.579 85.8696C162.283 86.9367 162.639 88.1852 162.646 89.6151H156.969ZM173.141 104.939C171.391 104.939 169.883 104.605 168.617 103.936C167.358 103.26 166.386 102.292 165.704 101.033C165.028 99.767 164.69 98.2517 164.69 96.4874C164.69 94.7942 165.031 93.3145 165.714 92.0482C166.397 90.7819 167.361 89.7965 168.606 89.0923C169.851 88.388 171.32 88.0358 173.013 88.0358C174.251 88.0358 175.372 88.2279 176.375 88.612C177.378 88.9962 178.235 89.5547 178.946 90.2874C179.658 91.0131 180.206 91.8952 180.59 92.9339C180.974 93.9725 181.166 95.1428 181.166 96.4447V97.8106H166.525V94.5666H175.745C175.738 94.097 175.617 93.6844 175.382 93.3287C175.155 92.9659 174.845 92.6849 174.454 92.4857C174.07 92.2794 173.632 92.1762 173.141 92.1762C172.665 92.1762 172.227 92.2794 171.829 92.4857C171.43 92.6849 171.11 92.9623 170.868 93.318C170.634 93.6737 170.509 94.0899 170.495 94.5666V98.0667C170.495 98.5931 170.605 99.0627 170.826 99.4753C171.046 99.8879 171.363 100.212 171.775 100.446C172.188 100.681 172.686 100.799 173.269 100.799C173.675 100.799 174.045 100.742 174.379 100.628C174.721 100.514 175.012 100.35 175.254 100.137C175.496 99.9164 175.674 99.6531 175.788 99.3472H181.166C180.981 100.485 180.544 101.474 179.854 102.314C179.163 103.146 178.249 103.794 177.111 104.256C175.98 104.711 174.657 104.939 173.141 104.939ZM183.57 110.787V88.2492H189.418V91.1091H189.546C189.759 90.5542 190.072 90.0455 190.485 89.5831C190.897 89.1136 191.409 88.7401 192.021 88.4627C192.633 88.1781 193.345 88.0358 194.156 88.0358C195.237 88.0358 196.265 88.3239 197.24 88.9002C198.221 89.4764 199.018 90.3835 199.63 91.6213C200.249 92.8592 200.558 94.467 200.558 96.4447C200.558 98.337 200.263 99.9057 199.673 101.151C199.089 102.396 198.307 103.324 197.325 103.936C196.35 104.548 195.28 104.854 194.113 104.854C193.345 104.854 192.658 104.729 192.053 104.48C191.456 104.224 190.944 103.879 190.517 103.445C190.097 103.004 189.773 102.506 189.546 101.951H189.46V110.787H183.57ZM189.332 96.4447C189.332 97.2415 189.435 97.9315 189.642 98.5149C189.855 99.0911 190.154 99.5393 190.538 99.8595C190.929 100.172 191.395 100.329 191.936 100.329C192.477 100.329 192.935 100.176 193.313 99.8701C193.697 99.5571 193.988 99.1125 194.188 98.5362C194.394 97.9529 194.497 97.2557 194.497 96.4447C194.497 95.6337 194.394 94.94 194.188 94.3638C193.988 93.7804 193.697 93.3358 193.313 93.0299C192.935 92.7169 192.477 92.5604 191.936 92.5604C191.395 92.5604 190.929 92.7169 190.538 93.0299C190.154 93.3358 189.855 93.7804 189.642 94.3638C189.435 94.94 189.332 95.6337 189.332 96.4447ZM212.801 88.2492V92.5177H202.002V88.2492H212.801ZM204.093 84.3222H209.984V99.3686C209.984 99.5962 210.023 99.7883 210.101 99.9448C210.179 100.094 210.3 100.208 210.464 100.286C210.627 100.357 210.837 100.393 211.093 100.393C211.271 100.393 211.478 100.372 211.712 100.329C211.954 100.286 212.132 100.251 212.246 100.222L213.1 104.363C212.836 104.441 212.459 104.537 211.968 104.651C211.485 104.765 210.908 104.839 210.24 104.875C208.888 104.946 207.753 104.807 206.836 104.459C205.918 104.103 205.228 103.545 204.765 102.783C204.303 102.022 204.079 101.069 204.093 99.9235V84.3222ZM222.882 104.939C221.132 104.939 219.624 104.605 218.358 103.936C217.099 103.26 216.127 102.292 215.445 101.033C214.769 99.767 214.431 98.2517 214.431 96.4874C214.431 94.7942 214.772 93.3145 215.455 92.0482C216.138 90.7819 217.102 89.7965 218.347 89.0923C219.592 88.388 221.061 88.0358 222.754 88.0358C223.992 88.0358 225.113 88.2279 226.116 88.612C227.119 88.9962 227.976 89.5547 228.687 90.2874C229.399 91.0131 229.947 91.8952 230.331 92.9339C230.715 93.9725 230.907 95.1428 230.907 96.4447V97.8106H216.266V94.5666H225.486C225.479 94.097 225.358 93.6844 225.123 93.3287C224.896 92.9659 224.586 92.6849 224.195 92.4857C223.811 92.2794 223.373 92.1762 222.882 92.1762C222.406 92.1762 221.968 92.2794 221.57 92.4857C221.171 92.6849 220.851 92.9623 220.609 93.318C220.375 93.6737 220.25 94.0899 220.236 94.5666V98.0667C220.236 98.5931 220.346 99.0627 220.567 99.4753C220.787 99.8879 221.104 100.212 221.516 100.446C221.929 100.681 222.427 100.799 223.01 100.799C223.416 100.799 223.786 100.742 224.12 100.628C224.462 100.514 224.753 100.35 224.995 100.137C225.237 99.9164 225.415 99.6531 225.529 99.3472H230.907C230.722 100.485 230.285 101.474 229.594 102.314C228.904 103.146 227.99 103.794 226.852 104.256C225.721 104.711 224.398 104.939 222.882 104.939ZM233.311 104.64V88.2492H238.902V91.3652H239.073C239.415 90.3408 239.998 89.5298 240.823 88.9322C241.648 88.3346 242.63 88.0358 243.768 88.0358C244.921 88.0358 245.913 88.3417 246.746 88.9535C247.578 89.5582 248.08 90.3621 248.25 91.3652H248.421C248.699 90.3621 249.289 89.5582 250.192 88.9535C251.096 88.3417 252.156 88.0358 253.372 88.0358C254.945 88.0358 256.218 88.5409 257.193 89.5511C258.175 90.5613 258.665 91.9059 258.665 93.5848V104.64H252.775V95.0788C252.775 94.3602 252.593 93.7982 252.231 93.3927C251.868 92.9801 251.381 92.7738 250.769 92.7738C250.164 92.7738 249.684 92.9801 249.328 93.3927C248.98 93.7982 248.805 94.3602 248.805 95.0788V104.64H243.171V95.0788C243.171 94.3602 242.989 93.7982 242.627 93.3927C242.264 92.9801 241.776 92.7738 241.165 92.7738C240.759 92.7738 240.411 92.8663 240.119 93.0513C239.827 93.2362 239.6 93.503 239.436 93.8516C239.279 94.1931 239.201 94.6021 239.201 95.0788V104.64H233.311ZM261.485 104.64V82.7856H267.376V91.1091H267.461C267.675 90.5542 267.988 90.0455 268.4 89.5831C268.813 89.1136 269.325 88.7401 269.937 88.4627C270.549 88.1781 271.26 88.0358 272.071 88.0358C273.152 88.0358 274.18 88.3239 275.155 88.9002C276.137 89.4764 276.934 90.3835 277.545 91.6213C278.164 92.8592 278.474 94.467 278.474 96.4447C278.474 98.337 278.179 99.9057 277.588 101.151C277.005 102.396 276.222 103.324 275.24 103.936C274.266 104.548 273.195 104.854 272.028 104.854C271.26 104.854 270.574 104.729 269.969 104.48C269.371 104.224 268.859 103.879 268.432 103.445C268.012 103.004 267.689 102.506 267.461 101.951H267.333V104.64H261.485ZM267.248 96.4447C267.248 97.2415 267.351 97.9315 267.557 98.5149C267.771 99.0911 268.069 99.5393 268.454 99.8595C268.845 100.172 269.311 100.329 269.851 100.329C270.392 100.329 270.851 100.176 271.228 99.8701C271.612 99.5571 271.904 99.1125 272.103 98.5362C272.309 97.9529 272.413 97.2557 272.413 96.4447C272.413 95.6337 272.309 94.94 272.103 94.3638C271.904 93.7804 271.612 93.3358 271.228 93.0299C270.851 92.7169 270.392 92.5604 269.851 92.5604C269.311 92.5604 268.845 92.7169 268.454 93.0299C268.069 93.3358 267.771 93.7804 267.557 94.3638C267.351 94.94 267.248 95.6337 267.248 96.4447ZM288.793 104.939C287.043 104.939 285.535 104.605 284.268 103.936C283.009 103.26 282.038 102.292 281.355 101.033C280.679 99.767 280.341 98.2517 280.341 96.4874C280.341 94.7942 280.683 93.3145 281.366 92.0482C282.049 90.7819 283.013 89.7965 284.258 89.0923C285.502 88.388 286.972 88.0358 288.665 88.0358C289.903 88.0358 291.023 88.2279 292.026 88.612C293.029 88.9962 293.886 89.5547 294.598 90.2874C295.309 91.0131 295.857 91.8952 296.241 92.9339C296.625 93.9725 296.817 95.1428 296.817 96.4447V97.8106H282.177V94.5666H291.397C291.389 94.097 291.268 93.6844 291.034 93.3287C290.806 92.9659 290.497 92.6849 290.105 92.4857C289.721 92.2794 289.284 92.1762 288.793 92.1762C288.316 92.1762 287.879 92.2794 287.48 92.4857C287.082 92.6849 286.762 92.9623 286.52 93.318C286.285 93.6737 286.161 94.0899 286.146 94.5666V98.0667C286.146 98.5931 286.257 99.0627 286.477 99.4753C286.698 99.8879 287.014 100.212 287.427 100.446C287.839 100.681 288.337 100.799 288.921 100.799C289.326 100.799 289.696 100.742 290.031 100.628C290.372 100.514 290.664 100.35 290.906 100.137C291.148 99.9164 291.325 99.6531 291.439 99.3472H296.817C296.633 100.485 296.195 101.474 295.505 102.314C294.815 103.146 293.901 103.794 292.762 104.256C291.631 104.711 290.308 104.939 288.793 104.939ZM299.221 104.64V88.2492H304.941V91.3652H305.112C305.41 90.2127 305.884 89.3697 306.531 88.8361C307.185 88.3026 307.95 88.0358 308.825 88.0358C309.081 88.0358 309.334 88.0571 309.583 88.0998C309.839 88.1354 310.084 88.1888 310.319 88.2599V93.286C310.027 93.1864 309.668 93.1117 309.241 93.0619C308.815 93.0121 308.448 92.9872 308.142 92.9872C307.566 92.9872 307.047 93.1188 306.584 93.3821C306.129 93.6382 305.77 94.001 305.506 94.4705C305.243 94.9329 305.112 95.4772 305.112 96.1032V104.64H299.221Z" fill="white"/>
</g>
<defs>
<clipPath id="clip0_791_98">
<rect width="784.83" height="280.65" fill="white"/>
</clipPath>
</defs>
</svg>
